<?xml version="1.0" encoding="UTF-8" standalone="no"?>
<!-- Created with Inkscape (http://www.inkscape.org/) -->

<svg
   xmlns:dc="http://purl.org/dc/elements/1.1/"
   xmlns:cc="http://creativecommons.org/ns#"
   xmlns:rdf="http://www.w3.org/1999/02/22-rdf-syntax-ns#"
   xmlns:svg="http://www.w3.org/2000/svg"
   xmlns="http://www.w3.org/2000/svg"
   xmlns:sodipodi="http://sodipodi.sourceforge.net/DTD/sodipodi-0.dtd"
   xmlns:inkscape="http://www.inkscape.org/namespaces/inkscape"
   width="200pt"
   height="200pt"
   viewBox="0 0 250.00001 250"
   id="svg2"
   version="1.1"
   inkscape:version="0.91 r13725"
   sodipodi:docname="scene1b_pad_number7-230-230.svg">
  <defs
     id="defs4" />
  <sodipodi:namedview
     id="base"
     pagecolor="#ffffff"
     bordercolor="#666666"
     borderopacity="1.0"
     inkscape:pageopacity="0"
     inkscape:pageshadow="2"
     inkscape:zoom="1.87"
     inkscape:cx="69.834246"
     inkscape:cy="164.1536"
     inkscape:document-units="px"
     inkscape:current-layer="layer2"
     showgrid="false"
     showguides="false"
     inkscape:window-width="1855"
     inkscape:window-height="1056"
     inkscape:window-x="65"
     inkscape:window-y="24"
     inkscape:window-maximized="1"
     inkscape:showpageshadow="false"
     units="pt" />
  <metadata
     id="metadata7">
    <rdf:RDF>
      <cc:Work
         rdf:about="">
        <dc:format>image/svg+xml</dc:format>
        <dc:type
           rdf:resource="http://purl.org/dc/dcmitype/StillImage" />
        <dc:title />
      </cc:Work>
    </rdf:RDF>
  </metadata>
  <g
     inkscape:groupmode="layer"
     id="layer1"
     inkscape:label="Image"
     style="opacity:0.43500001"
     sodipodi:insensitive="true"
     transform="translate(0,-1100.0001)" />
  <g
     inkscape:groupmode="layer"
     id="layer2"
     inkscape:label="Paint"
     style="display:inline;opacity:1"
     transform="translate(0,-802.36235)">
    <path
       style="fill:#ffcc00;fill-opacity:1;stroke:none;stroke-width:12.94999981;stroke-linecap:round;stroke-linejoin:round;stroke-miterlimit:4;stroke-dasharray:none;stroke-opacity:1"
       id="path4164"
       d="m 28.853977,811.98801 c 6.845346,0.0317 13.251255,1.82437 19.655943,4.07468 6.791993,2.4908 13.161471,5.93494 19.352592,9.64209 2.941616,1.83786 5.756775,3.86294 8.554915,5.90873 1.049438,0.76727 2.093765,1.61321 3.223132,2.27063 -0.98631,-0.74906 -2.194855,-1.17457 -3.327352,-1.62808 -0.210885,-0.0845 -0.867002,-0.26919 -0.645652,-0.21811 0.68179,0.15731 1.347653,0.37709 2.022679,0.56128 -0.989402,-0.23699 1.26566,0.23862 1.38453,0.22322 1.746725,-0.002 3.486164,0.17372 5.219383,0.37511 36.403943,4.48192 30.065543,55.96487 -6.338397,51.48295 l 0,0 c 0.339954,0.007 1.358088,-0.0148 1.019861,0.0201 -0.368873,0.038 -0.741495,-0.0162 -1.112115,-0.0286 -1.469197,-0.0491 -2.937813,-0.13062 -4.400358,-0.28239 -3.207103,-0.37892 -6.384679,-0.93726 -9.507729,-1.77021 -4.393813,-1.21087 -8.647391,-2.59571 -12.473235,-5.17186 -3.547689,-2.33454 -6.912923,-4.91749 -10.410213,-7.32508 -3.253469,-1.98726 -6.590544,-3.86629 -10.147984,-5.2602 -0.773645,-0.29989 -1.528723,-0.5834 -2.304368,-0.86304 -0.117498,-0.0424 -0.475259,-0.10072 -0.352921,-0.12588 0.1918,-0.0395 0.391526,-0.009 0.587289,-0.0137 -36.6788005,0 -36.6788005,-51.87166 0,-51.87166 z"
       inkscape:connector-curvature="0" />
    <path
       style="fill:#ffcc00;fill-opacity:1;stroke:none;stroke-width:12.94999981;stroke-linecap:round;stroke-linejoin:round;stroke-miterlimit:4;stroke-dasharray:none;stroke-opacity:1"
       id="path4166"
       d="m 46.355369,817.71132 c 2.261027,-0.27581 4.462862,-0.77288 6.636727,-1.43349 3.538461,-1.21926 7.141903,-2.19219 10.809323,-2.93144 36.019634,-6.92246 45.809461,44.01699 9.789831,50.93945 l 0,0 c -0.395491,0.019 -0.691694,0.11661 -1.100065,0.2328 -1.621606,0.46141 -3.204687,1.04523 -4.824847,1.51193 -3.655238,1.06402 -7.373979,2.04805 -11.1381,2.5451 -35.966524,7.1933 -46.139393,-43.67104 -10.172869,-50.86435 z"
       inkscape:connector-curvature="0" />
    <path
       style="fill:#ffcc00;fill-opacity:1;stroke:none;stroke-width:12.94999981;stroke-linecap:round;stroke-linejoin:round;stroke-miterlimit:4;stroke-dasharray:none;stroke-opacity:1"
       id="path4168"
       d="m 56.853363,811.45325 c 4.287189,0 8.574377,0 12.861566,0 4.832379,0 9.664757,0 14.497136,0 3.495396,0 6.990792,0 10.486188,0 2.44224,0 4.884479,0 7.326717,0 1.97165,0 3.94329,0 5.91494,0 2.47928,-0.0256 4.95421,0.004 7.43152,0.1018 2.56225,0.13316 5.06542,0.72358 7.62232,0.88506 1.82908,0.0863 3.66113,0.0826 5.49182,0.0886 2.66879,0.004 5.33758,-0.001 8.00636,-0.003 3.78127,-0.006 7.55529,0.27103 11.33332,0.40042 3.49824,0.10245 6.99821,0.11869 10.49769,0.13068 2.97036,0.007 5.94072,0.005 8.91108,0.003 2.40666,-0.001 4.81331,-0.002 7.21996,-0.002 2.2325,-2e-4 4.46499,-1.8e-4 6.69748,-1.8e-4 2.35885,10e-6 4.71769,2e-5 7.07654,2e-5 1.27733,0.0218 1.26954,-0.0603 2.74678,-0.1669 1.42283,-0.10268 0.98524,0.13112 1.44589,-0.12556 2.61503,-0.38091 5.25066,-0.57041 7.88867,-0.69242 2.1048,-0.0796 4.21133,-0.0883 6.31735,-0.0904 1.63391,9.2e-4 3.26783,0.003 4.90174,0.004 0.66502,0.0126 5.39209,-0.0211 1.71229,0.0148 0.2092,-0.0249 0.41839,-0.0499 0.62759,-0.0748 36.42306,-4.32377 42.53779,47.18622 6.11473,51.50999 l 0,0 c -0.29556,0.035 -0.59111,0.07 -0.88666,0.10493 -2.52946,0.26911 -5.06537,0.36778 -7.60796,0.31671 -1.60502,-0.001 -3.21005,-0.003 -4.81508,-0.005 -1.38533,0.001 -2.77096,0.003 -4.15581,0.0434 -1.46253,0.0447 -2.91302,0.21497 -4.36146,0.42139 -3.29795,0.33199 -6.61115,0.61787 -9.92817,0.61052 -2.35883,-10e-6 -4.71766,-2e-5 -7.0765,-2e-5 -2.23045,-10e-6 -4.46089,-2e-5 -6.69134,1.8e-4 -2.40038,2.8e-4 -4.80076,7.9e-4 -7.20114,0.002 -3.03855,0.001 -6.07712,0.004 -9.11567,-0.003 -4.03982,-0.0141 -8.08019,-0.0366 -12.1184,-0.16162 -3.16524,-0.11116 -6.328,-0.33018 -9.4935,-0.36918 -2.74097,0.002 -5.48196,0.007 -8.22294,0.003 -3.08149,-0.0109 -6.16587,-0.0223 -9.24143,-0.23712 -1.74495,-0.13947 -3.48074,-0.30355 -5.21604,-0.53712 -0.47772,-0.0643 -0.95469,-0.13421 -1.43123,-0.20677 -0.14375,-0.0219 -0.56206,-0.0169 -0.42945,-0.0766 0.17649,-0.0794 0.38704,0.006 0.58056,0.009 0.57327,-0.069 0.29022,-0.0261 -0.85842,-0.0261 -0.95783,0 -1.91567,0 -2.8735,0 -0.29966,0 -0.59933,0 -0.89899,0 -1.97165,0 -3.94329,0 -5.91494,0 -2.442238,0 -4.884477,0 -7.326717,0 -3.495396,0 -6.990792,0 -10.486188,0 -4.832379,0 -9.664757,0 -14.497136,0 -4.287189,0 -8.574377,0 -12.861566,0 -36.678801,0 -36.678801,-51.87166 0,-51.87166 z"
       inkscape:connector-curvature="0" />
    <path
       style="fill:#ffcc00;fill-opacity:1;stroke:none;stroke-width:12.94999981;stroke-linecap:round;stroke-linejoin:round;stroke-miterlimit:4;stroke-dasharray:none;stroke-opacity:1"
       id="path4170"
       d="m 245.61024,831.61045 c 1.06997,4.39679 1.36372,8.92186 1.57078,13.42627 0.1413,3.6672 0.14636,7.33764 0.15225,11.00698 0.001,4.01242 -0.003,8.02484 -0.005,12.03726 -0.002,4.40679 -0.002,8.81357 -0.002,13.22036 -1.3e-4,4.23194 -9e-5,8.46388 -7e-5,12.69582 0.033,3.63279 0.0134,7.2602 -0.19975,10.88751 -0.17757,3.28786 -0.27971,6.57578 -0.52672,9.85982 -0.28762,5.16172 -1.95426,10.04503 -3.6806,14.86474 0.001,0.10956 0.20747,-0.37517 0.19224,-0.26666 -0.24299,1.73161 -0.63047,3.47007 -0.98289,5.17535 -0.59291,2.15935 -0.92682,4.37118 -1.28368,6.57733 -0.33724,1.7819 -0.37783,3.59388 -0.42858,5.4006 0.0578,4.17325 -0.45391,8.31888 -0.7747,12.47221 -0.23168,3.2053 -0.28973,6.41941 -0.32565,9.63177 -0.0254,3.42453 -0.0192,6.8492 -0.0167,10.2738 0.002,2.5372 0.004,5.0744 0.005,7.6116 0.006,-0.1428 -0.0298,-0.56269 0.0192,-0.4284 0.0722,0.19787 0.0371,0.41964 0.0542,0.62958 0.0307,0.37653 0.061,0.75308 0.0891,1.12981 0.0995,1.33521 0.17772,2.67044 0.24507,4.00759 0.22477,3.26326 -0.0535,0.40487 -0.0217,0.0859 0.02,-0.20082 0.0777,0.3961 0.11275,0.59484 0.24773,1.40335 0.23871,1.39792 0.45808,2.824 0.44655,2.95534 0.58049,5.94167 0.63761,8.92577 0.0245,2.0539 0.0189,4.108 0.0157,6.1619 -10e-4,0.7585 -0.002,1.5169 -0.003,2.2754 -0.0436,36.6788 -51.91522,36.6171 -51.87162,-0.062 l 0,0 c 9.1e-4,-0.7651 0.002,-1.5302 0.003,-2.2953 0.003,-1.7179 0.007,-3.4359 -0.007,-5.1538 -0.0109,-0.7036 -0.0102,-1.4085 -0.0649,-2.1104 -0.41445,-2.897 -1.08426,-5.76968 -1.06833,-8.71468 -0.12053,-2.61946 -0.42169,-5.2267 -0.46937,-7.85016 -0.001,-2.53172 -0.003,-5.06344 -0.005,-7.59517 -0.003,-3.63643 -0.009,-7.27295 0.0202,-10.9093 0.0517,-4.36656 0.15092,-8.73477 0.48114,-13.09063 0.26578,-3.34946 0.7192,-6.66394 0.64081,-10.02664 0.13279,-4.0465 0.37245,-8.09445 1.07194,-12.08901 0.52517,-3.23082 1.06068,-6.46324 1.87451,-9.63706 -0.0257,0.86361 -0.0196,0.26924 0.27191,-1.4643 0.38927,-2.31495 0.82189,-4.61786 1.45953,-6.87964 0.25975,-0.92136 0.56963,-1.82786 0.85444,-2.74178 0.28757,-0.79687 0.55245,-1.60187 0.84591,-2.39659 0.0155,-0.0419 0.0768,-0.15734 0.0726,-0.11282 -0.002,0.0246 -0.40043,2.62332 -0.14427,1.26437 0.23108,-3.02314 0.2758,-6.05435 0.47361,-9.0807 0.16514,-2.57934 0.0961,-5.16323 0.10472,-7.74891 -2e-5,-4.2328 -5e-5,-8.46559 7e-5,-12.69838 2e-4,-4.41382 4.1e-4,-8.82764 0.002,-13.24146 0.002,-3.97746 0.006,-7.95492 0.005,-11.93238 -0.005,-2.9395 -0.003,-5.87986 -0.10261,-8.81806 -0.0407,-1.02097 -0.115,-2.03878 -0.16363,-3.05897 -0.007,-0.14863 -0.0962,-0.57308 -0.0188,-0.446 0.0702,0.11514 0.0738,0.25936 0.11067,0.38904 -8.89592,-35.58366 41.42698,-48.16439 50.3229,-12.58072 z"
       inkscape:connector-curvature="0" />
    <path
       style="fill:#ffcc00;fill-opacity:1;stroke:none;stroke-width:12.94999981;stroke-linecap:round;stroke-linejoin:round;stroke-miterlimit:4;stroke-dasharray:none;stroke-opacity:1"
       id="path4174"
       d="m 210.46391,1048.6638 c -2.37347,-0.1869 -4.75599,-0.2147 -7.13533,-0.2561 -4.51588,-0.029 -9.02823,-0.046 -13.54079,-0.2354 -4.21695,-0.1036 -8.40442,-0.4027 -12.56662,-1.102 -0.51826,-0.1286 -1.97685,-0.3284 -2.22918,-0.319 -1.12567,-0.015 -2.25149,-0.012 -3.37723,-0.012 -2.99118,0.018 -5.97979,0.019 -8.96936,-0.081 -3.8345,-0.2722 -7.64099,-0.82 -11.46542,-1.1937 -3.09225,-0.23 -6.19099,-0.3135 -9.28525,-0.5202 -2.36462,-0.1829 -4.73441,-0.2662 -7.10503,-0.3132 -36.671137,-0.7499 -35.610622,-52.61074 1.06051,-51.86084 l 0,0 c 3.1765,0.0664 6.35198,0.18199 9.52092,0.41898 3.65171,0.24699 7.3143,0.29612 10.95874,0.6599 2.83784,0.28693 5.73679,0.55291 8.53677,0.98498 2.20029,0.2492 4.50913,-0.10354 6.7236,0.0334 2.1468,-9.4e-4 4.29518,-0.0129 6.43976,0.10097 2.71904,0.17547 5.42459,0.48748 8.10223,1.00112 0.12621,0.0262 0.29552,-0.0201 0.37862,0.0785 0.0657,0.0778 -0.39897,-0.0318 -0.30539,0.008 0.13948,0.0599 0.30054,0.0458 0.45207,0.0546 0.56584,0.0327 1.13266,0.0452 1.69892,0.0697 0.90078,0.0389 2.7489,0.12546 3.63941,0.16681 4.08512,0.17807 8.17128,0.14491 12.25964,0.19661 3.9827,0.0726 7.97166,0.15112 11.93668,0.56512 36.45446,4.05055 30.7262,55.60485 -5.72827,51.55445 z"
       inkscape:connector-curvature="0" />
    <path
       style="fill:#ffcc00;fill-opacity:1;stroke:none;stroke-width:12.94999981;stroke-linecap:round;stroke-linejoin:round;stroke-miterlimit:4;stroke-dasharray:none;stroke-opacity:1"
       id="path4176"
       d="m 171.13764,1042.2051 c -3.01513,-0.3781 -6.05679,-0.5146 -9.08761,-0.7255 -5.12247,-0.3324 -10.24228,-0.6943 -15.37175,-0.901 -6.22286,-0.1963 -12.44223,-0.4777 -18.66615,-0.6452 -4.01763,-0.037 -8.02491,-0.3443 -12.03446,-0.57 -1.1934,-0.075 -2.38859,-0.097 -3.58395,-0.1049 -2.59059,-0.01 -5.14426,-0.4402 -7.6714,-0.9648 -1.03102,-0.2141 -0.98451,-0.2013 -0.54181,-0.096 0.0315,0.01 0.12656,0.022 0.0944,0.028 -0.28278,0.056 -0.77404,-0.016 -1.03176,-0.02 -0.70066,-0.012 -0.89068,-0.011 -1.61816,-0.017 -2.843121,0.017 -5.673042,-0.2897 -8.510512,-0.4186 -2.303435,-0.092 -4.609048,-0.1036 -6.913984,-0.1133 -2.738076,-0.01 -5.476165,-0 -8.214246,-0 -2.747562,10e-4 -5.495124,0 -8.242686,0 -2.398132,2e-4 -4.796264,2e-4 -7.194395,10e-5 -2.269782,0 -4.539564,0 -6.809345,0 -2.167198,0 -4.334396,0 -6.501594,0 -1.283766,0.035 -2.571712,-0.046 -3.8551,0 -0.123544,0 0.486204,-0.021 0.370251,0.021 -0.177301,0.065 -0.376552,0.034 -0.564828,0.051 -2.198709,0.1599 -2.422179,0.1981 -3.92767,0.4122 0.05435,-0 0.216067,-0.021 0.163047,-0.01 -1.92484,0.4452 -3.915021,0.6689 -5.875353,0.8834 0.787689,-0.081 -3.565529,0.3231 -2.680829,0.1832 0.589518,-0.093 1.200328,-0.02 1.785068,-0.1398 3.79777,-0.7767 9.282611,-2.0388 11.939353,-5.0874 3.700424,-4.2462 6.022153,-9.5199 9.033229,-14.2798 -6.405453,-25.33213 0.257944,-17.8709 -11.539339,-27.70355 31.566009,18.67945 5.149291,63.32055 -26.416718,44.64105 l 0,0 c -12.691836,-10.2502 -5.727938,-2.5305 -12.6037018,-28.5299 3.0374158,-4.8748 5.3495028,-10.28491 9.1122478,-14.62444 2.849997,-3.28687 9.160942,-4.91087 13.255289,-5.78268 4.933586,-1.0505 3.861739,-0.48372 2.843939,-0.27972 0.854057,-0.0458 2.726438,-0.55875 3.68205,-0.62719 2.37496,-0.33766 4.756203,-0.6043 7.149812,-0.76797 2.706982,-0.2039 5.415111,-0.27609 8.129209,-0.2326 2.167232,0 4.334464,0 6.501696,0 2.269766,10e-6 4.539532,2e-5 6.809298,2e-5 2.396372,1e-5 4.792744,2e-5 7.189116,-1.7e-4 2.741287,-2.8e-4 5.482574,-7.2e-4 8.22386,-0.002 2.821337,-10e-4 5.642683,-0.004 8.464014,0.003 3.055023,0.0136 6.11086,0.0374 9.163424,0.17193 2.204089,0.10832 4.425008,0.32157 6.485538,0.36143 3.03006,0.028 6.0663,0.0838 9.07549,0.47743 2.00494,0.29575 1.68143,0.22298 3.55752,0.58941 0.27136,0.053 0.5417,0.11131 0.81139,0.17221 0.025,0.006 0.0975,0.0297 0.072,0.0273 -0.53223,-0.0503 -1.06135,-0.13388 -1.59465,-0.17115 -0.40858,-0.0285 -0.81896,-0.0174 -1.22844,-0.0261 2.04601,0.016 4.09171,0.0636 6.13449,0.18613 3.50207,0.19838 7.00183,0.4785 10.51111,0.50635 6.46646,0.17555 12.92837,0.46316 19.39369,0.66999 5.63005,0.2349 11.25096,0.61165 16.87324,0.98449 3.96852,0.28134 7.94009,0.51208 11.89057,0.99879 36.39557,4.54944 29.96168,56.02054 -6.43388,51.47114 z"
       inkscape:connector-curvature="0" />
    <path
       style="fill:#ffcc00;fill-opacity:1;stroke:none;stroke-width:12.94999981;stroke-linecap:round;stroke-linejoin:round;stroke-miterlimit:4;stroke-dasharray:none;stroke-opacity:1"
       id="path4178"
       d="m 28.319218,994.87571 c 2.954699,0 5.909399,0 8.864098,0 2.431,0 4.862,0 7.293,0 1.088627,0 2.177253,0 3.26588,0 36.678801,0 36.678801,51.87169 0,51.87169 l 0,0 c -1.088627,0 -2.177253,0 -3.26588,0 -2.431,0 -4.862,0 -7.293,0 -2.954699,0 -5.909399,0 -8.864098,0 -36.6788009,0 -36.6788009,-51.87169 0,-51.87169 z"
       inkscape:connector-curvature="0" />
    <path
       style="fill:#ffcc00;fill-opacity:1;stroke:none;stroke-width:12.94999981;stroke-linecap:round;stroke-linejoin:round;stroke-miterlimit:4;stroke-dasharray:none;stroke-opacity:1"
       id="path4180"
       d="m 5.41543,1003.4247 c -1.2846205,-4.63484 -1.5936106,-9.44393 -1.7978773,-14.22491 -0.1312595,-4.03999 -0.1417449,-8.0826 -0.1486819,-12.12432 -0.00184,-2.1632 0.00216,-4.3264 0.00475,-6.48959 0.00207,-1.9463 0.00211,-3.89261 0.00227,-5.83891 1.384e-4,-2.80988 8.65e-5,-5.61977 7.03e-5,-8.42965 0.021543,-5.18079 0.6695112,-10.31739 1.5421502,-15.41418 0.905733,-4.07486 1.640592,-8.18145 2.4054677,-12.28381 0.5969728,-4.07463 1.3015648,-8.12314 2.2025723,-12.14249 0.1878091,-0.76223 0.3711858,-1.52556 0.5634267,-2.28669 0.252581,-1.00002 0.609725,-2.26368 0.826991,-3.31578 0.221402,-1.07213 0.320336,-2.21149 0.481192,-3.28762 0.52669,-2.78528 0.816668,-5.60076 0.976077,-8.42792 0.284903,-3.30601 0.510516,-6.61578 0.783313,-9.9227 0.502648,-4.07985 0.672985,-8.18581 1.038885,-12.27711 0.516743,-3.76455 1.077199,-7.51872 1.33675,-11.31125 0.06892,-1.07522 0.09844,-2.15222 0.127566,-3.22904 1.053905,-36.66365 52.904146,-35.17321 51.850241,1.49045 l 0,0 c -0.05432,1.82231 -0.113049,3.64479 -0.240093,5.46388 -0.313194,4.23057 -0.75525,8.45119 -1.449417,12.63802 -0.240015,1.86824 -0.05449,0.24505 -0.249305,3.41675 -0.165702,2.69771 -0.411241,5.39 -0.718756,8.07512 -0.241457,2.92397 -0.431399,5.85129 -0.701267,8.77298 -0.270793,4.34813 -0.682126,8.68894 -1.452506,12.98064 -0.639105,4.27403 -1.383035,8.52693 -2.584265,12.68495 -0.778779,3.36925 -1.219843,6.7903 -1.800798,10.19762 -0.74766,3.99839 -1.440497,8.00786 -2.348659,11.97433 -0.447753,2.03667 -0.605686,4.12585 -0.717908,6.20355 1.6e-5,2.81146 6.8e-5,5.62291 -7.1e-5,8.43437 -1.67e-4,1.96559 -2.08e-4,3.93119 -0.0023,5.89678 -0.0025,2.11331 -0.0064,4.22661 -0.0048,6.33992 0.0056,3.37028 0.0119,6.74119 0.106177,10.1104 0.008,0.21921 0.418402,5.03328 -0.155361,2.07599 10.076442,35.26752 -39.799399,49.51782 -49.8758408,14.25022 z"
       inkscape:connector-curvature="0" />
    <path
       style="fill:#ffcc00;fill-opacity:1;stroke:none;stroke-width:12.94999981;stroke-linecap:round;stroke-linejoin:round;stroke-miterlimit:4;stroke-dasharray:none;stroke-opacity:1"
       id="path4182"
       d="m 56.74109,869.2595 c 0.01175,-0.0233 0.03098,-0.0956 0.03524,-0.0699 0.09506,0.57402 -0.09901,1.58851 -0.126957,2.10302 -0.0748,1.37701 -0.07968,1.69717 -0.130161,3.1 -0.09095,2.97509 -0.103285,5.95176 -0.109258,8.92799 -4.28e-4,1.20414 -7.77e-4,1.11464 2.44e-4,2.2844 2.86e-4,0.32714 0.05162,1.30466 0.0011,0.98143 -0.002,-0.33747 -0.004,-0.67495 -0.006,-1.01242 0.0052,0.008 0.01673,0.0331 0.01561,0.0237 -0.05826,-0.49294 -0.124949,-0.98486 -0.187423,-1.47728 7.077129,35.98956 -43.8198,45.99813 -50.8969292,10.00857 l 0,0 c -0.1656404,-1.0174 -0.3540048,-2.03137 -0.4970554,-3.05221 -0.3647991,-2.60327 -0.2954301,-5.24255 -0.3010926,-7.86311 0.00758,-3.58885 0.027239,-7.17822 0.1456016,-10.76545 0.1864353,-4.83431 0.408351,-9.69547 1.4206393,-14.44134 C 14.061398,822.20158 64.697839,833.45412 56.74109,869.2595 Z"
       inkscape:connector-curvature="0" />
    <path
       style="fill:#ffcc00;fill-opacity:1;stroke:none;stroke-width:12.94999981;stroke-linecap:round;stroke-linejoin:round;stroke-miterlimit:4;stroke-dasharray:none;stroke-opacity:1"
       id="path4184"
       d="m 42.64238,861.42199 c 6.94149,-2.36304 14.225066,-3.45488 21.452427,-4.53121 9.46482,-1.45674 18.992175,-2.31064 28.550395,-2.80921 6.20165,-0.29506 12.409938,-0.38515 18.617698,-0.40569 5.29525,-0.1192 10.56964,0.0878 15.83787,0.61945 5.69931,0.7981 11.39664,1.61753 17.09048,2.45721 5.57696,0.8509 11.18085,1.73181 16.59964,3.34504 1.20649,0.35918 2.39368,0.78029 3.59051,1.17043 3.97166,1.37316 7.84248,3.00543 11.62755,4.82635 5.14505,2.48767 9.81183,5.84248 13.46048,10.28439 1.06777,1.29992 1.92576,2.75883 2.88864,4.13825 4.38056,7.70987 5.13255,15.07142 5.17665,23.67623 -0.14785,6.91895 -1.2287,13.76509 -2.64661,20.52366 -1.5099,6.93832 -4.11048,13.5379 -7.02628,19.98684 -2.79256,6.251 -6.86753,11.72538 -11.18062,16.98757 -2.46682,2.80234 -4.84649,5.71415 -7.54775,8.30093 -0.8817,0.84433 -1.73885,1.72475 -2.71472,2.45821 -1.68244,1.26452 -3.49395,2.34749 -5.24093,3.52123 -27.62389,1.99253 -24.09339,8.0665 -38.7514,-24.85733 -1.14499,-2.57181 1.01564,-5.54373 1.73598,-8.26519 0.32609,-1.23198 0.91556,-2.37882 1.394,-3.56 0.51802,-1.27887 2.06094,-4.83598 2.55424,-5.98022 5.01474,-10.95828 9.36993,-22.19968 13.77847,-33.41045 5.16407,-13.21258 11.0259,-26.13237 16.22221,-39.33192 1.66584,-4.02087 3.69378,-10.06718 6.5947,-13.21326 2.80353,-3.04047 5.41702,-6.8153 9.31599,-8.19452 6.45523,-2.28347 13.6824,-3.59445 20.4101,-2.32079 5.26038,0.99588 8.9851,5.8242 13.47765,8.73629 1.50147,2.37337 3.14957,4.66008 4.50439,7.12011 0.6922,1.25686 1.1423,2.63541 1.61451,3.99035 1.87603,5.38294 2.51642,10.93431 2.97134,16.5786 0.43859,7.6925 0.48308,15.40019 0.16591,23.09682 -0.33727,7.73005 -1.54347,15.36014 -3.33251,22.87627 -0.19298,0.77325 -0.39756,1.54369 -0.57896,2.31974 -0.77593,3.31939 0.64573,-1.84644 -1.01842,4.29986 -0.71392,2.63676 -1.56534,5.23737 -2.37579,7.84544 -1.35697,4.09509 -2.38892,8.28155 -3.6551,12.40257 -0.91921,2.89788 -2.00646,5.73146 -2.88614,8.63738 -1.68143,5.17766 -4.26808,9.9885 -7.81155,14.13789 -0.80239,0.9396 -1.6903,1.80266 -2.53545,2.70399 -4.04621,3.88898 -8.79854,6.85064 -13.91785,9.10545 -2.46844,1.08723 -3.77146,1.48812 -6.27621,2.36046 -6.374,2.10582 -12.9776,3.32781 -19.62388,4.15839 -5.24204,0.42961 -10.52991,0.8686 -15.79629,0.65333 -1.41145,-0.0577 -2.81892,-0.18927 -4.22838,-0.2839 -6.76704,-0.68573 -13.33413,-2.65113 -19.28893,-5.96276 -3.98619,-2.21683 -4.86863,-3.10881 -8.41345,-5.85373 -4.71949,-3.98674 -8.704201,-8.72411 -12.057299,-13.9001 -1.907507,-2.9445 -2.561638,-4.28685 -4.214555,-7.33332 -3.120945,-6.07736 -5.195845,-12.59376 -7.541702,-18.98782 -0.262149,-0.63718 -0.731835,-1.80463 -1.032392,-2.43545 -0.05555,-0.11659 -0.131273,-0.22263 -0.203567,-0.32964 -0.04162,-0.0616 -0.09242,-0.23447 -0.137672,-0.17548 -0.06736,0.0878 0.08447,0.207 0.100255,0.31655 1.368802,2.03602 3.246106,3.55462 5.426504,4.68631 1.041544,0.5406 2.153478,0.93315 3.230218,1.39972 4.727086,0.95321 4.921276,1.3978 9.196467,1.04313 0.861674,-0.0715 1.690788,-0.39228 2.552753,-0.46023 0.30537,-0.0241 -0.58131,0.19725 -0.858932,0.32671 -0.08073,0.0376 -0.129069,0.12542 -0.206203,0.16998 -0.358226,0.20693 -0.73069,0.38817 -1.096034,0.58225 -2.412044,1.3753 -4.973345,2.47033 -7.416611,3.7837 -1.499462,0.80604 -2.909868,1.84067 -4.285732,2.83787 -0.797229,0.68486 -1.618479,1.37583 -2.276044,2.20359 -0.07543,0.095 -0.295884,0.34952 -0.179164,0.31662 0.187032,-0.0527 0.421113,-0.58245 0.434542,-0.3886 0.01871,0.27014 -0.275334,0.46636 -0.413002,0.69955 0.501005,-0.52163 0.797845,-1.22869 1.063336,-1.89056 0.09503,-0.23691 0.159534,-0.48525 0.253266,-0.72267 0.02174,-0.0551 0.0832,-0.21046 0.09201,-0.15192 0.03323,0.22084 -0.0094,0.44656 -0.01407,0.66984 -0.02234,1.27596 -0.107319,2.55355 -0.0077,3.8285 0.01718,0.21992 0.06755,0.87628 0.08458,0.65635 0.08686,-1.12158 -0.244902,-2.1471 -0.471492,-3.23995 -0.596815,-2.15214 -1.82501,-4.013 -3.478118,-5.48581 -1.0009,-0.89702 -2.264653,-1.39263 -3.439953,-2.00027 -0.395847,-0.20465 0.873086,0.1872 1.316264,0.23381 3.863445,0.33382 7.743121,0.37202 11.618034,0.42582 4.420234,0.0476 8.885063,-0.29699 13.115843,-1.66228 0.77442,-0.24991 1.52504,-0.56831 2.28755,-0.85247 3.60811,-1.44919 7.58194,-2.89524 10.19999,-5.94825 0.48109,-0.56102 1.10478,-2.09785 1.38244,-2.71918 1.28117,-3.76209 2.32122,-7.66275 2.3085,-11.66279 -0.0131,-0.29121 0.009,-0.58611 -0.0394,-0.87365 -0.0153,-0.0915 -0.0684,0.179 -0.0611,0.27146 0.0644,0.8211 0.0731,1.65699 0.27492,2.45551 0.39167,1.54987 0.74027,3.14802 1.497,4.55617 3.73994,6.9594 4.5006,6.39174 10.87676,10.99078 2.93205,1.37963 5.79409,2.03465 8.98828,1.8421 0.32902,-0.0198 0.91986,-0.41903 0.9842,-0.0958 0.0673,0.33831 -0.60165,0.33757 -0.90248,0.50635 -1.60877,1.02936 -3.36215,1.91619 -4.82077,3.1664 -0.21294,0.18251 -0.66722,1.23211 -0.77906,1.53378 0.0927,0.2674 0.46387,-0.13535 0.51727,0.13093 0.064,0.31885 -0.12319,1.29874 0.24003,0.28118 0.33693,-2.14948 -0.38641,-4.13296 -1.14614,-6.09432 -0.0655,-0.16901 -0.32202,-0.42507 -0.16623,-0.51771 0.17788,-0.10578 0.36594,0.19343 0.5489,0.29014 2.78247,1.73652 5.83133,2.96917 9.05187,3.56973 1.72587,0.0849 3.51773,0.79216 5.25845,0.49475 0.0607,-0.0104 -0.0167,-0.1525 -0.0762,-0.16833 -0.26716,-0.0711 -0.5512,-0.0995 -0.82625,-0.0717 -0.65463,0.0663 -1.29486,0.23472 -1.94229,0.35208 -2.84775,0.92311 -5.17503,2.47095 -7.14605,4.6992 -0.35227,0.39825 -0.6344,0.85342 -0.95063,1.28084 -0.38982,0.52689 -0.29796,0.66536 -0.40071,0.27385 -0.0196,-0.4515 0.14619,-0.90081 0.11601,-1.35219 -0.008,-0.12446 -0.0877,0.23822 -0.0913,0.36291 -0.028,0.96001 -0.1424,1.93095 -0.003,2.88125 1.03119,7.0467 1.62365,6.17397 5.9041,13.25167 11.05347,7.17533 8.00792,7.45367 20.30288,7.76125 1.55705,0.0389 3.92913,-0.84613 5.43549,-1.46029 1.06419,-0.43389 1.12947,-0.87397 0.98469,-0.31388 -0.0899,0.13982 -0.46222,0.71296 -0.52305,0.83448 -0.0358,0.0715 -0.12281,0.28543 -0.0642,0.23108 1.78475,-1.65448 2.18538,-5.02496 2.72372,-6.98745 0.008,-4.5796 0.43867,-5.37467 -1.08863,-9.57393 -0.42304,-1.16314 -1.12685,-2.20402 -1.68659,-3.3079 -0.21505,-0.42412 -0.27595,-0.57668 -0.21829,-0.5607 0.16306,0.0452 0.28218,0.18682 0.42327,0.28023 3.33396,2.12212 6.62919,4.29943 9.84484,6.59701 3.4803,2.50059 6.77039,5.24992 9.83159,8.24662 2.56979,2.5979 4.68368,5.52768 6.33998,8.7944 0.92547,1.82532 1.3423,3.28665 2.00537,5.0477 0.13581,0.39969 0.27161,0.79937 0.40741,1.19905 11.65421,34.7781 -37.5294,51.2596 -49.18361,16.48155 l 0,0 c -0.0212,-0.069 -0.0425,-0.13796 -0.0637,-0.20694 -0.13666,-0.38637 -0.27527,-0.77206 -0.40998,-1.15912 -0.032,-0.0919 -0.13125,-0.36577 -0.0901,-0.27762 0.36318,0.77733 0.64406,1.59482 1.05687,2.34696 0.91412,1.66554 1.96883,3.25197 3.35885,4.55247 -0.0447,-0.052 -0.13457,-0.087 -0.13411,-0.1562 3.5e-4,-0.051 0.17298,0.1086 0.13466,0.075 -1.18982,-1.059 -2.46134,-2.0346 -3.74216,-2.97796 -3.91381,-3.0072 -8.41494,-5.21191 -12.19686,-8.41093 -0.95909,-0.80646 -1.9508,-1.57563 -2.87726,-2.41938 -4.07895,-3.71479 -7.83015,-7.97869 -10.18378,-13.03772 -3.27916,-7.04845 -2.65404,-8.57662 -3.18058,-16.2918 0.5408,-2.76127 0.85885,-5.57566 1.62239,-8.28381 0.51141,-1.81387 1.34965,-3.52504 2.18353,-5.21511 2.73258,-5.53826 6.79851,-10.28662 11.20476,-14.54965 3.09687,-2.64183 4.61212,-4.1558 8.25971,-6.26087 7.27432,-4.19808 16.37819,-6.5909 24.75878,-3.94531 4.62409,1.45973 8.35321,4.92707 12.52982,7.39061 1.96997,3.01287 4.35516,5.79193 5.9099,9.03861 1.10082,2.29876 1.51778,4.88085 1.95794,7.3913 0.90966,5.18833 -0.13187,10.66075 -1.04221,15.76322 -0.38426,1.50593 -0.68817,3.03468 -1.15276,4.51779 -1.22998,3.92645 -2.73535,7.63744 -4.98446,11.11908 -2.71973,4.21017 -5.95607,7.83372 -10.07323,10.73732 -2.17028,1.53058 -4.62701,2.60805 -6.94052,3.91207 -2.1861,0.71822 -4.32569,1.59752 -6.55828,2.15464 -8.97013,2.23842 -18.28452,1.08647 -27.19868,-0.73044 -1.86777,-0.49318 -3.75639,-0.91327 -5.60332,-1.47954 -8.89588,-2.72751 -17.22002,-7.17204 -24.5406,-12.89284 -3.768067,-3.34917 -5.592148,-4.66881 -8.744433,-8.77959 -4.171421,-5.4398 -6.970965,-11.6209 -8.195418,-18.37133 -0.360611,-1.98805 -0.400955,-4.02105 -0.601432,-6.03157 0.05434,-1.80561 0.01843,-3.61621 0.163025,-5.41684 0.573755,-7.14525 2.689078,-14.32786 6.057953,-20.64945 0.973567,-1.82687 2.158713,-3.53286 3.238069,-5.29929 3.249153,-4.16178 4.042902,-5.52185 7.941096,-9.133 5.18979,-4.80764 11.22669,-8.5294 17.5086,-11.72176 4.11587,-1.82902 6.06763,-2.88817 10.62686,-4.01555 5.21226,-1.28885 11.28958,-1.69991 16.57945,-0.53745 2.26836,0.49848 4.4495,1.33333 6.67425,1.99999 2.90182,1.89673 6.1599,3.33683 8.70546,5.69018 5.69694,5.26677 8.26514,12.10288 9.20722,19.53749 0.3257,2.57033 0.21411,5.01748 0.18694,7.59464 -0.10743,1.56493 -0.16223,3.13436 -0.32229,4.69477 -0.88598,8.63714 -3.03286,17.34546 -6.65883,25.25286 -1.25698,2.7412 -2.80833,5.3376 -4.21249,8.00639 -1.81291,2.49992 -3.44167,5.14433 -5.43873,7.49975 -8.59633,10.13891 -20.19565,16.82787 -32.59314,21.21138 -2.08765,0.66945 -4.152,1.41643 -6.26294,2.00834 -8.56109,2.40053 -17.475272,3.26615 -26.343305,3.18136 -7.141919,-0.10535 -14.328585,-0.18853 -21.374796,-1.49456 -6.396388,-1.40393 -12.743109,-3.23462 -18.078441,-7.22233 -2.30571,-1.78465 -2.953032,-2.17876 -5.050395,-4.23704 -4.165394,-4.08776 -7.37487,-8.96 -9.526712,-14.38647 -0.56567,-1.85294 -1.250788,-3.67356 -1.697011,-5.55883 -1.300234,-5.49344 -1.134656,-11.19057 -0.91012,-16.78255 0.200812,-2.67301 0.251054,-4.15936 0.736021,-6.87482 0.969109,-5.42629 2.895606,-10.60798 5.764855,-15.31932 1.701715,-2.64942 2.285865,-3.67897 4.455798,-6.37785 3.49593,-4.34809 7.76971,-8.01881 12.219461,-11.3477 2.983434,-2.0424 3.691324,-2.60364 6.74788,-4.40677 3.678304,-2.1699 7.520882,-3.9937 11.29372,-5.9861 4.857912,-2.39344 9.883618,-4.72999 15.294971,-5.5788 6.41979,-1.007 7.175175,-0.30344 13.877344,0.76001 1.63506,0.6411 3.32089,1.16535 4.90516,1.92329 5.17412,2.47536 9.39365,6.52656 12.90334,10.97808 1.49075,2.10838 1.85447,2.53409 3.21509,4.85792 1.94141,3.3158 3.45011,6.85945 4.82163,10.44118 1.51339,4.13447 2.88825,8.3223 4.58563,12.38625 0.96167,1.86435 1.89826,3.78693 3.22955,5.42057 -0.004,0.0469 0.0319,0.12216 -0.0114,0.14076 -0.33007,0.14193 -1.99378,-0.16945 -0.78549,0.23603 3.05136,0.5092 6.57309,-0.0999 9.66826,-0.17458 3.06737,-0.32618 6.10627,-0.88939 9.0685,-1.76082 0.31843,-0.10015 0.63656,-0.20126 0.95529,-0.30044 0.20959,-0.0652 0.75392,-0.32673 0.64421,-0.1366 -0.311,0.5389 -1.57496,1.02993 -1.59115,1.6133 -1.05888,1.37251 -2.02346,2.85241 -2.40088,4.56675 0.9749,-3.2045 2.10756,-6.34485 3.16269,-9.52062 0.51368,-1.02021 0.0751,-0.0962 0.74101,-2.60489 0.82526,-3.10898 1.77203,-6.18291 2.74051,-9.24978 0.66276,-2.13278 1.45763,-4.26999 1.97033,-6.44692 0.22535,-0.95684 0.41197,-1.92248 0.63453,-2.87997 0.15292,-0.65786 0.32787,-1.3104 0.4918,-1.9656 1.06574,-4.2409 1.70737,-8.55673 1.92232,-12.92908 0.27166,-5.65436 0.17533,-11.31702 -0.0725,-16.97144 -0.0348,-0.57534 -0.0693,-1.15069 -0.1043,-1.72602 -0.0185,-0.30501 -0.057,-0.60942 -0.0562,-0.91499 1.3e-4,-0.0542 0.0183,-0.18729 0.0589,-0.15142 0.1153,0.10189 0.1503,0.26854 0.22553,0.40277 1.2824,2.28812 0.25891,0.5163 3.58512,5.12941 4.00828,2.36216 7.41755,6.43913 12.02483,7.08648 14.37267,2.01943 18.4443,-1.25467 26.22686,-9.88695 0.62912,-0.69781 0.83156,-1.68507 1.25149,-2.52554 0.81771,-1.63659 -6.15295,12.34876 -2.1164,5.06403 -5.20386,13.18028 -11.00635,26.10731 -16.20533,39.28906 -4.61483,11.73415 -9.18253,23.49691 -14.4217,34.97106 -0.41532,0.96232 -0.83333,1.92349 -1.24595,2.88697 -2.71299,6.33487 0.76727,-1.22956 -0.25608,-3.13727 -16.6643,-31.06515 -10.29562,-25.56086 -38.02036,-23.1032 -1.21812,0.88345 -2.4617,1.73281 -3.65436,2.65035 -0.17899,0.1377 -0.62241,0.65215 -0.44953,0.50686 1.68393,-1.41513 2.94092,-3.31057 4.47178,-4.87534 0.63794,-0.77582 1.2928,-1.53788 1.91836,-2.32371 0.25696,-0.3228 0.47285,-0.67925 0.75158,-0.98344 0.0248,-0.0271 0.0633,0.10309 0.0833,0.0723 0.48424,-0.74498 0.83605,-1.56989 1.30735,-2.32296 1.40595,-3.05926 2.76724,-6.14668 3.53535,-9.44058 0.74327,-3.24412 1.23679,-6.54572 1.48197,-9.86558 0.0569,-1.06736 0.0471,-0.5118 0.0193,-1.66681 8e-4,-0.0195 0.0521,-0.0199 0.0586,-0.001 0.10709,0.30535 0.1619,0.62734 0.26812,0.93299 0.81786,2.35353 0.77033,1.9576 2.21963,4.59858 1.79119,2.29919 1.40411,2.01778 3.67742,4.01443 0.56143,0.4931 2.09888,1.3136 2.50484,1.55721 0.33742,0.20249 -1.04194,-0.58381 -1.02771,-0.58099 -1.88496,-0.92914 -3.82811,-1.72552 -5.80857,-2.43006 -0.72288,-0.37674 -0.34007,-0.20585 -1.71516,-0.56335 -3.03713,-0.78961 -6.14043,-1.24414 -9.24,-1.70965 -4.99559,-0.73738 -9.99796,-1.4286 -14.98963,-2.19095 -3.39083,-0.40002 -6.79008,-0.36795 -10.20157,-0.33048 -5.37589,0.0166 -10.75229,0.0879 -16.123162,0.33767 -7.91172,0.39857 -15.794044,1.10678 -23.627157,2.3201 -3.784332,0.55378 -7.580573,1.11844 -11.309559,1.9656 C 25.898663,922.70536 8.1718843,873.95672 42.64238,861.42199 Z"
       inkscape:connector-curvature="0" />
    <path
       style="fill:#ffcc00;fill-opacity:1;stroke:none;stroke-width:12.94999981;stroke-linecap:round;stroke-linejoin:round;stroke-miterlimit:4;stroke-dasharray:none;stroke-opacity:1"
       id="path4186"
       d="m 99.268087,1028.7795 c -0.09956,0.1788 -0.199122,0.3576 -0.298684,0.5364 -17.901385,32.0137 -63.175546,6.6973 -45.274161,-25.3164 l 0,0 c 0.178545,-0.3185 0.35709,-0.637 0.535634,-0.9556 18.197782,-31.84608 63.234994,-6.11053 45.037211,25.7356 z"
       inkscape:connector-curvature="0" />
    <path
       style="fill:#ffcc00;fill-opacity:1;stroke:none;stroke-width:12.94999981;stroke-linecap:round;stroke-linejoin:round;stroke-miterlimit:4;stroke-dasharray:none;stroke-opacity:1"
       id="path4188"
       d="m 65.736605,996.86992 c 4.035715,-1.46105 8.258514,-2.23128 12.507441,-2.72725 1.605522,-0.27478 3.232098,-0.417 4.84272,-0.65716 1.359417,-0.32246 2.802073,-0.66285 4.281485,-0.96981 0.520631,-0.0918 1.04162,-0.18151 1.561891,-0.27529 0.273754,-0.0493 -1.092395,0.2086 -0.822325,0.14199 2.098311,-0.5176 4.26627,-0.7549 6.411204,-0.97863 -0.148931,0.0116 -0.491119,0.17737 -0.446795,0.0347 0.04609,-0.14835 0.306142,-0.0531 0.459741,-0.0764 0.427289,-0.0647 0.85463,-0.1292 1.282856,-0.18733 1.478693,-0.20074 2.958002,-0.32612 4.446057,-0.4311 0.43566,-0.0215 0.87124,-0.045 1.30699,-0.0645 0.31236,-0.014 -0.62633,0.0108 -0.93678,0.0479 -2.380702,0.28477 -2.109897,0.31617 -4.571336,0.99624 34.442186,-12.61232 52.278696,36.09632 17.836506,48.70862 l 0,0 c -1.27799,0.3943 -2.5357,0.8616 -3.83398,1.1829 -2.10069,0.5198 -4.30804,0.8047 -6.47175,0.8935 -1.34116,-0 -2.64477,0.5236 -3.989488,0.5176 -0.365217,0.013 -0.02494,-0.012 0.01083,-0.064 -0.713227,0.1472 -1.426454,0.2944 -2.13968,0.4416 -0.04518,0.01 0.08886,-0.024 0.133285,-0.037 -0.574968,0.075 -1.195096,0.272 -1.744717,0.3989 -1.713936,0.3957 -3.432457,0.7603 -5.171422,1.031 -2.251487,0.3321 -4.513318,0.5726 -6.764841,0.9053 -0.479627,0.029 -1.782931,0.2207 0.02546,-0.2635 -34.343432,12.8788 -52.556787,-35.6902 -18.213355,-48.56894 z"
       inkscape:connector-curvature="0" />
    <text
       xml:space="preserve"
       style="font-style:normal;font-weight:normal;font-size:180px;line-height:125%;font-family:sans-serif;letter-spacing:0px;word-spacing:0px;fill:#000000;fill-opacity:1;stroke:none;stroke-width:1px;stroke-linecap:butt;stroke-linejoin:miter;stroke-opacity:1"
       x="68.046883"
       y="992.97272"
       id="text8652"
       sodipodi:linespacing="125%"><tspan
         sodipodi:role="line"
         id="tspan8654"
         x="68.046883"
         y="992.97272">7</tspan></text>
  </g>
  <g
     inkscape:groupmode="layer"
     id="layer3"
     inkscape:label="Draw"
     style="display:inline"
     transform="translate(0,-802.36235)"
     sodipodi:insensitive="true">
    <rect
       style="display:inline;opacity:1;fill:none;fill-opacity:1;stroke:#000000;stroke-width:7.29719353;stroke-linecap:round;stroke-linejoin:round;stroke-miterlimit:4;stroke-dasharray:none;stroke-opacity:1"
       id="rect4186"
       width="231.18568"
       height="230.94458"
       x="9.4071655"
       y="811.89008" />
  </g>
</svg>
