<?xml version="1.0" encoding="UTF-8" standalone="no"?>
<!-- Created with Inkscape (http://www.inkscape.org/) -->

<svg
   xmlns:dc="http://purl.org/dc/elements/1.1/"
   xmlns:cc="http://creativecommons.org/ns#"
   xmlns:rdf="http://www.w3.org/1999/02/22-rdf-syntax-ns#"
   xmlns:svg="http://www.w3.org/2000/svg"
   xmlns="http://www.w3.org/2000/svg"
   xmlns:sodipodi="http://sodipodi.sourceforge.net/DTD/sodipodi-0.dtd"
   xmlns:inkscape="http://www.inkscape.org/namespaces/inkscape"
   width="1920pt"
   height="1080pt"
   viewBox="0 0 2400.0001 1350"
   id="svg2"
   version="1.1"
   inkscape:version="0.91 r13725"
   sodipodi:docname="scene1b_background-1920-1080.svg">
  <defs
     id="defs4" />
  <sodipodi:namedview
     id="base"
     pagecolor="#ffffff"
     bordercolor="#666666"
     borderopacity="1.0"
     inkscape:pageopacity="0"
     inkscape:pageshadow="2"
     inkscape:zoom="0.4675"
     inkscape:cx="1098.0335"
     inkscape:cy="687.56685"
     inkscape:document-units="px"
     inkscape:current-layer="layer2"
     showgrid="false"
     showguides="false"
     inkscape:window-width="1855"
     inkscape:window-height="1056"
     inkscape:window-x="65"
     inkscape:window-y="24"
     inkscape:window-maximized="1"
     inkscape:showpageshadow="false"
     units="pt" />
  <metadata
     id="metadata7">
    <rdf:RDF>
      <cc:Work
         rdf:about="">
        <dc:format>image/svg+xml</dc:format>
        <dc:type
           rdf:resource="http://purl.org/dc/dcmitype/StillImage" />
        <dc:title />
      </cc:Work>
    </rdf:RDF>
  </metadata>
  <g
     inkscape:groupmode="layer"
     id="layer1"
     inkscape:label="Image"
     style="opacity:0.43500001"
     sodipodi:insensitive="true" />
  <g
     inkscape:groupmode="layer"
     id="layer2"
     inkscape:label="Paint"
     style="display:inline;opacity:1"
     transform="translate(0,297.63778)">
    <path
       style="fill:#e8dece;fill-opacity:1"
       id="path4202"
       d="m 271.2261,1025.0104 c 5.01626,11.5367 8.18748,23.3607 10.66795,35.2346 0.94792,4.5392 1.6398,9.0972 2.10311,13.6682 4.30206,73.4651 2.31376,5.5027 -316.51891,6.0886 -0.02236,0 -0.03829,-9.6642 -0.03922,-10.2537 -0.01224,-13.144 -0.01026,-26.2883 -0.01071,-39.4326 -2.5e-4,-19.2162 5.1e-5,-38.43235 1.87e-4,-57.64861 1.35e-4,-20.35144 1.6e-4,-40.70306 1.77e-4,-61.0545 1.3e-5,-22.49825 1e-5,-44.9964 9e-6,-67.49464 -0.237257,-25.22912 -0.06237,-50.44227 1.201275,-75.65836 1.486578,-25.48594 2.109522,-50.98698 2.463312,-76.48898 0.278554,-25.99774 0.270409,-51.99628 0.273953,-77.99451 -0.0057,-25.56362 -0.01656,-51.12723 -0.022,-76.69084 -0.0051,-28.58755 -0.0054,-57.17511 -0.0058,-85.76267 -1.096231,-29.70873 -2.435569,-59.41146 -3.18066,-89.12553 -0.523239,-29.68913 -1.095494,-59.3828 -0.245397,-89.07019 1.51647,-27.52537 2.62583,-55.03508 1.883664,-82.57522 -1.03575,-27.34993 -1.712773,-54.70377 -2.083668,-82.06088 0.561436,-25.585957 2.135305,-51.154458 2.93203,-76.737709 0.569402,-19.981358 0.654098,-39.9665428 0.705055,-59.950781 0.02717,-20.170644 0.0093,-40.341297 0.0011,-60.511935 -0.0072,-17.130095 -0.01,-34.260165 -0.01146,-51.390255 -0.614673,-16.14898 1.301756,-32.25459 2.57221,-48.36722 0.923044,-12.79756 1.143239,-25.61035 1.29088,-38.42002 0.08638,-9.79252 0.0794,-19.58529 0.06822,-29.37796 -0.0061,-4.39126 -0.01304,-8.78253 -0.01887,-13.17379 -0.0033,-1.89677 -0.0024,-3.79353 -0.0024,-5.69031 -0.0019,-147.67516 316.775715,-147.67698 316.777645,-0.002 l 0,0 c 2e-5,1.83656 -9.3e-4,3.67311 0.002,5.50967 0.005,4.39978 0.0137,8.79954 0.0195,13.19933 0.0118,10.38338 0.0176,20.76688 -0.0777,31.15013 -0.18968,15.91745 -0.51785,31.83809 -1.71586,47.73893 -0.99865,12.47257 -2.72393,24.92035 -2.13776,37.42114 0.001,17.11541 0.004,34.23085 0.0118,51.346267 0.008,20.307085 0.0264,40.614184 -0.001,60.92127 -0.0552,21.302356 -0.15526,42.605673 -0.772,63.904844 -0.73948,23.528738 -1.99163,47.046524 -2.87716,70.572439 0.35961,26.78541 1.04201,53.56722 2.04982,80.34563 0.75781,30.15603 -0.13961,60.28537 -1.90365,90.42317 -0.93352,27.11442 -0.0516,54.24253 0.26888,81.35976 0.76612,30.85863 2.296,61.7031 3.22353,92.55915 3.9e-4,28.5784 7e-4,57.15681 0.005,85.73519 0.005,25.57971 0.0156,51.15941 0.0221,76.73909 -0.004,26.63381 0.004,53.26795 -0.28743,79.9012 -0.38297,27.17711 -1.05271,54.35311 -2.62528,81.51335 -1.16682,22.89968 -1.21385,45.79591 -1.02583,68.70837 0,22.49825 0,44.99656 0,67.49472 -2e-5,20.35177 -4e-5,40.70362 -1.8e-4,61.05539 -1.4e-4,19.21441 -4.5e-4,38.4286 -1.9e-4,57.643 4.5e-4,13.0739 -0.001,26.1476 0.01,39.2215 6e-5,0.036 0.0469,8.7033 0.0281,8.7036 -318.545374,4.9682 -320.912563,-65.6288 -316.502828,7.664 0.03357,0.321 0.721861,5.7075 0.239265,2.3677 -0.381998,-1.9676 -0.659827,-3.9484 -1.344198,-5.8833 C -94.899525,940.39109 209.68976,883.01713 271.2261,1025.0104 Z"
       inkscape:connector-curvature="0" />
    <path
       style="fill:#efe5d5;fill-opacity:1"
       id="path4220"
       d="m 393.61319,1202.9339 c -14.49049,-2.2563 -28.69511,-5.1792 -42.59236,-8.4727 -8.17852,-0.4876 -15.17989,-3.7518 -22.43727,-6.0243 -14.21824,-4.4521 -25.94575,-10.4477 -37.52685,-16.9014 -23.52615,-15.5703 1.70401,1.65 29.41167,13.4872 6.19631,2.6472 26.8784,8.5222 20.6962,5.8637 -14.7994,-6.3643 -32.00814,-10.6301 -46.72772,-17.0581 -17.5486,-7.6635 -28.16218,-22.5962 -37.92346,-32.734 -2.49278,-5.1165 -4.66469,-10.2911 -7.47832,-15.3496 -1.38777,-2.4949 2.69873,5.0392 3.1947,7.6481 0.41129,2.1638 -2.08776,-4.1793 -2.93811,-6.2982 -2.99512,-7.4632 -4.49552,-14.8912 -5.67917,-22.5091 -1.43216,-13.229 -1.35604,-26.4938 -1.4255,-39.7437 -0.0427,-17.3533 -0.0178,-34.7066 -0.009,-52.06 0.0107,-22.26993 0.0125,-44.53973 0.0142,-66.80952 10e-4,-27.39702 10e-4,-54.79404 10e-4,-82.19106 0.85518,-27.26524 2.23248,-54.52216 2.93096,-81.78944 0.53024,-23.81639 0.59832,-47.63514 0.64351,-71.45325 0.0207,-18.73959 0.005,-37.4792 -0.004,-56.21883 -0.007,-16.29845 -0.009,-32.59689 -0.0107,-48.89534 -0.55341,-19.02222 1.14834,-38.0217 2.22422,-57.02597 0.98365,-19.08321 1.15584,-38.17625 1.28908,-57.2667 0.89111,-19.56742 2.31896,-39.12221 3.01156,-58.69312 0.0755,-20.52813 1.09872,-41.03706 2.30999,-61.55074 1.29543,-22.47667 1.5455,-44.9673 1.73903,-67.4546 0.15378,-24.91451 0.13403,-49.82922 0.12833,-74.74384 -0.60493,-23.30743 1.08401,-46.59552 2.17944,-69.88777 0.98847,-22.89074 1.1752,-45.78958 1.31038,-68.686421 -0.42566,-23.123014 0.50995,-46.226976 1.74942,-69.335414 1.11849,-20.22640601 1.51901,-40.462443 1.74431,-60.697987 0.16161,-19.429129 0.13972,-38.858567 0.13527,-58.287858 -0.16838,-19.75191 1.6498,-39.48489 2.62112,-59.22419 0.49535,-15.33627 2.57307,-30.63167 3.60565,-45.95635 0.56162,-13.00924 0.77499,-26.00461 2.21503,-38.99415 0.96534,-7.39441 1.68578,-14.79805 2.07398,-22.21063 0.0251,-0.66142 -0.007,-1.32442 0.0751,-1.98425 1.21991,-9.86607 0.9331,-9.1006 3.41683,-17.66712 0.50248,-1.73308 1.32191,-3.87505 1.92887,-5.63476 0.11338,-0.32863 -0.24232,0.65535 -0.36347,0.98302 -0.32356,0.86129 -0.45791,1.74271 -0.62103,2.61806 -9.8066,60.82748 84.04499,27.76211 271.46648,47.38775 2.28091,0.23886 7.70361,-10.83424 9.45387,-14.26467 -50.35217,116.29843 -329.76038,74.38155 -279.40753,-41.91685 l 0,0 c 1.84311,-3.87508 9.17566,-20.15638 12.2015,-19.8949 199.69244,17.25771 282.87508,-15.50622 273.15147,45.83162 -0.63894,3.51792 -1.46491,7.02348 -2.52626,10.50646 -0.4119,1.27197 -0.81561,2.54488 -1.2357,3.81593 -0.49269,1.49073 -0.38702,3.06496 0.31641,-2.15475 0.42589,-3.1603 0.64526,-9.59472 0.33645,-2.20019 -0.52186,9.39026 -1.35178,18.77297 -2.57276,28.14133 -1.36721,11.47203 -0.92891,22.97565 -1.8023,34.46553 -1.01686,14.69494 -2.91406,29.36367 -3.4943,44.06641 -0.89804,18.0865 -2.57046,36.16755 -2.49909,54.263966 0.005,19.810303 0.0263,39.620768 -0.14168,59.430909 -0.24437,21.647809 -0.68532,43.2959955 -1.88164,64.933992 -1.15443,21.521716 -2.05736,43.035374 -1.60755,64.571515 -0.14453,24.268848 -0.35695,48.539698 -1.41957,72.801848 -1.02592,21.71602 -2.67154,43.42643 -2.0685,65.1569 0.005,25.2105 0.0256,50.42109 -0.13207,75.63147 -0.21024,24.16485 -0.50442,48.33297 -1.90932,72.48611 -1.16561,19.73802 -2.14176,39.46804 -2.19961,59.22056 -0.66977,18.616 -1.84149,37.22075 -2.95039,55.82895 -0.14666,20.74827 -0.35492,41.4992 -1.44777,62.2392 -0.97572,17.11192 -2.60394,34.2167 -2.06305,51.34504 10e-4,16.28524 0.004,32.5705 0.0107,48.85573 0.009,18.81842 0.0247,37.63683 0.004,56.45522 -0.047,24.61128 -0.12157,49.22319 -0.67635,73.83259 -0.68194,26.41082 -1.91429,52.81293 -2.89792,79.2199 3e-5,27.39938 2.5e-4,54.79875 -10e-4,82.19813 -0.002,22.28503 -0.004,44.56998 -0.0142,66.85503 -0.009,17.1642 -0.0335,34.3282 0.007,51.4923 0.0452,8.9343 0.0495,17.8705 0.51906,26.8015 -0.94888,-1.7725 -1.39766,-3.847 -2.19759,-5.6095 -0.4394,-0.9682 -1.87825,-3.8521 -1.4705,-2.879 4.31524,10.297 9.13758,19.2336 -2.3688,-3.4244 -9.00516,-9.1784 -19.62509,-23.6217 -35.97724,-30.6347 -14.33772,-6.149 -31.15659,-10.1206 -45.40127,-16.3441 -6.56725,-2.8691 15.51072,3.3942 22.16576,6.1926 28.21726,11.8645 54.37895,29.4633 31.75344,14.6436 -9.47449,-5.2019 -19.00596,-10.0548 -30.66245,-13.5653 -5.76633,-1.7366 -11.92035,-2.9897 -17.78376,-4.6097 -3.8124,-1.0535 18.28763,4.2407 11.80847,2.645 -1.04937,-0.1614 -4.14997,-0.743 -3.12183,-0.5398 11.0809,2.1906 3.84468,0.8846 15.03756,2.7334 196.04217,32.971 116.82916,196.1687 -79.21299,163.1977 z"
       inkscape:connector-curvature="0" />
    <path
       style="display:inline;opacity:1;fill:#e8dece;fill-opacity:1"
       id="path4202-3"
       d="m 802.92979,1027.2945 c 4.56595,11.3384 7.45248,22.959 9.71027,34.6292 0.86283,4.4612 1.49258,8.9407 1.9143,13.4332 3.91585,72.2027 2.10606,5.4083 -288.10416,5.9841 -0.0203,0 -0.0349,-9.4983 -0.0356,-10.0776 -0.0107,-12.9183 -0.009,-25.8366 -0.009,-38.7549 -2.3e-4,-18.8861 3e-5,-37.77212 1.6e-4,-56.65809 1.2e-4,-20.00181 1.6e-4,-40.00363 1.6e-4,-60.00544 2e-5,-22.11156 2e-5,-44.22319 2e-5,-66.33475 -0.21596,-24.79559 -0.0568,-49.57548 1.09343,-74.35835 1.35313,-25.04792 1.92014,-50.11083 2.24218,-75.17456 0.25354,-25.55101 0.24612,-51.10282 0.24936,-76.6543 -0.005,-25.12435 -0.0142,-50.24867 -0.0199,-75.373 -0.005,-28.09632 -0.005,-56.19264 -0.005,-84.28897 -0.99783,-29.19821 -2.21692,-58.39054 -2.89512,-87.59402 -0.47628,-29.17895 -0.99716,-58.36237 -0.22338,-87.53963 1.38033,-27.05239 2.39011,-54.08937 1.71457,-81.15625 -0.94278,-26.87997 -1.55903,-53.76377 -1.89661,-80.65079 0.51103,-25.14629 1.9436,-50.275436 2.66881,-75.419065 0.51828,-19.638004 0.59537,-39.279769 0.64175,-58.9205965 0.0247,-19.8240485 0.009,-39.6480945 10e-4,-59.4721265 -0.007,-16.835735 -0.009,-33.671442 -0.0107,-50.507182 -0.55951,-15.87148 1.1849,-31.70033 2.3413,-47.53609 0.84017,-12.57766 1.0406,-25.17027 1.17498,-37.75982 0.0787,-9.62425 0.0723,-19.24874 0.0621,-28.87314 -0.005,-4.31581 -0.0125,-8.63161 -0.0178,-12.94741 -0.004,-1.86419 -0.002,-3.72835 -0.002,-5.59253 -0.002,-145.13756 288.33789,-145.13935 288.33966,-0.002 l 0,0 c 1e-5,1.805 -8.6e-4,3.61 0.002,5.415 0.005,4.32417 0.0125,8.64834 0.0178,12.97252 0.0107,10.20495 0.016,20.41002 -0.0707,30.61485 -0.17264,15.64393 -0.47136,31.291 -1.56182,46.9186 -0.909,12.25825 -2.4794,24.49213 -1.94585,36.77811 10e-4,16.82131 0.004,33.64264 0.0107,50.463946 0.007,19.958135 0.024,39.916282 -10e-4,59.8744129 -0.0502,20.9363181 -0.14132,41.8735571 -0.7027,62.8067211 -0.67309,23.124435 -1.81283,46.2381 -2.61887,69.35975 0.32732,26.32513 0.94846,52.64673 1.86581,78.96499 0.68977,29.63784 -0.12709,59.24944 -1.73276,88.86937 -0.84972,26.6485 -0.047,53.31043 0.24475,79.96169 0.69733,30.32837 2.08987,60.64282 2.93414,90.96865 3.5e-4,28.08731 6.4e-4,56.17464 0.005,84.26193 0.005,25.14017 0.0142,50.28031 0.0201,75.42044 -0.004,26.17614 0.004,52.35263 -0.26162,78.52821 -0.34859,26.71006 -0.95822,53.41914 -2.38961,80.1126 -1.06207,22.50626 -1.10487,45.00897 -0.93374,67.52779 0,22.11164 0,44.22327 0,66.3349 -2e-5,20.00205 -4e-5,40.00411 -1.6e-4,60.00623 -1.2e-4,18.88416 -4.1e-4,37.76837 -1.8e-4,56.65247 4.1e-4,12.8491 -10e-4,25.6983 0.009,38.5475 6e-5,0.035 0.0427,8.5537 0.0256,8.5541 -289.9487,4.8828 -292.10338,-64.5011 -288.08951,7.5324 0.0306,0.3154 0.65706,5.6093 0.21779,2.3268 -0.3477,-1.9336 -0.60059,-3.8805 -1.22353,-5.7821 -56.01213,-139.55384 221.23336,-195.94182 277.2454,-56.3885 z"
       inkscape:connector-curvature="0" />
    <path
       style="display:inline;opacity:1;fill:#efe5d5;fill-opacity:1"
       id="path4220-6"
       d="m 923.44694,1203.7905 c -14.49049,-2.2563 -28.69512,-5.1791 -42.59236,-8.4727 -8.17852,-0.4876 -15.17989,-3.7518 -22.43727,-6.0243 -14.21825,-4.4523 -25.94575,-10.4477 -37.52686,-16.9014 -23.52615,-15.5703 1.70402,1.6501 29.41168,13.4871 6.19631,2.6473 26.8784,8.5223 20.6962,5.8638 -14.79941,-6.3643 -32.00814,-10.63 -46.72772,-17.0581 -17.5486,-7.6634 -28.16219,-22.5963 -37.92346,-32.734 -2.49279,-5.1165 -4.6647,-10.2911 -7.47832,-15.3496 -1.38777,-2.495 2.69873,5.0391 3.19469,7.6481 0.4113,2.1638 -2.08775,-4.1794 -2.93811,-6.2982 -2.99512,-7.4632 -4.49551,-14.8913 -5.67917,-22.5092 -1.43216,-13.2289 -1.35603,-26.4939 -1.4255,-39.7436 -0.0427,-17.3533 -0.0178,-34.7067 -0.009,-52.0601 0.0107,-22.26989 0.0125,-44.53969 0.0142,-66.80948 10e-4,-27.39694 10e-4,-54.79396 10e-4,-82.19098 0.85518,-27.26524 2.23248,-54.52216 2.93095,-81.78945 0.53025,-23.81646 0.59833,-47.63513 0.64352,-71.45325 0.0206,-18.73961 0.005,-37.47922 -0.004,-56.21887 -0.007,-16.29845 -0.009,-32.59689 -0.0107,-48.89534 -0.55342,-19.02223 1.14834,-38.0217 2.22422,-57.02597 0.98365,-19.08321 1.15583,-38.17626 1.28907,-57.2667 0.89111,-19.56743 2.31897,-39.12221 3.01157,-58.69312 0.0755,-20.52812 1.09871,-41.03706 2.30999,-61.55074 1.29543,-22.47667 1.5455,-44.9673 1.73903,-67.45461 0.15378,-24.9145 0.13402,-49.82921 0.12833,-74.74383 -0.60493,-23.30743 1.08401,-46.59553 2.17943,-69.88777 0.98847,-22.89074 1.1752,-45.78958 1.31038,-68.68642 -0.42565,-23.123029 0.50995,-46.226983 1.74942,-69.335414 1.11849,-20.2264059 1.51902,-40.462446 1.74432,-60.69799 0.16161,-19.429129 0.13972,-38.858567 0.13527,-58.287858 -0.16838,-19.751908 1.6498,-39.484888 2.62111,-59.224188 0.49536,-15.33627 2.57308,-30.63167 3.60565,-45.95635 0.56162,-13.00924 0.775,-26.00462 2.21504,-38.99415 0.96533,-7.39441 1.68577,-14.79806 2.07398,-22.21063 0.0251,-0.66142 -0.007,-1.32442 0.0751,-1.98426 1.21991,-9.86607 0.9331,-9.10059 3.41683,-17.6671 0.50247,-1.73309 1.32191,-3.87506 1.92886,-5.63477 0.11338,-0.32863 -0.24231,0.65535 -0.36347,0.98302 -0.32356,0.86128 -0.4579,1.74271 -0.62103,2.61806 -9.80659,60.82747 84.04499,27.76211 271.46649,47.38775 2.2809,0.23885 7.7036,-10.83424 9.4538,-14.26467 -50.3521,116.29843 -329.76031,74.38156 -279.40747,-41.91685 l 0,0 c 1.84312,-3.87508 9.17566,-20.15639 12.2015,-19.8949 199.69247,17.2577 282.87507,-15.50621 273.15147,45.83161 -0.639,3.51793 -1.4649,7.02349 -2.5263,10.50646 -0.4119,1.27197 -0.8156,2.54488 -1.2357,3.81593 -0.4927,1.49074 -0.387,3.06497 0.3164,-2.15474 0.4259,-3.1603 0.6453,-9.59472 0.3365,-2.2002 -0.5219,9.39026 -1.3518,18.77298 -2.5728,28.14134 -1.3672,11.47202 -0.9289,22.97565 -1.8023,34.46553 -1.0168,14.69494 -2.914,29.36367 -3.4943,44.06641 -0.898,18.0865 -2.5704,36.16755 -2.4991,54.263964 0.01,19.810303 0.026,39.620767 -0.1416,59.430909 -0.2444,21.647808 -0.6854,43.2960064 -1.8817,64.933987 -1.1544,21.521716 -2.0573,43.03539 -1.6075,64.571516 -0.1446,24.268854 -0.357,48.539704 -1.4196,72.801854 -1.0259,21.71602 -2.6715,43.42643 -2.0685,65.1569 0.01,25.2105 0.026,50.42109 -0.1321,75.63146 -0.2102,24.16485 -0.5044,48.33298 -1.9093,72.48613 -1.1656,19.738 -2.1418,39.46804 -2.1996,59.22055 -0.6698,18.61599 -1.8415,37.22074 -2.9504,55.82895 -0.1467,20.74827 -0.3549,41.4992 -1.4478,62.2392 -0.9757,17.11192 -2.6039,34.21669 -2.063,51.34504 0,16.28522 0,32.57049 0.011,48.85573 0.01,18.81843 0.025,37.63685 0,56.45527 -0.047,24.6112 -0.1215,49.22319 -0.6763,73.83259 -0.682,26.41074 -1.9143,52.81285 -2.8979,79.21982 0,27.39938 2e-4,54.79883 0,82.19813 0,22.28503 0,44.57006 -0.014,66.85499 -0.01,17.1642 -0.033,34.3283 0.01,51.4924 0.045,8.9343 0.049,17.8705 0.519,26.8015 -0.9489,-1.7725 -1.3976,-3.847 -2.1976,-5.6094 -0.4394,-0.9682 -1.8782,-3.8522 -1.4705,-2.8792 4.3153,10.2971 9.1376,19.2337 -2.3688,-3.4244 -9.0051,-9.1783 -19.6251,-23.6217 -35.9772,-30.6346 -14.3377,-6.1489 -31.15658,-10.1206 -45.40125,-16.344 -6.56726,-2.8693 15.51072,3.3941 22.16576,6.1924 28.21719,11.8646 54.37889,29.4635 31.75339,14.6435 -9.4745,-5.2018 -19.0059,-10.0545 -30.6624,-13.5651 -5.76633,-1.7365 -11.92036,-2.9897 -17.78376,-4.6097 -3.8124,-1.0535 18.28762,4.2406 11.80847,2.645 -1.04938,-0.1614 -4.14997,-0.743 -3.12183,-0.5397 11.08089,2.1904 3.84467,0.8846 15.03752,2.7333 196.0422,32.971 116.8292,196.1686 -79.21296,163.1977 z"
       inkscape:connector-curvature="0" />
    <path
       style="display:inline;opacity:1;fill:#e8dece;fill-opacity:1"
       id="path4202-7"
       d="m 1336.8921,1024.6024 c 4.566,11.3384 7.4525,22.9592 9.7103,34.6292 0.8628,4.4613 1.4926,8.9409 1.9143,13.4333 3.9158,72.2027 2.106,5.4082 -288.1042,5.984 -0.02,0 -0.035,-9.4982 -0.036,-10.0775 -0.011,-12.9182 -0.01,-25.8366 -0.01,-38.755 -3e-4,-18.886 0,-37.77199 10e-5,-56.65804 10e-5,-20.00181 2e-4,-40.00355 2e-4,-60.00536 0,-22.11156 0,-44.22319 0,-66.33483 -0.216,-24.79559 -0.057,-49.5754 1.0934,-74.35827 1.3532,-25.048 1.9202,-50.11075 2.2422,-75.17463 0.2535,-25.55094 0.2461,-51.10279 0.2494,-76.65427 -0.01,-25.12433 -0.014,-50.24866 -0.02,-75.373 -0.01,-28.09631 -0.01,-56.19263 -0.01,-84.28896 -0.9978,-29.19822 -2.2169,-58.39054 -2.8951,-87.59402 -0.4763,-29.17895 -0.9972,-58.36237 -0.2234,-87.53963 1.3803,-27.05239 2.3901,-54.08937 1.7146,-81.15626 -0.9428,-26.87996 -1.5591,-53.76376 -1.8967,-80.65078 0.5111,-25.146291 1.9436,-50.275438 2.6689,-75.419067 0.5182,-19.638004 0.5953,-39.2797689 0.6417,-58.920597 0.025,-19.824047 0.01,-39.648094 0,-59.472125 -0.01,-16.835736 -0.01,-33.671441 -0.011,-50.507181 -0.5595,-15.87149 1.1849,-31.70033 2.3413,-47.5361 0.8402,-12.57764 1.0406,-25.17026 1.175,-37.75981 0.079,-9.62425 0.072,-19.24874 0.062,-28.87314 -0.01,-4.31581 -0.012,-8.63161 -0.018,-12.94741 0,-1.86419 0,-3.72835 0,-5.59254 0,-145.13755 288.3379,-145.13934 288.3396,-0.002 l 0,0 c 0,1.805 -8e-4,3.61 0,5.415 0.01,4.32418 0.012,8.64835 0.018,12.97252 0.011,10.20496 0.016,20.41003 -0.071,30.61486 -0.1726,15.64394 -0.4713,31.291 -1.5618,46.9186 -0.909,12.25824 -2.4794,24.49212 -1.9458,36.77811 0,16.82131 0,33.642639 0.011,50.463945 0.01,19.958134 0.024,39.916281 0,59.874419 -0.05,20.936311 -0.1413,41.87355 -0.7027,62.806714 -0.673,23.124435 -1.8128,46.238095 -2.6188,69.359752 0.3273,26.32513 0.9484,52.64673 1.8658,78.96499 0.6898,29.63784 -0.1271,59.24944 -1.7328,88.86937 -0.8497,26.6485 -0.047,53.31043 0.2448,79.96168 0.6973,30.32838 2.0898,60.64283 2.9341,90.96865 4e-4,28.08733 7e-4,56.17464 0.01,84.26194 0.01,25.14016 0.014,50.28031 0.02,75.42044 0,26.17614 0,52.35259 -0.2617,78.52825 -0.3485,26.71005 -0.9582,53.41913 -2.3896,80.11259 -1.062,22.50618 -1.1048,45.00897 -0.9337,67.52779 0,22.11156 0,44.22327 0,66.3349 0,20.00205 0,40.00418 -2e-4,60.00623 -10e-5,18.88408 -4e-4,37.76824 -10e-5,56.65244 4e-4,12.8491 0,25.6984 0.01,38.5475 0,0.035 0.043,8.5537 0.026,8.5541 -289.9487,4.8827 -292.1034,-64.5012 -288.0895,7.5324 0.031,0.3154 0.657,5.6094 0.2178,2.3268 -0.3477,-1.9336 -0.6006,-3.8805 -1.2236,-5.7821 -56.0121,-139.55389 221.2334,-195.94187 277.2454,-56.3886 z"
       inkscape:connector-curvature="0" />
    <path
       style="display:inline;opacity:1;fill:#efe5d5;fill-opacity:1"
       id="path4220-5"
       d="m 1457.4093,1201.0985 c -14.4905,-2.2563 -28.6952,-5.1791 -42.5924,-8.4726 -8.1785,-0.4877 -15.1799,-3.7519 -22.4373,-6.0244 -14.2182,-4.4523 -25.9457,-10.4478 -37.5268,-16.9014 -23.5262,-15.5702 1.704,1.65 29.4117,13.4872 6.1963,2.6472 26.8784,8.5222 20.6962,5.8637 -14.7995,-6.3644 -32.0082,-10.63 -46.7278,-17.0582 -17.5486,-7.6634 -28.1622,-22.5962 -37.9234,-32.7339 -2.4928,-5.1166 -4.6647,-10.291 -7.4783,-15.3496 -1.3878,-2.495 2.6987,5.0391 3.1946,7.6481 0.4113,2.1638 -2.0877,-4.1794 -2.9381,-6.2982 -2.9951,-7.4632 -4.4955,-14.8912 -5.6791,-22.5092 -1.4322,-13.2289 -1.3561,-26.4939 -1.4255,-39.7436 -0.043,-17.3533 -0.018,-34.7067 -0.01,-52.0601 0.011,-22.26986 0.012,-44.53966 0.014,-66.80945 0,-27.39702 0,-54.79404 0,-82.19098 0.8552,-27.26524 2.2325,-54.52224 2.9309,-81.78952 0.5303,-23.81639 0.5984,-47.63514 0.6435,-71.45325 0.021,-18.73961 0.01,-37.47923 0,-56.21883 -0.01,-16.29845 -0.01,-32.59689 -0.011,-48.89534 -0.5534,-19.02223 1.1483,-38.02171 2.2242,-57.02597 0.9837,-19.08321 1.1559,-38.17625 1.2891,-57.2667 0.8911,-19.56743 2.319,-39.12221 3.0116,-58.69312 0.075,-20.52813 1.0987,-41.03706 2.31,-61.55074 1.2954,-22.47667 1.5455,-44.9673 1.739,-67.45461 0.1538,-24.9145 0.134,-49.82922 0.1283,-74.74384 -0.6049,-23.30742 1.084,-46.59552 2.1794,-69.88777 0.9885,-22.89073 1.1752,-45.78957 1.3104,-68.686412 -0.4256,-23.123029 0.51,-46.226975 1.7494,-69.335414 1.1185,-20.2263989 1.5191,-40.462445 1.7444,-60.697989 0.1616,-19.429129 0.1397,-38.858568 0.1352,-58.287855 -0.1683,-19.75192 1.6498,-39.48489 2.6211,-59.22419 0.4954,-15.33627 2.5731,-30.63167 3.6057,-45.95635 0.5616,-13.00924 0.775,-26.00462 2.215,-38.99415 0.9654,-7.39441 1.6858,-14.79806 2.074,-22.21063 0.025,-0.66142 -0.01,-1.32443 0.075,-1.98426 1.2199,-9.86607 0.9331,-9.10059 3.4168,-17.66711 0.5025,-1.73308 1.322,-3.87505 1.9289,-5.63476 0.1134,-0.32864 -0.2423,0.65534 -0.3635,0.98302 -0.3235,0.86128 -0.4579,1.7427 -0.621,2.61806 -9.8066,60.82748 84.045,27.76211 271.4665,47.38775 2.2809,0.23885 7.7036,-10.83424 9.4539,-14.26467 -50.3522,116.29843 -329.7604,74.38155 -279.4076,-41.91685 l 0,0 c 1.8432,-3.87508 9.1757,-20.15639 12.2015,-19.89491 199.6925,17.25772 282.8751,-15.50621 273.1515,45.83162 -0.6389,3.51792 -1.4649,7.02349 -2.5263,10.50646 -0.4119,1.27197 -0.8156,2.54488 -1.2356,3.81593 -0.4927,1.49074 -0.3871,3.06497 0.3164,-2.15474 0.4258,-3.1603 0.6452,-9.59472 0.3364,-2.2002 -0.5219,9.39027 -1.3518,18.77298 -2.5727,28.14133 -1.3673,11.47204 -0.929,22.97565 -1.8023,34.46554 -1.0169,14.69494 -2.9141,29.36367 -3.4944,44.06641 -0.898,18.08649 -2.5704,36.16755 -2.499,54.26396 0.01,19.810306 0.026,39.62077 -0.1417,59.430911 -0.2444,21.647809 -0.6853,43.2960064 -1.8817,64.933995 -1.1544,21.521708 -2.0573,43.035382 -1.6075,64.571508 -0.1445,24.268856 -0.357,48.539706 -1.4196,72.801846 -1.0259,21.71603 -2.6715,43.42644 -2.0685,65.15691 0.01,25.21049 0.026,50.42109 -0.132,75.63146 -0.2103,24.16485 -0.5045,48.33298 -1.9094,72.48612 -1.1656,19.73802 -2.1417,39.46804 -2.1996,59.22056 -0.6697,18.61599 -1.8415,37.22074 -2.9504,55.82895 -0.1466,20.74827 -0.3549,41.4992 -1.4477,62.2392 -0.9758,17.11192 -2.604,34.2167 -2.0631,51.34504 0,16.28522 0,32.57049 0.011,48.85573 0.01,18.81839 0.025,37.63681 0,56.45522 -0.047,24.61128 -0.1215,49.22319 -0.6763,73.83267 -0.6819,26.41066 -1.9143,52.81285 -2.8979,79.21982 0,27.39946 2e-4,54.79875 0,82.19813 0,22.28503 0,44.57006 -0.014,66.85506 -0.01,17.164 -0.034,34.3281 0.01,51.4924 0.045,8.9342 0.05,17.8704 0.5191,26.8013 -0.9489,-1.7725 -1.3977,-3.8469 -2.1976,-5.6094 -0.4394,-0.9681 -1.8783,-3.8521 -1.4705,-2.879 4.3152,10.297 9.1375,19.2336 -2.3688,-3.4244 -9.0052,-9.1784 -19.6251,-23.6218 -35.9773,-30.6347 -14.3377,-6.1489 -31.1566,-10.1207 -45.4012,-16.3441 -6.5673,-2.8692 15.5107,3.3942 22.1657,6.1926 28.2173,11.8645 54.379,29.4633 31.7534,14.6435 -9.4744,-5.2019 -19.0059,-10.0546 -30.6624,-13.5653 -5.7663,-1.7365 -11.9204,-2.9896 -17.7838,-4.6096 -3.8124,-1.0536 18.2877,4.2407 11.8085,2.645 -1.0494,-0.1614 -4.15,-0.743 -3.1218,-0.5397 11.0809,2.1904 3.8447,0.8845 15.0375,2.7332 196.0422,32.971 116.8292,196.1687 -79.213,163.1978 z"
       inkscape:connector-curvature="0" />
    <path
       style="display:inline;opacity:1;fill:#e8dece;fill-opacity:1"
       id="path4202-35"
       d="m 1863.7349,1029.9864 c 4.5659,11.3384 7.4525,22.9592 9.7103,34.6292 0.8629,4.4613 1.4926,8.9409 1.9142,13.4333 3.9159,72.2027 2.1062,5.4082 -288.104,5.984 -0.02,0 -0.035,-9.4982 -0.036,-10.0775 -0.011,-12.9182 -0.01,-25.8367 -0.01,-38.755 -2e-4,-18.886 0,-37.77197 10e-5,-56.6581 2e-4,-20.00173 2e-4,-40.00347 2e-4,-60.00528 0,-22.11156 0,-44.22327 0,-66.33483 -0.2159,-24.79559 -0.057,-49.5754 1.0935,-74.35835 1.3531,-25.04792 1.9201,-50.11075 2.2421,-75.17457 0.2536,-25.55094 0.2462,-51.10278 0.2494,-76.65426 -0.01,-25.12434 -0.014,-50.24867 -0.02,-75.37301 -0.01,-28.09631 -0.01,-56.19264 -0.01,-84.28895 -0.9978,-29.19822 -2.2169,-58.39055 -2.8951,-87.59403 -0.4763,-29.17894 -0.9972,-58.36237 -0.2234,-87.53962 1.3803,-27.0524 2.3901,-54.08938 1.7146,-81.15627 -0.9428,-26.87996 -1.559,-53.76376 -1.8966,-80.65078 0.511,-25.14629 1.9436,-50.275434 2.6688,-75.419063 0.5183,-19.638004 0.5954,-39.279777 0.6417,-58.9206043 0.025,-19.8240427 0.01,-39.6480867 0,-59.4721197 -0.01,-16.835735 -0.01,-33.671444 -0.011,-50.507183 -0.5595,-15.87148 1.1849,-31.70033 2.3413,-47.5361 0.8401,-12.57765 1.0406,-25.17026 1.175,-37.7598 0.079,-9.62426 0.072,-19.24875 0.062,-28.87315 -0.01,-4.31581 -0.013,-8.63161 -0.018,-12.94741 0,-1.86418 0,-3.72835 0,-5.59254 0,-145.13755 288.3379,-145.13934 288.3397,-0.002 l 0,0 c 0,1.805 -9e-4,3.61 0,5.41501 0,4.32417 0.018,8.64833 0.018,12.97251 0.018,10.20496 0.018,20.41002 -0.071,30.61487 -0.1727,15.64392 -0.4714,31.29098 -1.5619,46.91859 -0.909,12.25824 -2.4794,24.49212 -1.9457,36.7781 0,16.821311 0,33.642644 0.018,50.46395 0,19.958134 0.023,39.916282 0,59.8744131 -0.05,20.9363179 -0.1406,41.8735569 -0.7027,62.8067209 -0.6731,23.124435 -1.8129,46.238096 -2.6189,69.359746 0.3273,26.32513 0.9485,52.64674 1.8659,78.965 0.6897,29.63783 -0.1264,59.24944 -1.7329,88.86936 -0.8497,26.64851 -0.046,53.31043 0.2447,79.9617 0.6974,30.32837 2.0899,60.64282 2.9341,90.96864 4e-4,28.08732 8e-4,56.17464 0,84.26195 0,25.14015 0.018,50.28029 0.02,75.42042 0,26.17614 0,52.35259 -0.2616,78.52825 -0.3487,26.71 -0.9583,53.41916 -2.3897,80.11262 -1.062,22.50618 -1.1049,45.00897 -0.9337,67.52779 0,22.11156 0,44.22319 0,66.3349 0,20.00205 0,40.0041 -2e-4,60.00623 -2e-4,18.88408 -3e-4,37.76822 -2e-4,56.65242 4e-4,12.8491 0,25.6984 0,38.5475 0,0.034 0.043,8.5537 0.025,8.5542 -289.9488,4.8826 -292.1034,-64.5012 -288.0896,7.5323 0.031,0.3154 0.6571,5.6093 0.2178,2.3269 -0.3477,-1.9338 -0.6006,-3.8806 -1.2235,-5.7822 -56.0121,-139.55387 221.2333,-195.94185 277.2454,-56.3886 z"
       inkscape:connector-curvature="0" />
    <path
       style="display:inline;opacity:1;fill:#efe5d5;fill-opacity:1"
       id="path4220-62"
       d="m 1984.2522,1206.4825 c -14.4905,-2.2562 -28.6952,-5.1791 -42.5924,-8.4726 -8.1786,-0.4878 -15.1799,-3.7518 -22.4373,-6.0244 -14.2184,-4.4523 -25.9458,-10.4478 -37.5269,-16.9014 -23.5262,-15.5703 1.7041,1.65 29.4117,13.4872 6.1963,2.6472 26.8785,8.5222 20.6962,5.8637 -14.7994,-6.3643 -32.0082,-10.63 -46.7277,-17.0582 -17.5487,-7.6634 -28.1623,-22.5962 -37.9234,-32.7339 -2.4929,-5.1165 -4.6647,-10.291 -7.4784,-15.3496 -1.3877,-2.495 2.6987,5.0391 3.1947,7.6481 0.4114,2.1638 -2.0878,-4.1794 -2.9382,-6.2982 -2.995,-7.4632 -4.4954,-14.8912 -5.679,-22.5092 -1.4323,-13.2289 -1.3561,-26.4939 -1.4255,-39.7436 -0.043,-17.3533 -0.018,-34.7066 -0.018,-52.0601 0.018,-22.26984 0.018,-44.53972 0.018,-66.80951 0,-27.39694 10e-4,-54.79404 10e-4,-82.1909 0.8551,-27.26524 2.2325,-54.52224 2.931,-81.78952 0.5302,-23.81639 0.5982,-47.63514 0.6434,-71.45325 0.021,-18.73963 0,-37.47924 0,-56.21885 0,-16.29845 -0.018,-32.59689 -0.018,-48.89534 -0.5534,-19.02222 1.1484,-38.02171 2.2243,-57.02597 0.9835,-19.0832 1.1558,-38.17626 1.289,-57.2667 0.8912,-19.56743 2.319,-39.1222 3.0115,-58.69312 0.075,-20.52812 1.0987,-41.03706 2.3101,-61.55074 1.2954,-22.47666 1.5455,-44.9673 1.739,-67.45461 0.153,-24.9145 0.1334,-49.82922 0.1281,-74.74383 -0.6048,-23.30743 1.0841,-46.59552 2.1795,-69.88777 0.9885,-22.89074 1.1752,-45.78957 1.3103,-68.686418 -0.4256,-23.123029 0.5099,-46.226975 1.7494,-69.335414 1.1185,-20.2264059 1.5192,-40.462446 1.7443,-60.697991 0.162,-19.429129 0.1406,-38.858567 0.1353,-58.287858 -0.1691,-19.751909 1.6498,-39.484889 2.621,-59.224189 0.4954,-15.33628 2.573,-30.63166 3.6057,-45.95635 0.5616,-13.00925 0.775,-26.00461 2.2151,-38.99415 0.9652,-7.39442 1.6857,-14.79806 2.0739,-22.21063 0.025,-0.66142 0,-1.32442 0.075,-1.98426 1.2199,-9.86607 0.9332,-9.10059 3.4168,-17.6671 0.5025,-1.73308 1.322,-3.87505 1.9289,-5.63476 0.1139,-0.32864 -0.2422,0.65534 -0.3635,0.98301 -0.3235,0.86128 -0.4579,1.7427 -0.621,2.61806 -9.8065,60.82747 84.045,27.76211 271.4665,47.38774 2.2809,0.23886 7.7036,-10.83422 9.4538,-14.26466 -50.3521,116.29843 -329.7604,74.38156 -279.4074,-41.91685 l 0,0 c 1.8431,-3.87508 9.1757,-20.15639 12.2014,-19.8949 199.6925,17.25771 282.8751,-15.50621 273.1515,45.83162 -0.639,3.51792 -1.4648,7.02348 -2.5262,10.50646 -0.4118,1.27197 -0.8157,2.54487 -1.2358,3.81592 -0.4926,1.49074 -0.3869,3.06497 0.3165,-2.15474 0.4259,-3.1603 0.6452,-9.59472 0.3364,-2.2002 -0.5219,9.39027 -1.3518,18.77298 -2.5728,28.14133 -1.3671,11.47203 -0.9289,22.97566 -1.8023,34.46554 -1.0168,14.69495 -2.914,29.36367 -3.4943,44.06641 -0.8979,18.0865 -2.5704,36.16755 -2.4991,54.263965 0,19.810303 0.027,39.620767 -0.1424,59.430909 -0.2443,21.647809 -0.6852,43.2960074 -1.8815,64.933988 -1.1544,21.521716 -2.0573,43.035382 -1.6076,64.571516 -0.1441,24.268852 -0.357,48.539702 -1.4196,72.801852 -1.0259,21.71602 -2.6716,43.42643 -2.0686,65.1569 0,25.2105 0.025,50.42109 -0.1317,75.63146 -0.2102,24.16485 -0.5044,48.33297 -1.9092,72.48613 -1.1657,19.738 -2.1418,39.46804 -2.1996,59.22055 -0.6698,18.616 -1.8415,37.22074 -2.9503,55.82895 -0.146,20.74827 -0.3551,41.4992 -1.4479,62.2392 -0.9758,17.11192 -2.6038,34.21669 -2.0631,51.34504 0,16.28523 0,32.57049 0.018,48.85573 0.018,18.8184 0.025,37.63681 0,56.45524 -0.046,24.6112 -0.121,49.22311 -0.6764,73.83267 -0.6818,26.41066 -1.9142,52.81285 -2.8978,79.21982 0,27.39938 2e-4,54.79875 0,82.19813 0,22.28495 0,44.57006 -0.018,66.85494 -0.018,17.1642 -0.034,34.3283 0,51.4925 0.044,8.9342 0.05,17.8704 0.519,26.8014 -0.9489,-1.7726 -1.3976,-3.847 -2.1976,-5.6094 -0.4393,-0.9682 -1.8782,-3.8522 -1.4706,-2.8792 4.3153,10.2971 9.1377,19.2337 -2.3686,-3.4243 -9.0053,-9.1784 -19.6251,-23.6218 -35.9773,-30.6347 -14.3378,-6.1489 -31.1566,-10.1206 -45.4013,-16.3442 -6.5673,-2.8691 15.5108,3.3943 22.1657,6.1926 28.2173,11.8646 54.3791,29.4634 31.7535,14.6436 -9.4744,-5.2019 -19.006,-10.0547 -30.6624,-13.5653 -5.7665,-1.7365 -11.9204,-2.9896 -17.7838,-4.6097 -3.8123,-1.0535 18.2877,4.2408 11.8084,2.645 -1.0493,-0.1613 -4.15,-0.7429 -3.1217,-0.5396 11.0807,2.1904 3.8447,0.8845 15.0374,2.7332 196.0423,32.9711 116.8292,196.1688 -79.2129,163.1978 z"
       inkscape:connector-curvature="0" />
    <path
       style="display:inline;opacity:1;fill:#e8dece;fill-opacity:1"
       id="path4202-9"
       d="m 2401.124,1033.8376 c 4.7589,11.289 7.7675,22.8589 10.1207,34.4778 0.8994,4.4417 1.5557,8.9017 1.9952,13.3746 4.0815,71.8873 2.1952,5.3846 -300.282,5.9579 -0.022,0 -0.037,-9.4567 -0.037,-10.0333 -0.019,-12.8621 -0.019,-25.7239 -0.019,-38.5857 -2e-4,-18.8036 10e-5,-37.607 3e-4,-56.41049 0,-19.91438 0,-39.82869 0,-59.74307 0,-22.01491 0,-44.02989 0,-66.04488 -0.225,-24.68713 -0.059,-49.3587 1.1398,-74.03333 1.4102,-24.93843 2.0013,-49.89171 2.3369,-74.84594 0.2643,-25.43928 0.2565,-50.87943 0.2598,-76.31922 0,-25.01453 -0.019,-50.02903 -0.021,-75.04355 0,-27.9735 0,-55.94702 0,-83.92053 -1.04,-29.07058 -2.3106,-58.13531 -3.0176,-87.21113 -0.4964,-29.05142 -1.0392,-58.10728 -0.2327,-87.157 1.4385,-26.93415 2.4911,-53.85295 1.7869,-80.80153 -0.9824,-26.76246 -1.6248,-53.52875 -1.9767,-80.29825 0.5328,-25.03637 2.0257,-50.05568 2.7817,-75.089405 0.5402,-19.552165 0.6206,-39.108083 0.6687,-58.6630554 0.026,-19.7373946 0,-39.4747886 0,-59.2121686 0,-16.762146 0,-33.524265 -0.019,-50.286411 -0.5831,-15.80212 1.2349,-31.56177 2.4402,-47.32832 0.8757,-12.52267 1.0846,-25.06025 1.2247,-37.59477 0.081,-9.58217 0.076,-19.16459 0.065,-28.74692 0,-4.29694 -0.019,-8.59388 -0.019,-12.89082 0,-1.85603 0,-3.71206 0,-5.5681 0,-144.50314 300.5259,-144.50493 300.5278,-0.002 l 0,0 c 0,1.79711 -10e-4,3.59423 0,5.39134 0,4.30527 0.019,8.61053 0.019,12.91581 0.019,10.16034 0.019,20.32081 -0.074,30.48104 -0.18,15.57555 -0.4912,31.15422 -1.6279,46.71351 -0.9473,12.20467 -2.5841,24.38507 -2.0279,36.61735 0,16.747782 0,33.495589 0.019,50.243368 0,19.870897 0.026,39.741807 0,59.6126975 -0.052,20.8448075 -0.1466,41.6905285 -0.7324,62.5321925 -0.7016,23.023366 -1.8894,46.035992 -2.7296,69.056562 0.3412,26.21008 0.9886,52.41663 1.9447,78.61985 0.7188,29.50829 -0.1318,58.99046 -1.8062,88.4809 -0.8856,26.53203 -0.048,53.07742 0.2553,79.61219 0.7267,30.19579 2.1781,60.37775 3.0581,90.57102 4e-4,27.96454 6e-4,55.9291 0,83.89363 0,25.03026 0.019,50.06052 0.021,75.09075 0,26.06174 0,52.12376 -0.2727,78.18496 -0.3634,26.59336 -0.9988,53.1857 -2.4907,79.76248 -1.1069,22.4078 -1.1516,44.81223 -0.9732,67.23262 0,22.01499 0,44.02989 0,66.04495 0,19.91463 0,39.82925 -2e-4,59.74394 -2e-4,18.80152 -3e-4,37.60312 -2e-4,56.40482 4e-4,12.7929 0,25.586 0.019,38.379 0,0.035 0.045,8.5163 0.026,8.5168 -302.2047,4.8613 -304.4505,-64.2192 -300.2668,7.4993 0.031,0.314 0.6846,5.5848 0.2268,2.3168 -0.3625,-1.9254 -0.6259,-3.8635 -1.2751,-5.757 -58.3799,-138.94381 230.5848,-195.08531 288.9643,-56.1421 z"
       inkscape:connector-curvature="0" />
    <rect
       style="fill:none;fill-opacity:1;stroke:#000000;stroke-width:31.74465561;stroke-linecap:round;stroke-linejoin:round;stroke-miterlimit:4;stroke-dasharray:none;stroke-opacity:1"
       id="rect4186"
       width="1005.7166"
       height="1004.6678"
       x="699.4173"
       y="-78.538559" />
  </g>
  <g
     inkscape:groupmode="layer"
     id="layer3"
     inkscape:label="Draw"
     style="display:inline"
     transform="translate(0,297.63778)" />
</svg>
