<?xml version="1.0" encoding="UTF-8" standalone="no"?>
<!-- Created with Inkscape (http://www.inkscape.org/) -->

<svg
   xmlns:dc="http://purl.org/dc/elements/1.1/"
   xmlns:cc="http://creativecommons.org/ns#"
   xmlns:rdf="http://www.w3.org/1999/02/22-rdf-syntax-ns#"
   xmlns:svg="http://www.w3.org/2000/svg"
   xmlns="http://www.w3.org/2000/svg"
   xmlns:sodipodi="http://sodipodi.sourceforge.net/DTD/sodipodi-0.dtd"
   xmlns:inkscape="http://www.inkscape.org/namespaces/inkscape"
   width="1920pt"
   height="1080pt"
   viewBox="0 0 2400.0001 1350"
   id="svg2"
   version="1.1"
   inkscape:version="0.91 r13725"
   sodipodi:docname="scene1b_background_close-1920-1080.svg">
  <defs
     id="defs4" />
  <sodipodi:namedview
     id="base"
     pagecolor="#ffffff"
     bordercolor="#666666"
     borderopacity="1.0"
     inkscape:pageopacity="0"
     inkscape:pageshadow="2"
     inkscape:zoom="0.33057242"
     inkscape:cx="1086.5331"
     inkscape:cy="1287.5762"
     inkscape:document-units="px"
     inkscape:current-layer="layer2"
     showgrid="false"
     showguides="false"
     inkscape:window-width="1855"
     inkscape:window-height="1056"
     inkscape:window-x="65"
     inkscape:window-y="24"
     inkscape:window-maximized="1"
     inkscape:showpageshadow="false"
     units="pt" />
  <metadata
     id="metadata7">
    <rdf:RDF>
      <cc:Work
         rdf:about="">
        <dc:format>image/svg+xml</dc:format>
        <dc:type
           rdf:resource="http://purl.org/dc/dcmitype/StillImage" />
        <dc:title />
      </cc:Work>
    </rdf:RDF>
  </metadata>
  <g
     inkscape:groupmode="layer"
     id="layer1"
     inkscape:label="Image"
     style="opacity:0.43500001"
     sodipodi:insensitive="true" />
  <g
     inkscape:groupmode="layer"
     id="layer2"
     inkscape:label="Paint"
     style="display:inline;opacity:1"
     transform="translate(0,297.63778)">
    <path
       style="fill:#e8dece;fill-opacity:1"
       id="path4202"
       d="m 271.2261,1025.0104 c 5.01626,11.5367 8.18748,23.3607 10.66795,35.2346 0.94792,4.5392 1.6398,9.0972 2.10311,13.6682 4.30206,73.4651 2.31376,5.5027 -316.51891,6.0886 -0.02236,0 -0.03829,-9.6642 -0.03922,-10.2537 -0.01224,-13.144 -0.01026,-26.2883 -0.01071,-39.4326 -2.5e-4,-19.2162 5.1e-5,-38.43235 1.87e-4,-57.64861 1.35e-4,-20.35144 1.6e-4,-40.70306 1.77e-4,-61.0545 1.3e-5,-22.49825 1e-5,-44.9964 9e-6,-67.49464 -0.237257,-25.22912 -0.06237,-50.44227 1.201275,-75.65836 1.486578,-25.48594 2.109522,-50.98698 2.463312,-76.48898 0.278554,-25.99774 0.270409,-51.99628 0.273953,-77.99451 -0.0057,-25.56362 -0.01656,-51.12723 -0.022,-76.69084 -0.0051,-28.58755 -0.0054,-57.17511 -0.0058,-85.76267 -1.096231,-29.70873 -2.435569,-59.41146 -3.18066,-89.12553 -0.523239,-29.68913 -1.095494,-59.3828 -0.245397,-89.07019 1.51647,-27.52537 2.62583,-55.03508 1.883664,-82.57522 -1.03575,-27.34993 -1.712773,-54.70377 -2.083668,-82.06088 0.561436,-25.585957 2.135305,-51.154458 2.93203,-76.737709 0.569402,-19.981358 0.654098,-39.9665428 0.705055,-59.950781 0.02717,-20.170644 0.0093,-40.341297 0.0011,-60.511935 -0.0072,-17.130095 -0.01,-34.260165 -0.01146,-51.390255 -0.614673,-16.14898 1.301756,-32.25459 2.57221,-48.36722 0.923044,-12.79756 1.143239,-25.61035 1.29088,-38.42002 0.08638,-9.79252 0.0794,-19.58529 0.06822,-29.37796 -0.0061,-4.39126 -0.01304,-8.78253 -0.01887,-13.17379 -0.0033,-1.89677 -0.0024,-3.79353 -0.0024,-5.69031 -0.0019,-147.67516 316.775713,-147.67698 316.777643,-0.002 l 0,0 c 2e-5,1.83656 -9.3e-4,3.67311 0.002,5.50967 0.005,4.39978 0.0137,8.79954 0.0195,13.19933 0.0118,10.38338 0.0176,20.76688 -0.0777,31.15013 -0.18968,15.91745 -0.51785,31.83809 -1.71586,47.73893 -0.99865,12.47257 -2.72393,24.92035 -2.13776,37.42114 0.001,17.11541 0.004,34.23085 0.0118,51.346267 0.008,20.307085 0.0264,40.614184 -10e-4,60.92127 -0.0552,21.302356 -0.15526,42.605673 -0.772,63.904844 -0.73948,23.528738 -1.99163,47.046524 -2.87716,70.572439 0.35961,26.78541 1.04201,53.56722 2.04982,80.34563 0.75781,30.15603 -0.13961,60.28537 -1.90365,90.42317 -0.93352,27.11442 -0.0516,54.24253 0.26888,81.35976 0.76612,30.85863 2.296,61.7031 3.22353,92.55915 3.9e-4,28.5784 7e-4,57.15681 0.005,85.73519 0.005,25.57971 0.0156,51.15941 0.0221,76.73909 -0.004,26.63381 0.004,53.26795 -0.28743,79.9012 -0.38297,27.17711 -1.05271,54.35311 -2.62528,81.51335 -1.16682,22.89968 -1.21385,45.79591 -1.02583,68.70837 0,22.49825 0,44.99656 0,67.49472 -2e-5,20.35177 -4e-5,40.70362 -1.8e-4,61.05539 -1.4e-4,19.21441 -4.5e-4,38.42857 -1.9e-4,57.64297 4.5e-4,13.0739 -10e-4,26.1476 0.01,39.2215 6e-5,0.036 0.0469,8.7033 0.0281,8.7036 -318.545372,4.9682 -320.912561,-65.6288 -316.502826,7.664 0.03357,0.321 0.721861,5.7075 0.239265,2.3677 -0.381998,-1.9676 -0.659827,-3.9484 -1.344198,-5.8833 C -94.899525,940.39109 209.68976,883.01713 271.2261,1025.0104 Z"
       inkscape:connector-curvature="0" />
    <path
       style="fill:#efe5d5;fill-opacity:1"
       id="path4220"
       d="m 393.61319,1202.9339 c -14.49049,-2.2563 -28.69511,-5.1792 -42.59236,-8.4727 -8.17852,-0.4876 -15.17989,-3.7518 -22.43727,-6.0243 -14.21824,-4.4521 -25.94575,-10.4477 -37.52685,-16.9014 -23.52615,-15.5703 1.70401,1.65 29.41167,13.4872 6.19631,2.6472 26.8784,8.5222 20.6962,5.8637 -14.7994,-6.3643 -32.00814,-10.6301 -46.72772,-17.0581 -17.5486,-7.6635 -28.16218,-22.5962 -37.92346,-32.734 -2.49278,-5.1165 -4.66469,-10.2911 -7.47832,-15.3496 -1.38777,-2.4949 2.69873,5.0392 3.1947,7.6481 0.41129,2.1638 -2.08776,-4.1793 -2.93811,-6.2982 -2.99512,-7.4632 -4.49552,-14.8912 -5.67917,-22.5091 -1.43216,-13.229 -1.35604,-26.4938 -1.4255,-39.7437 -0.0427,-17.3533 -0.0178,-34.7066 -0.009,-52.06 0.0107,-22.26993 0.0125,-44.53973 0.0142,-66.80952 10e-4,-27.39702 10e-4,-54.79404 10e-4,-82.19106 0.85518,-27.26524 2.23248,-54.52216 2.93096,-81.78944 0.53024,-23.81639 0.59832,-47.63514 0.64351,-71.45325 0.0207,-18.73959 0.005,-37.4792 -0.004,-56.21883 -0.007,-16.29845 -0.009,-32.59689 -0.0107,-48.89534 -0.55341,-19.02222 1.14834,-38.0217 2.22422,-57.02597 0.98365,-19.08321 1.15584,-38.17625 1.28908,-57.2667 0.89111,-19.56742 2.31896,-39.12221 3.01156,-58.69312 0.0755,-20.52813 1.09872,-41.03706 2.30999,-61.55074 1.29543,-22.47667 1.5455,-44.9673 1.73903,-67.4546 0.15378,-24.91451 0.13403,-49.82922 0.12833,-74.74384 -0.60493,-23.30743 1.08401,-46.59552 2.17944,-69.88777 0.98847,-22.89074 1.1752,-45.78958 1.31038,-68.686421 -0.42566,-23.123014 0.50995,-46.226976 1.74942,-69.335414 1.11849,-20.22640601 1.51901,-40.462443 1.74431,-60.697987 0.16161,-19.429129 0.13972,-38.858567 0.13527,-58.287858 -0.16838,-19.75191 1.6498,-39.48489 2.62112,-59.22419 0.49535,-15.33627 2.57307,-30.63167 3.60565,-45.95635 0.56162,-13.00924 0.77499,-26.00461 2.21503,-38.99415 0.96534,-7.39441 1.68578,-14.79805 2.07398,-22.21063 0.0251,-0.66142 -0.007,-1.32442 0.0751,-1.98425 1.21991,-9.86607 0.9331,-9.1006 3.41683,-17.66712 0.50248,-1.73308 1.32191,-3.87505 1.92887,-5.63476 0.11338,-0.32863 -0.24232,0.65535 -0.36347,0.98302 -0.32356,0.86129 -0.45791,1.74271 -0.62103,2.61806 -9.8066,60.82748 84.04499,27.76211 271.46648,47.38775 2.28091,0.23886 7.70361,-10.83424 9.45387,-14.26467 -50.35217,116.29843 -329.76038,74.38155 -279.40753,-41.91685 l 0,0 c 1.84311,-3.87508 9.17566,-20.15638 12.2015,-19.8949 199.69244,17.25771 282.87508,-15.50622 273.15147,45.83162 -0.63894,3.51792 -1.46491,7.02348 -2.52626,10.50646 -0.4119,1.27197 -0.81561,2.54488 -1.2357,3.81593 -0.49269,1.49073 -0.38702,3.06496 0.31641,-2.15475 0.42589,-3.1603 0.64526,-9.59472 0.33645,-2.20019 -0.52186,9.39026 -1.35178,18.77297 -2.57276,28.14133 -1.36721,11.47203 -0.92891,22.97565 -1.8023,34.46553 -1.01686,14.69494 -2.91406,29.36367 -3.4943,44.06641 -0.89804,18.0865 -2.57046,36.16755 -2.49909,54.263966 0.005,19.810303 0.0263,39.620768 -0.14168,59.430909 -0.24437,21.647809 -0.68532,43.2959955 -1.88164,64.933992 -1.15443,21.521716 -2.05736,43.035374 -1.60755,64.571515 -0.14453,24.268848 -0.35695,48.539698 -1.41957,72.801848 -1.02592,21.71602 -2.67154,43.42643 -2.0685,65.1569 0.005,25.2105 0.0256,50.42109 -0.13207,75.63147 -0.21024,24.16485 -0.50442,48.33297 -1.90932,72.48611 -1.16561,19.73802 -2.14176,39.46804 -2.19961,59.22056 -0.66977,18.616 -1.84149,37.22075 -2.95039,55.82895 -0.14666,20.74827 -0.35492,41.4992 -1.44777,62.2392 -0.97572,17.11192 -2.60394,34.2167 -2.06305,51.34504 10e-4,16.28524 0.004,32.5705 0.0107,48.85573 0.009,18.81842 0.0247,37.63683 0.004,56.45522 -0.047,24.61128 -0.12157,49.22319 -0.67635,73.83259 -0.68194,26.41082 -1.91429,52.81293 -2.89792,79.2199 3e-5,27.39938 2.5e-4,54.79875 -10e-4,82.19813 -0.002,22.28503 -0.004,44.56998 -0.0142,66.85503 -0.009,17.1642 -0.0335,34.3282 0.007,51.4923 0.0452,8.9343 0.0495,17.8705 0.51906,26.8015 -0.94888,-1.7725 -1.39766,-3.847 -2.19759,-5.6095 -0.4394,-0.9682 -1.87825,-3.8521 -1.4705,-2.879 4.31524,10.297 9.13758,19.2336 -2.3688,-3.4244 -9.00516,-9.1784 -19.62509,-23.6217 -35.97724,-30.6347 -14.33772,-6.149 -31.15659,-10.1206 -45.40127,-16.3441 -6.56725,-2.8691 15.51072,3.3942 22.16576,6.1926 28.21726,11.8645 54.37895,29.4633 31.75344,14.6436 -9.47449,-5.2019 -19.00596,-10.0548 -30.66245,-13.5653 -5.76633,-1.7366 -11.92035,-2.9897 -17.78376,-4.6097 -3.8124,-1.0535 18.28763,4.2407 11.80847,2.645 -1.04937,-0.1614 -4.14997,-0.743 -3.12183,-0.5398 11.0809,2.1906 3.84468,0.8846 15.03756,2.7334 196.04217,32.971 116.82916,196.1687 -79.21299,163.1977 z"
       inkscape:connector-curvature="0" />
    <path
       style="display:inline;opacity:1;fill:#e8dece;fill-opacity:1"
       id="path4202-3"
       d="m 802.92979,1027.2945 c 4.56595,11.3384 7.45248,22.959 9.71027,34.6292 0.86283,4.4612 1.49258,8.9407 1.9143,13.4332 3.91585,72.2027 2.10606,5.4083 -288.10416,5.9841 -0.0203,0 -0.0349,-9.4983 -0.0356,-10.0776 -0.0107,-12.9183 -0.009,-25.8366 -0.009,-38.7549 -2.3e-4,-18.8861 3e-5,-37.77212 1.6e-4,-56.65809 1.2e-4,-20.00181 1.6e-4,-40.00363 1.6e-4,-60.00544 2e-5,-22.11156 2e-5,-44.22319 2e-5,-66.33475 -0.21596,-24.79559 -0.0568,-49.57548 1.09343,-74.35835 1.35313,-25.04792 1.92014,-50.11083 2.24218,-75.17456 0.25354,-25.55101 0.24612,-51.10282 0.24936,-76.6543 -0.005,-25.12435 -0.0142,-50.24867 -0.0199,-75.373 -0.005,-28.09632 -0.005,-56.19264 -0.005,-84.28897 -0.99783,-29.19821 -2.21692,-58.39054 -2.89512,-87.59402 -0.47628,-29.17895 -0.99716,-58.36237 -0.22338,-87.53963 1.38033,-27.05239 2.39011,-54.08937 1.71457,-81.15625 -0.94278,-26.87997 -1.55903,-53.76377 -1.89661,-80.65079 0.51103,-25.14629 1.9436,-50.275436 2.66881,-75.419065 0.51828,-19.638004 0.59537,-39.279769 0.64175,-58.9205965 0.0247,-19.8240485 0.009,-39.6480945 10e-4,-59.4721265 -0.007,-16.835735 -0.009,-33.671442 -0.0107,-50.507182 -0.55951,-15.87148 1.1849,-31.70033 2.3413,-47.53609 0.84017,-12.57766 1.0406,-25.17027 1.17498,-37.75982 0.0787,-9.62425 0.0723,-19.24874 0.0621,-28.87314 -0.005,-4.31581 -0.0125,-8.63161 -0.0178,-12.94741 -0.004,-1.86419 -0.002,-3.72835 -0.002,-5.59253 -0.002,-145.13756 288.33789,-145.13935 288.33966,-0.002 l 0,0 c 1e-5,1.805 -8.6e-4,3.61 0.002,5.415 0.005,4.32417 0.0125,8.64834 0.0178,12.97252 0.0107,10.20495 0.016,20.41002 -0.0707,30.61485 -0.17264,15.64393 -0.47136,31.291 -1.56182,46.9186 -0.909,12.25825 -2.4794,24.49213 -1.94585,36.77811 10e-4,16.82131 0.004,33.64264 0.0107,50.463946 0.007,19.958135 0.024,39.916282 -10e-4,59.8744129 -0.0502,20.9363181 -0.14132,41.8735571 -0.7027,62.8067211 -0.67309,23.124435 -1.81283,46.2381 -2.61887,69.35975 0.32732,26.32513 0.94846,52.64673 1.86581,78.96499 0.68977,29.63784 -0.12709,59.24944 -1.73276,88.86937 -0.84972,26.6485 -0.047,53.31043 0.24475,79.96169 0.69733,30.32837 2.08987,60.64282 2.93414,90.96865 3.5e-4,28.08731 6.4e-4,56.17464 0.005,84.26193 0.005,25.14017 0.0142,50.28031 0.0201,75.42044 -0.004,26.17614 0.004,52.35263 -0.26162,78.52821 -0.34859,26.71006 -0.95822,53.41914 -2.38961,80.1126 -1.06207,22.50626 -1.10487,45.00897 -0.93374,67.52779 0,22.11164 0,44.22327 0,66.3349 -2e-5,20.00205 -4e-5,40.00411 -1.6e-4,60.00623 -1.2e-4,18.88416 -4.1e-4,37.7684 -1.8e-4,56.6525 4.1e-4,12.8491 -10e-4,25.6983 0.009,38.5475 6e-5,0.035 0.0427,8.5537 0.0256,8.5541 -289.9487,4.8828 -292.10338,-64.5011 -288.08951,7.5324 0.0306,0.3154 0.65706,5.6093 0.21779,2.3268 -0.3477,-1.9336 -0.60059,-3.8805 -1.22353,-5.7821 -56.01213,-139.55387 221.23336,-195.94185 277.2454,-56.3885 z"
       inkscape:connector-curvature="0" />
    <path
       style="display:inline;opacity:1;fill:#efe5d5;fill-opacity:1"
       id="path4220-6"
       d="m 923.44694,1203.7905 c -14.49049,-2.2563 -28.69512,-5.1791 -42.59236,-8.4727 -8.17852,-0.4876 -15.17989,-3.7518 -22.43727,-6.0243 -14.21825,-4.4523 -25.94575,-10.4477 -37.52686,-16.9014 -23.52615,-15.5703 1.70402,1.6501 29.41168,13.4871 6.19631,2.6473 26.8784,8.5223 20.6962,5.8638 -14.79941,-6.3643 -32.00814,-10.63 -46.72772,-17.0581 -17.5486,-7.6634 -28.16219,-22.5963 -37.92346,-32.734 -2.49279,-5.1165 -4.6647,-10.2911 -7.47832,-15.3496 -1.38777,-2.495 2.69873,5.0391 3.19469,7.6481 0.4113,2.1638 -2.08775,-4.1794 -2.93811,-6.2982 -2.99512,-7.4632 -4.49551,-14.8913 -5.67917,-22.5092 -1.43216,-13.2289 -1.35603,-26.4939 -1.4255,-39.7436 -0.0427,-17.3533 -0.0178,-34.7067 -0.009,-52.0601 0.0107,-22.26989 0.0125,-44.53969 0.0142,-66.80948 10e-4,-27.39694 10e-4,-54.79396 10e-4,-82.19098 0.85518,-27.26524 2.23248,-54.52216 2.93095,-81.78945 0.53025,-23.81646 0.59833,-47.63513 0.64352,-71.45325 0.0206,-18.73961 0.005,-37.47922 -0.004,-56.21887 -0.007,-16.29845 -0.009,-32.59689 -0.0107,-48.89534 -0.55342,-19.02223 1.14834,-38.0217 2.22422,-57.02597 0.98365,-19.08321 1.15583,-38.17626 1.28907,-57.2667 0.89111,-19.56743 2.31897,-39.12221 3.01157,-58.69312 0.0755,-20.52812 1.09871,-41.03706 2.30999,-61.55074 1.29543,-22.47667 1.5455,-44.9673 1.73903,-67.45461 0.15378,-24.9145 0.13402,-49.82921 0.12833,-74.74383 -0.60493,-23.30743 1.08401,-46.59553 2.17943,-69.88777 0.98847,-22.89074 1.1752,-45.78958 1.31038,-68.68642 -0.42565,-23.123029 0.50995,-46.226983 1.74942,-69.335414 1.11849,-20.2264059 1.51902,-40.462446 1.74432,-60.69799 0.16161,-19.429129 0.13972,-38.858567 0.13527,-58.287858 -0.16838,-19.751908 1.6498,-39.484888 2.62111,-59.224188 0.49536,-15.33627 2.57308,-30.63167 3.60565,-45.95635 0.56162,-13.00924 0.775,-26.00462 2.21504,-38.99415 0.96533,-7.39441 1.68577,-14.79806 2.07398,-22.21063 0.0251,-0.66142 -0.007,-1.32442 0.0751,-1.98426 1.21991,-9.86607 0.9331,-9.10059 3.41683,-17.6671 0.50247,-1.73309 1.32191,-3.87506 1.92886,-5.63477 0.11338,-0.32863 -0.24231,0.65535 -0.36347,0.98302 -0.32356,0.86128 -0.4579,1.74271 -0.62103,2.61806 -9.80659,60.82747 84.04499,27.76211 271.46649,47.38775 2.2809,0.23885 7.7036,-10.83424 9.4538,-14.26467 -50.3521,116.29843 -329.76031,74.38156 -279.40747,-41.91685 l 0,0 c 1.84312,-3.87508 9.17566,-20.15639 12.2015,-19.8949 199.69247,17.2577 282.87507,-15.50621 273.15147,45.83161 -0.639,3.51793 -1.4649,7.02349 -2.5263,10.50646 -0.4119,1.27197 -0.8156,2.54488 -1.2357,3.81593 -0.4927,1.49074 -0.387,3.06497 0.3164,-2.15474 0.4259,-3.1603 0.6453,-9.59472 0.3365,-2.2002 -0.5219,9.39026 -1.3518,18.77298 -2.5728,28.14134 -1.3672,11.47202 -0.9289,22.97565 -1.8023,34.46553 -1.0168,14.69494 -2.914,29.36367 -3.4943,44.06641 -0.898,18.0865 -2.5704,36.16755 -2.4991,54.263964 0.01,19.810303 0.026,39.620767 -0.1416,59.430909 -0.2444,21.647808 -0.6854,43.2960064 -1.8817,64.933987 -1.1544,21.521716 -2.0573,43.03539 -1.6075,64.571516 -0.1446,24.268854 -0.357,48.539704 -1.4196,72.801854 -1.0259,21.71602 -2.6715,43.42643 -2.0685,65.1569 0.01,25.2105 0.026,50.42109 -0.1321,75.63146 -0.2102,24.16485 -0.5044,48.33298 -1.9093,72.48613 -1.1656,19.738 -2.1418,39.46804 -2.1996,59.22055 -0.6698,18.61599 -1.8415,37.22074 -2.9504,55.82895 -0.1467,20.74827 -0.3549,41.4992 -1.4478,62.2392 -0.9757,17.11192 -2.6039,34.21669 -2.063,51.34504 0,16.28522 0,32.57049 0.011,48.85573 0.01,18.81843 0.025,37.63685 0,56.45527 -0.047,24.6112 -0.1215,49.22319 -0.6763,73.83259 -0.682,26.41074 -1.9143,52.81285 -2.8979,79.21982 0,27.39938 2e-4,54.79883 0,82.19813 0,22.28503 0,44.57006 -0.014,66.85499 -0.01,17.1642 -0.033,34.3283 0.01,51.4924 0.045,8.9343 0.049,17.8705 0.519,26.8015 -0.9489,-1.7725 -1.3976,-3.847 -2.1976,-5.6094 -0.4394,-0.9682 -1.8782,-3.8522 -1.4705,-2.8792 4.3153,10.2971 9.1376,19.2337 -2.3688,-3.4244 -9.0051,-9.1783 -19.6251,-23.6217 -35.9772,-30.6346 -14.3377,-6.1489 -31.15658,-10.1206 -45.40125,-16.344 -6.56726,-2.8693 15.51072,3.3941 22.16576,6.1924 28.21719,11.8646 54.37889,29.4635 31.75339,14.6435 -9.4745,-5.2018 -19.0059,-10.0545 -30.6624,-13.5651 -5.76633,-1.7365 -11.92036,-2.9897 -17.78376,-4.6097 -3.8124,-1.0535 18.28762,4.2406 11.80847,2.645 -1.04938,-0.1614 -4.14997,-0.743 -3.12183,-0.5397 11.08089,2.1904 3.84467,0.8846 15.03752,2.7333 196.0422,32.971 116.8292,196.1686 -79.21296,163.1977 z"
       inkscape:connector-curvature="0" />
    <path
       style="display:inline;opacity:1;fill:#e8dece;fill-opacity:1"
       id="path4202-7"
       d="m 1336.8921,1024.6024 c 4.566,11.3384 7.4525,22.9592 9.7103,34.6292 0.8628,4.4613 1.4926,8.9409 1.9143,13.4333 3.9158,72.2027 2.106,5.4082 -288.1042,5.984 -0.02,0 -0.035,-9.4982 -0.036,-10.0775 -0.011,-12.9182 -0.01,-25.8366 -0.01,-38.755 -3e-4,-18.886 0,-37.77199 10e-5,-56.65804 10e-5,-20.00181 2e-4,-40.00355 2e-4,-60.00536 0,-22.11156 0,-44.22319 0,-66.33483 -0.216,-24.79559 -0.057,-49.5754 1.0934,-74.35827 1.3532,-25.048 1.9202,-50.11075 2.2422,-75.17463 0.2535,-25.55094 0.2461,-51.10279 0.2494,-76.65427 -0.01,-25.12433 -0.014,-50.24866 -0.02,-75.373 -0.01,-28.09631 -0.01,-56.19263 -0.01,-84.28896 -0.9978,-29.19822 -2.2169,-58.39054 -2.8951,-87.59402 -0.4763,-29.17895 -0.9972,-58.36237 -0.2234,-87.53963 1.3803,-27.05239 2.3901,-54.08937 1.7146,-81.15626 -0.9428,-26.87996 -1.5591,-53.76376 -1.8967,-80.65078 0.5111,-25.146291 1.9436,-50.275438 2.6689,-75.419067 0.5182,-19.638004 0.5953,-39.2797689 0.6417,-58.920597 0.025,-19.824047 0.01,-39.648094 0,-59.472125 -0.01,-16.835736 -0.01,-33.671441 -0.011,-50.507181 -0.5595,-15.87149 1.1849,-31.70033 2.3413,-47.5361 0.8402,-12.57764 1.0406,-25.17026 1.175,-37.75981 0.079,-9.62425 0.072,-19.24874 0.062,-28.87314 -0.01,-4.31581 -0.012,-8.63161 -0.018,-12.94741 0,-1.86419 0,-3.72835 0,-5.59254 0,-145.13755 288.3379,-145.13934 288.3396,-0.002 l 0,0 c 0,1.805 -8e-4,3.61 0,5.415 0.01,4.32418 0.012,8.64835 0.018,12.97252 0.011,10.20496 0.016,20.41003 -0.071,30.61486 -0.1726,15.64394 -0.4713,31.291 -1.5618,46.9186 -0.909,12.25824 -2.4794,24.49212 -1.9458,36.77811 0,16.82131 0,33.642639 0.011,50.463945 0.01,19.958134 0.024,39.916281 0,59.874419 -0.05,20.936311 -0.1413,41.87355 -0.7027,62.806714 -0.673,23.124435 -1.8128,46.238095 -2.6188,69.359752 0.3273,26.32513 0.9484,52.64673 1.8658,78.96499 0.6898,29.63784 -0.1271,59.24944 -1.7328,88.86937 -0.8497,26.6485 -0.047,53.31043 0.2448,79.96168 0.6973,30.32838 2.0898,60.64283 2.9341,90.96865 4e-4,28.08733 7e-4,56.17464 0.01,84.26194 0.01,25.14016 0.014,50.28031 0.02,75.42044 0,26.17614 0,52.35259 -0.2617,78.52825 -0.3485,26.71005 -0.9582,53.41913 -2.3896,80.11259 -1.062,22.50618 -1.1048,45.00897 -0.9337,67.52779 0,22.11156 0,44.22327 0,66.3349 0,20.00205 0,40.00418 -2e-4,60.00623 -10e-5,18.88408 -4e-4,37.76827 -10e-5,56.65247 4e-4,12.8491 0,25.6984 0.01,38.5475 0,0.035 0.043,8.5537 0.026,8.5541 -289.9487,4.8827 -292.1034,-64.5012 -288.0895,7.5324 0.031,0.3154 0.657,5.6094 0.2178,2.3268 -0.3477,-1.9336 -0.6006,-3.8805 -1.2236,-5.7821 -56.0121,-139.55392 221.2334,-195.9419 277.2454,-56.3886 z"
       inkscape:connector-curvature="0" />
    <path
       style="display:inline;opacity:1;fill:#efe5d5;fill-opacity:1"
       id="path4220-5"
       d="m 1457.4093,1201.0985 c -14.4905,-2.2563 -28.6952,-5.1791 -42.5924,-8.4726 -8.1785,-0.4877 -15.1799,-3.7519 -22.4373,-6.0244 -14.2182,-4.4523 -25.9457,-10.4478 -37.5268,-16.9014 -23.5262,-15.5702 1.704,1.65 29.4117,13.4872 6.1963,2.6472 26.8784,8.5222 20.6962,5.8637 -14.7995,-6.3644 -32.0082,-10.63 -46.7278,-17.0582 -17.5486,-7.6634 -28.1622,-22.5962 -37.9234,-32.7339 -2.4928,-5.1166 -4.6647,-10.291 -7.4783,-15.3496 -1.3878,-2.495 2.6987,5.0391 3.1946,7.6481 0.4113,2.1638 -2.0877,-4.1794 -2.9381,-6.2982 -2.9951,-7.4632 -4.4955,-14.8912 -5.6791,-22.5092 -1.4322,-13.2289 -1.3561,-26.4939 -1.4255,-39.7436 -0.043,-17.3533 -0.018,-34.7067 -0.01,-52.0601 0.011,-22.26986 0.012,-44.53966 0.014,-66.80945 0,-27.39702 0,-54.79404 0,-82.19098 0.8552,-27.26524 2.2325,-54.52224 2.9309,-81.78952 0.5303,-23.81639 0.5984,-47.63514 0.6435,-71.45325 0.021,-18.73961 0.01,-37.47923 0,-56.21883 -0.01,-16.29845 -0.01,-32.59689 -0.011,-48.89534 -0.5534,-19.02223 1.1483,-38.02171 2.2242,-57.02597 0.9837,-19.08321 1.1559,-38.17625 1.2891,-57.2667 0.8911,-19.56743 2.319,-39.12221 3.0116,-58.69312 0.075,-20.52813 1.0987,-41.03706 2.31,-61.55074 1.2954,-22.47667 1.5455,-44.9673 1.739,-67.45461 0.1538,-24.9145 0.134,-49.82922 0.1283,-74.74384 -0.6049,-23.30742 1.084,-46.59552 2.1794,-69.88777 0.9885,-22.89073 1.1752,-45.78957 1.3104,-68.686412 -0.4256,-23.123029 0.51,-46.226975 1.7494,-69.335414 1.1185,-20.2263989 1.5191,-40.462445 1.7444,-60.697989 0.1616,-19.429129 0.1397,-38.858568 0.1352,-58.287855 -0.1683,-19.75192 1.6498,-39.48489 2.6211,-59.22419 0.4954,-15.33627 2.5731,-30.63167 3.6057,-45.95635 0.5616,-13.00924 0.775,-26.00462 2.215,-38.99415 0.9654,-7.39441 1.6858,-14.79806 2.074,-22.21063 0.025,-0.66142 -0.01,-1.32443 0.075,-1.98426 1.2199,-9.86607 0.9331,-9.10059 3.4168,-17.66711 0.5025,-1.73308 1.322,-3.87505 1.9289,-5.63476 0.1134,-0.32864 -0.2423,0.65534 -0.3635,0.98302 -0.3235,0.86128 -0.4579,1.7427 -0.621,2.61806 -9.8066,60.82748 84.045,27.76211 271.4665,47.38775 2.2809,0.23885 7.7036,-10.83424 9.4539,-14.26467 -50.3522,116.29843 -329.7604,74.38155 -279.4076,-41.91685 l 0,0 c 1.8432,-3.87508 9.1757,-20.15639 12.2015,-19.89491 199.6925,17.25772 282.8751,-15.50621 273.1515,45.83162 -0.6389,3.51792 -1.4649,7.02349 -2.5263,10.50646 -0.4119,1.27197 -0.8156,2.54488 -1.2356,3.81593 -0.4927,1.49074 -0.3871,3.06497 0.3164,-2.15474 0.4258,-3.1603 0.6452,-9.59472 0.3364,-2.2002 -0.5219,9.39027 -1.3518,18.77298 -2.5727,28.14133 -1.3673,11.47204 -0.929,22.97565 -1.8023,34.46554 -1.0169,14.69494 -2.9141,29.36367 -3.4944,44.06641 -0.898,18.08649 -2.5704,36.16755 -2.499,54.26396 0.01,19.810306 0.026,39.62077 -0.1417,59.430911 -0.2444,21.647809 -0.6853,43.2960064 -1.8817,64.933995 -1.1544,21.521708 -2.0573,43.035382 -1.6075,64.571508 -0.1445,24.268856 -0.357,48.539706 -1.4196,72.801846 -1.0259,21.71603 -2.6715,43.42644 -2.0685,65.15691 0.01,25.21049 0.026,50.42109 -0.132,75.63146 -0.2103,24.16485 -0.5045,48.33298 -1.9094,72.48612 -1.1656,19.73802 -2.1417,39.46804 -2.1996,59.22056 -0.6697,18.61599 -1.8415,37.22074 -2.9504,55.82895 -0.1466,20.74827 -0.3549,41.4992 -1.4477,62.2392 -0.9758,17.11192 -2.604,34.2167 -2.0631,51.34504 0,16.28522 0,32.57049 0.011,48.85573 0.01,18.81839 0.025,37.63681 0,56.45522 -0.047,24.61128 -0.1215,49.22319 -0.6763,73.83267 -0.6819,26.41066 -1.9143,52.81285 -2.8979,79.21982 0,27.39946 2e-4,54.79875 0,82.19813 0,22.28503 0,44.57006 -0.014,66.85506 -0.01,17.164 -0.034,34.3281 0.01,51.4924 0.045,8.9342 0.05,17.8704 0.5191,26.8013 -0.9489,-1.7725 -1.3977,-3.8469 -2.1976,-5.6094 -0.4394,-0.9681 -1.8783,-3.8521 -1.4705,-2.879 4.3152,10.297 9.1375,19.2336 -2.3688,-3.4244 -9.0052,-9.1784 -19.6251,-23.6218 -35.9773,-30.6347 -14.3377,-6.1489 -31.1566,-10.1207 -45.4012,-16.3441 -6.5673,-2.8692 15.5107,3.3942 22.1657,6.1926 28.2173,11.8645 54.379,29.4633 31.7534,14.6435 -9.4744,-5.2019 -19.0059,-10.0546 -30.6624,-13.5653 -5.7663,-1.7365 -11.9204,-2.9896 -17.7838,-4.6096 -3.8124,-1.0536 18.2877,4.2407 11.8085,2.645 -1.0494,-0.1614 -4.15,-0.743 -3.1218,-0.5397 11.0809,2.1904 3.8447,0.8845 15.0375,2.7332 196.0422,32.971 116.8292,196.1687 -79.213,163.1978 z"
       inkscape:connector-curvature="0" />
    <path
       style="display:inline;opacity:1;fill:#e8dece;fill-opacity:1"
       id="path4202-35"
       d="m 1863.7349,1029.9864 c 4.5659,11.3384 7.4525,22.9592 9.7103,34.6292 0.8629,4.4613 1.4926,8.9409 1.9142,13.4333 3.9159,72.2027 2.1062,5.4082 -288.104,5.984 -0.02,0 -0.035,-9.4982 -0.036,-10.0775 -0.011,-12.9182 -0.01,-25.8367 -0.01,-38.755 -2e-4,-18.886 0,-37.77197 10e-5,-56.6581 2e-4,-20.00173 2e-4,-40.00347 2e-4,-60.00528 0,-22.11156 0,-44.22327 0,-66.33483 -0.2159,-24.79559 -0.057,-49.5754 1.0935,-74.35835 1.3531,-25.04792 1.9201,-50.11075 2.2421,-75.17457 0.2536,-25.55094 0.2462,-51.10278 0.2494,-76.65426 -0.01,-25.12434 -0.014,-50.24867 -0.02,-75.37301 -0.01,-28.09631 -0.01,-56.19264 -0.01,-84.28895 -0.9978,-29.19822 -2.2169,-58.39055 -2.8951,-87.59403 -0.4763,-29.17894 -0.9972,-58.36237 -0.2234,-87.53962 1.3803,-27.0524 2.3901,-54.08938 1.7146,-81.15627 -0.9428,-26.87996 -1.559,-53.76376 -1.8966,-80.65078 0.511,-25.14629 1.9436,-50.275434 2.6688,-75.419063 0.5183,-19.638004 0.5954,-39.279777 0.6417,-58.9206043 0.025,-19.8240427 0.01,-39.6480867 0,-59.4721197 -0.01,-16.835735 -0.01,-33.671444 -0.011,-50.507183 -0.5595,-15.87148 1.1849,-31.70033 2.3413,-47.5361 0.8401,-12.57765 1.0406,-25.17026 1.175,-37.7598 0.079,-9.62426 0.072,-19.24875 0.062,-28.87315 -0.01,-4.31581 -0.013,-8.63161 -0.018,-12.94741 0,-1.86418 0,-3.72835 0,-5.59254 0,-145.13755 288.3379,-145.13934 288.3397,-0.002 l 0,0 c 0,1.805 -9e-4,3.61 0,5.41501 0,4.32417 0.018,8.64833 0.018,12.97251 0.018,10.20496 0.018,20.41002 -0.071,30.61487 -0.1727,15.64392 -0.4714,31.29098 -1.5619,46.91859 -0.909,12.25824 -2.4794,24.49212 -1.9457,36.7781 0,16.821311 0,33.642644 0.018,50.46395 0,19.958134 0.023,39.916282 0,59.8744131 -0.05,20.9363179 -0.1406,41.8735569 -0.7027,62.8067209 -0.6731,23.124435 -1.8129,46.238096 -2.6189,69.359746 0.3273,26.32513 0.9485,52.64674 1.8659,78.965 0.6897,29.63783 -0.1264,59.24944 -1.7329,88.86936 -0.8497,26.64851 -0.046,53.31043 0.2447,79.9617 0.6974,30.32837 2.0899,60.64282 2.9341,90.96864 4e-4,28.08732 8e-4,56.17464 0,84.26195 0,25.14015 0.018,50.28029 0.02,75.42042 0,26.17614 0,52.35259 -0.2616,78.52825 -0.3487,26.71 -0.9583,53.41916 -2.3897,80.11262 -1.062,22.50618 -1.1049,45.00897 -0.9337,67.52779 0,22.11156 0,44.22319 0,66.3349 0,20.00205 0,40.0041 -2e-4,60.00623 -2e-4,18.88408 -3e-4,37.76825 -2e-4,56.65245 4e-4,12.8491 0,25.6984 0,38.5475 0,0.034 0.043,8.5537 0.025,8.5542 -289.9488,4.8826 -292.1034,-64.5012 -288.0896,7.5323 0.031,0.3154 0.6571,5.6093 0.2178,2.3269 -0.3477,-1.9338 -0.6006,-3.8806 -1.2235,-5.7822 -56.0121,-139.5539 221.2333,-195.94188 277.2454,-56.3886 z"
       inkscape:connector-curvature="0" />
    <path
       style="display:inline;opacity:1;fill:#efe5d5;fill-opacity:1"
       id="path4220-62"
       d="m 1984.2522,1206.4825 c -14.4905,-2.2562 -28.6952,-5.1791 -42.5924,-8.4726 -8.1786,-0.4878 -15.1799,-3.7518 -22.4373,-6.0244 -14.2184,-4.4523 -25.9458,-10.4478 -37.5269,-16.9014 -23.5262,-15.5703 1.7041,1.65 29.4117,13.4872 6.1963,2.6472 26.8785,8.5222 20.6962,5.8637 -14.7994,-6.3643 -32.0082,-10.63 -46.7277,-17.0582 -17.5487,-7.6634 -28.1623,-22.5962 -37.9234,-32.7339 -2.4929,-5.1165 -4.6647,-10.291 -7.4784,-15.3496 -1.3877,-2.495 2.6987,5.0391 3.1947,7.6481 0.4114,2.1638 -2.0878,-4.1794 -2.9382,-6.2982 -2.995,-7.4632 -4.4954,-14.8912 -5.679,-22.5092 -1.4323,-13.2289 -1.3561,-26.4939 -1.4255,-39.7436 -0.043,-17.3533 -0.018,-34.7066 -0.018,-52.0601 0.018,-22.26984 0.018,-44.53972 0.018,-66.80951 0,-27.39694 10e-4,-54.79404 10e-4,-82.1909 0.8551,-27.26524 2.2325,-54.52224 2.931,-81.78952 0.5302,-23.81639 0.5982,-47.63514 0.6434,-71.45325 0.021,-18.73963 0,-37.47924 0,-56.21885 0,-16.29845 -0.018,-32.59689 -0.018,-48.89534 -0.5534,-19.02222 1.1484,-38.02171 2.2243,-57.02597 0.9835,-19.0832 1.1558,-38.17626 1.289,-57.2667 0.8912,-19.56743 2.319,-39.1222 3.0115,-58.69312 0.075,-20.52812 1.0987,-41.03706 2.3101,-61.55074 1.2954,-22.47666 1.5455,-44.9673 1.739,-67.45461 0.153,-24.9145 0.1334,-49.82922 0.1281,-74.74383 -0.6048,-23.30743 1.0841,-46.59552 2.1795,-69.88777 0.9885,-22.89074 1.1752,-45.78957 1.3103,-68.686418 -0.4256,-23.123029 0.5099,-46.226975 1.7494,-69.335414 1.1185,-20.2264059 1.5192,-40.462446 1.7443,-60.697991 0.162,-19.429129 0.1406,-38.858567 0.1353,-58.287858 -0.1691,-19.751909 1.6498,-39.484889 2.621,-59.224189 0.4954,-15.33628 2.573,-30.63166 3.6057,-45.95635 0.5616,-13.00925 0.775,-26.00461 2.2151,-38.99415 0.9652,-7.39442 1.6857,-14.79806 2.0739,-22.21063 0.025,-0.66142 0,-1.32442 0.075,-1.98426 1.2199,-9.86607 0.9332,-9.10059 3.4168,-17.6671 0.5025,-1.73308 1.322,-3.87505 1.9289,-5.63476 0.1139,-0.32864 -0.2422,0.65534 -0.3635,0.98301 -0.3235,0.86128 -0.4579,1.7427 -0.621,2.61806 -9.8065,60.82747 84.045,27.76211 271.4665,47.38774 2.2809,0.23886 7.7036,-10.83422 9.4538,-14.26466 -50.3521,116.29843 -329.7604,74.38156 -279.4074,-41.91685 l 0,0 c 1.8431,-3.87508 9.1757,-20.15639 12.2014,-19.8949 199.6925,17.25771 282.8751,-15.50621 273.1515,45.83162 -0.639,3.51792 -1.4648,7.02348 -2.5262,10.50646 -0.4118,1.27197 -0.8157,2.54487 -1.2358,3.81592 -0.4926,1.49074 -0.3869,3.06497 0.3165,-2.15474 0.4259,-3.1603 0.6452,-9.59472 0.3364,-2.2002 -0.5219,9.39027 -1.3518,18.77298 -2.5728,28.14133 -1.3671,11.47203 -0.9289,22.97566 -1.8023,34.46554 -1.0168,14.69495 -2.914,29.36367 -3.4943,44.06641 -0.8979,18.0865 -2.5704,36.16755 -2.4991,54.263965 0,19.810303 0.027,39.620767 -0.1424,59.430909 -0.2443,21.647809 -0.6852,43.2960074 -1.8815,64.933988 -1.1544,21.521716 -2.0573,43.035382 -1.6076,64.571516 -0.1441,24.268852 -0.357,48.539702 -1.4196,72.801852 -1.0259,21.71602 -2.6716,43.42643 -2.0686,65.1569 0,25.2105 0.025,50.42109 -0.1317,75.63146 -0.2102,24.16485 -0.5044,48.33297 -1.9092,72.48613 -1.1657,19.738 -2.1418,39.46804 -2.1996,59.22055 -0.6698,18.616 -1.8415,37.22074 -2.9503,55.82895 -0.146,20.74827 -0.3551,41.4992 -1.4479,62.2392 -0.9758,17.11192 -2.6038,34.21669 -2.0631,51.34504 0,16.28523 0,32.57049 0.018,48.85573 0.018,18.8184 0.025,37.63681 0,56.45524 -0.046,24.6112 -0.121,49.22311 -0.6764,73.83267 -0.6818,26.41066 -1.9142,52.81285 -2.8978,79.21982 0,27.39938 2e-4,54.79875 0,82.19813 0,22.28495 0,44.57006 -0.018,66.85494 -0.018,17.1642 -0.034,34.3283 0,51.4925 0.044,8.9342 0.05,17.8704 0.519,26.8014 -0.9489,-1.7726 -1.3976,-3.847 -2.1976,-5.6094 -0.4393,-0.9682 -1.8782,-3.8522 -1.4706,-2.8792 4.3153,10.2971 9.1377,19.2337 -2.3686,-3.4243 -9.0053,-9.1784 -19.6251,-23.6218 -35.9773,-30.6347 -14.3378,-6.1489 -31.1566,-10.1206 -45.4013,-16.3442 -6.5673,-2.8691 15.5108,3.3943 22.1657,6.1926 28.2173,11.8646 54.3791,29.4634 31.7535,14.6436 -9.4744,-5.2019 -19.006,-10.0547 -30.6624,-13.5653 -5.7665,-1.7365 -11.9204,-2.9896 -17.7838,-4.6097 -3.8123,-1.0535 18.2877,4.2408 11.8084,2.645 -1.0493,-0.1613 -4.15,-0.7429 -3.1217,-0.5396 11.0807,2.1904 3.8447,0.8845 15.0374,2.7332 196.0423,32.9711 116.8292,196.1688 -79.2129,163.1978 z"
       inkscape:connector-curvature="0" />
    <path
       style="display:inline;opacity:1;fill:#e8dece;fill-opacity:1"
       id="path4202-9"
       d="m 2401.124,1033.8376 c 4.7589,11.289 7.7675,22.8589 10.1207,34.4778 0.8994,4.4417 1.5557,8.9017 1.9952,13.3746 4.0815,71.8873 2.1952,5.3846 -300.282,5.9579 -0.022,0 -0.037,-9.4567 -0.037,-10.0333 -0.019,-12.8621 -0.019,-25.7239 -0.019,-38.5857 -2e-4,-18.8036 1e-4,-37.607 3e-4,-56.41049 0,-19.91438 0,-39.82869 0,-59.74307 0,-22.01491 0,-44.02989 0,-66.04488 -0.225,-24.68713 -0.059,-49.3587 1.1398,-74.03333 1.4102,-24.93843 2.0013,-49.89171 2.3369,-74.84594 0.2643,-25.43928 0.2565,-50.87943 0.2598,-76.31922 0,-25.01453 -0.019,-50.02903 -0.021,-75.04355 0,-27.9735 0,-55.94702 0,-83.92053 -1.04,-29.07058 -2.3106,-58.13531 -3.0176,-87.21113 -0.4964,-29.05142 -1.0392,-58.10728 -0.2327,-87.157 1.4385,-26.93415 2.4911,-53.85295 1.7869,-80.80153 -0.9824,-26.76246 -1.6248,-53.52875 -1.9767,-80.29825 0.5328,-25.03637 2.0257,-50.05568 2.7817,-75.089405 0.5402,-19.552165 0.6206,-39.108083 0.6687,-58.6630554 0.026,-19.7373946 0,-39.4747886 0,-59.2121686 0,-16.762146 0,-33.524265 -0.019,-50.286411 -0.5831,-15.80212 1.2349,-31.56177 2.4402,-47.32832 0.8757,-12.52267 1.0846,-25.06025 1.2247,-37.59477 0.081,-9.58217 0.076,-19.16459 0.065,-28.74692 0,-4.29694 -0.019,-8.59388 -0.019,-12.89082 0,-1.85603 0,-3.71206 0,-5.5681 0,-144.50314 300.5259,-144.50493 300.5278,-0.002 l 0,0 c 0,1.79711 -10e-4,3.59423 0,5.39134 0,4.30527 0.019,8.61053 0.019,12.91581 0.019,10.16034 0.019,20.32081 -0.074,30.48104 -0.18,15.57555 -0.4912,31.15422 -1.6279,46.71351 -0.9473,12.20467 -2.5841,24.38507 -2.0279,36.61735 0,16.747782 0,33.495589 0.019,50.243368 0,19.870897 0.026,39.741807 0,59.6126975 -0.052,20.8448075 -0.1466,41.6905285 -0.7324,62.5321925 -0.7016,23.023366 -1.8894,46.035992 -2.7296,69.056562 0.3412,26.21008 0.9886,52.41663 1.9447,78.61985 0.7188,29.50829 -0.1318,58.99046 -1.8062,88.4809 -0.8856,26.53203 -0.048,53.07742 0.2553,79.61219 0.7267,30.19579 2.1781,60.37775 3.0581,90.57102 4e-4,27.96454 6e-4,55.9291 0,83.89363 0,25.03026 0.019,50.06052 0.021,75.09075 0,26.06174 0,52.12376 -0.2727,78.18496 -0.3634,26.59336 -0.9988,53.1857 -2.4907,79.76248 -1.1069,22.4078 -1.1516,44.81223 -0.9732,67.23262 0,22.01499 0,44.02989 0,66.04495 0,19.91463 0,39.82925 -2e-4,59.74394 -2e-4,18.80153 -3e-4,37.60313 -2e-4,56.40483 4e-4,12.7929 0,25.586 0.019,38.379 0,0.035 0.045,8.5163 0.026,8.5168 -302.2047,4.8613 -304.4505,-64.2192 -300.2668,7.4993 0.031,0.314 0.6846,5.5848 0.2268,2.3168 -0.3625,-1.9254 -0.6259,-3.8635 -1.2751,-5.757 -58.3799,-138.94382 230.5848,-195.08532 288.9643,-56.1421 z"
       inkscape:connector-curvature="0" />
    <path
       style="fill:#666666;fill-opacity:1;stroke:none;stroke-width:12.94999981;stroke-linecap:round;stroke-linejoin:round;stroke-miterlimit:4;stroke-dasharray:none;stroke-opacity:1"
       id="path4181"
       d="m 853.53449,21.62856 c -1.67676,-1.16554 -3.50276,-2.14136 -5.03027,-3.49662 -0.61082,-0.54194 1.49114,0.66636 2.23063,1.01269 2.13376,0.9993 4.25942,2.01579 6.38893,3.02411 14.70942,6.96496 29.20207,14.29806 43.68898,21.71545 34.15965,18.31321 67.59816,38.04735 99.87164,59.52563 24.5132,16.31374 32.9712,22.8686 56.8006,40.23619 52.247,37.79878 97.8289,83.66138 139.9235,132.2971 8.2581,9.54128 16.2243,19.3313 24.3365,28.99695 38.1768,47.1235 71.8987,97.66876 104.1653,148.96066 9.1419,14.89032 18.3194,29.83613 28.2599,44.21586 4.261,6.12734 8.9088,11.93653 13.2697,18.00021 5.2818,7.34409 2.6006,4.34901 5.5728,7.54971 7.2211,8.09194 14.521,16.10597 21.5724,24.35015 5.0603,5.9427 2.604,3.07503 7.3656,8.60571 95.6953,111.2105 -61.5801,246.54396 -157.2754,135.33349 l 0,0 c -5.4795,-6.37082 -2.7724,-3.20721 -8.1223,-9.49008 -8.8403,-10.50826 -18.5878,-20.22391 -27.045,-31.06158 -9.3849,-12.29434 -18.48,-24.81048 -27.451,-37.40937 -10.9171,-16.37235 -21.75,-32.82204 -31.8405,-49.7201 -27.1975,-43.36361 -55.5885,-86.13479 -87.568,-126.14674 -38.4994,-46.12845 -78.35491,-91.77323 -127.54665,-126.9318 -18.48382,-13.53617 -27.74562,-20.63159 -46.62006,-33.25479 -26.60648,-17.79438 -54.17128,-34.15785 -82.30431,-49.40924 -9.35052,-4.79779 -18.07453,-9.35041 -27.47306,-13.92306 -15.5124,-7.54722 -31.52551,-14.24926 -45.76909,-24.14172 -119.38707,-85.27648 1.21209,-254.11529 120.59916,-168.83881 z"
       inkscape:connector-curvature="0" />
    <path
       style="fill:#666666;fill-opacity:1;stroke:none;stroke-width:12.94999981;stroke-linecap:round;stroke-linejoin:round;stroke-miterlimit:4;stroke-dasharray:none;stroke-opacity:1"
       id="path4183"
       d="m 769.92781,-88.269 c 18.85878,-2.02835 37.85955,-2.16174 56.80617,-2.43328 21.28634,-0.23237 42.57423,-0.25239 63.8616,-0.26519 13.04589,0.26469 26.13173,-0.48279 39.16599,0.36052 4.11332,0.26612 8.21026,0.74329 12.31538,1.11494 11.98079,1.6581 24.01879,2.56992 36.02292,4.01171 12.44937,1.59372 24.42513,5.38697 36.56453,8.37055 6.4608,1.67405 9.9761,1.91652 20.6587,3.64937 11.2145,1.1883 22.2277,3.75344 33.384,5.29849 7.8199,1.60543 15.7462,2.2478 23.7036,2.56942 12.7735,0.26348 25.2961,3.04762 37.9877,4.10795 10.7454,0.29425 21.4689,1.00815 32.1987,1.6448 13.6712,0.71898 27.3646,0.81873 41.0511,0.91982 15.2173,0.0811 30.4348,0.0715 45.6522,0.0668 13.2355,-0.006 26.4711,-0.0106 39.7066,-0.0128 15.9149,-0.002 31.8299,-0.002 47.7448,-0.002 19.7731,-1e-5 39.5462,5e-5 59.3193,8e-5 14.2152,2e-5 28.4305,3e-5 42.6458,3e-5 7.7327,0 15.4655,0 23.1982,0 7.4844,0 14.9688,0 22.4532,0 14.8596,0 29.7192,0 44.5788,0 13.4303,0 26.8606,0 40.2909,0 146.7152,0 146.7152,207.48663 0,207.48663 l 0,0 c -13.4303,0 -26.8606,0 -40.2909,0 -14.8596,0 -29.7192,0 -44.5788,0 -7.4844,0 -14.9688,0 -22.4531,1e-5 -7.7328,0 -15.4656,0 -23.1984,-1e-5 -14.2154,0 -28.4307,-1e-5 -42.6461,-3e-5 -19.7727,-3e-5 -39.5454,-9e-5 -59.3181,-8e-5 -15.9036,6e-5 -31.8073,-7e-5 -47.711,0.002 -13.2255,0.002 -26.4511,0.007 -39.6767,0.0128 -15.7583,0.005 -31.5167,0.0144 -47.2749,-0.0726 -17.2906,-0.13178 -34.5887,-0.31064 -51.8567,-1.28267 -13.134,-0.78789 -26.2662,-1.3806 -39.3969,-2.20031 -9.4481,-0.93119 -18.8375,-2.30289 -28.2476,-3.41634 -15.1423,-0.7648 -30.2782,-1.96494 -45.2089,-4.7154 -11.8837,-1.8693 -23.6946,-4.16976 -35.6394,-5.65568 -12.84574,-2.12193 -25.78532,-3.96795 -38.37274,-7.35459 -3.76714,-0.97308 -13.95245,-3.73283 -14.88401,-4.05411 0.93781,0.0278 3.74781,0.16802 2.81342,0.0834 -10.51567,-0.95209 -21.08118,-1.4769 -31.52182,-3.1726 0.69356,-0.0734 2.58751,-0.20243 -0.50758,-0.26823 -6.8009,-0.14458 -13.62677,-0.006 -20.42887,-0.006 -2.70639,-7e-5 -5.41279,6.2e-4 -8.11918,9.3e-4 -20.35165,0.0121 -40.70378,0.0298 -61.05451,0.24453 -11.33588,0.15753 -22.67811,0.3193 -34.00185,0.85175 -145.58225,18.19778 -171.3178,-187.68662 -25.73555,-205.8844 z"
       inkscape:connector-curvature="0" />
    <path
       style="fill:#666666;fill-opacity:1;stroke:none;stroke-width:12.94999981;stroke-linecap:round;stroke-linejoin:round;stroke-miterlimit:4;stroke-dasharray:none;stroke-opacity:1"
       id="path4185"
       d="m 1663.5998,98.04818 c 0.6977,-0.33183 1.3643,-0.73896 2.0931,-0.9955 0.2588,-0.0911 -0.4277,0.34617 -0.6607,0.49127 -1.717,1.06962 -3.4389,2.13238 -5.1865,3.15123 -9.5721,5.5803 -17.8906,9.25245 -28.2145,13.4828 -19.8841,7.36949 -40.9531,8.52802 -61.9079,8.83424 -2.0492,0.0116 -4.0985,0.0232 -6.1478,0.0348 -146.7133,0.74979 -147.7737,-206.73413 -1.0604,-207.48392 l 0,0 c 1.4902,-0.006 2.9803,-0.013 4.4705,-0.0195 1.3269,-0.0143 2.6538,-0.026 3.9807,-0.0429 0.9182,-0.0117 1.8363,-0.0471 2.7545,-0.0426 0.1961,9.5e-4 0.7746,0.007 0.5855,0.0588 -4.8826,1.33847 -10.0623,1.72666 -14.6705,4.06556 -2.7124,1.24105 -5.006,2.06261 -7.38,3.59964 -0.8892,0.5757 1.8638,-1.00923 2.768,-1.56111 10.5159,-6.41846 3.8204,-2.54352 15.7852,-9.1546 131.2261,-65.61304 224.0169,119.96865 92.7908,185.58168 z"
       inkscape:connector-curvature="0" />
    <path
       style="fill:#666666;fill-opacity:1;stroke:none;stroke-width:12.94999981;stroke-linecap:round;stroke-linejoin:round;stroke-miterlimit:4;stroke-dasharray:none;stroke-opacity:1"
       id="path4189"
       d="m 1597.6972,127.22853 c -17.3631,0.0285 -34.7223,0.0637 -52.0823,-0.27978 -30.0684,-0.57643 -60.0443,-3.12655 -90.0748,-4.58013 -20.0338,-0.88593 -40.0831,-1.34133 -60.1345,-1.54471 -7.7104,-0.0719 -15.4211,-0.0534 -23.1317,-0.0378 -8.2479,0.017 -16.4958,0.0208 -24.7436,0.0234 -10.6268,0.003 -21.2536,0.002 -31.8803,0.002 -14.937,-1e-4 -29.874,-1.8e-4 -44.811,-2.3e-4 -17.1181,-4e-5 -34.2361,-4e-5 -51.3542,-4e-5 -16.0295,0 -32.059,0 -48.0886,0 -14.87,0 -29.74,0 -44.61,0 -6.947,0 -13.894,0 -20.8409,0 -146.71525,0 -146.71525,-207.48663 0,-207.48663 l 0,0 c 6.9469,0 13.8939,0 20.8409,0 14.87,0 29.74,0 44.61,0 16.0296,0 32.0591,-1e-5 48.0887,0 17.1182,0 34.2365,0 51.3547,4e-5 14.9369,5e-5 29.8738,1.3e-4 44.8106,2.3e-4 10.6043,1e-5 21.2085,4.1e-4 31.8128,-0.002 8.1306,-0.003 16.2613,-0.006 24.3919,-0.023 8.5627,-0.0173 17.1255,-0.0341 25.6879,0.0484 22.7063,0.23704 45.4103,0.7583 68.096,1.77961 28.1503,1.3798 56.2516,3.70665 84.4312,4.38206 15.8733,0.38012 31.7502,0.19621 47.6272,0.23195 146.7152,0 146.7152,207.48663 0,207.48663 z"
       inkscape:connector-curvature="0" />
    <path
       style="fill:#666666;fill-opacity:1;stroke:none;stroke-width:12.94999981;stroke-linecap:round;stroke-linejoin:round;stroke-miterlimit:4;stroke-dasharray:none;stroke-opacity:1"
       id="path4191"
       d="m 892.73312,284.58502 c -5.75256,4.37636 -11.09358,9.27838 -16.61521,13.95718 -6.7622,6.37803 -13.57927,13.10377 -20.52914,19.45416 -5.3884,4.67297 -3.65815,2.82448 -5.68562,5.03685 C 742.06323,422.51136 601.37987,270.00269 709.21979,170.52453 l 0,0 c 6.36844,-5.7851 3.73414,-3.50779 7.7944,-6.95546 1.97087,-1.50559 0.73307,-0.50659 3.95406,-3.65547 6.86528,-6.7116 13.80683,-13.32734 21.01728,-19.6724 9.88096,-8.37204 19.58607,-16.9715 30.14843,-24.495 119.38707,-85.27648 239.98624,83.56234 120.59916,168.83882 z"
       inkscape:connector-curvature="0" />
    <path
       style="fill:#666666;fill-opacity:1;stroke:none;stroke-width:12.94999981;stroke-linecap:round;stroke-linejoin:round;stroke-miterlimit:4;stroke-dasharray:none;stroke-opacity:1"
       id="path4193"
       d="m 873.79679,276.05539 c 0,14.54014 0,29.08027 0,43.62041 0,16.43834 0,32.87668 0,49.31502 0,13.68451 0,27.36902 0,41.05354 -0.30991,9.04725 0.11657,18.0241 0.73036,27.03716 0.77993,11.37102 0.94776,22.76171 1.71672,34.13091 1.36702,12.07203 0.63738,24.31561 1.76618,36.38893 1.27952,11.29311 0.69272,22.75994 2.25235,34.01557 1.41144,16.35241 4.10061,32.52684 5.86993,48.84323 2.14006,16.82637 3.46946,33.73308 4.26133,50.67186 -0.0233,10.33586 0.89032,20.60715 1.60069,30.90606 0.78869,10.72174 0.94243,21.47228 1.03105,32.21794 0.0575,13.1766 0.0391,26.3535 0.0342,39.5302 -9e-4,2.2202 -0.002,4.4404 -0.003,6.6606 -0.002,6.2641 -0.004,12.5281 -0.006,18.7921 -10e-4,5.5042 -0.49692,7.0795 0.1166,4.9547 -0.0421,-1.1416 -0.12959,-2.2823 -0.1264,-3.4247 3.5e-4,-0.1276 0.11148,0.233 0.13496,0.3585 0.24383,1.3033 0.45089,2.6133 0.66579,3.9217 0.94302,5.7417 1.67077,11.4899 2.3028,17.2734 15.12862,145.9331 -191.25198,167.3282 -206.3806,21.3951 l 0,0 c -0.56783,-9.666 -4.08981,-19.0691 -3.80836,-28.8483 -0.5222,-13.7173 -0.41623,-27.4347 -0.38286,-41.1615 0.005,-12.6001 0.0212,-25.2003 -0.0276,-37.8003 -0.0498,-6.56233 -0.0648,-13.13097 -0.55182,-19.67935 -0.80981,-11.91227 -1.8135,-23.81588 -1.87654,-35.76448 -0.53718,-12.77596 -1.71046,-25.50649 -3.32169,-38.19238 -1.63232,-16.20567 -4.56277,-32.25446 -5.83371,-48.50322 -1.43947,-14.45119 -2.04711,-28.93012 -3.0459,-43.41441 -0.64242,-11.77153 -0.82233,-23.56255 -1.69775,-35.32246 -0.74653,-11.29345 -1.08719,-22.59532 -1.7008,-33.89434 -0.92675,-13.68402 -1.48724,-27.37366 -1.20697,-41.09252 0,-13.68452 0,-27.36903 0,-41.05354 0,-16.43834 0,-32.87668 0,-49.31502 0,-14.54014 0,-29.08027 0,-43.62041 0,-146.71521 207.48663,-146.71521 207.48663,0 z"
       inkscape:connector-curvature="0" />
    <path
       style="fill:#666666;fill-opacity:1;stroke:none;stroke-width:12.94999981;stroke-linecap:round;stroke-linejoin:round;stroke-miterlimit:4;stroke-dasharray:none;stroke-opacity:1"
       id="path4195"
       d="m 774.4953,747.54942 c 13.5684,0 27.1368,0 40.7052,0 18.64084,0 37.28168,0 55.92252,0 11.86524,0 23.73048,0 35.59573,0 2.82264,0 5.64627,0.074 8.46793,0 13.1757,-0.3479 26.46119,-1.6162 39.57667,-2.7417 72.46085,-6.2185 -34.19932,2.5573 52.03755,-4.4619 65.9709,-4.9519 132.135,-6.3087 198.2615,-7.3039 30.1068,-0.3879 60.2161,-0.5871 90.3255,-0.5531 9.6184,0.029 19.2368,0.062 28.8553,0.075 14.2487,0.013 28.4974,0.013 42.7461,0.013 18.411,2e-4 36.822,-2e-4 55.233,-4e-4 16.7355,-10e-5 33.471,-2e-4 50.2065,-2e-4 9.3491,0 18.6982,0 28.0473,0 7.0643,0 14.1287,0 21.193,0 4.4313,0 8.8626,0 13.2939,0 146.7152,0 146.7152,207.4866 0,207.4866 l 0,0 c -4.4313,0 -8.8626,0 -13.2939,0 -7.0644,0 -14.1287,0 -21.1931,0 -9.3489,0 -18.6979,0 -28.0468,0 -16.735,10e-5 -33.4699,10e-5 -50.2049,3e-4 -18.4146,10e-5 -36.8292,5e-4 -55.2438,3e-4 -14.3413,-6e-4 -28.6825,3e-4 -43.0238,-0.013 -9.6029,-0.013 -19.2058,-0.045 -28.8086,-0.075 -28.9923,-0.034 -57.9845,0.1597 -86.9744,0.5299 -61.5587,0.9198 -123.1546,2.1156 -184.5739,6.6461 -38.90794,3.1537 -77.80889,7.6499 -116.88105,7.8847 -11.86525,0 -23.73049,0 -35.59573,0 -18.64084,0 -37.28168,0 -55.92252,0 -13.5684,0 -27.1368,0 -40.7052,0 -146.7152,0 -146.7152,-207.4866 0,-207.4866 z"
       inkscape:connector-curvature="0" />
    <path
       style="fill:#666666;fill-opacity:1;stroke:none;stroke-width:12.94999981;stroke-linecap:round;stroke-linejoin:round;stroke-miterlimit:4;stroke-dasharray:none;stroke-opacity:1"
       id="path4197"
       d="m 1516.9782,813.38912 c -0.229,0.862 -0.4053,1.7396 -0.6869,2.5858 -0.738,2.2171 0.4703,-4.6498 0.7392,-6.9709 0.2365,-2.042 0.4435,-4.0876 0.6331,-6.1345 0.2082,-2.2467 0.3733,-4.4973 0.56,-6.7459 0.3273,-3.3619 0.6546,-6.7237 0.9819,-10.0856 1.0514,-10.6875 0.5575,-5.572 1.4863,-15.3461 13.8916,-146.05609 220.446,-126.4105 206.5545,19.6456 l 0,0 c -0.992,10.4218 -0.4776,5.1036 -1.545,15.9542 -1.9014,19.1997 -3.1598,38.5541 -7.4315,57.4203 -35.5836,142.33468 -236.8752,92.0118 -201.2916,-50.3229 z"
       inkscape:connector-curvature="0" />
    <path
       style="fill:#666666;fill-opacity:1;stroke:none;stroke-width:12.94999981;stroke-linecap:round;stroke-linejoin:round;stroke-miterlimit:4;stroke-dasharray:none;stroke-opacity:1"
       id="path4199"
       d="m 1506.9519,840.17792 c 0.038,-9.4738 -1.3132,-18.9242 -2.5405,-28.3158 -3.7854,-29.0239 -4.8093,-58.2959 -5.5316,-87.5254 -0.5426,-28.64025 -0.531,-57.28705 -0.5362,-85.93131 0.4028,-29.48912 -3.5294,-58.80689 -5.9394,-88.14842 -0.4743,-7.16958 -1.0083,-14.33545 -1.4228,-21.50872 -1.2121,-20.97262 -2.0659,-41.95051 -3.7446,-62.89619 -1.1012,-13.74054 -2.4846,-27.45702 -3.711,-41.18695 -3.2339,-42.11737 -9.0017,-83.9539 -14.5649,-125.80501 -4.7322,-34.37237 -7.3779,-68.96059 -8.6318,-103.61918 -0.6449,-22.67013 -0.5783,-45.35189 -0.54,-68.0287 0.091,-17.3211 -0.1271,-34.64227 0.4242,-51.95581 0.3016,-6.51912 0.7642,-13.02879 1.2121,-19.53892 10.0803,-146.36851 217.0766,-132.11282 206.9963,14.25568 l 0,0 c -0.3047,4.42032 -0.6194,8.84011 -0.8753,13.26361 -0.9149,14.73614 0.2545,29.57646 -0.2709,44.32841 -0.034,20.12234 -0.1077,40.24878 0.4115,60.36628 0.952,27.96648 3.1262,55.86827 6.9529,83.60024 5.9498,44.8005 12.0514,89.59318 15.5497,134.67338 0.205,2.29584 3.9501,44.19578 4.0336,45.2467 1.6856,21.2241 2.602,42.47882 3.8008,63.73053 0.3419,6.05996 0.7847,12.11379 1.1771,18.17068 2.8416,34.95598 7.3035,69.87501 6.6291,105.01549 0,26.97868 -0.011,53.95964 0.4751,80.93491 0.5243,22.0849 1.1074,44.2188 3.9062,66.1575 2.3001,18.1537 4.3476,36.3875 4.227,54.717 0,146.7152 -207.4866,146.7152 -207.4866,0 z"
       inkscape:connector-curvature="0" />
    <path
       style="fill:#666666;fill-opacity:1;stroke:none;stroke-width:12.94999981;stroke-linecap:round;stroke-linejoin:round;stroke-miterlimit:4;stroke-dasharray:none;stroke-opacity:1"
       id="path4201"
       d="m 1710.1604,156.01342 c -0.9927,22.27307 -5.8375,44.12654 -10.5486,65.849 -3.2039,14.9625 -3.5274,30.33338 -4.021,45.56849 -0.5105,20.83673 -0.4913,41.68164 -0.4805,62.5232 0,2.66318 0.01,5.32637 0.011,7.98956 0.2088,146.71506 -207.2776,147.01037 -207.4864,0.29531 l 0,0 c 0,-2.72671 -0.01,-5.45342 -0.012,-8.18013 -0.012,-23.23819 -0.022,-46.48044 0.6014,-69.71216 0.9815,-27.69634 2.5576,-55.48464 8.6474,-82.6145 1.6455,-7.52319 3.2222,-15.04274 4.6302,-22.61448 0.354,-1.90385 0.6861,-3.81174 1.04,-5.7156 0.1315,-0.70725 0.402,-2.8368 0.4162,-2.11758 0.058,2.91061 -0.1901,5.81926 -0.2851,8.72889 0,-146.7152 207.4866,-146.7152 207.4866,0 z"
       inkscape:connector-curvature="0" />
    <path
       style="fill:#666666;fill-opacity:1;stroke:none;stroke-width:12.94999981;stroke-linecap:round;stroke-linejoin:round;stroke-miterlimit:4;stroke-dasharray:none;stroke-opacity:1"
       id="path4205"
       d="m 870.89158,797.24552 c -6.62072,-16.0589 -14.1088,-31.7249 -21.12273,-47.6124 -11.83834,-26.8477 -20.87602,-54.86486 -26.31311,-83.71808 -1.35327,-7.18145 -2.3088,-14.43218 -3.4632,-21.64826 -6.03967,-48.37123 -5.82986,-97.24081 -6.16157,-145.90523 -1.32125,-53.43816 2.8822,-106.72181 8.41742,-159.81428 2.4666,-25.86869 5.89873,-51.61504 10.09328,-77.2542 2.15485,-16.91872 8.16056,-32.91491 14.18549,-48.74864 9.39961,-23.65096 22.27436,-45.6581 35.51628,-67.31254 11.10005,-17.14932 22.99831,-33.84388 36.41043,-49.27748 9.353,-10.76269 12.08155,-13.13661 22.03944,-23.06239 18.49481,-18.14114 40.00252,-32.65273 62.32769,-45.59381 19.3329,-10.02956 40.2594,-18.70071 62.3772,-19.72348 10.1372,-0.46877 20.3504,0.0689 30.4128,1.38501 7.5139,0.98279 14.7092,3.65248 22.0638,5.47872 23.2031,7.97721 44.956,19.65663 64.8054,34.04665 4.3348,3.14258 8.4947,6.51973 12.742,9.77959 25.8121,21.05823 48.3851,45.57364 69.3157,71.38683 10.5822,13.96272 20.5591,28.50407 28.4736,44.17707 6.3816,12.63759 11.3463,25.76317 16.2094,39.02063 5.9554,16.98066 9.7071,34.62124 11.7657,52.47874 0.4184,3.62936 0.9292,7.26017 1.0225,10.91237 0.1859,7.27191 -0.1238,14.54804 -0.1857,21.82205 -1.682,23.44279 -9.5521,45.41279 -20.7172,65.91773 -7.8565,14.42869 -17.8942,27.48652 -27.7942,40.52587 -20.205,26.79541 -44.9905,49.44485 -70.9339,70.5169 -9.756,7.38066 -19.3907,14.92123 -29.1378,22.3135 -7.0052,5.31284 -14.2511,10.29495 -20.6147,16.37791 -2.7846,3.69176 -6.0634,6.97286 -8.9754,10.56094 -0.5308,0.654 -1.0177,1.34713 -1.4443,2.07339 -0.092,0.15737 -0.2433,0.64014 -0.091,0.53995 0.4595,-0.30181 0.7444,-0.80917 1.1166,-1.21376 0.7506,-1.22524 1.207,-2.68932 2.2517,-3.67573 0.8423,-0.7952 -0.6128,2.24653 -0.7174,3.40013 -0.2468,2.72284 -0.4113,5.45566 -0.6082,8.18205 -0.4553,6.01186 -0.6618,12.03973 -0.789,18.06634 -0.072,3.4132 -0.7171,8.60529 0.4672,12.06382 0.156,0.25952 0.3799,0.48887 0.4681,0.77857 5.5091,18.09216 -3.7813,-10.5581 2.4685,9.00737 1.74,5.44715 3.9193,10.71537 6.0998,15.99585 2.217,4.70111 4.0286,9.58614 6.2514,14.28425 0.2173,0.45919 0.8672,1.75499 0.876,1.24707 0.014,-0.79332 -1.4647,-1.7074 -0.859,-2.21989 0.5728,-0.48466 0.9221,1.18401 1.3917,1.76921 0.4993,0.62226 1.01,1.23533 1.515,1.853 -0.901,-1.2102 -1.802,-2.42041 -2.703,-3.63061 -0.196,-0.2727 -0.9132,-0.7349 -0.5879,-0.81809 0.066,-0.017 4.1329,3.39068 2.9637,2.44109 -6.6314,-5.38604 -2.1713,-2.14226 -9.8642,-7.27579 -11.0917,-5.45828 -9.8995,-5.5339 -20.8639,-8.68877 -1.7416,-0.50111 -3.5495,-0.73582 -5.3118,-1.15818 -0.1226,-0.0294 -0.4512,-0.1863 -0.3253,-0.19283 2.8404,-0.1475 5.6879,0.0791 8.5319,0.11223 12.576,0.70573 24.857,-0.97543 37.012,-4.00061 2.2812,-0.65453 4.5624,-1.30906 6.8436,-1.96359 141.5739,-38.49914 196.0199,161.71661 54.446,200.21571 l 0,0 c -5.2131,1.3835 -10.4262,2.7669 -15.6394,4.1504 -5.4972,1.1929 -10.9647,2.5326 -16.4918,3.5789 -22.8123,4.3183 -46.0331,5.9409 -69.2301,5.4833 -28.9157,-0.4795 -54.5683,-2.5333 -80.8223,-16.7686 -3.8952,-2.3843 -7.9072,-4.5877 -11.6856,-7.153 -15.435,-10.4796 -28.8405,-23.8032 -40.84848,-37.9779 -4.64826,-6.1454 -8.71908,-11.3035 -12.912,-17.8515 -9.70821,-15.16122 -17.50936,-31.22679 -24.15634,-47.93699 -10.68383,-26.86292 -19.74208,-54.42898 -23.08812,-83.29152 -0.4333,-5.44132 -1.01456,-10.87289 -1.2999,-16.32398 -0.95935,-18.32737 0.53231,-36.74754 1.7447,-55.01644 1.36698,-12.24399 1.62263,-16.80611 4.04965,-29.05403 4.06809,-20.52955 10.83576,-40.4008 20.40032,-59.02924 2.74368,-4.63828 5.31936,-9.38014 8.23104,-13.91486 12.48638,-19.44661 28.64056,-36.31971 45.09393,-52.39311 4.2809,-3.68556 8.4829,-7.4647 12.8426,-11.05668 14.2545,-11.74422 29.6239,-22.12214 44.0551,-33.6443 13.148,-10.32174 25.8196,-21.43469 36.0285,-34.75654 1.7055,-2.20582 3.4192,-4.40524 5.1163,-6.61746 1.089,-1.41949 2.1139,-2.88889 3.2419,-4.27754 0.3218,-0.39608 1.0318,-1.57186 1.0988,-1.06598 0.1438,1.08458 -0.5829,2.11009 -0.8188,3.17844 -2.5158,11.39617 -1.9881,7.19356 -2.4188,16.40692 1.3584,17.65714 0.5235,1.64946 -0.4465,-2.36005 -1.2859,-3.59081 -2.8675,-7.08152 -3.9525,-10.73806 -0.043,-0.14494 0.3759,-0.16624 0.3306,-0.31048 -1.5403,-4.90462 -5.3227,-8.94453 -7.9156,-13.23781 -10.6893,-13.6129 -22.4553,-26.30481 -35.373,-37.84636 -3.3842,-2.83008 -6.8338,-5.85071 -10.6371,-8.11909 -0.823,-0.49085 -2.186,-0.43794 -2.5519,-1.32357 -0.2844,-0.68852 1.4599,0.29797 2.1898,0.44696 3.2875,0.56736 6.5307,1.53458 9.8626,1.70208 14.924,0.75023 18.7036,0.38586 31.8884,-3.1243 2.2294,-0.59351 5.3543,-1.90755 7.2046,-3.50229 -6.9426,3.5337 -13.5369,8.06352 -19.3844,13.18657 -10.3816,9.80905 -19.3021,20.86725 -27.037,32.89222 -6.6465,10.75761 -13.2388,21.58938 -18.6088,33.05663 -0.4685,1.20102 -0.9558,2.3949 -1.4057,3.60305 -0.661,1.77498 -1.2605,3.57249 -1.9265,5.34559 -0.059,0.15669 -0.2754,0.60261 -0.2458,0.43787 0.4484,-2.49883 2.7735,-14.48635 0.434,-1.44515 -3.5478,21.67626 -6.4535,43.43876 -8.494,65.31615 -4.7648,45.46296 -8.5859,91.07769 -7.2981,136.84778 0.2574,38.66817 0,77.4681 3.7898,115.9898 2.5779,18.74808 6.4093,35.89627 14.5848,53.12383 3.8246,8.73575 7.9122,17.3412 11.8111,26.0429 1.4711,3.28317 2.9092,6.58123 4.3181,9.89155 0.7984,1.87599 1.7742,3.69729 2.3034,5.66629 0.3131,1.1652 -1.0979,-2.1488 -1.6468,-3.2232 65.613,131.2261 -119.96869,224.0169 -185.58172,92.7909 z"
       inkscape:connector-curvature="0" />
    <path
       style="fill:#666666;fill-opacity:1;stroke:none;stroke-width:12.94999981;stroke-linecap:round;stroke-linejoin:round;stroke-miterlimit:4;stroke-dasharray:none;stroke-opacity:1"
       id="path4207"
       d="m 1215.8338,778.79182 c -7.0627,-2.3566 -14.3451,-4.1357 -21.1882,-7.0698 -25.1043,-10.7638 -46.246,-29.0274 -64.1645,-49.2776 -4.4622,-5.0428 -8.5542,-10.4014 -12.8313,-15.6021 -26.8587,-35.93001 -48.7447,-75.57123 -65.2033,-117.30673 -3.8331,-9.71999 -7.0745,-19.66305 -10.6118,-29.49457 -14.9568,-46.25345 -22.3044,-94.55497 -25.0527,-142.99462 -0.4804,-8.4674 -0.6356,-16.95013 -0.9534,-25.4252 -0.6235,-34.29057 2.5713,-68.63185 10.8977,-101.94531 4.9412,-19.7697 7.2582,-24.55119 14.183,-43.38017 8.9175,-21.3979 19.7684,-41.99298 32.6593,-61.2675 3.5559,-5.31673 9.8184,-13.85447 13.8738,-19.43402 9.3737,-13.89794 19.0658,-27.54949 29.4813,-40.68724 9.0874,-10.88386 19.0469,-21.08982 30.8133,-29.14463 5.5747,-3.81624 11.4985,-7.11612 17.4739,-10.26814 8.3012,-4.37885 15.4034,-6.35592 24.2767,-9.33967 19.9574,-5.85768 40.7301,-6.45387 61.3552,-6.71125 18.8003,-0.35028 37.6185,0.17991 56.2432,2.9698 5.2668,0.78895 10.4852,1.87347 15.7278,2.81021 21.4797,4.5934 42.769,10.96148 62.71,20.2909 5.7961,2.7117 11.6295,5.40004 17.1157,8.69389 7.2351,4.34386 13.984,9.45054 20.9759,14.17581 19.4911,15.85829 36.3929,34.67122 49.9184,55.86027 8.2399,12.90845 9.8166,17.12081 16.391,30.65722 13.1927,28.93437 17.1936,57.89466 18.8726,89.22425 0.679,22.15021 0.698,44.32426 0.1341,66.47638 -0.6806,27.75472 -5.6495,55.03955 -13.0194,81.72653 -4.3404,13.12009 -9.3273,26.00826 -14.2465,38.9168 -2.1306,5.59102 -2.5076,3.62201 -1.9458,5.98953 -2.1009,8.83613 -3.2431,17.85344 -3.9787,26.89712 -0.8289,13.28795 -0.8663,26.61054 -0.9298,39.91954 0.3396,5.23265 -0.5283,10.55477 0.1751,15.77201 -0.2724,0.69822 0.3507,0.1269 0.3919,0.28258 0.2519,0.95228 0.3843,1.93226 0.5765,2.89839 -0.3297,-1.90669 -0.6745,-4.3957 -1.2403,-6.3575 -0.2559,-0.88723 -0.6078,-1.74445 -0.8754,-2.62821 -0.021,-0.0694 -0.018,-0.28215 0.014,-0.21717 3.1301,6.31269 3.7023,7.82851 6.6206,14.45781 0.4739,1.04155 1.857,4.1829 1.4217,3.12466 -0.6046,-1.46962 -1.4127,-2.85672 -1.9296,-4.3594 -0.1577,-0.45822 0.5724,0.78261 0.8384,1.18764 0.8264,1.25826 1.6308,2.53091 2.4385,3.80132 4.0277,6.3356 1.9416,3.24308 4.73,7.29428 2.319,3.25308 4.3295,6.71156 6.5867,10.0053 0.1787,0.26077 -0.6723,-0.70703 -0.3965,-0.86153 0.01,-0.005 1.2386,1.28202 1.7988,1.93971 1.287,1.51094 2.5471,3.04458 3.8207,4.56687 1.8425,2.36742 3.7077,4.71738 5.5276,7.10225 1.0951,1.43504 2.1281,2.91666 3.2167,4.35661 0.4141,0.54779 -0.7537,-1.15176 -1.1929,-1.6797 -5.1426,-6.18229 -10.7663,-11.17509 -17.2076,-15.95076 -8.8565,-5.5651 -18.8295,-10.09606 -29.3444,-11.29613 -3.3342,-0.38054 -6.6908,-0.52972 -10.0362,-0.79459 -6.107,0.5655 -12.3373,0.35106 -18.321,1.69649 -21.953,4.93611 -39.5755,15.27536 -52.4688,33.51924 -0.5697,-0.29108 -1.0335,1.89126 -1.4247,1.36311 -0.4037,-0.54515 -0.039,-1.35821 0.01,-2.03516 0.1192,-1.82322 0.3406,-3.63844 0.4841,-5.4599 0.6917,-8.77942 0.6194,-8.7157 1.0953,-18.03315 0.768,-16.88041 0.785,-33.78159 0.765,-50.67557 -0.063,-0.85876 -0.085,-3.43109 -0.1885,-2.57627 -0.9847,8.13593 2.5266,16.77249 5.7998,23.97784 0.2273,0.48491 1.2072,1.55917 0.6819,1.45472 -0.7947,-0.15804 -1.1655,-1.12633 -1.7661,-1.67032 -0.678,-0.61416 -1.37,-1.2129 -2.0687,-1.80341 -4.614,-3.89954 -9.2286,-7.79692 -13.8209,-11.72311 -13.6698,-11.41979 -27.2117,-22.99082 -40.8433,-34.45619 -21.5577,-17.21061 -41.4676,-36.28288 -60.7696,-55.94938 -12.568,-13.3798 -25.1561,-26.87603 -36.0861,-41.66297 -7.7874,-10.53543 -9.8612,-14.18007 -16.5058,-24.67652 -11.6059,-19.22442 -21.4574,-39.61941 -27.123,-61.42916 -1.1947,-4.59884 -2.0136,-9.28719 -3.0204,-13.93079 -2.4524,-16.34427 -4.0539,-33.02646 -3.5291,-49.58796 0.1623,-5.12251 0.538,-10.23604 0.807,-15.35406 2.1179,-23.61452 9.1424,-46.34292 20.8153,-67.00116 7.6048,-13.45865 11.6999,-17.73097 21.1586,-29.74138 19.4188,-21.57433 42.3556,-40.35278 68.531,-53.19017 5.8834,-2.88542 12.0396,-5.17761 18.0593,-7.76641 26.9731,-10.35721 55.6345,-12.73951 84.2216,-13.50603 15.0476,-0.24488 30.0974,-0.0842 45.1455,0.006 12.2015,0.29511 24.4773,-0.55004 36.6255,1.09377 6.5576,0.88733 13.0054,2.4534 19.508,3.68009 7.3255,2.63598 14.9845,4.484 21.9765,7.90795 25.3813,12.42917 44.7308,30.06117 59.0604,54.39122 9.6127,16.32143 10.5045,21.97207 16.2448,39.36786 7.5445,28.57755 7.6948,58.13343 6.4779,87.43715 -1.25,23.66581 -4.7809,47.19559 -10.9126,70.09966 -3.9111,14.60919 -6.0164,19.91857 -10.811,33.69399 -10.2279,27.15386 -24.2153,52.94326 -43.4229,74.83134 -3.5163,4.00704 -7.3684,7.70646 -11.0527,11.55969 -15.5815,14.7218 -33.6877,27.05881 -54.1229,33.98216 -13.6384,4.6206 -16.456,4.62813 -29.3668,6.74647 -145.4366,19.32801 -172.7705,-186.35027 -27.334,-205.67829 l 0,0 c -13.2167,2.73806 -26.5088,7.76882 -35.7322,18.07534 -0.9111,1.44217 -1.3545,2.0059 -1.0167,2.13173 1.2908,0.48083 6.0391,-9.66583 6.4554,-10.8883 5.2437,-14.30843 9.7375,-28.81864 10.055,-44.21872 0.2557,-4.45997 0.5741,-8.64258 0.5684,-13.09082 0,-1.94502 -0.1049,-3.88862 -0.1598,-5.83286 -0.03,-1.07527 -0.1366,-2.15073 -0.096,-3.22567 0.01,-0.13483 0.1526,-0.44331 0.2302,-0.33294 0.3565,0.50696 0.4909,1.13821 0.7364,1.70732 8.5872,19.33903 21.376,30.98174 41.2222,39.41603 3.8091,1.61879 7.939,2.34334 11.9084,3.515 3.1529,0.41096 6.2908,0.95962 9.4586,1.23287 1.4841,0.12803 5.9564,0.0476 4.4689,-0.0315 -7.3829,-0.39258 -14.8219,0.25379 -22.2089,-0.0876 -12.9572,-0.0775 -25.9154,-0.21501 -38.8725,-0.0631 -0.5938,0.0117 -14.3352,0.51693 -14.5495,0.27813 -0.4434,-0.49429 2.6282,-0.83168 1.562,-1.23643 0.6553,-0.46853 1.3574,-0.87775 1.966,-1.4056 0.2873,-0.24925 1.0643,-1.0012 0.6966,-0.90388 -1.3592,0.35969 -3.9661,3.2336 -5.4621,2.95669 -0.1706,-0.0316 -0.06,-0.34185 -0.089,-0.51277 0.2236,-1.77709 -0.047,-0.19394 1.1602,-3.29179 2.0081,-5.15388 4.114,-10.6694 3.7803,-16.2899 -0.793,-7.77353 0.025,10.47847 -0.1149,10.56436 -0.2347,0.14384 -0.2133,-0.50759 -0.32,-0.76139 -0.2436,-0.68942 -0.4579,-1.38988 -0.7306,-2.06828 -2.9682,-7.38279 1.5881,6.37814 3.0546,6.71807 1.45,2.38609 2.6921,4.90386 4.2808,7.19998 6.0017,8.67424 13.588,16.16158 20.6168,23.9712 14.6115,14.94963 29.6751,29.43933 46.1313,42.37963 14.0497,11.82254 28.0155,23.74361 42.1013,35.52313 18.8654,16.12912 37.8074,32.38399 52.3241,52.75191 8.9667,13.66972 12.2779,17.50698 18.9808,33.15305 8.6566,20.20626 12.5849,42.0037 12.712,63.91113 0.022,20.78439 -0.056,41.57727 -1.0803,62.34164 -2.0784,35.96016 -5.6165,72.26341 -21.5734,105.16617 -7.8151,14.3678 -10.8122,21.6406 -21.6823,34.2725 -18.3712,21.3488 -39.5009,35.22 -66.9991,42.4058 -8.1034,2.1175 -16.6187,2.1006 -24.928,3.1509 -5.5466,-0.2504 -11.1085,-0.2695 -16.6399,-0.7513 -20.2358,-1.7627 -39.5553,-9.3839 -56.87,-19.679 -3.6234,-2.5037 -7.3959,-4.8043 -10.8702,-7.511 -8.9129,-6.9435 -13.6207,-11.7005 -20.9624,-20.0939 -2.4123,-2.7579 -4.8237,-5.5585 -6.7506,-8.6749 -0.1067,-0.1725 0.3001,0.2731 0.4502,0.4097 -8.8701,-10.6843 -17.7246,-21.3871 -24.9884,-33.2675 -9.3789,-14.16704 -18.8298,-28.4512 -25.5043,-44.14011 -1.5293,-4.07606 -3.794,-7.865 -5.5704,-11.81749 -5.4395,-12.10304 -9.8104,-24.61587 -12.4219,-37.65452 -3.4837,-19.1578 -5.3984,-38.47596 -4.6492,-57.97108 0.098,-19.17919 0.2437,-38.38063 1.7641,-57.51075 2.146,-22.80765 5.4572,-45.55171 11.8064,-67.61503 1.451,-4.58567 2.8117,-9.20084 4.3528,-13.757 2.1217,-6.27274 3.0084,-7.77562 5.0988,-13.33018 0.5125,-1.36176 4.754,-13.14458 5.6661,-15.26119 0.043,-0.0985 0.1925,0.0948 0.2887,0.14221 3.0918,-10.03853 4.8928,-20.3776 5.2221,-30.90147 0.5435,-16.83445 0.3103,-33.69171 0.032,-50.53 -0.122,-3.19225 -0.8365,-7.33686 -0.3513,-10.57996 0.2445,-1.63465 0.1959,0.76574 0.665,-0.23288 0.1337,-0.28457 -0.021,-0.62845 -0.032,-0.94267 -1.0247,-3.51171 -1.1033,-3.90008 -3.3258,-7.23469 -0.3241,-0.48627 -1.4513,-1.25685 -0.9172,-1.49403 0.6946,-0.30849 1.3697,0.65928 2.0546,0.98892 1.7583,0.82593 3.4449,1.82568 5.2748,2.4778 0.3956,0.14101 -0.502,-0.71164 -0.8727,-0.90902 -1.7104,-0.91046 -3.53,-1.59932 -5.3039,-2.37883 -3.1921,-1.40274 -5.3246,-2.34252 -8.7134,-3.36111 -1.8812,-0.56542 -3.8015,-0.99101 -5.7023,-1.48652 -1.211,-0.27094 -6.0362,-1.39906 -7.6846,-1.61763 -7.7667,-1.02988 -15.6265,-0.47775 -23.4291,-0.57671 -7.8155,0.0779 -3.0448,0.0131 -9.6444,0.13405 -3.7234,0.0682 -2.193,0.0201 0.5249,-0.70938 1.7571,-0.47162 3.4945,-1.01388 5.2418,-1.52082 7.3766,-2.86821 13.2923,-5.97598 19.8653,-10.84548 1.8462,-1.36773 8.0772,-6.2769 9.8525,-9.59864 -8.6073,10.59433 -15.8649,22.16692 -23.8118,33.24943 -7.575,10.41036 -15.2649,20.73162 -20.4768,32.61498 -8.8534,20.90994 -11.9939,41.47499 -11.5801,64.2366 1.0767,35.88634 3.8845,72.01247 14.3191,106.56131 1.9886,5.83853 3.7934,11.74292 5.9658,17.51559 9.033,24.00362 21.1584,46.83786 35.639,67.98359 1.5738,2.0494 3.2025,4.05783 4.7214,6.14819 0.3954,0.54407 0.8916,1.08308 1.0139,1.74443 0.1863,1.00836 -1.9843,-0.54616 -2.9233,-0.95829 -12.0983,-5.3102 -5.7796,-2.90387 -21.0841,-7.22578 143.2215,31.82699 98.2113,234.37276 -45.0102,202.54576 z"
       inkscape:connector-curvature="0" />
    <path
       style="fill:#ffd42a;fill-opacity:1;stroke:none;stroke-width:12.94999981;stroke-linecap:round;stroke-linejoin:round;stroke-miterlimit:4;stroke-dasharray:none;stroke-opacity:1"
       id="path4171"
       d="m 1485.3914,402.99094 c 2.6184,-3.48404 5.2596,-6.9499 8.3545,-10.03468 1.0005,-0.99722 2.0685,-1.92432 3.1028,-2.88648 6.6972,-5.6456 14.6383,-9.91595 23.4248,-11.11575 2.5234,-0.34458 5.0886,-0.22702 7.6329,-0.34053 3.0952,0.55353 6.2377,0.88793 9.2856,1.6606 5.1184,1.29754 10.1252,4.39019 14.297,7.53862 2.9089,2.19531 3.9188,3.5054 6.7221,6.36701 4.4522,5.2108 7.4997,11.25333 9.2507,17.86124 0.6919,2.61126 0.8286,4.24685 1.1611,6.83331 0.6312,5.7695 0.18,11.51852 -0.7007,17.22873 -1.161,5.9515 -3.3575,11.56326 -6.6314,16.68472 -1.2439,1.94589 -2.491,3.38932 -3.8952,5.06733 -2.2746,2.42813 -4.2483,5.15265 -6.7248,7.39231 -1.5745,1.42392 -3.2976,2.67439 -4.9464,4.01158 -1.5535,0.94027 -3.0269,2.02752 -4.6603,2.82082 -9.7421,4.73148 -20.1033,6.0764 -30.6242,3.04586 -2.7274,-0.78564 -5.2859,-2.06979 -7.9288,-3.10469 -7.2654,-3.832 -13.3516,-9.28507 -18.1364,-15.93661 -1.9755,-2.74618 -2.9477,-4.58115 -4.5402,-7.37258 -1.4927,-2.80791 -2.8995,-5.64731 -4.6072,-8.32744 -0.2421,-0.44443 -0.608,-0.72296 -0.95,-1.07723 -3.9056,-4.23704 -7.1408,-9.05041 -9.347,-14.38791 -0.5154,-1.24678 -0.9107,-2.53984 -1.3661,-3.80975 -1.3298,-4.77586 -2.1873,-9.7778 -2.0958,-14.75762 0.027,-1.45974 0.1118,-2.91783 0.1676,-4.37675 0.4713,-2.49759 0.6847,-5.05793 1.4138,-7.49278 1.7376,-5.80255 4.7944,-11.41073 8.8634,-15.91947 4.1021,-4.54534 4.2042,-4.27114 9.096,-8.05835 8.5839,-5.69342 17.3289,-7.48584 27.3512,-8.13124 6.2552,-0.39975 12.4656,0.28056 18.5891,1.49632 5.2519,1.32803 10.3812,3.03126 15.3826,5.10454 4.0502,1.74385 7.8027,4.11877 11.4382,6.54012 1.583,0.95548 3.0251,2.1201 4.5671,3.13544 0.051,0.0334 -0.096,-0.0762 -0.1336,-0.12384 -0.01,-0.007 0.016,-0.0104 0.024,-0.0156 -0.1896,-0.11693 -0.3792,-0.23386 -0.5688,-0.35079 0.616,0.27502 -0.1927,-0.12587 -0.1389,-0.10435 2.869,1.14858 5.5713,2.62928 8.2497,4.15724 6.798,4.09263 12.5604,9.72855 16.5324,16.63098 0.8444,1.46731 1.547,3.01175 2.3204,4.51762 2.833,6.28816 4.5766,12.94277 5.8033,19.70622 0.7617,5.32813 1.0369,10.71161 1.4088,16.07806 0.26,3.86038 0.3964,7.72755 0.4614,11.59569 0.1907,5.04568 -0.2167,9.99061 -1.4898,14.91717 -0.4731,1.83087 -1.2573,3.56691 -1.886,5.35036 -3.223,7.9887 -9.2225,14.01041 -15.7863,19.28809 -4.4136,3.45407 -9.3799,5.98291 -14.5462,8.09372 -0.1907,0.0831 -0.3799,0.16986 -0.5722,0.24924 -0.5889,0.24306 -1.183,0.47349 -1.7713,0.71804 -0.3688,0.15331 0.7463,-0.28529 1.1127,-0.44427 2.0039,-0.86957 0.2933,-0.1559 -0.3778,0.31729 -5.9296,3.72739 -12.6224,5.54544 -19.498,6.42142 -5.8592,0.54512 -11.8923,0.36216 -17.5785,-1.29672 -1.98,-0.57763 -3.9036,-1.33328 -5.8555,-1.99992 -7.7371,-3.34743 -14.0686,-8.73651 -19.1345,-15.40739 -2.2814,-3.00414 -3.1814,-4.74037 -5.0651,-7.94298 -2.7265,-4.84413 -5.2398,-9.80069 -7.7087,-14.77948 -3.1619,-6.20058 -4.9427,-12.87926 -5.9177,-19.73369 -5.7965,-47.23929 61.01,-55.43669 66.8064,-8.1974 l 0,0 c -0.061,-0.30682 -1.2481,-4.3434 -0.5845,-1.96376 1.9034,3.84069 3.8226,7.67324 5.9194,11.41325 0.2447,0.84122 -0.9054,-0.71401 -1.2916,-1.06558 -2.297,-2.09082 -4.9932,-3.65348 -7.89,-4.76171 -1.0436,-0.30109 -2.0775,-0.63869 -3.131,-0.90327 -1.8488,-0.46428 -4.4721,-0.45479 -5.8725,-0.27138 -2.9317,0.49785 -5.4671,1.50515 -8.0817,2.90694 -0.026,0.0142 0.056,-0.0212 0.084,-0.0318 3.5343,-2.10397 7.1443,-4.08092 10.9946,-5.55231 0.4174,-0.16994 0.8064,-0.44321 1.2521,-0.50983 0.351,-0.0525 -0.6437,0.29982 -0.9574,0.46579 -0.4208,0.22262 -1.1006,0.63928 -1.4832,0.92943 -0.1314,0.0996 2.3477,-1.55003 -0.3476,0.35183 -0.4514,0.46918 0.022,-0.0359 0.308,-0.22414 0.075,-0.0493 -0.1144,0.13821 -0.1727,0.20639 -0.4248,0.49673 -0.9035,0.95158 -1.2764,1.48832 -2.8224,4.06257 -2.3757,3.34089 -3.8132,6.60453 -0.3164,1.0252 -0.7269,2.02599 -0.9492,3.07562 -0.9474,4.47273 -0.623,3.41235 -0.7216,6.41735 -0.011,0.33336 0,-0.6671 0,-1.00065 -0.01,-1.37087 0,-0.68889 -0.014,-2.04593 -0.04,-2.68344 -0.1355,-5.36618 -0.3104,-8.04443 -0.2174,-3.1666 -0.5008,-6.32917 -0.6283,-9.50116 -0.01,-0.88296 -0.2842,-1.59499 -0.5535,-2.44852 -0.056,-0.17773 -0.3359,-0.59901 -0.1607,-0.53552 0.2097,0.076 0.2091,0.39394 0.3136,0.59091 1.9706,3.36133 4.5331,6.49529 8.0255,8.36567 0.2075,0.0957 0.4547,0.36706 0.6431,0.23768 0.1669,-0.11462 -0.3698,-0.16519 -0.5556,-0.24552 -3.436,-1.48507 -1.6232,-0.65041 -4.6621,-2.10821 -3.2662,-1.73518 -6.4816,-3.56415 -9.4316,-5.80851 -1.0053,-0.65183 -2.0945,-1.19575 -2.999,-1.9815 -0.3529,-0.30659 1.6458,0.88672 1.2446,0.64664 -0.7056,-0.4223 -1.6064,-0.75343 -0.2687,-0.22239 0.093,0.0224 0.3548,0.12353 0.278,0.0671 -0.935,-0.68766 -3.8078,-0.89782 -4.5079,-1.45202 -0.3088,-0.24441 0.7709,0.16111 1.1563,0.24167 0.7683,0.0881 1.7522,0.20656 1.4279,0.12295 -0.2886,-0.0744 -0.5938,-0.053 -0.8903,-0.0828 -0.1528,-0.0154 -0.4689,0.10012 -0.4576,-0.053 0.01,-0.0831 2.2837,-0.0968 -0.5247,-0.0376 -0.1717,0.001 -0.3438,0.0137 -0.5152,0.003 -0.024,-0.001 -0.081,-0.0304 -0.059,-0.0388 0.8521,-0.32248 1.8259,-0.28076 2.6001,-0.84309 2.7967,-1.1639 2.7517,-1.29289 5.2504,-2.91461 0.7773,-0.67021 1.5998,-1.29128 2.3319,-2.01063 4.4655,-4.38808 6.4322,-10.60814 7.0078,-16.7153 0.01,-2.21953 -0.059,-3.59346 -1.084,-6.46594 -1.2647,-3.19579 -2.2541,-4.77359 -4.349,-7.479 -0.1589,-0.20521 0.8717,0.92676 0.4805,0.61266 3.0203,3.31127 5.8675,6.78264 8.2526,10.58761 2.3427,3.69865 4.5037,7.49702 6.4548,11.4175 0.1647,0.30798 0.584,0.58639 0.4942,0.92394 -0.074,0.28023 -0.3673,-0.44918 -0.5637,-0.66246 -0.2995,-0.32511 -0.6005,-0.64979 -0.9232,-0.95188 -1.6584,-1.55275 -3.6776,-2.65616 -5.7154,-3.61856 -1.5121,-0.48837 -2.9861,-1.11577 -4.5362,-1.46511 -7.2624,-1.63669 -14.7373,0.32198 -20.7159,4.57477 -8.5371,7.52675 0.7905,-0.91884 -4.1809,4.04571 -0.3891,0.38848 0.7038,-0.8448 1.0613,-1.26248 1.5322,-1.79028 1.139,-1.34757 2.14,-2.43424 0.1044,-0.11339 0.2087,-0.22695 0.313,-0.34042 1.1547,-1.35591 -0.3036,0.32572 -1.1148,1.71094 -1.9187,3.27665 -1.7211,3.27293 -2.896,6.64673 -0.047,0.13529 0.1519,-0.55098 0.1316,-0.40916 -0.074,0.51893 -0.1962,1.02993 -0.2942,1.54489 -0.3736,3.52764 -0.1354,-0.8643 -0.099,2.48853 0.01,0.51963 -0.01,-1.23738 0,-1.20488 0.064,0.24432 0.062,0.50142 0.094,0.75213 0.7915,4.74391 2.7973,9.12948 6.0729,12.68162 0.7676,0.718 1.5184,1.4544 2.3029,2.15399 0.7405,0.66045 1.6197,1.15454 2.4896,1.63201 4.0506,2.22347 8.0524,3.05725 12.7451,3.33658 1.8051,-0.14203 3.6303,-0.12248 5.4154,-0.42609 4.0185,-0.6835 7.9933,-2.32782 10.9568,-5.17404 0.027,-0.0329 0.5637,-0.6448 0.592,-0.78457 0.016,-0.0783 -0.1337,0.0915 -0.184,0.15354 -0.3536,0.4362 -0.6843,0.89044 -1.0244,1.33725 -0.4207,0.55273 -0.8366,1.10909 -1.2579,1.66135 -0.1886,0.24722 -0.3812,0.49137 -0.5718,0.73706 -28.5562,38.07486 -82.4022,-2.30963 -53.846,-40.3845 z"
       inkscape:connector-curvature="0" />
  </g>
  <g
     inkscape:groupmode="layer"
     id="layer3"
     inkscape:label="Draw"
     style="display:inline"
     transform="translate(0,297.63778)"
     sodipodi:insensitive="true">
    <rect
       style="display:inline;opacity:1;fill:none;fill-opacity:1;stroke:#000000;stroke-width:31.74465561;stroke-linecap:round;stroke-linejoin:round;stroke-miterlimit:4;stroke-dasharray:none;stroke-opacity:1"
       id="rect4186"
       width="1005.7166"
       height="1004.6678"
       x="699.4173"
       y="-78.538895" />
    <path
       style="fill:#1a1a1a;fill-opacity:1;stroke:none;stroke-width:12.94999981;stroke-linecap:round;stroke-linejoin:round;stroke-miterlimit:4;stroke-dasharray:none;stroke-opacity:1"
       id="path4163"
       d="m 1448.0046,402.17043 c -0.8615,-9.79982 1.2168,-19.65963 6.4385,-28.06658 1.185,-1.90784 2.6559,-3.62249 3.9838,-5.43373 9.1933,-10.31924 18.6128,-15.23877 31.5727,-19.43132 11.1085,-3.33095 22.3988,-5.95843 33.8743,-7.62168 10.8057,-1.54644 21.6541,-1.62593 32.4585,-0.19419 9.4592,1.86898 18.588,5.69465 26.1138,11.82623 1.808,1.47303 3.4422,3.14737 5.1633,4.72105 8.5625,9.37167 14.5351,20.71573 19.2856,32.39426 4.4698,12.38411 5.3896,25.52307 5.8713,38.55945 0.7196,14.09395 -1.9535,27.05017 -6.8394,40.17224 -5.4661,10.84115 -11.553,21.48595 -19.1491,30.97995 -7.091,7.69044 -16.3918,12.60623 -25.4386,17.59445 -9.1771,4.88006 -19.4289,5.73747 -29.6078,6.22645 -9.2764,0.5542 -18.5354,0.14321 -27.384,-2.9783 -2.1392,-0.75463 -4.19,-1.73956 -6.285,-2.60935 -13.4419,-6.60481 -23.5548,-17.63006 -32.5568,-29.30598 -9.3816,-13.15098 -17.026,-27.32934 -22.5614,-42.48861 -3.8452,-11.91712 -5.0647,-24.38035 -5.559,-36.82195 -0.1574,-7.02679 -0.252,-14.05878 0.3024,-21.06719 0.4888,-6.46564 3.5885,-11.53858 7.0241,-16.80593 14.3154,-19.51232 41.91,0.73273 27.5946,20.24505 l 0,0 c -0.1183,-0.5322 -0.1514,-2.1736 -0.5402,-0.28009 -0.7159,5.47333 -0.031,11.08823 -0.1817,16.58971 0.3326,8.96335 1.0354,17.96662 3.5854,26.61506 4.134,11.93426 10.4499,22.87579 17.5666,33.2821 5.3155,7.11334 11.2531,14.0996 18.9929,18.66047 6.5567,3.18927 11.1099,3.28377 18.4213,2.77695 4.9215,-0.21617 10.0926,-0.14386 14.7202,-2.04031 5.2699,-2.87532 10.6176,-5.75986 15.4588,-9.3138 5.6191,-6.4706 9.257,-14.44575 13.7182,-21.71043 3.5755,-8.30434 4.8743,-17.491 4.5159,-26.49452 -0.3165,-9.1671 -0.699,-18.46341 -3.5223,-27.26864 -2.6546,-7.23041 -6.5741,-14.03722 -11.1429,-20.23074 -3.2726,-3.69307 -7.6199,-6.13379 -12.3931,-7.34507 -7.5691,-1.22874 -15.219,-0.73379 -22.8025,0.19387 -9.6162,1.34025 -19.0467,3.63788 -28.3618,6.36425 -5.5418,1.70025 -10.7209,3.64521 -14.9297,7.85786 -2.2949,2.24841 -3.6351,4.92756 -3.4466,8.20398 3.0017,24.01356 -30.9586,28.2586 -33.9603,4.24503 z"
       inkscape:connector-curvature="0" />
    <path
       style="fill:#1a1a1a;fill-opacity:1;stroke:none;stroke-width:12.94999981;stroke-linecap:round;stroke-linejoin:round;stroke-miterlimit:4;stroke-dasharray:none;stroke-opacity:1"
       id="path4167"
       d="m 1535.8289,415.95253 c 0,3.79161 0,7.58322 0,11.37483 0,3.40094 0,6.80188 0,10.20281 0,1.47624 0,2.95247 0,4.4287 0,12.10023 -17.1123,12.10023 -17.1123,0 l 0,0 c 0,-1.47623 0,-2.95246 0,-4.4287 0,-3.40093 0,-6.80187 0,-10.20281 0,-3.79161 0,-7.58322 0,-11.37483 0,-12.10023 17.1123,-12.10023 17.1123,0 z"
       inkscape:connector-curvature="0" />
  </g>
</svg>
