<?xml version="1.0" encoding="UTF-8" standalone="no"?>
<!-- Created with Inkscape (http://www.inkscape.org/) -->

<svg
   xmlns:dc="http://purl.org/dc/elements/1.1/"
   xmlns:cc="http://creativecommons.org/ns#"
   xmlns:rdf="http://www.w3.org/1999/02/22-rdf-syntax-ns#"
   xmlns:svg="http://www.w3.org/2000/svg"
   xmlns="http://www.w3.org/2000/svg"
   xmlns:sodipodi="http://sodipodi.sourceforge.net/DTD/sodipodi-0.dtd"
   xmlns:inkscape="http://www.inkscape.org/namespaces/inkscape"
   width="40mm"
   height="40mm"
   viewBox="0 0 141.73228 141.73228"
   id="svg5573"
   version="1.1"
   inkscape:version="0.91 r13725"
   sodipodi:docname="scene1a_pad_close-100-100.svg">
  <defs
     id="defs5575" />
  <sodipodi:namedview
     id="base"
     pagecolor="#ffffff"
     bordercolor="#666666"
     borderopacity="1.0"
     inkscape:pageopacity="0.0"
     inkscape:pageshadow="2"
     inkscape:zoom="7.9195959"
     inkscape:cx="60.796127"
     inkscape:cy="83.75715"
     inkscape:document-units="px"
     inkscape:current-layer="layer1"
     showgrid="false"
     inkscape:showpageshadow="false"
     inkscape:window-width="1855"
     inkscape:window-height="1056"
     inkscape:window-x="65"
     inkscape:window-y="24"
     inkscape:window-maximized="1" />
  <metadata
     id="metadata5578">
    <rdf:RDF>
      <cc:Work
         rdf:about="">
        <dc:format>image/svg+xml</dc:format>
        <dc:type
           rdf:resource="http://purl.org/dc/dcmitype/StillImage" />
        <dc:title />
      </cc:Work>
    </rdf:RDF>
  </metadata>
  <g
     inkscape:label="Layer 1"
     inkscape:groupmode="layer"
     id="layer1"
     transform="translate(0,-910.62992)">
    <path
       style="display:inline;opacity:1;fill:#666666;fill-opacity:1"
       id="path5156"
       d="m 58.575006,956.73628 c 0,1.48928 0,2.97856 0,4.46784 0,1.13965 0,2.27929 0,3.41893 0,0.91635 0,1.8327 0,2.74905 0,1.55707 0,3.11412 0,4.67118 0,1.51626 0,3.03252 0,4.54879 0,1.66058 0,3.32117 0,4.98176 0,1.891 0,3.78199 0,5.67299 0,1.55435 0,3.1087 0,4.66307 0,1.1358 0,2.2717 0,3.4075 0,0.9561 0,1.9123 0,2.86835 0,0.8891 0,1.7781 0,2.66716 0.03637,1.3042 -0.0746,2.6031 -0.279539,3.8905 -0.135309,0.9999 -0.02111,0.1938 -0.687609,2.7017 -0.123489,0.4647 -0.0164,0.076 0.01193,-0.019 0.0444,-0.1477 0.05926,-0.3015 0.09395,-0.4513 -1.312182,16.7933 -25.061639,14.9376 -23.749458,-1.8558 l 0,0 c 0.07818,-0.8914 0.164509,-1.7835 0.357122,-2.6593 0.186159,-0.8214 0.198717,-0.9353 0.432731,-1.7384 0.07395,-0.2538 0.155295,-0.5055 0.237074,-0.75686 0.05585,-0.1718 0.210205,-0.6898 0.175809,-0.5125 -0.762633,3.93136 -0.502163,2.25756 -0.394244,1.52806 0.01169,-0.072 -0.02549,-0.2588 0.03507,-0.2174 0.06251,0.043 -0.01851,0.1506 -0.02208,0.2263 -0.01469,0.3125 -0.01559,0.6257 -0.03255,0.9381 -0.0065,0.1126 0,-0.2254 0,-0.3382 0,-0.2454 0,-0.4907 0,-0.7361 0,-0.88906 0,-1.77816 0,-2.66716 0,-0.95605 0,-1.91225 0,-2.86835 0,-1.1358 0,-2.2717 0,-3.4075 0,-1.55435 0,-3.1087 0,-4.66305 0,-1.891 0,-3.78199 0,-5.67298 0,-1.6606 0,-3.32119 0,-4.98177 0,-1.51627 0,-3.03252 0,-4.54879 0,-1.55706 0,-3.11411 0,-4.67118 0,-0.91634 0,-1.8327 0,-2.74905 0,-1.13964 0,-2.27928 0,-3.41892 0,-1.48929 0,-2.97857 0,-4.46785 0,-16.84459 23.821844,-16.84459 23.821844,0 z"
       inkscape:connector-curvature="0" />
    <path
       style="display:inline;opacity:1;fill:#666666;fill-opacity:1"
       id="path5158"
       d="m 52.526865,997.31089 c 0.837464,0.5295 1.736884,0.94465 2.638869,1.34955 0.545505,0.2819 -0.02013,-0.055 0.196306,-0.028 0.641402,0.08 1.270983,0.1929 1.916013,0.2551 1.708074,0.1369 3.422634,0.1519 5.135165,0.1657 1.24507,0.01 2.490166,0 3.735236,-7e-4 0.819906,0 1.639819,0 2.459732,0 1.229095,-3e-4 2.458182,-2e-4 3.687277,-2e-4 1.586638,0 3.173277,0 4.759923,0 1.776354,0 3.552715,0 5.329068,0 0.986801,0.053 1.957626,-0.055 2.939117,-0.1343 1.159371,-0.096 2.322053,-0.1318 3.484865,-0.1478 0.573187,-0.01 1.146423,-0.01 1.719634,-0.01 0.126379,0 0.505386,-0.01 0.379129,2e-4 -0.221464,0.01 -0.443252,0.01 -0.664878,0.012 16.779589,-1.47825 18.870119,22.25156 2.090515,23.72986 l 0,0 c -1.070691,0.059 -2.136974,0.1012 -3.209231,0.085 -0.628454,0.01 -1.256988,0.02 -1.883656,0.073 -1.615603,0.1303 -3.232943,0.2561 -4.855495,0.2114 -1.776394,0 -3.552779,0 -5.329173,0 -1.586687,0 -3.173383,0 -4.76007,-1e-4 -1.225401,0 -2.450802,0 -3.676203,3e-4 -0.800131,4e-4 -1.600261,0 -2.400391,0 -1.334302,0 -2.668621,0.01 -4.002915,0 -2.50003,-0.021 -5.00316,-0.061 -7.493545,-0.3023 -3.21346,-0.3628 -6.438148,-0.881 -9.410589,-2.2229 -1.567886,-0.717 -3.129213,-1.4569 -4.603646,-2.3547 -14.625203,-8.3573 -2.80626,-29.04034 11.818943,-20.68311 z"
       inkscape:connector-curvature="0" />
    <path
       style="display:inline;opacity:1;fill:#666666;fill-opacity:1"
       id="path5160"
       d="m 84.532233,1005.763 c 0.121711,-0.6649 0.01331,-1.3047 -0.04351,-1.9671 -0.170029,-1.8353 -0.27626,-3.675 -0.33427,-5.51696 -0.09021,-2.16745 5.2e-4,-4.33235 0.162812,-6.49365 0.253854,-2.68932 0.658035,-5.36068 0.936186,-8.04703 0.216625,-2.32705 0.262402,-4.66502 0.293307,-7.00046 0.01883,-1.85621 0.01534,-3.71253 0.01242,-5.5688 -0.0024,-1.24966 -0.0041,-2.49931 -0.0049,-3.74897 -5.52e-4,-0.91582 -5.11e-4,-1.83165 -5.19e-4,-2.74747 1.6e-5,-1.2379 3.2e-5,-2.47581 4e-5,-3.7137 1.55e-4,-16.84459 23.821991,-16.84438 23.821841,2.1e-4 l 0,0 c -1e-5,1.23779 -3e-5,2.47558 -4e-5,3.71337 0,0.91007 -4e-5,1.82014 5.1e-4,2.73021 8.1e-4,1.24316 0.002,2.48632 0.005,3.72948 0.003,1.97627 0.006,3.9526 -0.0146,5.9288 -0.0424,3.05812 -0.11965,6.11885 -0.4213,9.16435 -0.26352,2.48496 -0.60814,4.95948 -0.88058,7.44341 -0.11413,1.2923 -0.15452,2.5854 -0.0994,3.8823 0.042,1.43615 0.13245,2.86971 0.26589,4.30051 0.18228,2.2882 0.25833,4.585 -0.0609,6.8662 -2.08931,16.7146 -25.727191,13.7598 -23.637878,-2.9547 z"
       inkscape:connector-curvature="0" />
    <path
       style="display:inline;opacity:1;fill:#666666;fill-opacity:1"
       id="path5162"
       d="m 94.859066,967.98593 c -0.235751,0.003 -0.481373,-0.0236 -0.713187,-0.0395 -16.77957,-1.47864 -14.688454,-25.20852 2.091107,-23.72988 l 0,0 c 1.26953,0.12039 2.543054,0.23149 3.789764,0.51475 16.44347,3.65411 11.27578,26.90868 -5.167684,23.25459 z"
       inkscape:connector-curvature="0" />
    <path
       style="display:inline;opacity:1;fill:#666666;fill-opacity:1"
       id="path5164"
       d="m 65.940458,967.19018 c -1.408013,0 -2.816033,0 -4.224046,0 -0.262362,0 -0.524723,0 -0.787085,0 -16.844589,0 -16.844589,-23.82185 0,-23.82185 l 0,0 c 0.262362,0 0.524723,0 0.787085,0 1.408013,0 2.816033,0 4.224046,0 16.844589,0 16.844589,23.82185 0,23.82185 z"
       inkscape:connector-curvature="0" />
    <path
       style="display:inline;opacity:1;fill:#666666;fill-opacity:1"
       id="path5166"
       d="m 59.245842,945.3774 c 2.1834,-0.0513 4.324254,0.36104 6.445365,0.82626 1.308764,0.2637 2.652889,0.26082 3.980924,0.33901 2.974357,0.17931 5.926227,0.5579 8.872406,0.99025 1.703171,0.19857 3.398987,0.45315 5.099397,0.67314 1.409458,0.077 2.777166,0.38252 4.152544,0.67651 0.990909,0.29026 0.577124,0.16719 1.242214,0.36631 16.136098,4.83389 9.299955,27.65378 -6.836143,22.8199 l 0,0 c -0.149954,-0.045 -0.299899,-0.0899 -0.449852,-0.13482 -0.0016,-0.003 -0.0032,-0.007 -0.0057,-0.0104 0.32543,0.0551 0.653919,0.0945 0.97628,0.16545 0.198701,0.0437 -0.403223,-0.0547 -0.604595,-0.0837 -0.314169,-0.0452 -0.257945,-0.0364 -0.04757,-0.0276 -0.241458,-0.0211 -0.482908,-0.0421 -0.724358,-0.0632 -0.263531,-0.0262 -0.526453,-0.0582 -0.789675,-0.0874 -1.824305,-0.23993 -3.64482,-0.50586 -5.471869,-0.7248 -2.267306,-0.33278 -4.535456,-0.64457 -6.82537,-0.77966 -2.570501,-0.15421 -5.154047,-0.26112 -7.672861,-0.85033 -0.278629,-0.0611 -0.558542,-0.11667 -0.835897,-0.18337 -0.03889,-0.009 -0.150506,-0.0364 -0.111361,-0.0444 0.100239,-0.0206 0.408045,0.0204 0.306993,0.004 -0.174014,-0.0279 -0.353338,-0.0109 -0.527255,-0.0394 -0.09606,-0.0158 1.107221,-0.01 -0.173918,-0.01 -16.844588,0 -16.844588,-23.82184 0,-23.82184 z"
       inkscape:connector-curvature="0" />
    <path
       style="display:inline;opacity:1;fill:#666666;fill-opacity:1"
       id="path5168"
       d="m 96.435566,963.62172 c 0.264667,3.37149 -0.36386,6.70935 -1.660073,9.82367 -0.296002,0.7112 -0.664789,1.38987 -0.997192,2.08481 -2.044134,3.75611 -4.630903,7.17773 -7.360035,10.4565 -2.057661,2.36005 -4.29856,4.55164 -6.642247,6.62479 -1.489938,1.2999 -3.056615,2.5198 -4.481481,3.8928 -1.74544,1.71265 -3.498949,3.41675 -5.343152,5.02311 -0.504818,0.3792 -0.959524,0.8365 -1.514454,1.1376 -3.806041,2.0655 -6.642053,3.2709 -11.430925,1.6132 -2.368268,-0.8197 -4.346342,-2.6248 -6.051883,-4.46106 -1.870902,-2.01425 -2.161287,-4.55505 -2.671422,-7.03145 -0.480034,-3.71394 -0.273296,-7.48858 0.667671,-11.11718 0.200244,-0.77217 0.470366,-1.52451 0.705541,-2.28676 1.072566,-2.788 2.360596,-5.6038 4.492309,-7.76452 0.746106,-0.75626 1.51935,-1.50786 2.413737,-2.08116 1.163185,-0.7456 2.474376,-1.23011 3.711565,-1.84516 1.306758,-0.24208 2.593108,-0.65652 3.920275,-0.72625 3.30059,-0.1734 6.516689,0.78901 9.404988,2.30303 1.941641,1.01779 2.572375,1.59478 4.295979,2.88656 3.044819,2.5074 5.553502,5.58772 7.650698,8.91605 0.385234,0.61137 0.737476,1.24293 1.106215,1.86439 8.485147,14.5514 -12.093595,26.55111 -20.578746,11.9998 l 0,0 c -0.801478,-1.433 -1.693178,-2.8422 -2.853011,-4.01513 -0.07996,-0.0885 -0.307383,-0.27828 -0.190648,-0.30299 0.08616,-0.0183 0.175857,0.0115 0.263287,0.0221 0.248699,0.0301 0.494435,0.0934 0.744864,0.1 2.430548,0.0638 1.808686,0.0358 4.259862,-0.61762 2.034656,-1.18367 2.195406,-1.02258 3.573878,-2.58572 0.223112,-0.253 0.395665,-0.54747 0.569079,-0.83681 0.06705,-0.11182 0.162828,-0.23192 0.149134,-0.36157 -3.49e-4,-0.003 -0.294655,0.47155 -0.303479,0.48577 -0.350026,0.73566 -0.506831,1.5039 -0.461014,2.32377 -0.44076,-1.3619 -0.833495,-2.76265 -1.959298,-3.81477 -1.607874,-1.50262 -3.361295,-3.06424 -5.468378,-3.69933 -3.081813,-0.9289 -7.501744,-0.50653 -9.996131,1.84906 1.649576,-1.38342 3.114674,-2.97473 4.690199,-4.43924 1.618866,-1.48184 3.272648,-2.92485 4.961693,-4.32644 1.445599,-1.25413 2.800878,-2.60912 4.096572,-4.01717 1.561643,-1.85038 3.024923,-3.78163 4.324464,-5.82681 0.06235,-0.094 0.07469,-0.29291 0.186898,-0.28193 0.09912,0.01 -0.02143,0.1981 -0.02752,0.29752 -0.0057,0.0994 -0.0057,0.19904 -0.0088,0.29856 0.01348,-0.0318 0.03572,-0.12976 0.04043,-0.0955 0.02565,0.18614 0.01007,0.3758 0.02395,0.56318 0.0084,0.1135 0.02866,0.22582 0.04303,0.33873 -1.676098,-16.76099 22.027523,-19.13135 23.70362,-2.37036 z"
       inkscape:connector-curvature="0" />
    <path
       style="display:inline;opacity:1;fill:#fcb237;fill-opacity:0"
       id="path4506"
       d="m 47.091997,973.73072 c 0.684255,3.43841 1.499087,6.84718 2.369834,10.2426 0.198239,0.70609 0.396477,1.41217 0.594724,2.11827 3.324432,11.88515 -13.483854,16.58661 -16.808286,4.70145 l 0,0 c -0.231521,-0.83034 -0.463043,-1.66069 -0.694557,-2.49104 -0.914121,-3.5761 -1.779259,-7.16428 -2.499526,-10.7851 -2.677234,-12.04755 14.360576,-15.83373 17.037811,-3.78618 z"
       inkscape:connector-curvature="0" />
    <path
       style="display:inline;opacity:1;fill:#1a1a1a;fill-opacity:1"
       id="path4999"
       d="m 39.459068,956.67295 c 0.183342,1.80777 0.228039,3.62738 0.320932,5.44172 0.224338,3.84171 0.34613,7.68281 0.350002,11.53088 -0.02216,5.35378 -0.501368,10.68839 -0.923164,16.02096 -0.37425,4.61448 -0.737899,9.22993 -1.086432,13.84649 -0.18663,3.1767 -0.454235,6.3472 -0.728774,9.5172 -0.06819,1.342 -0.29269,2.6674 -0.462126,3.9984 -0.02581,0.2312 -0.05739,0.462 -0.07436,0.6941 0.0024,-0.032 0.0089,-0.1333 0.0041,-0.1359 -1.100012,-0.6203 -2.547291,-0.8005 -3.344215,-1.7801 -0.854235,-1.05 2.148761,-0.2786 2.28424,-0.2441 0.855754,0.2044 1.727094,0.2885 2.602745,0.3497 1.737363,0.1915 3.482259,0.2766 5.228447,0.3301 2.214815,0.035 4.428048,0.047 6.641557,0.1354 2.904389,0.1109 5.809987,0.1576 8.714489,0.2664 3.063986,0.1046 6.129734,0.2158 9.195774,0.1708 2.447969,-0.018 4.886871,-0.2285 7.32906,-0.3709 2.067363,-0.1121 4.137924,-0.1358 6.207827,-0.1502 1.637319,-0.01 3.27467,-0.01 4.912004,-0.01 1.188059,-0.036 2.363365,-0.2064 3.541545,-0.3477 1.033202,-0.119 2.071429,-0.1814 3.110538,-0.2147 0.454699,-0.012 0.9096,-0.014 1.364428,-0.012 0.341446,0.024 0.545148,-0.011 0.733369,-0.045 0.665471,-0.1302 1.34117,-0.1851 2.017389,-0.2177 0.611812,-0.024 1.224192,-0.023 1.836353,-0.023 0.276105,-0.015 0.5554,0.019 0.831274,0 0.0223,0 -0.0842,0 -0.0658,-0.013 0.10354,-0.071 0.24616,-0.052 0.36956,-0.076 0.57369,-0.1171 1.15618,-0.1637 1.74012,-0.1862 0.62996,-0.051 1.24006,0.1116 1.84785,0.2466 0.10617,0.024 0.21253,0.046 0.31914,0.067 -0.003,-7e-4 -0.007,0 -0.01,0 -0.011,0 -0.0219,0 -0.0329,-0.01 3.00426,0.4917 2.30905,4.7403 -0.69521,4.2487 l 0,0 c -0.0524,-0.01 -0.0283,-0.01 -0.0723,-0.013 -0.14848,-0.028 -0.29626,-0.061 -0.44401,-0.093 -0.29917,-0.067 -0.52243,-0.16 -0.75413,-0.1467 -0.35811,0.012 -0.71518,0.035 -1.06702,0.108 -0.65004,0.128 -1.300604,0.2079 -1.964638,0.169 -0.54561,2e-4 -1.091407,-8e-4 -1.636766,0.019 -0.489524,0.022 -0.978926,0.058 -1.460308,0.1551 -0.499403,0.087 -0.999952,0.1362 -1.50688,0.1129 -0.404222,0 -0.808492,-7e-4 -1.2126,0.01 -0.913826,0.028 -1.8269,0.083 -2.735614,0.1863 -1.348964,0.1613 -2.69589,0.3516 -4.056851,0.3783 -1.626262,0 -3.25254,0 -4.878794,0 -1.996364,0.014 -3.993393,0.036 -5.987362,0.143 -2.50529,0.1456 -5.0073,0.3603 -7.51854,0.3777 -3.140091,0.043 -6.279719,-0.062 -9.417667,-0.1733 -2.90844,-0.109 -5.817999,-0.1551 -8.726309,-0.2668 -2.199903,-0.089 -4.399595,-0.097 -6.600798,-0.1341 -1.804432,-0.056 -3.608037,-0.1413 -5.403411,-0.339 -1.130016,-0.082 -2.25426,-0.2045 -3.35765,-0.4718 -1.045509,-0.2662 2.439088,0.6271 1.324504,-0.4568 -2.498584,-2.4301 -3.590479,-0.3448 -3.501766,-1.8487 0.02265,-0.3163 0.06186,-0.6312 0.09901,-0.9461 0.163121,-1.273 0.379064,-2.5406 0.44348,-3.8244 0.273199,-3.1543 0.539335,-6.3089 0.724934,-9.4699 0.349036,-4.62156 0.712895,-9.24211 1.087625,-13.86176 0.412777,-5.2183 0.88484,-10.43845 0.909754,-15.67748 -0.0032,-3.77601 -0.123887,-7.54499 -0.344369,-11.31476 -0.08624,-1.68454 -0.134635,-3.37285 -0.283297,-5.05299 -0.430516,-3.01361 3.831368,-3.62245 4.261884,-0.60884 z"
       inkscape:connector-curvature="0" />
    <path
       style="display:inline;opacity:1;fill:#1a1a1a;fill-opacity:1"
       id="path5001"
       d="m 102.70284,1016.3476 c 0.22447,0.02 0.44499,0.075 0.66949,0.096 0.0857,0.01 0.5401,-0.085 -0.0781,0.01 -0.19791,-0.3474 -0.91164,0.9597 -0.92012,0.6287 -0.006,-0.2075 0.077,-0.4786 0.10356,-0.6801 0.15445,-1.2506 0.26363,-2.5035 0.32392,-3.7623 0.16812,-1.9525 0.25868,-3.9092 0.31153,-5.8679 0.0663,-2.644 0.19556,-5.2857 0.26064,-7.92996 0.11945,-3.00945 0.28797,-6.01765 0.27697,-9.03022 -0.0144,-2.78965 -0.15809,-5.57451 -0.29382,-8.36 -0.12978,-2.71516 -0.16407,-5.43347 -0.18569,-8.15125 -0.0798,-2.24889 -0.18765,-4.49635 -0.24535,-6.74603 0.0178,-1.86361 0.12493,-3.72477 0.18435,-5.58732 0.0366,-1.18611 0.0481,-2.37273 0.0528,-3.55933 -0.0144,-1.13762 0.13628,-2.26814 0.31806,-3.38836 0.13007,-0.94916 0.28999,-1.89422 0.49791,-2.82952 0.14736,-0.75789 0.31341,-1.51042 0.48014,-2.26426 0.0816,-0.39972 0.11775,-0.80736 0.13553,-1.21446 0.008,-0.20465 0.007,-0.40949 0.006,-0.61426 -6.9e-4,-0.11881 -0.002,-0.23762 -0.002,-0.35643 -0.0222,-0.99245 1.40789,1.39992 2.10653,2.10516 -0.70771,0.006 -1.41549,0.003 -2.12322,0.003 -1.91529,-5.2e-4 -3.83058,-6.2e-4 -5.745867,-7.1e-4 -2.490483,-9e-5 -4.980974,-8e-5 -7.471461,-8e-5 -2.738126,-0.0294 -5.473184,0.14245 -8.200749,0.3652 -3.014484,0.23984 -6.021994,0.55679 -9.037394,0.78538 -2.774073,0.20182 -5.5555,0.25216 -8.335742,0.27934 -2.548915,0.0626 -5.095021,-0.0688 -7.641119,-0.16526 -1.810132,-0.0724 -3.62153,-0.0988 -5.432904,-0.11253 -1.157406,-0.007 -2.314836,-0.006 -3.472258,-0.006 -0.954873,0.0132 -1.904916,0.14211 -2.858344,0.20483 -0.951431,0.058 -1.904672,0.0747 -2.857622,0.0832 -0.719698,0.0208 -1.427861,0.0182 -2.133336,-0.13913 -0.246183,-0.0924 -0.49558,-0.11823 -0.754597,-0.13418 -0.204287,-0.0129 -0.409003,-0.0149 -0.61363,-0.0152 -0.0108,-0.002 -0.153412,0.002 -0.06356,-2.3e-4 0.996436,-0.22148 2.411187,-1.55237 1.204359,-0.38864 -0.396574,0.3993 -0.964143,0.62218 -1.520965,0.67313 -0.264399,0.0111 -0.529228,0.006 -0.793806,0.006 -0.209271,-4.4e-4 -0.418549,-8e-4 -0.62782,-8.1e-4 -0.01818,-3e-5 -0.06178,-8e-5 -0.07436,-10e-5 1.920803,-2.22282 2.52237,-2.94886 2.007973,-0.91068 -0.08583,0.4306 -0.121947,0.86678 -0.197573,1.29959 -0.08363,0.31392 -0.176962,0.6217 -0.210578,0.94469 -8.12e-4,0.42266 -0.201542,0.80343 -0.253277,1.2156 -0.03637,0.49111 -0.08021,0.97509 -0.191883,1.45684 -0.09904,0.5538 -0.237309,1.08014 -0.489305,1.58718 0.322816,-0.59887 0.38426,-1.40302 -0.02963,-1.98082 -0.135341,-0.18895 -0.319966,-0.33719 -0.479945,-0.50579 2.528824,1.69477 0.132054,5.27106 -2.396761,3.57629 l 0,0 c -0.224606,-0.2119 -0.482088,-0.39365 -0.673808,-0.63571 -0.585161,-0.73882 -0.548899,-1.76246 -0.165946,-2.57564 -0.115671,0.27806 -0.06275,0.11883 -0.1397,0.48362 -0.02565,0.0705 0.02224,-0.1485 0.03507,-0.22247 0.04164,-0.24035 0.04944,-0.27269 0.09886,-0.49167 0.01826,-0.0809 0.03702,-0.16174 0.05553,-0.24261 0.0093,-0.0345 -0.0081,-0.10673 0.02768,-0.10343 0.03531,0.003 8.12e-4,0.14174 0.0041,0.10639 0.03247,-0.37435 0.0203,-0.75388 0.09338,-1.12479 0.05406,-0.32146 0.05358,-0.35867 0.132468,-0.67124 0.02167,-0.0858 0.04716,-0.17052 0.07241,-0.2553 0.0073,-0.025 0.02533,-0.10002 0.02565,-0.0739 8.12e-4,0.0782 -0.01648,0.3113 -0.02387,0.23343 -0.0083,-0.087 0.01412,-0.17431 0.02119,-0.26147 0.05293,-0.44944 0.131282,-0.8959 0.271535,-1.32722 0.06007,-0.43724 0.114851,-1.01763 0.243698,-1.49946 0.0561,-0.21292 0.04993,-0.22329 0.01364,0.21576 -0.0065,0.0828 -0.05877,-0.18755 -0.0032,-0.24912 0.703105,-0.77651 1.432537,-1.52879 2.148809,-2.29319 0.02793,3e-5 0.05593,5e-5 0.08391,10e-5 0.210716,3.1e-4 0.421423,6.7e-4 0.632131,8.1e-4 0.146633,3.6e-4 0.41376,-8.1e-4 0.510127,0.002 -0.390713,0.0463 -1.494062,0.78563 -1.186703,0.517 0.108398,-0.10193 -0.194805,0.19102 -0.100962,0.14195 1.852076,-0.96836 0.992255,-0.90707 1.698575,-0.9484 0.08305,-0.003 0.166157,-0.003 0.24926,-0.003 0.305272,5.9e-4 0.610642,0.006 0.915314,0.0262 0.488542,0.0373 0.980161,0.0902 1.448716,0.24151 0.01542,0.006 0.06226,0.0127 0.04635,0.0169 -0.04375,0.0114 -0.180744,0.004 -0.135576,0.006 0.392767,0.022 0.788943,-0.0174 1.181921,-0.002 0.872071,-0.007 1.744442,-0.0221 2.615182,-0.0742 1.04572,-0.0676 2.087284,-0.21366 3.135918,-0.21398 1.169258,-7.7e-4 2.338524,-0.002 3.507774,0.006 1.854837,0.0141 3.70969,0.0414 5.563252,0.1155 2.477819,0.0939 4.955573,0.22422 7.436152,0.16237 2.685831,-0.026 5.372847,-0.0732 8.052776,-0.26727 3.007307,-0.22723 6.006529,-0.5455 9.012976,-0.78346 2.84387,-0.23083 5.695297,-0.40949 8.550086,-0.37939 2.490544,0 4.981099,-1e-5 7.471655,8e-5 1.915634,9e-5 3.831264,1.9e-4 5.746894,7.1e-4 0.66914,1.9e-4 1.3383,0.002 2.00745,-0.002 2.11808,1.94269 2.30547,1.08303 2.31303,2.16653 8.1e-4,0.12179 0.002,0.24358 0.002,0.36537 0.002,0.28112 0.002,0.56233 -0.0106,0.84325 -0.0328,0.65197 -0.0951,1.30381 -0.23321,1.94285 -0.17012,0.76196 -0.33552,1.52271 -0.48574,2.28904 -0.20199,0.84292 -0.31654,1.7043 -0.44536,2.56047 -0.14592,0.8978 -0.27879,1.80321 -0.26242,2.71541 -0.005,1.2267 -0.017,2.45343 -0.0549,3.67962 -0.0569,1.7801 -0.15479,3.55885 -0.18356,5.3397 0.0581,2.275 0.17048,4.54764 0.24663,6.82201 0.0211,2.65931 0.054,5.31918 0.18072,7.97595 0.13889,2.85099 0.28453,5.70145 0.2989,8.55668 0.007,3.05222 -0.15109,6.10012 -0.27826,9.14908 -0.0653,2.64776 -0.19415,5.29306 -0.26092,7.94046 -0.0541,1.9892 -0.14251,3.977 -0.31499,5.9599 -0.0684,1.3951 -0.18987,2.7838 -0.36317,4.1698 -0.17702,1.1659 -0.41325,2.3119 -1.36338,3.1222 -0.2082,0.1775 -0.47897,0.2647 -0.71847,0.397 -0.87407,0.2205 -1.67125,0.2641 -2.56269,0.076 -3.013606,-0.4305 -2.404765,-4.6923 0.60884,-4.2618 z"
       inkscape:connector-curvature="0" />
    <path
       style="fill:#1a1a1a;fill-opacity:1;stroke:none;stroke-width:12.94999981;stroke-linecap:round;stroke-linejoin:round;stroke-miterlimit:4;stroke-dasharray:none;stroke-opacity:1"
       id="path4167"
       d="m 83.782508,975.95035 c 0.585625,-0.56605 1.241848,-1.06169 1.977602,-1.41716 0.197897,-0.0956 0.403961,-0.17331 0.605942,-0.25996 1.105911,-0.41769 2.284122,-0.53511 3.456886,-0.55392 0.869824,0.0345 1.729655,0.23088 2.519236,0.60201 0.512748,0.24101 0.743533,0.40955 1.212916,0.71035 0.669659,0.4579 1.357003,0.90457 1.950743,1.46187 0.408808,0.38371 0.514407,0.53201 0.866522,0.94921 0.382868,0.50496 0.76312,1.03031 1.004763,1.62127 0.164303,0.40181 0.167463,0.47531 0.263678,0.87428 0.117721,0.6178 0.106387,1.24868 0.102576,1.8746 0.03034,0.76617 -0.111838,1.51219 -0.428585,2.21139 -0.07516,0.1659 -0.170664,0.32181 -0.255996,0.48272 -0.486498,0.84745 -1.152848,1.56292 -1.868845,2.2187 -0.624374,0.50011 -1.190554,1.06475 -1.819898,1.5583 -0.928979,0.69236 -1.905542,0.84814 -3.027722,0.92389 -1.010957,0.0429 -2.022599,0.049 -3.031468,-0.0312 -1.234559,-0.11467 -2.32299,-0.67695 -3.37082,-1.29722 -0.545366,-0.34311 -1.048723,-0.74213 -1.47998,-1.2229 -0.388194,-0.43276 -0.706607,-0.92422 -1.021529,-1.4104 -0.328172,-0.54269 -0.655512,-1.09246 -0.872369,-1.69141 -0.157072,-0.43383 -0.162406,-0.52958 -0.259539,-0.97672 -0.114926,-0.77868 -0.173648,-1.57748 -0.07609,-2.36211 0.0244,-0.19624 0.06522,-0.39009 0.09783,-0.58513 0.222364,-0.90514 0.622307,-1.79132 1.269258,-2.47673 0.129339,-0.13703 0.274794,-0.2579 0.41219,-0.38684 0.647992,-0.51946 1.289854,-0.71358 2.084552,-0.87447 2.801066,-0.56328 3.597673,3.39802 0.796606,3.96131 l 0,0 c -0.08356,0.0167 -0.188691,0.0985 -0.252241,0.0417 -0.0035,-0.003 0.0095,-0.0103 0.0056,-0.0129 -0.01147,-0.007 -0.04701,0.0103 -0.04098,-0.002 0.01018,-0.0207 0.02966,-0.0354 0.04448,-0.053 0.0087,-0.018 0.04559,-0.0589 0.02614,-0.0541 -0.11369,0.0277 -0.339826,0.47965 -0.371661,0.58821 -0.109707,0.4671 -0.08812,0.94722 -0.03394,1.42139 0.06771,0.47482 0.324718,0.87688 0.571252,1.28117 0.338526,0.53591 0.614417,1.00326 1.167093,1.3428 0.515486,0.30911 1.037332,0.64906 1.641956,0.74287 0.811431,0.0737 1.626703,0.0479 2.440249,0.025 0.197959,-0.0109 0.431463,-0.0547 0.631755,-0.0415 0.0088,5.9e-4 0.01337,0.0148 0.02222,0.0145 0.05175,-0.002 0.128567,-0.0497 0.165767,-0.0687 0.565545,-0.41299 1.027015,-0.95582 1.592952,-1.37042 0.3948,-0.32779 0.736464,-0.72698 1.019506,-1.15441 0.02899,-0.0463 0.05311,-0.096 0.08697,-0.1388 0.0064,-0.008 0.02472,7e-5 0.02982,-0.009 0.01967,-0.0349 0.01859,-0.0793 0.03927,-0.11359 0.0043,-0.007 0.02069,0.0211 0.02148,0.0128 0.01628,-0.17206 -0.0117,-0.34639 0.0042,-0.51847 0.0021,-0.32791 0.0039,-0.65585 -0.0088,-0.9836 -2.38e-4,-0.0144 -0.0053,-0.0295 -7.15e-4,-0.0432 0.0017,-0.005 0.01709,0.003 0.01585,-0.002 -0.06678,-0.27704 -0.30447,-0.50022 -0.445568,-0.73506 -0.137728,-0.17104 -0.259181,-0.33202 -0.415506,-0.48683 -0.443123,-0.43883 -0.990932,-0.75873 -1.495799,-1.11802 -0.461411,-0.30741 -0.922816,-0.61121 -1.492106,-0.65929 -0.657515,-0.002 -1.324335,0.0543 -1.955073,0.24949 -0.477932,0.17714 -0.904561,0.43368 -1.265482,0.79825 -2.020305,2.0203 -4.877448,-0.83684 -2.857143,-2.85714 z"
       inkscape:connector-curvature="0" />
    <path
       style="fill:#1a1a1a;fill-opacity:1;stroke:none;stroke-width:12.94999981;stroke-linecap:round;stroke-linejoin:round;stroke-miterlimit:4;stroke-dasharray:none;stroke-opacity:1"
       id="path4169"
       d="m 89.966711,980.70934 c 0,0.24909 0,0.49818 0,0.74727 0,0.19618 0,0.39236 0,0.58854 0,0.0624 0,0.12477 0,0.18716 0,1.42857 -2.020305,1.42857 -2.020305,0 l 0,0 c 0,-0.0624 0,-0.12478 0,-0.18716 0,-0.19618 0,-0.39236 0,-0.58854 0,-0.24909 0,-0.49818 0,-0.74727 0,-1.42857 2.020305,-1.42857 2.020305,0 z"
       inkscape:connector-curvature="0" />
    <path
       style="fill:#ffcc00;fill-opacity:1;stroke:none;stroke-width:12.94999981;stroke-linecap:round;stroke-linejoin:round;stroke-miterlimit:4;stroke-dasharray:none;stroke-opacity:1"
       d="m 87.297359,74.373156 c -1.07799,-0.353735 -1.908714,-1.068717 -2.532476,-2.179633 -0.376998,-0.671432 -0.431955,-0.881093 -0.430268,-1.641497 0.0011,-0.479462 0.04368,-0.936496 0.0947,-1.015631 0.05102,-0.07913 0.3321,-0.21533 0.624617,-0.302656 0.292518,-0.08733 0.94596,-0.491874 1.452095,-0.898996 1.109768,-0.892668 1.889426,-1.165364 3.131252,-1.095194 0.794081,0.04487 0.931503,0.0994 1.937118,0.76862 0.628856,0.418495 1.296057,0.990618 1.592297,1.365391 0.486029,0.614871 0.509897,0.68657 0.509897,1.531712 l 0,0.886645 -1.15001,1.128313 c -0.632505,0.620573 -1.293321,1.222215 -1.46848,1.336983 -0.425712,0.278938 -3.020263,0.358928 -3.760744,0.115943 z m 2.478603,-2.087338 c 0.231089,-0.293782 0.255764,-0.47189 0.218129,-1.574442 -0.03849,-1.127604 -0.07015,-1.265612 -0.34053,-1.484383 -0.163952,-0.132658 -0.476468,-0.239389 -0.69448,-0.237181 -0.793466,0.008 -1.090866,0.501593 -1.090866,1.810365 0,1.172208 0.140385,1.559918 0.641047,1.770431 0.516961,0.217366 0.947918,0.120475 1.2667,-0.28479 z"
       id="path4171"
       inkscape:connector-curvature="0"
       transform="translate(0,910.62992)" />
  </g>
</svg>
