<?xml version="1.0" encoding="UTF-8" standalone="no"?>
<!-- Created with Inkscape (http://www.inkscape.org/) -->

<svg
   xmlns:dc="http://purl.org/dc/elements/1.1/"
   xmlns:cc="http://creativecommons.org/ns#"
   xmlns:rdf="http://www.w3.org/1999/02/22-rdf-syntax-ns#"
   xmlns:svg="http://www.w3.org/2000/svg"
   xmlns="http://www.w3.org/2000/svg"
   xmlns:sodipodi="http://sodipodi.sourceforge.net/DTD/sodipodi-0.dtd"
   xmlns:inkscape="http://www.inkscape.org/namespaces/inkscape"
   width="30mm"
   height="30mm"
   viewBox="0 0 106.29921 106.29921"
   id="svg5675"
   version="1.1"
   inkscape:version="0.91 r13725"
   sodipodi:docname="scene1a_interrupter-30-30.svg">
  <defs
     id="defs5677" />
  <sodipodi:namedview
     id="base"
     pagecolor="#ffffff"
     bordercolor="#666666"
     borderopacity="1.0"
     inkscape:pageopacity="0.0"
     inkscape:pageshadow="2"
     inkscape:zoom="5.6"
     inkscape:cx="47.176522"
     inkscape:cy="54.032667"
     inkscape:document-units="px"
     inkscape:current-layer="layer1"
     showgrid="false"
     inkscape:showpageshadow="false"
     inkscape:window-width="1855"
     inkscape:window-height="1056"
     inkscape:window-x="65"
     inkscape:window-y="24"
     inkscape:window-maximized="1" />
  <metadata
     id="metadata5680">
    <rdf:RDF>
      <cc:Work
         rdf:about="">
        <dc:format>image/svg+xml</dc:format>
        <dc:type
           rdf:resource="http://purl.org/dc/dcmitype/StillImage" />
        <dc:title />
      </cc:Work>
    </rdf:RDF>
  </metadata>
  <g
     inkscape:label="Layer 1"
     inkscape:groupmode="layer"
     id="layer1"
     transform="translate(0,-946.06299)">
    <path
       style="display:inline;opacity:1;fill:#ffffff;fill-opacity:1"
       id="path5250"
       d="m 53.469998,1000.1037 c -0.0339,0 -0.135466,0 -0.101655,0 0.191363,-0.013 0.368191,0 0.553022,-0.059 0.508752,-0.16805 0.653208,-0.24535 1.070323,-0.61325 0.09127,-0.081 0.157152,-0.1858 0.235728,-0.2787 0.15424,-0.188 0.212162,-0.4162 0.298998,-0.6356 0.0077,-0.019 0.0045,0.076 4.51e-4,0.2386 -0.0053,0.3877 -0.0023,0.7754 -3.88e-4,1.1631 0.0018,0.36315 0.0023,0.72635 0.0027,1.08945 0.0036,4.0579 -5.734748,4.0632 -5.738527,0.01 l 0,0 c -3.33e-4,-0.3564 -9.01e-4,-0.7127 -0.0023,-1.06895 -0.0023,-0.4509 -0.0058,-0.9018 0.0027,-1.3526 0.02876,-0.9144 0.132139,-1.7771 0.631238,-2.5762 0.13107,-0.1733 0.239886,-0.366 0.393206,-0.52 0.224163,-0.2251 0.4645,-0.4391 0.732122,-0.6103 0.569159,-0.3642 1.255393,-0.5197 1.922636,-0.52 4.057755,0 4.057755,5.73845 0,5.73845 z"
       inkscape:connector-curvature="0" />
    <path
       style="display:inline;opacity:1;fill:#ffffff;fill-opacity:1"
       id="path5252"
       d="m 52.017986,996.75374 c -0.104428,0.3122 -0.204398,0.6271 -0.315039,0.9378 -0.209033,0.5467 -0.450952,1.0798 -0.693137,1.6123 -0.06429,0.18271 -0.127467,0.31601 -0.183419,0.54791 -0.06601,0.17315 -0.04682,0.17395 -0.05568,0.30895 -0.0073,0.2343 -0.008,0.4686 -0.0082,0.703 2.47e-4,0.2206 9.01e-4,0.4411 0.0014,0.6616 2.12e-4,0.1385 2.93e-4,0.2771 3.38e-4,0.4156 9e-6,0.036 0.0018,0.1431 2.3e-5,0.1074 -0.0023,-0.05 -0.0014,-0.1 -0.0018,-0.1497 -0.06753,-0.7089 -0.428566,-1.3537 -1.014754,-1.7676 -0.10579,-0.075 -0.223488,-0.131 -0.335234,-0.19635 -0.298853,-0.1205 -0.169533,-0.079 -0.423088,-0.1498 -0.01673,0 -0.06606,-0.01 -0.05036,-0.014 0.02033,-0.01 0.421448,0.01 0.438147,0.01 0.639701,0 1.279433,0 1.919147,0 0.605417,-0.012 1.209716,0.01 1.814132,0.039 0.449653,0.024 0.899902,0.033 1.350114,0.037 0.459464,0 0.918946,0 1.378419,0 0.368769,-2e-4 0.737538,-3e-4 1.106302,-4e-4 0.34206,0 0.683028,2e-4 1.024574,0.019 0.501944,0.037 0.971165,0.21385 1.428866,0.40835 3.709329,1.6451 1.382851,6.8909 -2.326477,5.2458 l 0,0 c 0.116881,0.042 -0.0041,0 -0.07351,-0.03 -0.0064,0 0.0133,0 0.01993,0 0.342128,0.084 0.177252,0.056 0.499005,0.091 0.03521,-2e-4 0.140777,3e-4 0.105596,0 -0.225345,-0.01 -0.451159,0 -0.676536,0 -0.368823,10e-5 -0.737641,3e-4 -1.106464,0 -0.479468,10e-5 -0.958946,4e-4 -1.438402,0 -0.533644,-0.01 -1.067315,-0.016 -1.600283,-0.045 -0.499537,-0.027 -0.998402,-0.043 -1.498912,-0.031 -0.674832,0 -1.349695,0 -2.024509,0 -0.753286,-0.014 -1.51306,-0.04 -2.215701,-0.3478 -0.425018,-0.2282 -0.627378,-0.2984 -0.9774,-0.6374 -0.594091,-0.5754 -0.939771,-1.3041 -1.03814,-2.1206 -0.017,-0.2924 -0.02732,-0.5837 -0.02142,-0.8766 -3.93e-4,-0.2256 -0.0014,-0.4512 -0.0014,-0.6768 4.01e-4,-0.391 0.0014,-0.7823 0.02791,-1.17245 0.04324,-0.49111 0.112499,-0.98111 0.268434,-1.45091 0.14016,-0.4641 0.258412,-0.817 0.467625,-1.3108 0.180214,-0.3944 0.358922,-0.7893 0.521133,-1.1915 0.156463,-0.4088 0.254088,-0.8393 0.434405,-1.2396 1.598426,-3.7297 6.872971,-1.4691 5.27454,2.2605 z"
       inkscape:connector-curvature="0" />
    <path
       style="display:inline;opacity:1;fill:#ffffff;fill-opacity:1"
       id="path5254"
       d="m 53.214673,1004.0017 c 0.0202,-0.3702 0.0266,-0.7416 0.03278,-1.1125 0.01033,-0.5844 4.51e-4,-1.169 0.0211,-1.7532 0.03751,-0.8114 0.25245,-1.59175 0.514198,-2.35545 0.144948,-0.3831 0.256374,-0.7764 0.31417,-1.1819 0.03133,-0.2456 0.03666,-0.4934 0.03918,-0.7407 -0.01916,-0.4858 0.140886,-0.9473 0.216008,-1.42 0.02624,-0.3212 0.08661,-0.6367 0.163496,-0.9496 4.51e-4,0 0.01614,-0.1148 0.01555,-0.1084 -0.03237,0.3567 -0.02629,0.1874 -0.0041,0.5881 0.08447,0.4923 0.256671,0.9044 0.63397,1.24 0.08826,0.079 0.188956,0.1418 0.283434,0.2127 0.06514,0.036 0.128712,0.074 0.195399,0.1068 0.190589,0.093 0.388557,0.1269 0.596955,0.1567 0.06026,0.01 0.09527,0 0.04328,0.01 -0.280999,0.026 -0.562873,0.037 -0.844865,0.044 -0.447309,0.01 -0.89469,0.01 -1.342039,0.01 -0.57658,-10e-5 -1.15316,-2e-4 -1.72974,-3e-4 -0.419495,-10e-5 -0.838994,-10e-5 -1.25849,-10e-5 -0.247834,0 -0.495672,0 -0.743507,0 -0.272252,0 -0.544501,0 -0.816753,0 -0.1502,0 -0.300396,0 -0.450596,0 -4.057755,0 -4.057755,-5.7386 0,-5.7386 l 0,0 c 0.150196,0 0.300396,0 0.450591,0 0.272244,0 0.544492,0 0.816736,0 0.247893,0 0.49579,0 0.743683,0 0.419765,1e-4 0.839531,1e-4 1.259301,1e-4 0.575633,10e-5 1.151271,3e-4 1.726908,3e-4 0.403932,-10e-5 0.80789,5e-4 1.211799,0 0.209696,0 0.418887,-0.016 0.627834,-0.035 0.882859,-0.047 1.605951,0.063 2.39105,0.4904 0.173289,0.1166 0.356947,0.2191 0.519866,0.3497 0.493996,0.3963 0.94703,0.9924 1.162998,1.5937 0.07896,0.2199 0.127057,0.4497 0.190588,0.6745 0.01722,0.18 0.04624,0.3592 0.05165,0.5398 0.01281,0.4286 -0.06957,0.8525 -0.164816,1.2676 -0.0046,0.017 -0.01389,0.07 -0.0138,0.052 1.99e-4,-0.035 0.01037,-0.07 0.01411,-0.105 9.02e-4,-0.01 4.51e-4,-0.034 -2.61e-4,-0.025 -0.02471,0.2239 -0.04207,0.4488 -0.08599,0.6702 -0.03647,0.1923 -0.06469,0.4255 -0.128712,0.6115 -0.0096,0.028 0.02809,-0.1944 0.0064,-0.1575 -0.0069,0.5243 -0.03043,1.0491 -0.109167,1.5682 -0.120988,0.7366 -0.296513,1.4619 -0.559154,2.16195 -0.08281,0.2356 -0.172806,0.4682 -0.203758,0.7178 -0.03242,0.5358 0.0075,1.0751 -0.01695,1.6114 -0.01042,0.6096 -0.01623,1.2213 -0.08963,1.8273 -0.573856,4.0169 -6.254713,3.2054 -5.680856,-0.8116 z"
       inkscape:connector-curvature="0" />
    <path
       style="display:inline;opacity:1;fill:#cccccc;fill-opacity:1"
       id="path5258"
       d="m 51.175981,997.95591 c 0.309792,-0.2309 0.642347,-0.432 0.974781,-0.6289 0.410821,-0.2542 0.841538,-0.4028 1.313581,-0.4937 2.827596,-0.4873 3.51663,3.51149 0.689034,3.99879 l 0,0 c 0.04643,-0.013 0.06175,-0.016 0.112647,-0.036 0.02457,-0.01 0.09614,-0.039 0.06972,-0.038 -0.04851,0 -0.07923,0.079 -0.129014,0.067 -0.170128,0.098 -0.331568,0.2111 -0.501804,0.3091 -0.0045,0 0.0066,-0.01 0.0099,-0.011 0.01961,-0.017 0.03927,-0.033 0.05889,-0.05 -2.20423,1.8369 -4.801942,-1.28029 -2.597711,-3.11719 z"
       inkscape:connector-curvature="0" />
    <path
       style="display:inline;opacity:1;fill:#cccccc;fill-opacity:1"
       id="path5260"
       d="m 49.816353,999.76309 c -0.469893,-0.4662 -1.087871,-1.1728 -0.855064,-1.9077 0.226905,-0.7162 0.921796,-1.1867 1.382694,-1.7801 0.367046,-0.025 0.733285,-0.079 1.101148,-0.074 0.120448,0 0.234056,0.057 0.349738,0.091 0.282104,0.082 0.553383,0.2067 0.819811,0.3282 0.400058,0.1864 0.799819,0.3742 1.195716,0.5692 0.334729,0.1743 0.677843,0.3498 0.972666,0.5889 0.09939,0.081 0.191103,0.1702 0.286654,0.2553 0.270395,0.2516 0.43881,0.5754 0.627049,0.8855 0.0036,0.01 -0.0101,-0.024 -0.006,-0.019 0.02263,0.029 0.04157,0.061 0.06234,0.092 0.08669,0.1211 0.157247,0.2525 0.236842,0.3781 0.0073,0.011 -0.01186,-0.024 -0.01961,-0.036 -0.03021,-0.043 -0.05618,-0.091 -0.09413,-0.1278 -0.126692,-0.123 -0.265197,-0.2332 -0.397795,-0.3498 -0.266694,-0.096 -0.521507,-0.2356 -0.800086,-0.2879 -0.450609,-0.085 -0.973207,0.094 -1.312269,0.3923 -0.05284,0.04 -0.0014,0.01 -0.01591,0 -0.01042,-0.01 -0.03282,0.055 -0.03106,0.012 4.51e-4,-0.013 0.0032,-0.026 0.0045,-0.038 0.0067,-0.087 0.0071,-0.1732 0.0073,-0.2599 -1.98e-4,-0.097 -0.0014,-0.195 -0.0018,-0.2924 -0.02209,-2.8692 4.03554,-2.9005 4.057637,-0.031 l 0,0 c 9.02e-4,0.1157 0.0023,0.2314 0.0018,0.3471 -0.0027,0.3392 -0.01966,0.6787 -0.0822,1.013 -0.04584,0.2214 -0.06387,0.3343 -0.134943,0.55771 -0.141142,0.4436 -0.353376,0.8584 -0.635138,1.2293 -0.0815,0.095 -0.157486,0.1959 -0.244497,0.2863 -0.330536,0.3436 -0.763553,0.6537 -1.2379,0.7574 -0.249813,0.055 -0.510515,0.1045 -0.763908,0.07 -0.329084,-0.045 -0.63287,-0.2015 -0.949303,-0.3023 -0.171021,-0.1404 -0.351627,-0.2699 -0.513058,-0.4212 -0.185169,-0.1736 -0.294642,-0.4094 -0.433972,-0.6169 -0.09999,-0.1477 -0.115768,-0.1688 -0.230192,-0.3534 -0.01488,-0.024 -0.02737,-0.049 -0.04139,-0.074 -0.01312,-0.023 -0.06596,-0.074 -0.03999,-0.069 0.07968,0.016 0.05368,0.2053 0.166286,0.1784 0.03287,0.024 0.06468,0.05 0.09858,0.073 0.0072,0 0.03115,0.015 0.02412,0.01 -0.116029,-0.083 -0.244944,-0.1496 -0.372335,-0.213 -0.357511,-0.1833 -0.726798,-0.3451 -1.089471,-0.518 -0.09232,-0.045 -0.08582,-0.043 -0.181977,-0.083 -0.08765,-0.036 -0.135998,-0.051 -0.12809,-0.05 0.666991,0.069 -1.204161,0.16971 1.10435,-0.071 0.43505,-0.5842 1.095774,-1.0549 1.305149,-1.7526 0.130439,-0.4346 -0.240683,-0.8756 -0.387515,-1.305 -0.01605,-0.047 -0.0644,-0.076 -0.0973,-0.1126 -0.0032,0 0.0045,0.01 0.0076,0.011 0.05034,0.053 0.103775,0.1019 0.154253,0.1543 2.028877,2.0288 -0.840388,4.89811 -2.869265,2.8692 z"
       inkscape:connector-curvature="0" />
    <path
       style="display:inline;opacity:1;fill:#1a1a1a;fill-opacity:1"
       id="path5238"
       d="m 46.35014,991.48979 c 0.106223,0.724 0.089,1.4525 0.05838,2.1808 -0.0381,0.7555 -0.05313,1.5119 -0.06198,2.2683 0.01655,0.829 -0.0588,1.6548 -0.104798,2.4817 -0.03648,0.8388 -0.04739,1.67711 -0.107332,2.51471 -0.06978,0.755 -0.07263,1.5137 -0.125701,2.2695 -0.04551,0.7224 -0.123905,1.4406 -0.210737,2.159 -0.04495,0.349 -0.07725,0.6993 -0.09247,1.0508 -0.0047,0.2585 -0.112075,0.496 -0.159176,0.7453 -0.0041,0.01 -0.01551,0.1116 -0.0089,0.051 0.05371,-0.6266 -0.419811,-0.2509 -1.126681,-1.297 -0.022,-0.032 0.629236,0.1218 0.676261,0.1346 0.522188,0.1951 1.06264,0.3159 1.606758,0.4294 0.684615,0.1442 1.38373,0.1866 2.080974,0.2142 0.76445,0.022 1.529363,0.019 2.294061,0.019 0.857083,-0.01 1.712544,-0.011 2.567986,0.046 0.64282,0.052 1.286818,0.085 1.93146,0.1009 0.612121,0.033 1.221433,-0.038 1.831088,-0.082 0.593988,-0.078 1.188481,-0.1488 1.786084,-0.1926 0.409225,-0.028 0.819437,-0.034 1.229473,-0.036 0.231517,-4e-4 0.463035,4e-4 0.694557,0 0.530267,0.014 0.02583,-0.098 -0.449302,0.2149 -0.176391,0.1163 -0.261991,0.3316 -0.392985,0.4974 -0.01763,0.058 -0.05134,0.2348 -0.05282,0.1741 -9.4e-5,0 0.05827,-0.2466 0.06959,-0.3129 0.02858,-0.1677 0.03508,-0.3393 0.04653,-0.5086 0.09551,-0.7776 0.140718,-1.559 0.168884,-2.3414 0.02574,-0.8482 0.02759,-1.6968 0.02921,-2.5454 4.51e-4,-0.761 -3.33e-4,-1.522 -9.01e-4,-2.28311 -0.01817,-0.7199 0.0294,-1.4391 0.126363,-2.1521 0.08182,-0.584 0.171963,-1.1666 0.256513,-1.7502 0.06287,-0.4675 0.08156,-0.9389 0.09175,-1.41 -0.01244,-0.4489 0.01668,-0.8916 0.09553,-1.3335 0.08153,-0.2473 0.03616,-0.8123 0.09811,0.083 0.0097,0.029 0.01948,0.057 0.02922,0.086 9.01e-4,0 0.0041,0.012 0.0027,0.01 -0.09765,-0.2244 -0.157495,-0.4333 -0.194028,-0.676 -0.02913,-0.2537 -0.0284,-0.5095 -0.02953,-0.7645 -3.34e-4,-0.1553 1.4e-5,-0.3106 4.51e-4,-0.4659 8.1e-5,-0.027 2.12e-4,-0.053 4.19e-4,-0.08 1.150856,1.2175 1.709099,1.3038 0.786619,1.1596 -0.225264,-0.035 -0.44877,-0.087 -0.672857,-0.1294 -0.632713,-0.1043 -1.276583,-0.1109 -1.916171,-0.1253 -0.8996,-0.015 -1.796873,-0.09 -2.695751,-0.1287 -0.863838,-0.033 -1.728392,-0.038 -2.592748,-0.041 -0.932558,0 -1.863636,0.01 -2.79472,-0.048 -0.668939,-0.078 -1.338486,-0.042 -2.008358,-0.01 -0.496773,0.027 -0.994006,0.043 -1.491423,0.051 -0.32435,0 -0.648732,0 -0.9731,0 -0.349643,0.023 -0.690864,-0.058 -1.033636,-0.1112 -0.267149,-0.038 -0.537247,-0.042 -0.806506,-0.047 -0.220192,0 -0.44041,0 -0.66062,0 -0.03048,1e-4 -0.06097,3e-4 -0.09145,5e-4 -1.690682,0.012 -1.708207,-2.3786 -0.01754,-2.391 l 0,0 c 0.03417,-3e-4 0.06836,-5e-4 0.10253,-5e-4 0.237451,-4e-4 0.474911,-3e-4 0.712339,0 0.378958,0.01 0.758764,0.019 1.134147,0.076 0.277226,0.044 0.411912,0.098 0.661779,0.082 0.311176,10e-5 0.62237,3e-4 0.933527,0 0.468576,-0.01 0.936967,-0.023 1.404935,-0.048 0.759575,-0.04 1.519972,-0.075 2.278533,0.01 0.885663,0.054 1.771449,0.046 2.658564,0.044 0.895731,0 1.791656,0.01 2.686838,0.043 0.882647,0.038 1.763752,0.1111 2.647031,0.1271 0.772181,0.018 1.548935,0.032 2.31145,0.1674 0.210241,0.04 0.41991,0.08 0.630241,0.1197 0.04637,0.01 0.183708,0.017 0.138302,0.03 -0.561282,0.1585 -2.154568,-1.8931 1.058916,1.1961 -4e-6,9e-4 -2.61e-4,0.05 -2.7e-4,0.06 -4.51e-4,0.1491 -9.02e-4,0.2982 -4.51e-4,0.4473 4.51e-4,0.1571 -4.37e-4,0.3145 0.01019,0.4713 -0.122968,-0.3312 0.02886,0.096 0.07057,0.1656 0.04965,0.4551 0.08006,0.6481 -0.02502,1.0587 -0.05798,0.3202 -0.06742,0.6374 -0.05848,0.9639 -0.01281,0.5685 -0.03801,1.1375 -0.116093,1.7014 -0.08483,0.5805 -0.174127,1.1599 -0.255165,1.7409 -0.09025,0.6004 -0.114162,1.2091 -0.102778,1.8157 4.46e-4,0.76301 0.0014,1.52611 9.02e-4,2.28911 -0.0018,0.8759 -0.0036,1.7519 -0.03075,2.6274 -0.02958,0.8094 -0.07322,1.6185 -0.173226,2.4227 -0.03512,0.485 -0.09156,0.9288 -0.209335,1.3182 -0.142323,0.1961 -0.230525,0.4464 -0.426966,0.5882 -0.362294,0.2614 -0.62034,0.2544 -0.975899,0.2518 -0.225751,0 -0.451502,0 -0.677253,0 -0.355977,0 -0.71214,0.01 -1.06746,0.03 -0.598703,0.043 -1.193092,0.1217 -1.788942,0.1928 -0.686653,0.049 -1.373338,0.1236 -2.062746,0.087 -0.677776,-0.018 -1.354938,-0.051 -2.03082,-0.1056 -0.80152,-0.054 -1.60321,-0.045 -2.406343,-0.04 -0.797025,4e-4 -1.594279,0 -2.391019,-0.021 -0.829202,-0.034 -1.659838,-0.09 -2.473697,-0.2626 -0.595927,-0.1244 -1.190491,-0.2549 -1.762585,-0.4675 -0.07781,-0.023 -0.313304,-0.034 -0.236351,-0.06 0.06068,-0.021 0.234182,0.062 0.191756,0.014 -0.903333,-1.0225 -1.295086,-0.6482 -1.241465,-1.3136 0.01055,-0.1051 0.02719,-0.2094 0.04775,-0.3129 0.01096,-0.052 0.134136,-0.5992 0.112567,-0.3696 0.01853,-0.4121 0.05476,-0.8231 0.107436,-1.2323 0.08239,-0.6808 0.157698,-1.3612 0.199777,-2.046 0.05781,-0.7543 0.05068,-1.5131 0.125497,-2.2667 0.05942,-0.82481 0.06606,-1.65061 0.104906,-2.47651 0.04427,-0.792 0.118045,-1.5827 0.101255,-2.3767 0.0092,-0.7807 0.0248,-1.5613 0.06394,-2.3412 0.02529,-0.5959 0.04875,-1.1907 -0.04206,-1.7832 -0.209709,-1.6777 2.162882,-1.9743 2.372591,-0.2966 z"
       inkscape:connector-curvature="0" />
    <path
       style="display:inline;opacity:1;fill:#1a1a1a;fill-opacity:1"
       id="path5240"
       d="m 50.082479,996.347 c 0.07971,0.6797 0.109424,1.3638 0.131048,2.0474 0.01501,0.5401 0.01844,1.0804 0.01957,1.6207 0.0096,0.3419 0.0018,0.6784 -0.04022,1.0175 -0.03674,0.1694 -0.09179,0.3335 -0.112769,0.5057 0.01997,0.2083 -0.495916,1.3614 -0.09825,0.327 -0.24791,-0.797 -0.06424,-0.8915 -0.599312,-1.2064 -0.06564,-0.039 -0.141976,-0.055 -0.213812,-0.081 -0.01596,-0.01 -0.06602,-0.015 -0.04929,-0.012 0.163695,0.025 0.23388,0.04 0.383237,0.07 0.468197,0.1266 0.943915,0.2205 1.41324,0.3423 0.51042,0.1367 1.038194,0.1839 1.559259,0.2641 0.498743,0.075 1.002789,0.1 1.506334,0.1144 0.369273,0.01 0.738664,0.01 1.108019,0.01 0.21135,-5e-4 0.422701,0 0.634056,0 0.140687,-1e-4 0.281369,-2e-4 0.422056,-2e-4 0.329327,0 0.289088,-0.084 -0.726622,0.3001 -0.195097,0.062 -0.14896,0.298 -0.266464,0.4113 -0.03765,0.037 0.02926,-0.1005 0.04175,-0.1513 0.01005,-0.041 0.01727,-0.082 0.02592,-0.1238 0.02146,-0.086 0.04292,-0.1709 0.06438,-0.2564 0.161616,-0.557 0.347921,-1.1061 0.500046,-1.6658 0.134551,-0.5467 0.242339,-1.0989 0.367259,-1.6478 0.07207,-0.3351 0.110664,-0.6761 0.132332,-1.0179 0.0086,-0.1654 0.008,-0.3311 0.0073,-0.4967 -4.51e-4,-0.1172 -0.0014,-0.2345 -0.0018,-0.3517 -0.768909,-0.1414 0.378836,0.5762 0.171737,0.6021 -0.06341,0.01 -0.162323,-0.1647 -0.09842,-0.1645 0.06522,1e-4 0.06902,0.1107 0.105867,0.1645 0.04387,0.064 0.16102,0.1425 0.196147,0.1709 0.496913,0.188 -0.223104,0.064 -0.311604,0.054 -0.483274,-0.079 -0.972739,-0.099 -1.461328,-0.1148 -0.646216,-0.016 -1.292684,-0.016 -1.939061,-0.017 -0.441885,-2e-4 -0.88377,4e-4 -1.32566,9e-4 -0.285909,2e-4 -0.571823,3e-4 -0.857737,3e-4 -0.26861,-0.01 -0.237942,0.021 -0.580056,0.08 -0.249507,0.042 -0.501624,0.065 -0.754237,0.077 -0.08571,0 -0.17149,0.01 -0.257258,0 -0.24791,-0.011 -0.121759,0.057 -0.758845,-0.2481 -0.08827,-0.042 -0.143247,-0.1333 -0.214871,-0.2 -0.07621,-0.1266 -0.152414,-0.2532 -0.228619,-0.3798 -0.650039,-1.5608 1.557231,-2.4801 2.20727,-0.9193 l 0,0 c -0.06347,-0.096 -0.12694,-0.1921 -0.190412,-0.2881 -0.05603,-0.049 -0.09956,-0.1181 -0.168095,-0.1473 -0.66159,-0.282 -0.896092,-0.2145 -0.54961,-0.2058 0.017,4e-4 -0.04961,0 -0.05091,0 0.0018,0 0.08895,-4e-4 0.109514,0 0.154366,-0.01 0.308457,-0.021 0.460916,-0.046 0.323195,-0.053 0.644349,-0.136 0.974966,-0.1124 0.285341,-10e-5 0.570687,-10e-5 0.856028,-4e-4 0.443373,-3e-4 0.886746,-9e-4 1.330118,-9e-4 0.671568,9e-4 1.343239,9e-4 2.01463,0.019 0.563925,0.019 1.128751,0.044 1.686809,0.1329 0.402259,0.084 0.837011,3e-4 1.204342,0.2473 0.579032,0.4108 0.674876,0.5944 0.819414,1.2887 4.1e-4,0.1167 0.0014,0.2334 0.0018,0.3501 9.02e-4,0.2207 4.51e-4,0.4416 -0.01226,0.6621 -0.03097,0.4681 -0.08603,0.9348 -0.186928,1.3935 -0.132666,0.5828 -0.247225,1.1691 -0.392678,1.7491 -0.150091,0.544 -0.32297,1.0809 -0.488089,1.6204 -0.116683,0.456 -0.182869,0.954 -0.557085,1.2862 -0.672126,0.2725 -0.55157,0.3408 -0.899523,0.3383 -0.139735,0 -0.279475,10e-5 -0.419211,2e-4 -0.211264,3e-4 -0.422534,0 -0.633798,0 -0.393769,0 -0.787579,-2e-4 -1.181262,-0.01 -0.601991,-0.018 -1.204355,-0.05 -1.800422,-0.1413 -0.603663,-0.093 -1.214508,-0.1509 -1.804735,-0.3152 -0.420938,-0.1134 -0.851317,-0.188 -1.270254,-0.3093 -0.314038,-0.062 -0.894225,-0.1263 -1.060507,-0.4224 -0.179858,-0.3203 -0.23966,-0.6945 -0.35949,-1.0417 0.281473,-0.8028 0.16286,-0.4877 0.07603,-0.131 -0.01294,0.053 0.03395,-0.2478 0.01763,-0.1633 0.02931,-0.213 0.06887,-0.4246 0.13272,-0.6303 -4.06e-4,0.038 0.0027,0.077 -0.0014,0.1154 -0.0036,0.035 1.18e-4,-0.071 1.72e-4,-0.1058 3.06e-4,-0.194 4.51e-4,-0.388 3.92e-4,-0.582 -9.02e-4,-0.517 -0.0041,-1.0339 -0.01839,-1.5507 -0.01903,-0.6096 -0.04427,-1.2196 -0.113762,-1.8259 -0.209709,-1.6776 2.162883,-1.9742 2.372592,-0.2965 z"
       inkscape:connector-curvature="0" />
  </g>
</svg>
