<?xml version="1.0" encoding="UTF-8" standalone="no"?>
<!-- Created with Inkscape (http://www.inkscape.org/) -->

<svg
   xmlns:dc="http://purl.org/dc/elements/1.1/"
   xmlns:cc="http://creativecommons.org/ns#"
   xmlns:rdf="http://www.w3.org/1999/02/22-rdf-syntax-ns#"
   xmlns:svg="http://www.w3.org/2000/svg"
   xmlns="http://www.w3.org/2000/svg"
   xmlns:sodipodi="http://sodipodi.sourceforge.net/DTD/sodipodi-0.dtd"
   xmlns:inkscape="http://www.inkscape.org/namespaces/inkscape"
   width="120mm"
   height="55mm"
   viewBox="0 0 425.19685 194.88189"
   id="svg5453"
   version="1.1"
   inkscape:version="0.91 r13725"
   sodipodi:docname="code-212-97.svg">
  <defs
     id="defs5455" />
  <sodipodi:namedview
     id="base"
     pagecolor="#ffffff"
     bordercolor="#666666"
     borderopacity="1.0"
     inkscape:pageopacity="0.0"
     inkscape:pageshadow="2"
     inkscape:zoom="0.98994949"
     inkscape:cx="-79.971792"
     inkscape:cy="-24.530347"
     inkscape:document-units="px"
     inkscape:current-layer="layer1"
     showgrid="false"
     inkscape:showpageshadow="false"
     inkscape:window-width="1855"
     inkscape:window-height="1056"
     inkscape:window-x="65"
     inkscape:window-y="24"
     inkscape:window-maximized="1" />
  <metadata
     id="metadata5458">
    <rdf:RDF>
      <cc:Work
         rdf:about="">
        <dc:format>image/svg+xml</dc:format>
        <dc:type
           rdf:resource="http://purl.org/dc/dcmitype/StillImage" />
        <dc:title />
      </cc:Work>
    </rdf:RDF>
  </metadata>
  <g
     inkscape:label="Layer 1"
     inkscape:groupmode="layer"
     id="layer1"
     transform="translate(0,-857.48032)">
    <path
       style="display:inline;opacity:1;fill:#00ffff;fill-opacity:1"
       id="path5441"
       d="m 95.690647,894.78013 c -5.0484,1.42625 -10.219304,2.7011 -14.960391,5.00901 -2.747058,1.36422 -5.950773,2.74675 -7.982244,5.1465 -3.873996,3.81846 -6.448431,8.61311 -9.634503,12.96839 -3.040037,4.21626 -5.996331,8.48171 -9.006135,12.72026 -2.015979,3.0292 -3.494705,6.27947 -4.970864,9.58078 -2.144038,4.25224 -3.448237,8.79298 -5.061483,13.2445 -1.431016,3.04582 -1.847498,6.30441 -2.160108,9.60871 -0.234084,3.38258 -0.222736,6.77637 -0.222074,10.16528 0.0083,3.09584 0.02071,6.19166 0.02734,9.2875 0.09501,1.40848 -0.116131,2.84323 0.0083,4.24924 0.03148,0.3649 -0.201697,-0.82106 0.0381,-1.09796 0.193166,-0.22313 0.252557,0.53346 0.378876,0.80016 1.092727,2.2856 2.690567,4.0981 4.431956,5.9008 2.386572,2.4483 5.125513,4.4445 7.813429,6.5798 2.548509,1.8417 4.793934,4.0495 7.4599,5.7152 1.032673,0.5629 3.018915,0.886 5.31785,1.7367 1.935382,0.6677 3.986482,0.7913 6.012401,0.9266 0.43603,0.018 0.919772,0.2518 1.308091,0.053 0.373329,-0.1915 -0.85889,0.056 -1.25599,-0.079 -0.441994,-0.1504 0.881256,-0.3105 1.330043,-0.4391 1.451808,-0.4159 1.961146,-0.5287 3.361761,-0.8731 -0.971543,0.2553 0.153738,-0.2748 0.07952,-0.2371 -3.888991,1.9715 0.889041,-1.1301 1.670981,-1.7873 2.45176,-1.5532 4.575918,-3.3758 6.528282,-5.5003 2.125071,-3.3264 -0.606749,2.3472 1.472601,-3.7948 0.99597,-3.0518 2.28601,-5.9909 3.37377,-9.00709 0.57726,-1.18137 0.68991,-2.33652 0.76984,-3.60528 -0.20501,-2.94847 0.43413,3.12496 0.3252,2.91082 -0.59722,-1.17459 -0.96433,-2.55581 -1.39887,-3.80158 -0.19839,-0.74073 -0.46652,-1.46622 -0.59516,-2.2222 -0.13684,-0.80378 0.41939,1.58501 0.76629,2.32286 0.0298,0.0632 0.13328,0.24518 0.0956,0.18639 -1.83582,-2.86702 -1.21458,-1.73203 -2.38599,-4.19168 -0.33896,0.24362 -3.134969,-5.87607 -1.53025,-2.31146 -3.994272,-4.81988 1.06829,0.40227 -2.830475,-2.87742 -3.355878,-2.80074 -0.205921,-0.24345 0.855246,0.31312 -3.136537,0.1129 -6.163156,-0.8916 -9.085322,-1.91911 -1.348931,-0.41636 -2.748884,-0.49115 -4.148257,-0.57392 -0.768107,-0.15757 -8.991391,0.0707 -3.67818,-0.14536 -2.993071,1.12319 -0.669867,0.19244 -3.957574,2.01499 2.341428,-1.36405 -5.78925,4.33461 -3.734091,3.17411 -1.933809,1.83491 -4.039744,3.47855 -6.237954,4.98291 -14.653576,9.9602 -28.739418,-10.76317 -14.085841,-20.72337 l 0,0 c 0.868499,-0.5958 1.702788,-1.23701 2.524322,-1.89612 3.076401,-2.8382 6.33727,-5.49432 9.890372,-7.72547 2.966317,-1.75504 6.100701,-3.29734 9.500397,-4.13042 3.810463,-0.60708 7.51283,-0.90005 11.369431,-0.55802 3.705434,0.24542 7.393967,0.73323 10.919569,1.95987 3.472587,1.24253 -0.0381,0.50154 -0.09608,0.45738 -3.577621,-2.73687 8.489262,3.01212 5.328782,0.43436 4.06186,0.81338 7.83985,2.27115 10.852899,5.23386 2.19705,1.9069 4.15927,3.70007 5.98125,6.01358 0.11174,0.14197 -0.25405,-0.25712 -0.38103,-0.38568 3.12942,3.81489 2.8144,4.15527 5.40557,8.40732 -2.87628,-3.82464 4.02641,5.10218 2.92142,5.92299 1.23578,3.56085 2.92755,7.07278 2.39693,10.98744 -0.28917,3.64238 -0.94081,7.22268 -2.32652,10.62398 -1.15352,2.9799 -2.35584,5.9123 -3.35339,8.953 -1.23139,4.0292 -3.12486,8.7102 -6.53864,11.9943 -2.65859,2.8569 -5.554009,5.6983 -8.890999,7.7407 -3.57481,2.9548 -7.22068,5.9551 -11.830729,7.102 -4.091597,0.988 -8.130015,2.5523 -12.434908,1.9927 -4.45399,-0.3209 -8.902015,-0.8997 -13.110737,-2.4791 -3.33898,-1.3161 -7.053606,-1.8145 -10.0099,-4.0954 -3.407648,-2.2172 -6.485789,-4.8246 -9.685693,-7.3232 -3.464223,-2.8332 -7.118299,-5.46 -10.179873,-8.761 -3.754469,-3.9661 -7.047725,-8.2984 -9.320568,-13.2984 -1.737247,-4.4564 -2.834033,-8.973 -2.459464,-13.79577 -0.0083,-3.1126 -0.01988,-6.22517 -0.02734,-9.33776 -3.31e-4,-4.20613 0,-8.41894 0.341602,-12.61411 0.550422,-5.48007 1.45661,-10.92363 3.656974,-16.01733 2.017884,-4.80658 3.187811,-10.00344 5.644956,-14.65741 2.160522,-4.78134 4.432122,-9.47834 7.402912,-13.82853 3.119308,-4.3861 6.179639,-8.80123 9.33001,-13.16568 4.153224,-5.41 7.308896,-11.61308 12.506142,-16.20187 4.4163,-3.98309 9.313112,-7.40297 14.811206,-9.7497 5.963201,-2.64266 12.156259,-4.69974 18.477455,-6.30552 17.036524,-4.86756 23.920324,19.22564 6.8838,24.09321 z"
       inkscape:connector-curvature="0" />
    <path
       style="display:inline;opacity:1;fill:#00ffff;fill-opacity:1"
       id="path5445"
       d="m 151.49486,869.01188 c 5.81394,2.48177 11.81226,4.51932 17.78863,6.5776 3.89727,0.99825 7.53701,2.8601 11.50759,3.57684 3.54615,0.90213 7.00134,2.18799 10.63752,2.69419 3.31861,0.32377 6.38639,1.70021 9.54099,2.68007 3.66401,0.90815 6.72352,2.93793 9.44018,5.52579 4.65808,4.63969 4.93226,10.57527 2.77828,16.44986 -1.99543,5.14373 -5.09867,9.63903 -8.35126,14.05006 -3.40665,4.76085 -8.59876,7.6122 -12.82579,11.48218 -3.62641,3.08589 -6.97806,6.3918 -10.86142,9.19823 -3.37294,2.95375 -6.96448,5.64003 -10.53605,8.3482 -1.62186,1.2993 -3.21382,2.63686 -4.75923,4.02638 -1.55982,2.09532 -16.09378,-21.31009 -7.09403,-21.3535 2.81341,-0.0134 5.62682,-0.0153 8.44023,-0.0175 5.40192,0.32215 10.44212,2.13617 15.50236,3.87358 5.3248,1.96629 9.53411,5.47662 13.40421,9.50918 3.8127,3.14891 5.1333,7.76419 7.3388,11.90539 2.6137,4.72881 3.12419,9.9185 3.0952,15.1966 -0.67641,4.60411 -1.54963,9.17277 -2.97899,13.60457 -1.07575,4.1572 -2.63739,8.1663 -4.41,12.0706 -1.93729,3.704 -4.48887,6.61 -6.70016,9.3009 -2.84066,3.2201 -6.25212,5.7135 -10.07625,7.6332 -3.54399,1.441 -7.05212,2.7971 -10.79872,3.6512 -4.31284,0.8394 -8.72168,0.9074 -13.10005,0.9633 -3.02479,0.024 -6.04967,0.012 -9.07455,0 -1.49803,0 -2.99614,-0.01 -4.49417,-0.01 -17.71821,-0.031 -17.67439,-25.0882 0.0439,-25.0572 l 0,0 c 1.51136,0 3.0228,0.01 4.53425,0.01 2.89417,0.01 5.78842,0.022 8.68259,5e-4 2.66282,-0.031 5.33748,-0.05 7.98431,-0.3712 0.95689,-0.1993 7.75073,-2.5675 5.21589,-1.6984 0.66067,-0.2852 1.01801,-0.3324 2.25097,-1.6523 0.17677,-0.2271 2.27036,-2.7442 3.04029,-3.8162 1.16545,-2.90914 2.43304,-5.74924 3.10721,-8.87999 0.86436,-2.49825 1.16819,-5.09391 1.78952,-7.66516 0.64584,3.18062 -0.1887,-2.80404 -1.0157,-3.12035 -1.08742,-2.5565 -0.67218,-2.80961 -2.54668,-4.7518 -1.40294,-1.4757 -1.89032,-2.34415 -3.48725,-3.14499 -1.43425,-0.49925 -2.97046,-1.24479 -4.44737,-1.64043 -1.10159,-0.29506 -2.34043,-0.19562 -3.33848,-0.74724 -0.14868,-0.0822 0.33199,-0.0718 0.49791,-0.10779 -2.77945,0.002 -5.55898,0.004 -8.33842,0.0171 -8.7062,0.0419 -16.80035,-16.96174 -9.76099,-22.35379 2.0612,-1.84692 4.17832,-3.63206 6.35408,-5.34277 3.82728,-2.90185 7.61745,-5.83346 11.30499,-8.90859 3.34006,-2.13036 5.69896,-5.35919 8.89795,-7.67307 2.98073,-2.50074 6.18536,-4.71481 9.01533,-7.38233 1.81089,-2.43758 3.92718,-4.89355 4.97012,-7.77467 0.13278,-0.36204 0.40091,-1.47172 0.39834,-1.08611 -0.0306,4.49173 -1.36093,7.41587 2.75659,11.10611 1.10548,0.82889 5.48235,1.70838 0.69836,0.554 -2.55737,-0.7987 -4.33802,-1.72754 -5.98457,-1.8507 -4.01274,-0.66311 -7.96418,-1.62474 -11.82551,-2.91071 -4.99041,-1.08797 -9.72636,-2.88582 -14.58606,-4.42258 -6.55173,-2.25905 -13.1225,-4.51045 -19.49539,-7.2364 -16.28554,-6.97954 -6.41505,-30.01084 9.87058,-23.0313 z"
       inkscape:connector-curvature="0" />
    <path
       style="display:inline;opacity:1;fill:#00ffff;fill-opacity:1"
       id="path5447"
       d="m 297.41898,909.69711 c -7.02312,0 -14.04616,0 -21.06928,0 -2.14189,0 -4.28369,0 -6.42557,0 -1.38935,0 -2.77862,0 -4.16789,0 -2.16201,0 -4.32394,0 -6.48587,0 -6.07395,-0.0503 -7.68413,1.25494 10.30892,-9.09824 0.77706,-0.44712 -0.50519,1.72044 -0.75775,2.58066 -1.31612,4.86536 -2.96772,9.64022 -4.39261,14.47715 -1.08336,5.35602 -2.67184,10.59256 -3.8783,15.9199 -0.10164,3.33085 -3.04136,6.26017 -3.16164,9.55043 -0.0977,0.51884 -0.18894,1.50926 -0.20691,1.85455 1.05653,-6.55015 -18.74393,-12.66347 -10.2801,-12.71205 3.71901,-0.20298 7.36265,0.20403 11.00232,0.97897 4.43452,1.25395 8.86026,2.70892 13.17932,4.33832 4.20209,1.52596 7.89063,3.94474 11.41233,6.6386 3.76209,3.24133 5.22914,7.82456 7.57778,11.97451 2.19671,4.1008 3.53487,8.50544 4.29718,13.0746 0.50089,3.79698 0.46643,7.63556 0.46842,11.45735 -0.008,3.72986 -0.0207,7.45974 -0.0273,11.18954 0.3073,3.9995 -0.80249,7.7957 -2.33224,11.4201 -1.18243,4.215 -4.02044,7.3001 -7.32604,9.9348 -3.76018,3.3614 -8.37363,4.9559 -13.23184,5.9453 -2.6262,1.006 -5.38627,1.5408 -7.98779,2.6197 -4.48878,1.8338 -9.29423,2.5229 -14.09064,2.9344 -1.73568,0.1207 -3.47483,0.1723 -5.21415,0.1972 -0.46535,0.01 -1.85338,0.1 -1.39614,0.012 5.03365,-0.957 0.13518,0.5214 3.68845,-0.638 -1.50797,0.7315 -3.04575,1.3998 -4.59704,2.0336 -0.84415,0.3383 0.20857,-0.083 -0.49683,0.1972 -16.50729,6.4377 -25.61158,-16.9071 -9.10429,-23.3448 l 0,0 c 0.0472,-0.019 0.0958,-0.032 0.14114,-0.055 0.9182,-0.3777 1.83118,-0.7679 2.73306,-1.1832 3.94582,-1.6707 7.91109,-2.2832 12.16372,-2.19 2.30059,-0.1833 4.64872,-0.3594 6.81687,-1.2088 4.09292,-1.6216 8.33767,-2.7522 12.56454,-3.9719 0.36752,-0.062 1.18508,-0.4744 1.1131,-0.1086 -0.0414,0.2088 -0.60277,0.5937 -0.42584,0.4755 0.76222,-0.5093 1.41229,-1.1746 2.17916,-1.6777 -3.64745,4.9356 3.92029,-6.7266 -1.76144,3.586 -0.41565,0.7545 1.36906,-3.6866 0.80729,-2.4547 1.04915,-2.6175 0.94694,-2.1134 0.69554,0.2005 -0.0998,0.9184 0.12698,-4.1187 0,-2.7713 0.008,-3.7104 0.0199,-7.42068 0.0273,-11.13101 0,-2.50457 0.0199,-5.01317 -0.1544,-7.51323 -0.27219,-1.90749 -0.79735,-3.69237 -1.74653,-5.39548 -0.008,-0.0117 -4.7241,-8.2727 -1.46299,-4.38974 1.61491,0.73513 -4.28931,-2.8901 -4.55512,-2.55855 -2.93294,-1.36165 -6.24757,-2.05963 -9.26814,-3.1491 -1.4383,-0.3211 -2.93418,-0.61434 -5.54953,-0.41041 -6.92008,0.0395 -15.4689,-6.17227 -14.90257,-13.2937 0.0929,-2.08769 0.35494,-4.16525 0.758,-6.21592 0.80157,-3.38301 1.98119,-6.61228 3.22906,-9.85243 1.35663,-5.84239 3.01718,-11.60793 4.28725,-17.4701 1.51211,-5.02331 3.19941,-9.9945 4.57294,-15.05605 4.26587,-3.68384 7.90636,-11.2181 14.28033,-10.7984 2.16193,0 4.32386,0 6.48587,0 1.38927,0 2.77853,0 4.16789,0 2.14188,0 4.28368,0 6.42556,0 7.02313,0 14.04617,0 21.06929,0 17.71822,0 17.71822,25.05731 0,25.05731 z"
       inkscape:connector-curvature="0" />
    <path
       style="display:inline;opacity:1;fill:#00ffff;fill-opacity:1"
       id="path5449"
       d="m 360.48289,885.72131 c 6.47435,1.39285 12.72962,3.56344 19.10259,5.3345 4.51322,1.25459 8.60191,3.5579 12.88204,5.36753 2.29587,0.76089 4.35716,2.35338 6.58982,3.03397 3.49661,1.22235 6.58271,3.22481 9.29108,5.71667 5.86438,5.5003 4.49657,12.75536 1.52528,19.11601 -2.94039,5.34795 -5.97744,10.69408 -8.62262,16.20174 -3.41626,7.135 -7.43836,13.95198 -10.68888,21.16646 -3.68141,7.31108 -6.99769,14.79509 -10.5807,22.15195 -3.34941,6.67766 -6.00519,13.65116 -8.6304,20.63356 -2.72196,6.2562 -5.07366,12.652 -7.87796,18.8729 -0.48896,1.3092 -1.00169,2.6251 -1.30469,3.9926 0.13601,-0.5277 0.16558,-1.0716 0.2195,-1.6118 -0.97303,17.6915 -25.99252,16.3153 -25.01949,-1.3762 l 0,0 c 0.0804,-0.856 0.15366,-1.7114 0.36198,-2.5487 0.70201,-3.0019 1.70925,-5.9247 2.90444,-8.7652 2.58976,-5.7279 4.72113,-11.6333 7.26193,-17.3822 2.90428,-7.7243 5.87664,-15.42585 9.57172,-22.81659 3.50116,-7.13547 6.68053,-14.42699 10.28117,-21.51652 3.39125,-7.415 7.40565,-14.49935 10.99569,-21.81672 2.74267,-5.53273 5.72498,-10.97967 8.70778,-16.374 0.18364,-0.4015 0.55133,-1.64599 0.55092,-1.20449 -0.008,5.11298 -1.50863,7.21144 3.12452,11.48015 0.69662,0.0857 -0.94744,-0.0852 0.77805,0.0957 -3.35928,-1.09696 -6.43626,-2.66292 -9.61645,-4.15193 -3.12676,-1.41952 -6.16995,-2.9992 -9.42518,-4.12566 -6.42847,-1.79255 -12.73377,-3.97473 -19.26594,-5.38056 -17.03642,-4.86755 -10.15271,-28.96076 6.8838,-24.0932 z"
       inkscape:connector-curvature="0" />
    <path
       style="display:inline;opacity:1;fill:#00ffff;fill-opacity:1"
       id="path5451"
       d="m 348.65655,955.59763 c 5.77302,3.22157 11.68113,6.18089 17.46939,9.37988 4.09458,1.7637 8.22709,3.44953 12.20455,5.48092 3.00847,1.15872 5.95218,2.52273 8.96024,3.69231 1.07335,0.40058 2.15307,0.79058 3.25731,1.09804 -0.30309,-0.0902 -0.61644,-0.14084 -0.92607,-0.20158 17.47576,2.92091 13.34499,27.6354 -4.13078,24.7145 l 0,0 c -0.53634,-0.1028 -1.07317,-0.2031 -1.59833,-0.3556 -2.07363,-0.5796 -4.10891,-1.2895 -6.11379,-2.0735 -3.7244,-1.5623 -7.46661,-3.0542 -11.14694,-4.7153 -3.99088,-2.3357 -8.61351,-3.4266 -12.63271,-5.7122 -6.38971,-3.53579 -12.96868,-6.71495 -19.24217,-10.45853 -14.74246,-9.82828 -0.84315,-30.67722 13.8993,-20.84894 z"
       inkscape:connector-curvature="0" />
  </g>
</svg>
