<?xml version="1.0" encoding="UTF-8" standalone="no"?>
<!-- Created with Inkscape (http://www.inkscape.org/) -->

<svg
   xmlns:dc="http://purl.org/dc/elements/1.1/"
   xmlns:cc="http://creativecommons.org/ns#"
   xmlns:rdf="http://www.w3.org/1999/02/22-rdf-syntax-ns#"
   xmlns:svg="http://www.w3.org/2000/svg"
   xmlns="http://www.w3.org/2000/svg"
   xmlns:sodipodi="http://sodipodi.sourceforge.net/DTD/sodipodi-0.dtd"
   xmlns:inkscape="http://www.inkscape.org/namespaces/inkscape"
   width="30mm"
   height="30mm"
   viewBox="0 0 106.29921 106.29921"
   id="svg5675"
   version="1.1"
   inkscape:version="0.91 r13725"
   sodipodi:docname="switch.svg">
  <defs
     id="defs5677" />
  <sodipodi:namedview
     id="base"
     pagecolor="#ffffff"
     bordercolor="#666666"
     borderopacity="1.0"
     inkscape:pageopacity="0.0"
     inkscape:pageshadow="2"
     inkscape:zoom="5.6"
     inkscape:cx="73.783665"
     inkscape:cy="54.032667"
     inkscape:document-units="px"
     inkscape:current-layer="layer1"
     showgrid="false"
     inkscape:showpageshadow="false"
     inkscape:window-width="1855"
     inkscape:window-height="1056"
     inkscape:window-x="65"
     inkscape:window-y="24"
     inkscape:window-maximized="1" />
  <metadata
     id="metadata5680">
    <rdf:RDF>
      <cc:Work
         rdf:about="">
        <dc:format>image/svg+xml</dc:format>
        <dc:type
           rdf:resource="http://purl.org/dc/dcmitype/StillImage" />
        <dc:title></dc:title>
      </cc:Work>
    </rdf:RDF>
  </metadata>
  <g
     inkscape:label="Layer 1"
     inkscape:groupmode="layer"
     id="layer1"
     transform="translate(0,-946.06299)">
    <path
       style="display:inline;opacity:1;fill:#ffffff;fill-opacity:1"
       id="path5250"
       d="m 44.139871,993.11804 c -0.0752,0 -0.30046,0.005 -0.22547,0 0.42444,-0.0278 0.81664,0.003 1.22659,-0.13196 1.1284,-0.37271 1.4488,-0.54429 2.37395,-1.36015 0.20243,-0.17851 0.34856,-0.41217 0.52284,-0.61826 0.3421,-0.41694 0.47057,-0.92305 0.66317,-1.40965 0.017,-0.0428 0.01,0.16736 10e-4,0.52926 -0.0117,0.85984 -0.005,1.71981 -8.6e-4,2.57968 0.004,0.8055 0.005,1.61101 0.006,2.41652 0.008,9.00002 -12.71953,9.01182 -12.72791,0.0118 l 0,0 c -7.4e-4,-0.7903 -0.002,-1.58061 -0.005,-2.37091 -0.005,-1.00001 -0.0128,-2.00017 0.006,-3.00009 0.0638,-2.02808 0.29308,-3.94155 1.40007,-5.71384 0.29071,-0.38445 0.53206,-0.81178 0.87212,-1.15336 0.49719,-0.49941 1.03025,-0.97393 1.62383,-1.35376 1.26238,-0.80779 2.78443,-1.1526 4.26436,-1.15326 9,0 9,12.72793 0,12.72793 z"
       inkscape:connector-curvature="0" />
    <path
       style="display:inline;opacity:1;fill:#ffffff;fill-opacity:1"
       id="path5252"
       d="m 47.598981,997.89426 c -0.23162,0.69243 -0.45335,1.39084 -0.69875,2.07997 -0.46363,1.21267 -1.0002,2.39497 -1.53736,3.57617 -0.14259,0.4053 -0.28272,0.7009 -0.40682,1.2152 -0.14641,0.3842 -0.10384,0.386 -0.1235,0.6853 -0.0161,0.5197 -0.0178,1.0395 -0.0182,1.5594 5.5e-4,0.4891 0.002,0.9782 0.003,1.4673 4.7e-4,0.3073 6.5e-4,0.6145 7.5e-4,0.9217 2e-5,0.079 0.004,0.3175 5e-5,0.2382 -0.005,-0.1106 -0.003,-0.2214 -0.004,-0.332 -0.14978,-1.5722 -0.95055,-3.0023 -2.2507,-3.9205 -0.23464,-0.1657 -0.49569,-0.2904 -0.74354,-0.4356 -0.66285,-0.2673 -0.37602,-0.1751 -0.9384,-0.3321 -0.0371,-0.01 -0.14652,-0.014 -0.11169,-0.03 0.0451,-0.021 0.93476,0.019 0.9718,0.02 1.41884,0.011 2.83775,0.01 4.25662,0 1.3428,-0.027 2.68312,0.014 4.0237,0.086 0.99732,0.054 1.99596,0.072 2.99452,0.082 1.01908,0.01 2.0382,0.01 3.0573,0.01 0.81792,-3e-4 1.63584,-7e-4 2.45375,-9e-4 0.75868,-0.011 1.51494,4e-4 2.27248,0.041 1.1133,0.082 2.15402,0.4745 3.16919,0.9059 8.2272,3.6487 3.06713,15.2838 -5.16007,11.635 l 0,0 c 0.25924,0.093 -0.009,0 -0.16304,-0.066 -0.0141,-0.01 0.0295,0.01 0.0442,0.011 0.75883,0.1861 0.39314,0.1233 1.10678,0.2018 0.0781,-4e-4 0.31224,8e-4 0.23421,-0 -0.49981,-0.014 -1.00066,0.011 -1.50054,2e-4 -0.81804,2e-4 -1.63607,6e-4 -2.45411,0 -1.06345,2e-4 -2.12692,8e-4 -3.19034,-0.01 -1.18361,-0.012 -2.36728,-0.035 -3.54939,-0.099 -1.10796,-0.06 -2.21443,-0.096 -3.32455,-0.068 -1.49676,0 -2.99359,0.01 -4.49031,-0.01 -1.67077,-0.031 -3.35593,-0.088 -4.91437,-0.7716 -0.94268,-0.5061 -1.39151,-0.6618 -2.16785,-1.4137 -1.31768,-1.2761 -2.08439,-2.8924 -2.30257,-4.7034 -0.0377,-0.6484 -0.0606,-1.2947 -0.0475,-1.9443 -8.7e-4,-0.5003 -0.003,-1.0007 -0.003,-1.5011 8.9e-4,-0.8671 0.003,-1.735 0.0619,-2.6006 0.0959,-1.0893 0.24952,-2.176 0.59538,-3.218 0.31087,-1.0293 0.57315,-1.81209 1.03718,-2.9074 0.39971,-0.87463 0.79608,-1.75065 1.15586,-2.64267 0.34703,-0.90669 0.56356,-1.86158 0.9635,-2.74938 3.54527,-8.27231 15.24408,-3.25853 11.6988,5.01377 z"
       inkscape:connector-curvature="0" />
    <path
       style="display:inline;opacity:1;fill:#ffffff;fill-opacity:1"
       id="path5254"
       d="m 58.338361,1010.8083 c 0.0448,-0.8211 0.059,-1.6449 0.0727,-2.4675 0.0229,-1.2963 0.001,-2.5929 0.0468,-3.8886 0.0832,-1.7997 0.55993,-3.5303 1.14048,-5.22425 0.32149,-0.84974 0.56863,-1.72211 0.69682,-2.62135 0.0695,-0.5448 0.0813,-1.09439 0.0869,-1.64285 -0.0425,-1.07757 0.31248,-2.10105 0.4791,-3.14948 0.0582,-0.71246 0.19209,-1.41229 0.36263,-2.10634 0.001,0.006 0.0358,-0.25447 0.0345,-0.2404 -0.0718,0.79116 -0.0583,0.41571 -0.009,1.30441 0.18736,1.09195 0.56929,2.00599 1.40613,2.7504 0.19575,0.17413 0.4191,0.3145 0.62865,0.47175 0.14447,0.0789 0.28548,0.16454 0.43339,0.23679 0.42272,0.20647 0.86181,0.28152 1.32403,0.34748 0.13365,0.0191 0.21131,0.004 0.096,0.0203 -0.62325,0.0569 -1.24844,0.0824 -1.87389,0.0977 -0.99212,0.0151 -1.9844,0.0132 -2.97661,0.0135 -1.27884,-2e-5 -2.55768,-4.1e-4 -3.83652,-6.2e-4 -0.93043,-1.5e-4 -1.86087,-2e-4 -2.7913,-2.2e-4 -0.54969,-10e-6 -1.09939,-10e-6 -1.64908,-10e-6 -0.60385,0 -1.20769,0 -1.81154,10e-6 -0.33314,0 -0.66627,0 -0.99941,0 -9,0 -9,-12.72793 0,-12.72793 l 0,0 c 0.33313,0 0.66627,0 0.9994,0 0.60383,0 1.20767,0 1.8115,0 0.54982,0 1.09965,-10e-6 1.64947,0 0.93103,3e-5 1.86206,8e-5 2.7931,2.3e-4 1.27674,2.1e-4 2.55349,5.9e-4 3.83024,6.2e-4 0.89591,-2.9e-4 1.79188,10e-4 2.68774,-0.0101 0.4651,-0.01 0.92908,-0.036 1.39252,-0.0775 1.95816,-0.10311 3.56196,0.14041 5.30329,1.08768 0.38435,0.25857 0.7917,0.48586 1.15305,0.77569 1.09567,0.87879 2.10049,2.20091 2.5795,3.53477 0.17514,0.48768 0.28181,0.9973 0.42272,1.49595 0.0382,0.39912 0.10256,0.79659 0.11456,1.19735 0.0284,0.95055 -0.1543,1.89065 -0.36556,2.81132 -0.0102,0.0384 -0.0308,0.15476 -0.0306,0.11507 4.4e-4,-0.0784 0.023,-0.15504 0.0313,-0.23296 0.002,-0.0187 0.001,-0.0752 -5.8e-4,-0.0565 -0.0548,0.49654 -0.0933,0.99534 -0.19072,1.4864 -0.0809,0.42651 -0.14348,0.94384 -0.28548,1.35636 -0.0212,0.0617 0.0623,-0.43117 0.0141,-0.34941 -0.0153,1.16289 -0.0675,2.32687 -0.24213,3.47832 -0.26835,1.63362 -0.65766,3.24232 -1.24019,4.79502 -0.18368,0.5224 -0.38328,1.0385 -0.45193,1.592 -0.0719,1.1884 0.0166,2.3845 -0.0376,3.574 -0.0231,1.3521 -0.036,2.7088 -0.19879,4.0529 -1.2728,8.9095 -13.8728,7.1095 -12.6,-1.8 z"
       inkscape:connector-curvature="0" />
    <path
       style="display:inline;opacity:1;fill:#cccccc;fill-opacity:1"
       id="path5258"
       d="m 48.391991,998.20131 c 0.68711,-0.51217 1.42471,-0.95814 2.16204,-1.39487 0.91119,-0.56387 1.86651,-0.8934 2.91349,-1.09515 6.27154,-1.08065 7.7998,7.78861 1.52826,8.86931 l 0,0 c 0.10299,-0.029 0.13696,-0.036 0.24985,-0.081 0.0545,-0.021 0.21323,-0.086 0.15463,-0.084 -0.1076,0 -0.17573,0.1747 -0.28615,0.1498 -0.37734,0.2181 -0.73541,0.4682 -1.11299,0.6856 -0.01,0.01 0.0146,-0.017 0.0219,-0.025 0.0435,-0.037 0.0871,-0.074 0.13061,-0.1108 -4.88893,4.0741 -10.65059,-2.8398 -5.76166,-6.91394 z"
       inkscape:connector-curvature="0" />
    <path
       style="display:inline;opacity:1;fill:#cccccc;fill-opacity:1"
       id="path5260"
       d="m 45.521471,1002.3104 c -1.04221,-1.0342 -2.41287,-2.60128 -1.89651,-4.23125 0.50327,-1.58868 2.04452,-2.63223 3.06678,-3.94834 0.8141,-0.055 1.62641,-0.17428 2.44232,-0.16496 0.26715,0.003 0.51913,0.12724 0.77571,0.20172 0.6257,0.18162 1.22739,0.45865 1.81832,0.72815 0.88732,0.4133 1.77398,0.82976 2.65207,1.26238 0.74242,0.38648 1.50344,0.77587 2.15735,1.30611 0.22045,0.17876 0.42386,0.37755 0.63579,0.56633 0.59973,0.55805 0.97327,1.2762 1.39078,1.96396 0.008,0.0127 -0.0224,-0.0541 -0.0133,-0.0424 0.0502,0.0649 0.0922,0.1359 0.13826,0.2039 0.19228,0.2686 0.34877,0.56 0.52531,0.8386 0.0161,0.025 -0.0263,-0.054 -0.0435,-0.079 -0.067,-0.096 -0.1246,-0.2017 -0.20877,-0.2834 -0.281,-0.2728 -0.5882,-0.5172 -0.8823,-0.77583 -0.59152,-0.21287 -1.15669,-0.52266 -1.77457,-0.6386 -0.99944,-0.18754 -2.15855,0.20811 -2.91058,0.87023 -0.11719,0.088 -0.003,0.017 -0.0353,-0.01 -0.0231,-0.019 -0.0728,0.122 -0.0689,0.027 0.001,-0.029 0.007,-0.057 0.01,-0.085 0.0148,-0.19185 0.0157,-0.38415 0.0161,-0.57642 -4.4e-4,-0.21621 -0.003,-0.43241 -0.004,-0.64861 -0.049,-6.36377 8.95073,-6.43308 8.99974,-0.0693 l 0,0 c 0.002,0.25657 0.005,0.51314 0.004,0.76972 -0.006,0.75241 -0.0436,1.50551 -0.18231,2.24681 -0.10166,0.4912 -0.14167,0.7415 -0.2993,1.237 -0.31305,0.9839 -0.78378,1.9039 -1.40872,2.7266 -0.18076,0.2117 -0.3493,0.4344 -0.54229,0.635 -0.73312,0.7621 -1.69354,1.4499 -2.74563,1.6798 -0.55408,0.1211 -1.13231,0.2319 -1.69433,0.1558 -0.7299,-0.099 -1.40369,-0.447 -2.10553,-0.6704 -0.37932,-0.3115 -0.7799,-0.5987 -1.13795,-0.9344 -0.4107,-0.385 -0.65351,-0.9079 -0.96254,-1.3681 -0.22178,-0.3276 -0.25677,-0.3744 -0.51056,-0.7839 -0.033,-0.053 -0.0607,-0.1097 -0.0918,-0.1642 -0.0291,-0.051 -0.1463,-0.1641 -0.0887,-0.1523 0.17672,0.036 0.11907,0.4554 0.36882,0.3957 0.0729,0.054 0.14347,0.1118 0.21864,0.1628 0.0159,0.011 0.0691,0.033 0.0535,0.022 -0.25735,-0.185 -0.54328,-0.3319 -0.82583,-0.4724 -0.79295,-0.4067 -1.61202,-0.7655 -2.41642,-1.1491 -0.20476,-0.099 -0.19034,-0.095 -0.40362,-0.1831 -0.1944,-0.08 -0.30164,-0.1129 -0.2841,-0.1111 1.47937,0.1521 -2.6708,0.3764 2.44942,-0.1573 0.96493,-1.2957 2.4304,-2.3398 2.89479,-3.88716 0.28931,-0.96399 -0.53383,-1.94217 -0.8595,-2.89449 -0.0356,-0.10413 -0.14283,-0.16749 -0.21581,-0.24986 -0.007,-0.008 0.01,0.0179 0.0168,0.0252 0.11166,0.11638 0.23017,0.22604 0.34213,0.34212 4.5,4.49999 -1.86396,10.86389 -6.36396,6.36399 z"
       inkscape:connector-curvature="0" />
    <path
       style="display:inline;opacity:1;fill:#1a1a1a;fill-opacity:1"
       id="path5238"
       d="m 37.061861,983.40475 c 0.2356,1.60577 0.1974,3.22148 0.12949,4.83683 -0.0845,1.67583 -0.11785,3.35344 -0.13746,5.03108 0.0367,1.83876 -0.13041,3.67044 -0.23244,5.50438 -0.0809,1.86046 -0.1051,3.71976 -0.23806,5.57756 -0.15477,1.6745 -0.16109,3.3573 -0.2788,5.0336 -0.10095,1.6024 -0.27482,3.1954 -0.46741,4.7887 -0.0997,0.774 -0.17133,1.5511 -0.2051,2.3307 -0.0105,0.5732 -0.24858,1.1 -0.35305,1.653 -0.009,0.017 -0.0344,0.2476 -0.0198,0.1135 0.11912,-1.3898 -0.93113,-0.5565 -2.49895,-2.8767 -0.0488,-0.072 1.39563,0.2703 1.49993,0.2985 1.1582,0.4329 2.35691,0.7007 3.56375,0.9526 1.51846,0.3197 3.06908,0.4137 4.61555,0.4749 1.69553,0.05 3.39209,0.043 5.08817,0.043 1.90099,-0.015 3.79838,-0.025 5.69573,0.1012 1.42576,0.1152 2.85413,0.1875 4.28393,0.2238 1.35767,0.073 2.70911,-0.085 4.06131,-0.1817 1.31745,-0.1739 2.63602,-0.3299 3.96149,-0.4271 0.90765,-0.063 1.81749,-0.075 2.72694,-0.08 0.5135,-10e-4 1.027,8e-4 1.54051,0 1.17612,0.03 0.0573,-0.2186 -0.99654,0.4765 -0.39123,0.2581 -0.58109,0.7355 -0.87163,1.1033 -0.0391,0.1287 -0.11388,0.5208 -0.11716,0.3862 -2.1e-4,-0.01 0.12925,-0.5469 0.15434,-0.6941 0.0634,-0.3719 0.0778,-0.7525 0.10321,-1.1281 0.21183,-1.7245 0.31211,-3.4577 0.37458,-5.1931 0.0571,-1.8812 0.0612,-3.7635 0.0648,-5.6455 0.001,-1.6879 -7.4e-4,-3.3759 -0.002,-5.0639 -0.0403,-1.59673 0.0652,-3.19191 0.28027,-4.77342 0.18148,-1.29534 0.38141,-2.58744 0.56894,-3.88192 0.13945,-1.03674 0.1809,-2.08249 0.20349,-3.12718 -0.0276,-0.99566 0.037,-1.97755 0.21188,-2.95771 0.18083,-0.54854 0.0802,-1.80179 0.2176,0.18412 0.0216,0.0633 0.0432,0.12664 0.0648,0.18996 0.002,0.007 0.009,0.0266 0.006,0.0201 -0.21658,-0.49777 -0.34932,-0.9611 -0.43035,-1.49944 -0.0646,-0.56272 -0.063,-1.13012 -0.0655,-1.69572 -7.4e-4,-0.34446 3e-5,-0.68893 10e-4,-1.03339 1.8e-4,-0.0588 4.7e-4,-0.11768 9.3e-4,-0.17652 2.55257,2.70048 3.79074,2.89186 1.7447,2.57208 -0.49963,-0.0781 -0.99536,-0.19219 -1.49238,-0.28698 -1.40334,-0.23146 -2.83143,-0.24607 -4.25002,-0.27807 -1.99529,-0.0337 -3.98542,-0.19962 -5.97911,-0.28546 -1.91597,-0.0734 -3.83353,-0.0837 -5.75065,-0.0909 -2.06839,0.009 -4.1335,0.0176 -6.19862,-0.10701 -1.48369,-0.17376 -2.96873,-0.0923 -4.45449,-0.0144 -1.10183,0.06 -2.20468,0.096 -3.30794,0.11392 -0.7194,0.009 -1.43887,0.009 -2.15831,0.009 -0.7755,0.0503 -1.53232,-0.12857 -2.29258,-0.2466 -0.59253,-0.0833 -1.1916,-0.093 -1.78881,-0.10413 -0.48838,-0.007 -0.97682,-0.007 -1.46524,-0.006 -0.0676,2e-4 -0.13522,5.7e-4 -0.20283,10e-4 -3.74989,0.0275 -3.78876,-5.27567 -0.0389,-5.30316 l 0,0 c 0.0758,-5.5e-4 0.15161,-9.8e-4 0.22741,-10e-4 0.52666,-0.001 1.05334,-7.3e-4 1.57995,0.007 0.84052,0.0162 1.68292,0.0412 2.51551,0.16808 0.61488,0.0982 0.91361,0.2165 1.46781,0.1817 0.69018,3.1e-4 1.3804,6.6e-4 2.07054,-0.008 1.03929,-0.0166 2.07817,-0.0508 3.11611,-0.10735 1.68472,-0.0881 3.37126,-0.16621 5.05373,0.017 1.96438,0.12055 3.92903,0.10179 5.89663,0.0973 1.98671,0.008 3.97385,0.0189 5.95934,0.0958 1.95769,0.0847 3.91196,0.24641 5.87105,0.2819 1.71268,0.0393 3.4355,0.0707 5.12674,0.37133 0.46631,0.0896 0.93135,0.17788 1.39786,0.26535 0.10285,0.0193 0.40746,0.0383 0.30675,0.0668 -1.24491,0.35163 -4.77878,-4.19887 2.34865,2.65303 -1e-5,0.002 -5.8e-4,0.11152 -6e-4,0.13357 -10e-4,0.33065 -0.002,0.6613 -10e-4,0.99195 10e-4,0.3484 -9.7e-4,0.69756 0.0226,1.04529 -0.27274,-0.7345 0.064,0.21262 0.15653,0.36741 0.11013,1.00945 0.17757,1.43742 -0.0555,2.34823 -0.1286,0.71008 -0.14953,1.41372 -0.12971,2.1378 -0.0284,1.26101 -0.0843,2.52297 -0.25749,3.77373 -0.18814,1.28739 -0.38621,2.57253 -0.56595,3.86112 -0.20018,1.33181 -0.25321,2.68188 -0.22796,4.02729 9.9e-4,1.6924 0.003,3.3848 0.002,5.0771 -0.004,1.9427 -0.008,3.8857 -0.0682,5.8276 -0.0656,1.7952 -0.16239,3.5897 -0.38421,5.3735 -0.0779,1.0756 -0.20307,2.0601 -0.4643,2.9238 -0.31567,0.4348 -0.5113,0.99 -0.947,1.3045 -0.80356,0.5799 -1.3759,0.5643 -2.16452,0.5586 -0.50071,0 -1.00142,0 -1.50213,0 -0.78955,0 -1.57951,0.013 -2.3676,0.066 -1.32791,0.096 -2.64625,0.2699 -3.96783,0.4276 -1.52298,0.1086 -3.04603,0.2742 -4.57512,0.1934 -1.50329,-0.039 -3.00522,-0.1131 -4.50431,-0.2341 -1.77775,-0.121 -3.55588,-0.099 -5.33721,-0.089 -1.76778,8e-4 -3.53607,0.01 -5.30322,-0.047 -1.83915,-0.075 -3.68148,-0.2 -5.4866,-0.5825 -1.32175,-0.276 -2.64048,-0.5654 -3.90937,-1.0369 -0.17258,-0.052 -0.6949,-0.075 -0.52422,-0.1327 0.13458,-0.046 0.51941,0.1369 0.42531,0.03 -2.00357,-2.2678 -2.87247,-1.4377 -2.75354,-2.9136 0.0234,-0.233 0.0603,-0.4643 0.10591,-0.694 0.0243,-0.115 0.29751,-1.3289 0.24967,-0.8198 0.0411,-0.914 0.12145,-1.8256 0.23829,-2.7331 0.18274,-1.51 0.34977,-3.019 0.4431,-4.5379 0.12823,-1.6731 0.11241,-3.356 0.27835,-5.0275 0.13179,-1.8294 0.14652,-3.661 0.23268,-5.49299 0.0982,-1.75643 0.26182,-3.51025 0.22458,-5.27133 0.0204,-1.73154 0.055,-3.46304 0.14182,-5.19273 0.0561,-1.32163 0.10813,-2.64102 -0.0933,-3.95517 -0.46513,-3.72104 4.79722,-4.37883 5.26235,-0.65779 z"
       inkscape:connector-curvature="0" />
    <path
       style="display:inline;opacity:1;fill:#1a1a1a;fill-opacity:1"
       id="path5240"
       d="m 46.607801,994.71846 c 0.17679,1.50756 0.2427,3.02479 0.29066,4.54095 0.0333,1.19799 0.0409,2.39639 0.0434,3.59469 0.0212,0.7584 0.004,1.5047 -0.0892,2.2569 -0.0815,0.3756 -0.2036,0.7396 -0.25012,1.1215 0.0443,0.4621 -1.09993,3.0196 -0.21791,0.7253 -0.54986,-1.7676 -0.14249,-1.9773 -1.32926,-2.6757 -0.14559,-0.086 -0.3149,-0.1226 -0.47423,-0.1787 -0.0354,-0.012 -0.14643,-0.033 -0.10933,-0.027 0.36307,0.056 0.51874,0.089 0.85001,0.1552 1.03845,0.2806 2.09358,0.4889 3.13453,0.7592 1.1321,0.3031 2.30269,0.4078 3.4584,0.5857 1.1062,0.1666 2.22416,0.2218 3.34101,0.2538 0.81904,0.019 1.63834,0.02 2.45756,0.019 0.46877,-10e-4 0.93754,0 1.40632,0 0.31204,-3e-4 0.62407,-4e-4 0.93611,-5e-4 0.73044,0.01 0.64119,-0.1865 -1.61163,0.6657 -0.43272,0.1379 -0.33039,0.6609 -0.59101,0.9123 -0.0835,0.081 0.0649,-0.2229 0.0926,-0.3356 0.0223,-0.091 0.0383,-0.1831 0.0575,-0.2746 0.0476,-0.1896 0.0952,-0.3792 0.1428,-0.5688 0.35846,-1.2353 0.77168,-2.4533 1.10909,-3.6947 0.29843,-1.2125 0.5375,-2.4372 0.81457,-3.6546 0.15985,-0.74345 0.24545,-1.49976 0.29351,-2.25784 0.019,-0.36688 0.0177,-0.73432 0.0161,-1.10156 -10e-4,-0.26004 -0.003,-0.52009 -0.004,-0.78014 -1.70542,-0.31364 0.84025,1.27808 0.38091,1.33545 -0.14064,0.0176 -0.36003,-0.36527 -0.21829,-0.3649 0.14466,3.7e-4 0.15309,0.24559 0.23481,0.36495 0.0973,0.1421 0.35714,0.31596 0.43505,0.37894 1.10214,0.41715 -0.49484,0.1415 -0.69113,0.11994 -1.07189,-0.17622 -2.15751,-0.2198 -3.24119,-0.25471 -1.43329,-0.0361 -2.86714,-0.0367 -4.30079,-0.0382 -0.98009,-3.8e-4 -1.96018,9.8e-4 -2.94028,0.002 -0.63414,5.1e-4 -1.26829,6.6e-4 -1.90244,7.3e-4 -0.59577,-0.0214 -0.52775,0.0473 -1.28655,0.17652 -0.5534,0.0929 -1.11259,0.14508 -1.67288,0.16995 -0.19011,0.007 -0.38036,0.0114 -0.57059,0.009 -0.54986,-0.0251 -0.27006,0.12552 -1.6831,-0.55022 -0.19578,-0.0936 -0.31772,-0.29572 -0.47658,-0.44357 -0.16903,-0.28083 -0.33805,-0.56166 -0.50707,-0.84248 -1.44177,-3.46176 3.4539,-5.50073 4.89567,-2.03897 l 0,0 c -0.14078,-0.21301 -0.28155,-0.42601 -0.42233,-0.63902 -0.12427,-0.10889 -0.22083,-0.26188 -0.37283,-0.32667 -1.46739,-0.62552 -1.98751,-0.47577 -1.21902,-0.45651 0.0377,9.4e-4 -0.11004,-0.006 -0.11291,-0.005 0.004,-2e-5 0.19729,-10e-4 0.2429,-0.005 0.34238,-0.0136 0.68415,-0.0455 1.0223,-0.10184 0.71684,-0.11695 1.42915,-0.30181 2.16245,-0.24944 0.63288,-7e-5 1.26577,-2.2e-4 1.89865,-7.3e-4 0.98339,-8.1e-4 1.96678,-0.002 2.95017,-0.002 1.48952,0.002 2.97927,0.002 4.4684,0.0411 1.25077,0.0414 2.50354,0.0969 3.7413,0.29479 0.8922,0.18669 1.85647,6.2e-4 2.6712,0.54864 1.28428,0.91113 1.49686,1.31827 1.81744,2.85819 9.1e-4,0.25882 0.003,0.51763 0.004,0.77645 0.002,0.48964 10e-4,0.97954 -0.0272,1.46855 -0.0687,1.03819 -0.19081,2.07348 -0.4146,3.0908 -0.29425,1.2926 -0.54834,2.5931 -0.87095,3.8794 -0.3329,1.2066 -0.71634,2.3974 -1.08257,3.5941 -0.2588,1.0113 -0.4056,2.116 -1.2356,2.8528 -1.49076,0.6043 -1.22337,0.7559 -1.99512,0.7502 -0.30993,10e-5 -0.61987,2e-4 -0.9298,6e-4 -0.46858,6e-4 -0.93717,0 -1.40575,0 -0.87337,0 -1.74683,-6e-4 -2.62001,-0.021 -1.3352,-0.04 -2.67123,-0.1117 -3.99329,-0.3134 -1.33891,-0.2062 -2.69375,-0.3347 -4.00286,-0.699 -0.93363,-0.2515 -1.8882,-0.4171 -2.81739,-0.686 -0.69653,-0.1385 -1.98337,-0.2802 -2.35218,-0.937 -0.39892,-0.7104 -0.53156,-1.5404 -0.79734,-2.3105 0.6243,-1.7805 0.36122,-1.0816 0.16864,-0.2904 -0.0287,0.1181 0.0753,-0.5497 0.0391,-0.3623 0.065,-0.4724 0.15276,-0.9418 0.29437,-1.398 -9e-4,0.085 0.006,0.1712 -0.003,0.2561 -0.008,0.078 2.6e-4,-0.1564 3.8e-4,-0.2347 6.8e-4,-0.4303 0.001,-0.8606 8.7e-4,-1.2909 -0.002,-1.1466 -0.009,-2.2932 -0.0408,-3.43943 -0.0422,-1.35199 -0.0982,-2.70503 -0.25232,-4.04971 -0.46513,-3.72104 4.79722,-4.37883 5.26235,-0.65779 z"
       inkscape:connector-curvature="0" />
  </g>
</svg>
