<?xml version="1.0" encoding="UTF-8" standalone="no"?>
<!-- Created with Inkscape (http://www.inkscape.org/) -->

<svg
   xmlns:dc="http://purl.org/dc/elements/1.1/"
   xmlns:cc="http://creativecommons.org/ns#"
   xmlns:rdf="http://www.w3.org/1999/02/22-rdf-syntax-ns#"
   xmlns:svg="http://www.w3.org/2000/svg"
   xmlns="http://www.w3.org/2000/svg"
   xmlns:sodipodi="http://sodipodi.sourceforge.net/DTD/sodipodi-0.dtd"
   xmlns:inkscape="http://www.inkscape.org/namespaces/inkscape"
   width="40mm"
   height="40mm"
   viewBox="0 0 141.73228 141.73228"
   id="svg5573"
   version="1.1"
   inkscape:version="0.91 r13725"
   sodipodi:docname="pad.svg">
  <defs
     id="defs5575" />
  <sodipodi:namedview
     id="base"
     pagecolor="#ffffff"
     bordercolor="#666666"
     borderopacity="1.0"
     inkscape:pageopacity="0.0"
     inkscape:pageshadow="2"
     inkscape:zoom="2.8"
     inkscape:cx="91.395652"
     inkscape:cy="158.94502"
     inkscape:document-units="px"
     inkscape:current-layer="layer1"
     showgrid="false"
     inkscape:showpageshadow="false"
     inkscape:window-width="1855"
     inkscape:window-height="1056"
     inkscape:window-x="65"
     inkscape:window-y="24"
     inkscape:window-maximized="1" />
  <metadata
     id="metadata5578">
    <rdf:RDF>
      <cc:Work
         rdf:about="">
        <dc:format>image/svg+xml</dc:format>
        <dc:type
           rdf:resource="http://purl.org/dc/dcmitype/StillImage" />
        <dc:title></dc:title>
      </cc:Work>
    </rdf:RDF>
  </metadata>
  <g
     inkscape:label="Layer 1"
     inkscape:groupmode="layer"
     id="layer1"
     transform="translate(0,-910.62992)">
    <path
       style="display:inline;opacity:1;fill:#666666;fill-opacity:1"
       id="path5156"
       d="m 58.575006,956.73628 c 0,1.48928 0,2.97856 0,4.46784 0,1.13965 0,2.27929 0,3.41893 0,0.91635 0,1.8327 0,2.74905 0,1.55707 0,3.11412 0,4.67118 0,1.51626 0,3.03252 0,4.54879 0,1.66058 0,3.32117 0,4.98176 0,1.891 0,3.78199 0,5.67299 0,1.55435 0,3.1087 0,4.66307 0,1.1358 0,2.2717 0,3.4075 0,0.9561 0,1.9123 0,2.86835 0,0.8891 0,1.7781 0,2.66716 0.03637,1.3042 -0.0746,2.6031 -0.279539,3.8905 -0.135309,0.9999 -0.02111,0.1938 -0.687609,2.7017 -0.123489,0.4647 -0.0164,0.076 0.01193,-0.019 0.0444,-0.1477 0.05926,-0.3015 0.09395,-0.4513 -1.312182,16.7933 -25.061639,14.9376 -23.749458,-1.8558 l 0,0 c 0.07818,-0.8914 0.164509,-1.7835 0.357122,-2.6593 0.186159,-0.8214 0.198717,-0.9353 0.432731,-1.7384 0.07395,-0.2538 0.155295,-0.5055 0.237074,-0.75686 0.05585,-0.1718 0.210205,-0.6898 0.175809,-0.5125 -0.762633,3.93136 -0.502163,2.25756 -0.394244,1.52806 0.01169,-0.072 -0.02549,-0.2588 0.03507,-0.2174 0.06251,0.043 -0.01851,0.1506 -0.02208,0.2263 -0.01469,0.3125 -0.01559,0.6257 -0.03255,0.9381 -0.0065,0.1126 0,-0.2254 0,-0.3382 0,-0.2454 0,-0.4907 0,-0.7361 0,-0.88906 0,-1.77816 0,-2.66716 0,-0.95605 0,-1.91225 0,-2.86835 0,-1.1358 0,-2.2717 0,-3.4075 0,-1.55435 0,-3.1087 0,-4.66305 0,-1.891 0,-3.78199 0,-5.67298 0,-1.6606 0,-3.32119 0,-4.98177 0,-1.51627 0,-3.03252 0,-4.54879 0,-1.55706 0,-3.11411 0,-4.67118 0,-0.91634 0,-1.8327 0,-2.74905 0,-1.13964 0,-2.27928 0,-3.41892 0,-1.48929 0,-2.97857 0,-4.46785 0,-16.84459 23.821844,-16.84459 23.821844,0 z"
       inkscape:connector-curvature="0" />
    <path
       style="display:inline;opacity:1;fill:#666666;fill-opacity:1"
       id="path5158"
       d="m 52.526865,997.31089 c 0.837464,0.5295 1.736884,0.94465 2.638869,1.34955 0.545505,0.2819 -0.02013,-0.055 0.196306,-0.028 0.641402,0.08 1.270983,0.1929 1.916013,0.2551 1.708074,0.1369 3.422634,0.1519 5.135165,0.1657 1.24507,0.01 2.490166,0 3.735236,-7e-4 0.819906,0 1.639819,0 2.459732,0 1.229095,-3e-4 2.458182,-2e-4 3.687277,-2e-4 1.586638,0 3.173277,0 4.759923,0 1.776354,0 3.552715,0 5.329068,0 0.986801,0.053 1.957626,-0.055 2.939117,-0.1343 1.159371,-0.096 2.322053,-0.1318 3.484865,-0.1478 0.573187,-0.01 1.146423,-0.01 1.719634,-0.01 0.126379,0 0.505386,-0.01 0.379129,2e-4 -0.221464,0.01 -0.443252,0.01 -0.664878,0.012 16.779589,-1.47825 18.870119,22.25156 2.090515,23.72986 l 0,0 c -1.070691,0.059 -2.136974,0.1012 -3.209231,0.085 -0.628454,0.01 -1.256988,0.02 -1.883656,0.073 -1.615603,0.1303 -3.232943,0.2561 -4.855495,0.2114 -1.776394,0 -3.552779,0 -5.329173,0 -1.586687,0 -3.173383,0 -4.76007,-1e-4 -1.225401,0 -2.450802,0 -3.676203,3e-4 -0.800131,4e-4 -1.600261,0 -2.400391,0 -1.334302,0 -2.668621,0.01 -4.002915,0 -2.50003,-0.021 -5.00316,-0.061 -7.493545,-0.3023 -3.21346,-0.3628 -6.438148,-0.881 -9.410589,-2.2229 -1.567886,-0.717 -3.129213,-1.4569 -4.603646,-2.3547 -14.625203,-8.3573 -2.80626,-29.04034 11.818943,-20.68311 z"
       inkscape:connector-curvature="0" />
    <path
       style="display:inline;opacity:1;fill:#666666;fill-opacity:1"
       id="path5160"
       d="m 84.532233,1005.763 c 0.121711,-0.6649 0.01331,-1.3047 -0.04351,-1.9671 -0.170029,-1.8353 -0.27626,-3.675 -0.33427,-5.51696 -0.09021,-2.16745 5.2e-4,-4.33235 0.162812,-6.49365 0.253854,-2.68932 0.658035,-5.36068 0.936186,-8.04703 0.216625,-2.32705 0.262402,-4.66502 0.293307,-7.00046 0.01883,-1.85621 0.01534,-3.71253 0.01242,-5.5688 -0.0024,-1.24966 -0.0041,-2.49931 -0.0049,-3.74897 -5.52e-4,-0.91582 -5.11e-4,-1.83165 -5.19e-4,-2.74747 1.6e-5,-1.2379 3.2e-5,-2.47581 4e-5,-3.7137 1.55e-4,-16.84459 23.821991,-16.84438 23.821841,2.1e-4 l 0,0 c -1e-5,1.23779 -3e-5,2.47558 -4e-5,3.71337 0,0.91007 -4e-5,1.82014 5.1e-4,2.73021 8.1e-4,1.24316 0.002,2.48632 0.005,3.72948 0.003,1.97627 0.006,3.9526 -0.0146,5.9288 -0.0424,3.05812 -0.11965,6.11885 -0.4213,9.16435 -0.26352,2.48496 -0.60814,4.95948 -0.88058,7.44341 -0.11413,1.2923 -0.15452,2.5854 -0.0994,3.8823 0.042,1.43615 0.13245,2.86971 0.26589,4.30051 0.18228,2.2882 0.25833,4.585 -0.0609,6.8662 -2.08931,16.7146 -25.727191,13.7598 -23.637878,-2.9547 z"
       inkscape:connector-curvature="0" />
    <path
       style="display:inline;opacity:1;fill:#666666;fill-opacity:1"
       id="path5162"
       d="m 94.859066,967.98593 c -0.235751,0.003 -0.481373,-0.0236 -0.713187,-0.0395 -16.77957,-1.47864 -14.688454,-25.20852 2.091107,-23.72988 l 0,0 c 1.26953,0.12039 2.543054,0.23149 3.789764,0.51475 16.44347,3.65411 11.27578,26.90868 -5.167684,23.25459 z"
       inkscape:connector-curvature="0" />
    <path
       style="display:inline;opacity:1;fill:#666666;fill-opacity:1"
       id="path5164"
       d="m 65.940458,967.19018 c -1.408013,0 -2.816033,0 -4.224046,0 -0.262362,0 -0.524723,0 -0.787085,0 -16.844589,0 -16.844589,-23.82185 0,-23.82185 l 0,0 c 0.262362,0 0.524723,0 0.787085,0 1.408013,0 2.816033,0 4.224046,0 16.844589,0 16.844589,23.82185 0,23.82185 z"
       inkscape:connector-curvature="0" />
    <path
       style="display:inline;opacity:1;fill:#666666;fill-opacity:1"
       id="path5166"
       d="m 59.245842,945.3774 c 2.1834,-0.0513 4.324254,0.36104 6.445365,0.82626 1.308764,0.2637 2.652889,0.26082 3.980924,0.33901 2.974357,0.17931 5.926227,0.5579 8.872406,0.99025 1.703171,0.19857 3.398987,0.45315 5.099397,0.67314 1.409458,0.077 2.777166,0.38252 4.152544,0.67651 0.990909,0.29026 0.577124,0.16719 1.242214,0.36631 16.136098,4.83389 9.299955,27.65378 -6.836143,22.8199 l 0,0 c -0.149954,-0.045 -0.299899,-0.0899 -0.449852,-0.13482 -0.0016,-0.003 -0.0032,-0.007 -0.0057,-0.0104 0.32543,0.0551 0.653919,0.0945 0.97628,0.16545 0.198701,0.0437 -0.403223,-0.0547 -0.604595,-0.0837 -0.314169,-0.0452 -0.257945,-0.0364 -0.04757,-0.0276 -0.241458,-0.0211 -0.482908,-0.0421 -0.724358,-0.0632 -0.263531,-0.0262 -0.526453,-0.0582 -0.789675,-0.0874 -1.824305,-0.23993 -3.64482,-0.50586 -5.471869,-0.7248 -2.267306,-0.33278 -4.535456,-0.64457 -6.82537,-0.77966 -2.570501,-0.15421 -5.154047,-0.26112 -7.672861,-0.85033 -0.278629,-0.0611 -0.558542,-0.11667 -0.835897,-0.18337 -0.03889,-0.009 -0.150506,-0.0364 -0.111361,-0.0444 0.100239,-0.0206 0.408045,0.0204 0.306993,0.004 -0.174014,-0.0279 -0.353338,-0.0109 -0.527255,-0.0394 -0.09606,-0.0158 1.107221,-0.01 -0.173918,-0.01 -16.844588,0 -16.844588,-23.82184 0,-23.82184 z"
       inkscape:connector-curvature="0" />
    <path
       style="display:inline;opacity:1;fill:#666666;fill-opacity:1"
       id="path5168"
       d="m 96.435566,963.62172 c 0.264667,3.37149 -0.36386,6.70935 -1.660073,9.82367 -0.296002,0.7112 -0.664789,1.38987 -0.997192,2.08481 -2.044134,3.75611 -4.630903,7.17773 -7.360035,10.4565 -2.057661,2.36005 -4.29856,4.55164 -6.642247,6.62479 -1.489938,1.2999 -3.056615,2.5198 -4.481481,3.8928 -1.74544,1.71265 -3.498949,3.41675 -5.343152,5.02311 -0.504818,0.3792 -0.959524,0.8365 -1.514454,1.1376 -3.806041,2.0655 -6.642053,3.2709 -11.430925,1.6132 -2.368268,-0.8197 -4.346342,-2.6248 -6.051883,-4.46106 -1.870902,-2.01425 -2.161287,-4.55505 -2.671422,-7.03145 -0.480034,-3.71394 -0.273296,-7.48858 0.667671,-11.11718 0.200244,-0.77217 0.470366,-1.52451 0.705541,-2.28676 1.072566,-2.788 2.360596,-5.6038 4.492309,-7.76452 0.746106,-0.75626 1.51935,-1.50786 2.413737,-2.08116 1.163185,-0.7456 2.474376,-1.23011 3.711565,-1.84516 1.306758,-0.24208 2.593108,-0.65652 3.920275,-0.72625 3.30059,-0.1734 6.516689,0.78901 9.404988,2.30303 1.941641,1.01779 2.572375,1.59478 4.295979,2.88656 3.044819,2.5074 5.553502,5.58772 7.650698,8.91605 0.385234,0.61137 0.737476,1.24293 1.106215,1.86439 8.485147,14.5514 -12.093595,26.55111 -20.578746,11.9998 l 0,0 c -0.801478,-1.433 -1.693178,-2.8422 -2.853011,-4.01513 -0.07996,-0.0885 -0.307383,-0.27828 -0.190648,-0.30299 0.08616,-0.0183 0.175857,0.0115 0.263287,0.0221 0.248699,0.0301 0.494435,0.0934 0.744864,0.1 2.430548,0.0638 1.808686,0.0358 4.259862,-0.61762 2.034656,-1.18367 2.195406,-1.02258 3.573878,-2.58572 0.223112,-0.253 0.395665,-0.54747 0.569079,-0.83681 0.06705,-0.11182 0.162828,-0.23192 0.149134,-0.36157 -3.49e-4,-0.003 -0.294655,0.47155 -0.303479,0.48577 -0.350026,0.73566 -0.506831,1.5039 -0.461014,2.32377 -0.44076,-1.3619 -0.833495,-2.76265 -1.959298,-3.81477 -1.607874,-1.50262 -3.361295,-3.06424 -5.468378,-3.69933 -3.081813,-0.9289 -7.501744,-0.50653 -9.996131,1.84906 1.649576,-1.38342 3.114674,-2.97473 4.690199,-4.43924 1.618866,-1.48184 3.272648,-2.92485 4.961693,-4.32644 1.445599,-1.25413 2.800878,-2.60912 4.096572,-4.01717 1.561643,-1.85038 3.024923,-3.78163 4.324464,-5.82681 0.06235,-0.094 0.07469,-0.29291 0.186898,-0.28193 0.09912,0.01 -0.02143,0.1981 -0.02752,0.29752 -0.0057,0.0994 -0.0057,0.19904 -0.0088,0.29856 0.01348,-0.0318 0.03572,-0.12976 0.04043,-0.0955 0.02565,0.18614 0.01007,0.3758 0.02395,0.56318 0.0084,0.1135 0.02866,0.22582 0.04303,0.33873 -1.676098,-16.76099 22.027523,-19.13135 23.70362,-2.37036 z"
       inkscape:connector-curvature="0" />
    <path
       style="display:inline;opacity:1;fill:#ffcc00;fill-opacity:1"
       id="path5170"
       d="m 55.986207,957.47041 c 0.920616,0.70276 1.577685,1.64195 2.24991,2.5656 5.108976,7.56987 -5.596438,14.79504 -10.705414,7.22518 l 0,0 c 0.168624,0.14469 0.790177,0.63221 0.05025,0.0153 -6.933987,-5.94342 1.471284,-15.74957 8.405272,-9.80615 z"
       inkscape:connector-curvature="0" />
    <path
       style="display:inline;opacity:1;fill:#ffcc00;fill-opacity:1"
       id="path5172"
       d="m 76.85744,959.65242 c 0.483785,0.75837 1.083103,1.41728 1.625499,2.14325 0.248139,0.34229 0.463847,0.70597 0.698218,1.05732 0.01396,0.0209 -0.01721,-0.0517 -0.03856,-0.0651 -1.40108,-0.88061 -2.605066,-2.96666 -4.221562,-2.61246 -7.378896,1.61683 -7.122095,2.71888 -7.39048,6.43331 -0.0057,-0.0214 -0.0112,-0.0427 -0.0168,-0.0641 -1.221659,-9.05052 11.577728,-10.77821 12.799387,-1.72768 l 0,0 c 0.02906,0.23543 0.05812,0.47087 0.08718,0.7063 -0.01331,0.64459 0.415026,1.47702 -0.04002,1.93377 -2.159566,2.16776 -4.383798,4.76542 -7.356475,5.49077 -1.129261,0.27556 -4.1162,-1.81419 -4.919236,-3.49157 -0.633698,-0.89669 -1.401421,-1.69694 -1.973504,-2.63962 -5.065862,-7.59878 5.68045,-14.763 10.746312,-7.1642 z"
       inkscape:connector-curvature="0" />
    <path
       style="display:inline;opacity:1;fill:#ffcc00;fill-opacity:1"
       id="path5174"
       d="m 97.738395,966.43444 c -0.290969,0.35047 -0.386297,0.83498 -0.548005,1.2566 -0.08673,0.22298 -0.11361,0.45295 -0.135212,0.68771 -1.358055,9.03107 -14.129911,7.11049 -12.771856,-1.92058 l 0,0 c 0.187548,-1.1645 0.42959,-2.31866 0.859618,-3.422 0.817941,-2.10661 1.856485,-4.11017 3.46285,-5.73434 6.457725,-6.45773 15.59033,2.67488 9.132605,9.13261 z"
       inkscape:connector-curvature="0" />
    <path
       style="display:inline;opacity:1;fill:#ffcc00;fill-opacity:1"
       id="path5176"
       d="m 96.175631,981.88171 c 0.723571,0.71128 1.253254,1.58172 1.824809,2.41196 5.16646,7.53072 -5.483629,14.83717 -10.650087,7.30652 l 0,0 c -0.0375,-0.055 -1.13923,-1.55672 -0.307327,-0.58587 -6.457728,-6.45774 2.67488,-15.59034 9.132605,-9.13261 z"
       inkscape:connector-curvature="0" />
    <path
       style="display:inline;opacity:1;fill:#ffcc00;fill-opacity:1"
       id="path5178"
       d="m 72.782138,977.9367 c 1.639356,0.88037 2.955385,2.16238 4.13565,3.57937 5.808583,7.04733 -4.157853,15.26192 -9.966435,8.21457 l 0,0 c -0.07347,-0.0913 -0.154443,-0.17699 -0.220287,-0.27391 -0.0057,-0.009 0.135349,0.0196 0.09463,-0.0123 -0.08495,-0.0664 -0.347291,-0.22857 -0.451419,-0.29401 -7.929328,-4.53104 -1.521468,-15.74479 6.407861,-11.21375 z"
       inkscape:connector-curvature="0" />
    <path
       style="display:inline;opacity:1;fill:#ffcc00;fill-opacity:1"
       id="path5180"
       d="m 56.753712,985.70788 c -0.114771,0.61144 -0.0686,1.14648 -0.03483,1.75067 0.49088,9.11944 -12.405914,9.81364 -12.896785,0.6942 l 0,0 c -0.07493,-1.4272 -0.07688,-2.85521 0.145984,-4.27139 1.291545,-9.04082 14.077197,-7.2143 12.785651,1.82652 z"
       inkscape:connector-curvature="0" />
    <path
       style="display:inline;opacity:1;fill:#ffcc00;fill-opacity:1"
       id="path5182"
       d="m 50.067222,999.56244 c 0.449608,0.1732 0.923294,0.2529 1.399489,0.3087 9.04953,1.22906 7.311404,14.02706 -1.738126,12.79796 l 0,0 c -1.428316,-0.2026 -2.844925,-0.4958 -4.196284,-1.0136 -8.551125,-3.2066 -4.016204,-15.29971 4.534921,-12.09306 z"
       inkscape:connector-curvature="0" />
    <path
       style="display:inline;opacity:1;fill:#ffcc00;fill-opacity:1"
       id="path5184"
       d="m 68.717177,998.76124 c 0.914194,0 1.828381,0 2.742575,0 -0.03483,0 -0.06965,-0.01 -0.104518,-0.013 9.102353,-0.7428 10.152806,12.12976 1.050453,12.87246 l 0,0 c -0.315314,0.019 -0.63062,0.037 -0.945935,0.056 -0.914194,0 -1.828381,0 -2.742575,0 -9.132608,0 -9.132608,-12.91546 0,-12.91546 z"
       inkscape:connector-curvature="0" />
    <path
       style="display:inline;opacity:1;fill:#ffcc00;fill-opacity:1"
       id="path5186"
       d="m 85.607973,1003.064 c 0.198084,-0.198 0.396176,-0.3961 0.594261,-0.5942 6.457728,-6.45761 15.590336,2.6749 9.132605,9.1326 l 0,0 c -0.198085,0.1981 -0.396177,0.3962 -0.594261,0.5942 -6.457725,6.4578 -15.590334,-2.6748 -9.132605,-9.1326 z"
       inkscape:connector-curvature="0" />
    <path
       style="display:inline;opacity:1;fill:#fcb237;fill-opacity:0"
       id="path4506"
       d="m 47.091997,973.73072 c 0.684255,3.43841 1.499087,6.84718 2.369834,10.2426 0.198239,0.70609 0.396477,1.41217 0.594724,2.11827 3.324432,11.88515 -13.483854,16.58661 -16.808286,4.70145 l 0,0 c -0.231521,-0.83034 -0.463043,-1.66069 -0.694557,-2.49104 -0.914121,-3.5761 -1.779259,-7.16428 -2.499526,-10.7851 -2.677234,-12.04755 14.360576,-15.83373 17.037811,-3.78618 z"
       inkscape:connector-curvature="0" />
    <path
       style="display:inline;opacity:1;fill:#1a1a1a;fill-opacity:1"
       id="path4999"
       d="m 39.459068,956.67295 c 0.183342,1.80777 0.228039,3.62738 0.320932,5.44172 0.224338,3.84171 0.34613,7.68281 0.350002,11.53088 -0.02216,5.35378 -0.501368,10.68839 -0.923164,16.02096 -0.37425,4.61448 -0.737899,9.22993 -1.086432,13.84649 -0.18663,3.1767 -0.454235,6.3472 -0.728774,9.5172 -0.06819,1.342 -0.29269,2.6674 -0.462126,3.9984 -0.02581,0.2312 -0.05739,0.462 -0.07436,0.6941 0.0024,-0.032 0.0089,-0.1333 0.0041,-0.1359 -1.100012,-0.6203 -2.547291,-0.8005 -3.344215,-1.7801 -0.854235,-1.05 2.148761,-0.2786 2.28424,-0.2441 0.855754,0.2044 1.727094,0.2885 2.602745,0.3497 1.737363,0.1915 3.482259,0.2766 5.228447,0.3301 2.214815,0.035 4.428048,0.047 6.641557,0.1354 2.904389,0.1109 5.809987,0.1576 8.714489,0.2664 3.063986,0.1046 6.129734,0.2158 9.195774,0.1708 2.447969,-0.018 4.886871,-0.2285 7.32906,-0.3709 2.067363,-0.1121 4.137924,-0.1358 6.207827,-0.1502 1.637319,-0.01 3.27467,-0.01 4.912004,-0.01 1.188059,-0.036 2.363365,-0.2064 3.541545,-0.3477 1.033202,-0.119 2.071429,-0.1814 3.110538,-0.2147 0.454699,-0.012 0.9096,-0.014 1.364428,-0.012 0.341446,0.024 0.545148,-0.011 0.733369,-0.045 0.665471,-0.1302 1.34117,-0.1851 2.017389,-0.2177 0.611812,-0.024 1.224192,-0.023 1.836353,-0.023 0.276105,-0.015 0.5554,0.019 0.831274,0 0.0223,0 -0.0842,0 -0.0658,-0.013 0.10354,-0.071 0.24616,-0.052 0.36956,-0.076 0.57369,-0.1171 1.15618,-0.1637 1.74012,-0.1862 0.62996,-0.051 1.24006,0.1116 1.84785,0.2466 0.10617,0.024 0.21253,0.046 0.31914,0.067 -0.003,-7e-4 -0.007,0 -0.01,0 -0.011,0 -0.0219,0 -0.0329,-0.01 3.00426,0.4917 2.30905,4.7403 -0.69521,4.2487 l 0,0 c -0.0524,-0.01 -0.0283,-0.01 -0.0723,-0.013 -0.14848,-0.028 -0.29626,-0.061 -0.44401,-0.093 -0.29917,-0.067 -0.52243,-0.16 -0.75413,-0.1467 -0.35811,0.012 -0.71518,0.035 -1.06702,0.108 -0.65004,0.128 -1.300604,0.2079 -1.964638,0.169 -0.54561,2e-4 -1.091407,-8e-4 -1.636766,0.019 -0.489524,0.022 -0.978926,0.058 -1.460308,0.1551 -0.499403,0.087 -0.999952,0.1362 -1.50688,0.1129 -0.404222,0 -0.808492,-7e-4 -1.2126,0.01 -0.913826,0.028 -1.8269,0.083 -2.735614,0.1863 -1.348964,0.1613 -2.69589,0.3516 -4.056851,0.3783 -1.626262,0 -3.25254,0 -4.878794,0 -1.996364,0.014 -3.993393,0.036 -5.987362,0.143 -2.50529,0.1456 -5.0073,0.3603 -7.51854,0.3777 -3.140091,0.043 -6.279719,-0.062 -9.417667,-0.1733 -2.90844,-0.109 -5.817999,-0.1551 -8.726309,-0.2668 -2.199903,-0.089 -4.399595,-0.097 -6.600798,-0.1341 -1.804432,-0.056 -3.608037,-0.1413 -5.403411,-0.339 -1.130016,-0.082 -2.25426,-0.2045 -3.35765,-0.4718 -1.045509,-0.2662 2.439088,0.6271 1.324504,-0.4568 -2.498584,-2.4301 -3.590479,-0.3448 -3.501766,-1.8487 0.02265,-0.3163 0.06186,-0.6312 0.09901,-0.9461 0.163121,-1.273 0.379064,-2.5406 0.44348,-3.8244 0.273199,-3.1543 0.539335,-6.3089 0.724934,-9.4699 0.349036,-4.62156 0.712895,-9.24211 1.087625,-13.86176 0.412777,-5.2183 0.88484,-10.43845 0.909754,-15.67748 -0.0032,-3.77601 -0.123887,-7.54499 -0.344369,-11.31476 -0.08624,-1.68454 -0.134635,-3.37285 -0.283297,-5.05299 -0.430516,-3.01361 3.831368,-3.62245 4.261884,-0.60884 z"
       inkscape:connector-curvature="0" />
    <path
       style="display:inline;opacity:1;fill:#1a1a1a;fill-opacity:1"
       id="path5001"
       d="m 102.70284,1016.3476 c 0.22447,0.02 0.44499,0.075 0.66949,0.096 0.0857,0.01 0.5401,-0.085 -0.0781,0.01 -0.19791,-0.3474 -0.91164,0.9597 -0.92012,0.6287 -0.006,-0.2075 0.077,-0.4786 0.10356,-0.6801 0.15445,-1.2506 0.26363,-2.5035 0.32392,-3.7623 0.16812,-1.9525 0.25868,-3.9092 0.31153,-5.8679 0.0663,-2.644 0.19556,-5.2857 0.26064,-7.92996 0.11945,-3.00945 0.28797,-6.01765 0.27697,-9.03022 -0.0144,-2.78965 -0.15809,-5.57451 -0.29382,-8.36 -0.12978,-2.71516 -0.16407,-5.43347 -0.18569,-8.15125 -0.0798,-2.24889 -0.18765,-4.49635 -0.24535,-6.74603 0.0178,-1.86361 0.12493,-3.72477 0.18435,-5.58732 0.0366,-1.18611 0.0481,-2.37273 0.0528,-3.55933 -0.0144,-1.13762 0.13628,-2.26814 0.31806,-3.38836 0.13007,-0.94916 0.28999,-1.89422 0.49791,-2.82952 0.14736,-0.75789 0.31341,-1.51042 0.48014,-2.26426 0.0816,-0.39972 0.11775,-0.80736 0.13553,-1.21446 0.008,-0.20465 0.007,-0.40949 0.006,-0.61426 -6.9e-4,-0.11881 -0.002,-0.23762 -0.002,-0.35643 -0.0222,-0.99245 1.40789,1.39992 2.10653,2.10516 -0.70771,0.006 -1.41549,0.003 -2.12322,0.003 -1.91529,-5.2e-4 -3.83058,-6.2e-4 -5.745867,-7.1e-4 -2.490483,-9e-5 -4.980974,-8e-5 -7.471461,-8e-5 -2.738126,-0.0294 -5.473184,0.14245 -8.200749,0.3652 -3.014484,0.23984 -6.021994,0.55679 -9.037394,0.78538 -2.774073,0.20182 -5.5555,0.25216 -8.335742,0.27934 -2.548915,0.0626 -5.095021,-0.0688 -7.641119,-0.16526 -1.810132,-0.0724 -3.62153,-0.0988 -5.432904,-0.11253 -1.157406,-0.007 -2.314836,-0.006 -3.472258,-0.006 -0.954873,0.0132 -1.904916,0.14211 -2.858344,0.20483 -0.951431,0.058 -1.904672,0.0747 -2.857622,0.0832 -0.719698,0.0208 -1.427861,0.0182 -2.133336,-0.13913 -0.246183,-0.0924 -0.49558,-0.11823 -0.754597,-0.13418 -0.204287,-0.0129 -0.409003,-0.0149 -0.61363,-0.0152 -0.0108,-0.002 -0.153412,0.002 -0.06356,-2.3e-4 0.996436,-0.22148 2.411187,-1.55237 1.204359,-0.38864 -0.396574,0.3993 -0.964143,0.62218 -1.520965,0.67313 -0.264399,0.0111 -0.529228,0.006 -0.793806,0.006 -0.209271,-4.4e-4 -0.418549,-8e-4 -0.62782,-8.1e-4 -0.01818,-3e-5 -0.06178,-8e-5 -0.07436,-10e-5 1.920803,-2.22282 2.52237,-2.94886 2.007973,-0.91068 -0.08583,0.4306 -0.121947,0.86678 -0.197573,1.29959 -0.08363,0.31392 -0.176962,0.6217 -0.210578,0.94469 -8.12e-4,0.42266 -0.201542,0.80343 -0.253277,1.2156 -0.03637,0.49111 -0.08021,0.97509 -0.191883,1.45684 -0.09904,0.5538 -0.237309,1.08014 -0.489305,1.58718 0.322816,-0.59887 0.38426,-1.40302 -0.02963,-1.98082 -0.135341,-0.18895 -0.319966,-0.33719 -0.479945,-0.50579 2.528824,1.69477 0.132054,5.27106 -2.396761,3.57629 l 0,0 c -0.224606,-0.2119 -0.482088,-0.39365 -0.673808,-0.63571 -0.585161,-0.73882 -0.548899,-1.76246 -0.165946,-2.57564 -0.115671,0.27806 -0.06275,0.11883 -0.1397,0.48362 -0.02565,0.0705 0.02224,-0.1485 0.03507,-0.22247 0.04164,-0.24035 0.04944,-0.27269 0.09886,-0.49167 0.01826,-0.0809 0.03702,-0.16174 0.05553,-0.24261 0.0093,-0.0345 -0.0081,-0.10673 0.02768,-0.10343 0.03531,0.003 8.12e-4,0.14174 0.0041,0.10639 0.03247,-0.37435 0.0203,-0.75388 0.09338,-1.12479 0.05406,-0.32146 0.05358,-0.35867 0.132468,-0.67124 0.02167,-0.0858 0.04716,-0.17052 0.07241,-0.2553 0.0073,-0.025 0.02533,-0.10002 0.02565,-0.0739 8.12e-4,0.0782 -0.01648,0.3113 -0.02387,0.23343 -0.0083,-0.087 0.01412,-0.17431 0.02119,-0.26147 0.05293,-0.44944 0.131282,-0.8959 0.271535,-1.32722 0.06007,-0.43724 0.114851,-1.01763 0.243698,-1.49946 0.0561,-0.21292 0.04993,-0.22329 0.01364,0.21576 -0.0065,0.0828 -0.05877,-0.18755 -0.0032,-0.24912 0.703105,-0.77651 1.432537,-1.52879 2.148809,-2.29319 0.02793,3e-5 0.05593,5e-5 0.08391,10e-5 0.210716,3.1e-4 0.421423,6.7e-4 0.632131,8.1e-4 0.146633,3.6e-4 0.41376,-8.1e-4 0.510127,0.002 -0.390713,0.0463 -1.494062,0.78563 -1.186703,0.517 0.108398,-0.10193 -0.194805,0.19102 -0.100962,0.14195 1.852076,-0.96836 0.992255,-0.90707 1.698575,-0.9484 0.08305,-0.003 0.166157,-0.003 0.24926,-0.003 0.305272,5.9e-4 0.610642,0.006 0.915314,0.0262 0.488542,0.0373 0.980161,0.0902 1.448716,0.24151 0.01542,0.006 0.06226,0.0127 0.04635,0.0169 -0.04375,0.0114 -0.180744,0.004 -0.135576,0.006 0.392767,0.022 0.788943,-0.0174 1.181921,-0.002 0.872071,-0.007 1.744442,-0.0221 2.615182,-0.0742 1.04572,-0.0676 2.087284,-0.21366 3.135918,-0.21398 1.169258,-7.7e-4 2.338524,-0.002 3.507774,0.006 1.854837,0.0141 3.70969,0.0414 5.563252,0.1155 2.477819,0.0939 4.955573,0.22422 7.436152,0.16237 2.685831,-0.026 5.372847,-0.0732 8.052776,-0.26727 3.007307,-0.22723 6.006529,-0.5455 9.012976,-0.78346 2.84387,-0.23083 5.695297,-0.40949 8.550086,-0.37939 2.490544,0 4.981099,-1e-5 7.471655,8e-5 1.915634,9e-5 3.831264,1.9e-4 5.746894,7.1e-4 0.66914,1.9e-4 1.3383,0.002 2.00745,-0.002 2.11808,1.94269 2.30547,1.08303 2.31303,2.16653 8.1e-4,0.12179 0.002,0.24358 0.002,0.36537 0.002,0.28112 0.002,0.56233 -0.0106,0.84325 -0.0328,0.65197 -0.0951,1.30381 -0.23321,1.94285 -0.17012,0.76196 -0.33552,1.52271 -0.48574,2.28904 -0.20199,0.84292 -0.31654,1.7043 -0.44536,2.56047 -0.14592,0.8978 -0.27879,1.80321 -0.26242,2.71541 -0.005,1.2267 -0.017,2.45343 -0.0549,3.67962 -0.0569,1.7801 -0.15479,3.55885 -0.18356,5.3397 0.0581,2.275 0.17048,4.54764 0.24663,6.82201 0.0211,2.65931 0.054,5.31918 0.18072,7.97595 0.13889,2.85099 0.28453,5.70145 0.2989,8.55668 0.007,3.05222 -0.15109,6.10012 -0.27826,9.14908 -0.0653,2.64776 -0.19415,5.29306 -0.26092,7.94046 -0.0541,1.9892 -0.14251,3.977 -0.31499,5.9599 -0.0684,1.3951 -0.18987,2.7838 -0.36317,4.1698 -0.17702,1.1659 -0.41325,2.3119 -1.36338,3.1222 -0.2082,0.1775 -0.47897,0.2647 -0.71847,0.397 -0.87407,0.2205 -1.67125,0.2641 -2.56269,0.076 -3.013606,-0.4305 -2.404765,-4.6923 0.60884,-4.2618 z"
       inkscape:connector-curvature="0" />
    <path
       style="display:inline;opacity:1;fill:#1a1a1a;fill-opacity:1"
       id="path5011"
       d="m 47.331174,957.28173 c -0.207071,0.81099 -0.299128,1.64308 -0.364883,2.47546 -0.05407,0.82624 -0.05877,1.65448 -0.06145,2.48213 0.01607,0.83718 -0.136932,1.66427 -0.215042,2.49547 -0.05423,0.64309 -0.06153,1.28895 -0.06779,1.93393 -0.0032,0.50935 -0.0024,1.01871 -0.0016,1.52807 0.04197,0.53925 -0.111986,1.05806 -0.223079,1.5783 -0.03702,0.16527 -0.05301,0.33469 -0.06559,0.50341 -0.129991,0.38938 -1.098567,-2.04556 -1.813241,-2.19485 0.539222,-0.002 1.078444,-0.005 1.617665,-0.007 0.841743,-0.002 1.683485,-0.002 2.525227,-0.002 0.76925,-8.1e-4 1.53647,-0.0195 2.302976,0.0479 0.670001,0.0562 1.301637,0.29264 1.954801,0.42954 0.473182,0.0764 0.955011,0.0845 1.433373,0.0952 0.530966,-0.0188 1.043861,0.0179 1.569794,0.0896 0.209124,0.0481 0.471924,0.16866 0.65413,0.18562 0.154369,0.0158 0.309754,0.0143 0.46474,0.0151 0.254268,2.8e-4 0.508536,-4.7e-4 0.762804,-0.002 0.01924,-7e-5 0.07558,-0.007 0.05764,-2e-4 -1.232447,0.46368 -1.821529,0.40384 -2.049024,1.74885 -0.0263,-0.58922 0.06868,-1.17216 0.143548,-1.75458 0.17024,-0.76948 0.306823,-1.54116 0.369923,-2.32677 0.0526,-0.78956 0.05398,-1.58136 0.05691,-2.37231 0.04197,-0.75611 -0.08493,-1.50159 -0.163178,-2.25106 -0.07062,-0.7566 -0.22454,-1.50176 -0.31585,-2.25649 -0.05512,-0.75637 0.08203,-1.50445 0.143305,-2.25559 0.02841,-0.55486 0.04229,-1.10472 0.109689,-1.65639 0.05244,-0.32714 0.169777,-0.63791 0.228234,-0.96315 0.140609,-0.9221 0.28311,0.60249 1.486041,2.24269 0.05325,0.0726 0.175501,0.0401 0.263255,0.0601 -0.405082,-0.10902 -0.800812,-0.20066 -1.217973,-0.23078 -0.624525,-0.0382 -1.250526,-0.0383 -1.87596,-0.0408 -0.535698,-0.0301 -1.046183,0.14971 -1.560109,0.2763 -0.612502,0.22247 -1.242214,0.38685 -1.883923,0.49658 -0.737639,0.11471 -1.467014,0.10932 -2.197834,-0.043 -0.271104,-0.0764 -0.548646,-0.11795 -0.828153,-0.14617 0.02622,-0.003 -0.192426,-0.003 -0.14436,-0.006 0.147997,-0.01 0.296725,-0.007 0.44447,-0.0201 0.11736,-0.0102 0.463336,-0.15496 -0.08503,0.0583 -0.418054,0.15407 -0.859967,0.21351 -1.302074,0.23957 -0.555173,0.0448 -1.096879,-0.0278 -1.627666,-0.19712 -0.324472,-0.0843 -0.610838,-0.22251 -0.918302,-0.36271 -2.601811,-1.58042 -0.366766,-5.25994 2.235053,-3.67953 l 0,0 c -1.023509,-0.44476 -0.115014,-0.0639 0.125405,-0.0142 -0.70455,-0.14379 -0.436636,0.004 -0.04822,-0.0452 0.183772,-0.007 -0.0088,0.0136 0.05772,0.0157 -0.118399,0.0684 0.04002,-0.0247 0.226529,-0.0918 0.474653,-0.17074 0.980396,-0.24238 1.482227,-0.17855 0.454852,0.0481 0.907635,0.11679 1.350611,0.23332 -0.403328,0.0777 0.464976,-0.0165 0.542932,-0.0122 0.5309,-0.0714 1.028802,-0.2859 1.542477,-0.42713 0.855648,-0.21005 1.714722,-0.44311 2.605708,-0.40085 0.742087,0.003 1.484945,0.005 2.225596,0.0565 0.366676,0.0337 0.726785,0.0727 1.087121,0.15111 0.163754,0.0356 0.649357,0.0899 0.486188,0.12813 -0.0818,0.0192 -0.166116,-0.0253 -0.24917,-0.0381 0.150489,0.027 0.352575,-0.0356 0.451459,0.0809 1.477291,1.74193 1.765816,1.52207 1.557747,2.68691 -0.05683,0.29894 -0.128506,0.594 -0.214515,0.88588 -0.0024,-0.0356 -0.0041,-0.14269 -0.0073,-0.10703 -0.03288,0.46683 -8.12e-4,0.93909 -0.05788,1.40512 -0.03889,0.46239 -0.07209,0.93573 -0.158891,1.38943 0.0909,0.77624 0.259934,1.54126 0.323018,2.32073 0.0937,0.90234 0.230483,1.80318 0.186313,2.71338 -0.0032,0.9054 -0.0065,1.81178 -0.07192,2.71532 -0.07306,0.84685 -0.182449,1.6908 -0.39008,2.51658 -0.05958,0.46284 -0.143183,0.89556 -0.11128,1.36386 -0.07387,1.24307 -0.836458,2.4138 -2.296993,2.39797 -0.267265,8.1e-4 -0.534521,0.002 -0.801786,0.002 -0.337265,-0.002 -0.675075,-0.009 -1.009986,-0.0529 -0.363688,-0.0545 -0.79068,-0.10273 -1.123838,-0.27161 -0.03085,-0.0157 0.06786,0.0136 0.101839,0.0205 0.938937,0.0519 -0.631628,-1.2e-4 -0.731713,0.0127 -0.754183,-0.018 -1.512863,-0.0436 -2.254488,-0.1938 -0.509007,-0.11409 -1.001088,-0.28428 -1.517442,-0.35709 -0.404294,-0.13568 -1.361724,0.059 -1.817868,-0.0206 -0.837358,2.3e-4 -1.674725,4.1e-4 -2.512084,0.002 -0.572927,0.002 -1.145862,0.006 -1.718789,0.006 -1.277575,-0.0411 -2.530747,-0.87761 -2.391713,-2.44875 0.02987,-0.36869 0.07363,-0.73709 0.154825,-1.09837 0.07728,-0.341 0.03215,-0.15449 0.09579,-0.40202 0.0093,-0.036 0.01875,-0.14409 0.02736,-0.10798 0.112075,0.46634 -0.07201,0.0505 -0.0024,-0.12678 -8.11e-4,-0.52582 -0.0016,-1.05163 0.0016,-1.57744 0.0073,-0.76672 0.01908,-1.53437 0.0868,-2.2986 0.06705,-0.701 0.196453,-1.39877 0.195812,-2.10311 0.0032,-0.93802 0.01031,-1.87671 0.07533,-2.81292 0.09103,-1.11531 0.225409,-2.2296 0.516671,-3.31295 0.836303,-2.92708 4.975818,-1.74436 4.139507,1.18272 z"
       inkscape:connector-curvature="0" />
    <path
       style="display:inline;opacity:1;fill:#1a1a1a;fill-opacity:1"
       id="path5013"
       d="m 67.286361,956.97737 c 0,1.00807 0,2.01613 0,3.0242 0,0.86547 0,1.73095 0,2.59643 0.01932,0.66192 0.0024,1.31329 -0.129999,1.96395 -0.08175,0.32693 -0.124318,0.65964 -0.142307,0.99541 -0.01275,0.57504 -0.166197,1.1336 -0.248715,1.70027 -0.03824,0.30149 -0.04871,0.60513 -0.05317,0.90867 -0.0032,0.31595 -0.0016,0.63194 -8.12e-4,0.94791 7.06e-4,0.33069 8.12e-4,0.66139 8.12e-4,0.99209 9.7e-5,0.22731 9.7e-5,0.45462 8.9e-5,0.68194 -0.02687,-0.064 0.02549,0.27265 -8e-6,0.20812 -0.555401,-1.40638 -0.315566,-1.56018 -1.578902,-2.03577 -0.455876,-0.0418 0.815002,-0.0218 0.81557,-0.0218 0.861972,-0.0398 1.716971,0.0529 2.573212,0.13691 1.107359,0.062 2.20949,0.16706 3.312929,0.27746 1.008848,0.0968 2.02226,0.12853 3.035045,0.14863 0.745302,-0.009 1.481935,0.12638 2.214995,0.24496 0.213898,0.0362 0.430093,0.0449 0.646451,0.0496 0.03953,3.8e-4 0.158014,-0.003 0.118691,8.1e-4 -0.871259,0.0956 -0.185453,-0.0558 0.03125,-0.12414 -0.248951,0.16347 0.845249,-0.28032 0.481779,-0.10851 -0.290035,0.1371 -0.582384,0.27074 -0.882827,0.38321 -0.05585,0.0209 0.186419,-0.14814 0.143727,-0.10651 -0.0937,0.0913 -0.19823,0.17085 -0.297341,0.25627 -0.463458,0.84027 0.0057,-0.23736 0.05406,-0.3675 0.160864,-0.3718 0.182506,-0.77139 0.210448,-1.16958 0.03474,-0.73191 0.03085,-1.46495 0.03109,-2.19747 -0.04083,-1.04669 0.03434,-2.08576 0.137363,-3.12624 0.08939,-0.91969 0.117425,-1.84374 0.136786,-2.7671 0.0073,-0.42831 0.01023,-0.8567 0.01088,-1.28507 4.14e-4,-0.26665 0.03166,-0.33064 -0.01478,-0.21581 -0.156951,-0.55257 0.0081,-0.0841 -0.204018,-0.57969 -0.05837,-0.16161 -0.328879,-0.82828 -0.06316,-0.19017 -0.573276,-0.89759 -0.01072,-0.0436 0.05025,0.0212 0.339416,0.2134 -0.214475,-0.12322 -0.359785,-0.17728 -0.01015,-0.004 0.02736,0.0268 0.01721,0.0296 -0.01518,0.004 -0.0315,-8.1e-4 -0.04725,-0.002 -0.538872,-0.0975 -1.073369,-0.21132 -1.619654,-0.26467 -0.709965,-0.0597 -1.423039,-0.0615 -2.134984,-0.0659 -0.879231,-0.003 -1.75847,-8.1e-4 -2.637701,-2.6e-4 -0.715274,6.8e-4 -1.430539,8.1e-4 -2.145805,8.1e-4 -0.612405,0.0517 -1.203978,-0.10209 -1.800033,-0.20932 -0.26638,-0.0519 -0.53824,-0.064 -0.808727,-0.0761 -0.222828,-0.006 -0.445753,-0.003 -0.668621,-0.003 -0.209409,4.6e-4 -0.102326,2.3e-4 -0.321232,6.4e-4 -3.044195,0.006 -3.052288,-4.29942 -0.0081,-4.30514 l 0,0 c 0.217867,-4.1e-4 0.110882,-1.9e-4 0.32094,-6.6e-4 0.291464,-5.6e-4 0.58305,-0.003 0.874384,0.007 0.469222,0.0219 0.939157,0.055 1.401097,0.14459 0.611771,0.11643 0.458522,0.15616 1.009189,0.13628 0.714292,-1.8e-4 1.428584,-5.1e-4 2.142876,-8.1e-4 0.889597,-8.1e-4 1.779202,-0.002 2.668799,3.3e-4 0.852069,0.006 1.705476,0.0108 2.554679,0.0891 0.680124,0.0737 1.347186,0.20417 2.018493,0.3253 0.728198,0.16027 1.29675,0.42101 1.761749,0.68031 0.5881,0.36687 0.963876,0.75711 1.341958,1.33085 0.04554,0.0691 -0.09144,-0.13783 -0.137159,-0.20674 0.236311,0.32977 0.434452,0.683 0.560823,1.06996 0.213102,0.54304 0.429736,1.07921 0.49985,1.66519 0.07176,0.72274 0.05958,1.44528 0.04213,2.17141 -0.022,1.03458 -0.05569,2.06978 -0.156765,3.10017 -0.08916,0.9007 -0.159751,1.79705 -0.116426,2.70379 -3.33e-4,0.8392 0.0041,1.67913 -0.04311,2.51734 -0.06348,0.81474 -0.169867,1.62803 -0.483996,2.38994 -0.230832,0.5613 -0.392085,1.15659 -0.80358,1.62579 -0.449097,0.43258 -0.824435,0.83087 -1.523611,0.9123 0.203904,-0.0917 -0.280018,0.0988 -0.303934,0.10661 -0.366132,0.11929 -0.750692,0.20602 -1.13845,0.18347 -0.412965,-0.0101 -0.825491,-0.0363 -1.233601,-0.10369 -0.534294,-0.0865 -1.07026,-0.2009 -1.613322,-0.19053 -1.127296,-0.0227 -2.255169,-0.0602 -3.377952,-0.1692 -1.100784,-0.11036 -2.199774,-0.21331 -3.304487,-0.27663 -0.714299,-0.0701 -1.423225,-0.15907 -2.14285,-0.11632 -0.548127,0.002 -1.099948,0.0209 -1.644105,-0.0567 -0.224752,-0.0745 -0.46496,-0.11289 -0.674255,-0.22364 -0.783837,-0.4148 -1.269587,-1.2727 -1.233243,-2.17535 0,-0.22662 8e-6,-0.45323 -8.9e-5,-0.67985 -1.54e-4,-0.32814 -4.14e-4,-0.65627 -8.12e-4,-0.9844 -7.79e-4,-0.34247 -0.0024,-0.68495 0.0016,-1.02741 0.0085,-0.49465 0.03142,-0.98943 0.100604,-1.47987 0.06835,-0.44545 0.185851,-0.8843 0.208459,-1.31722 0.03515,-0.55346 0.101579,-1.10395 0.231141,-1.64418 0.0073,-0.0289 -0.0065,-0.0912 0.02305,-0.0867 0.03044,0.005 0.0084,0.12257 0.01039,0.0918 0.02192,-0.35274 -0.01721,-0.70929 0,-1.06234 0,-0.86547 0,-1.73095 0,-2.59643 0,-1.00806 0,-2.01612 0,-3.02419 0,-3.04421 4.305152,-3.04421 4.305152,0 z"
       inkscape:connector-curvature="0" />
    <path
       style="display:inline;opacity:1;fill:#1a1a1a;fill-opacity:1"
       id="path5015"
       d="m 88.508627,957.80441 c -0.372562,0.33475 -0.630061,0.80521 -0.832983,1.2616 -0.220392,0.51988 -0.261745,1.08221 -0.291383,1.63915 -0.109267,0.8381 -0.205658,1.6754 -0.252985,2.51939 -0.0024,0.92968 -0.07014,1.85044 -0.191501,2.77164 -0.03499,0.65446 -0.216934,1.28233 -0.34803,1.91997 -0.04944,0.40295 -0.242789,0.78798 -0.348159,1.16391 -0.03945,0.23506 0.02557,0.73275 -0.05999,-0.32089 0.01015,5.9e-4 0.06973,0.14618 0.09883,0.20938 0.290043,0.4888 -0.842408,-0.76611 -1.299258,-1.10425 -0.07493,-0.0554 -0.181564,-0.0422 -0.273109,-0.0596 -0.03458,-0.006 -0.138978,-0.0204 -0.104802,-0.0121 0.263238,0.0641 0.528457,0.11965 0.792686,0.17948 0.272671,0.0936 0.615197,0.13479 0.925007,0.20311 0.758924,0.16472 1.51689,0.33432 2.270204,0.52381 0.696449,0.11437 1.377571,0.30346 2.072047,0.42746 0.674847,0.0695 1.338914,0.20936 1.993166,0.38571 0.396558,0.12902 0.803406,0.224 1.218928,0.26128 0.131184,0.0384 1.222219,0.005 0.414214,0.0386 0.387539,-0.13036 0.791923,-0.19553 1.195755,-0.25079 0.189349,-0.0226 0.379608,-0.0361 0.570004,-0.0454 0.03734,-0.002 0.147941,-0.0156 0.112149,-0.005 -1.207623,0.36784 -0.638463,0.019 -1.41583,0.63378 -0.07395,0.0984 -0.1479,0.1968 -0.221846,0.2952 -0.07444,0.17657 -0.111028,0.3745 -0.223444,0.5297 -0.123043,0.16987 0.130381,-0.39876 0.200536,-0.59642 0.01372,-0.46072 0.123359,-0.91078 0.209571,-1.36166 0.08543,-0.61103 0.128408,-1.2248 0.217331,-1.83604 0.116265,-0.94763 0.163251,-1.90014 0.269035,-2.84924 0.08499,-1.03809 0.263076,-2.06463 0.378804,-3.09917 0.08393,-0.76799 0.104096,-1.54053 0.115664,-2.31236 0.0057,-0.52776 0.0049,-1.05557 0.0032,-1.58336 -7.96e-4,-0.25707 -0.0016,-0.51416 -0.0016,-0.77123 0.02159,-0.50455 -0.285481,-0.55243 0.30455,0.91438 0.0565,0.14045 0.188587,0.23688 0.282884,0.35531 1.731405,0.97423 -0.506149,-0.12121 0.268004,0.21915 -0.446565,-0.035 -0.889403,-0.1591 -1.33798,-0.21211 -0.908301,-0.0813 -1.821432,-0.0848 -2.73266,-0.0933 -1.100435,-0.006 -2.200902,-0.005 -3.301353,-0.004 -0.672777,6.2e-4 -1.345546,8.1e-4 -2.018323,0.002 -3.044202,0.002 -3.046248,-4.3037 -0.0024,-4.30515 l 0,0 c 0.672339,-3.2e-4 1.344685,-8.1e-4 2.017024,-0.002 1.115063,-8.1e-4 2.230142,-0.002 3.345189,0.004 1.080324,0.0102 2.163297,0.0163 3.23898,0.12793 0.608345,0.0812 1.194667,0.21599 1.80039,0.29721 1.278841,0.35669 0.813151,0.36127 1.689281,0.84608 0.454585,0.53615 0.806066,1.07735 0.751206,1.84247 4.6e-4,0.2559 8.1e-4,0.51179 0.002,0.76769 0.002,0.55343 0.002,1.10688 -0.003,1.66029 -0.01413,0.91148 -0.04173,1.82362 -0.142414,2.73037 -0.117717,1.03242 -0.291716,2.05715 -0.378122,3.09313 -0.111507,0.99739 -0.152681,1.99962 -0.287754,2.99447 -0.0991,0.6739 -0.128295,1.3538 -0.24926,2.02499 -0.102447,0.53177 -0.182116,1.05683 -0.26086,1.59394 -0.03288,0.11968 -0.06129,0.24071 -0.09875,0.35905 -0.03101,0.0979 -0.06981,0.19307 -0.106498,0.28896 -0.0057,0.0138 -0.02184,0.0545 -0.01924,0.0399 0.01047,-0.0577 0.06559,-0.22458 0.04286,-0.17055 -0.401989,0.95521 -0.06088,0.40529 -0.537525,1.07581 -0.187661,0.15787 -0.343086,0.36507 -0.562983,0.47362 -0.558103,0.27549 -0.849925,0.31983 -1.341714,0.34354 -0.299436,0.0391 -0.587523,0.10546 -0.877047,0.19562 -0.587977,0.0759 -1.162008,0.10968 -1.753111,0.032 -0.664161,-0.0733 -1.321506,-0.19784 -1.958288,-0.40448 -0.506507,-0.17965 -1.05797,-0.19628 -1.582255,-0.28957 -0.786395,-0.14597 -1.560889,-0.34599 -2.348201,-0.48736 -0.712416,-0.17925 -1.428681,-0.34175 -2.146999,-0.49475 -0.521727,-0.11508 -1.056874,-0.18935 -1.553915,-0.39314 0.203507,0.0363 0.410919,0.0551 0.610521,0.10886 0.08826,0.0238 -0.183083,-0.006 -0.273613,-0.0181 -0.744084,-0.10361 -1.491554,-0.57393 -1.801559,-1.29637 -0.130617,-0.28292 -0.250859,-0.57124 -0.34182,-0.86965 -0.09145,-0.66149 -0.148914,-1.24332 0.0358,-1.89195 0.102626,-0.37362 0.252198,-0.71061 0.309551,-0.99852 0.114421,-0.52821 0.27039,-1.04253 0.290815,-1.58739 0.107846,-0.8162 0.159264,-1.62896 0.161489,-2.45338 0.04887,-0.84643 0.12469,-1.69019 0.253521,-2.52862 0.07038,-1.1194 0.230604,-2.23262 0.713066,-3.25895 0.568803,-1.13756 1.258351,-2.22847 2.320884,-2.96988 2.532931,-1.68862 4.920998,1.89348 2.388067,3.58211 z"
       inkscape:connector-curvature="0" />
    <path
       style="display:inline;opacity:1;fill:#1a1a1a;fill-opacity:1"
       id="path5017"
       d="m 47.905197,977.94646 c -0.191103,0.80679 -0.363697,1.61844 -0.53423,2.4302 -0.110484,0.71295 -0.21639,1.42632 -0.32374,2.14019 -0.06088,0.77255 -0.162601,1.53654 -0.292804,2.30033 -0.04473,0.57228 -0.230345,1.1153 -0.362991,1.66925 -0.0375,0.45348 -0.0925,0.90058 -0.195097,1.34534 -0.08831,0.30334 -0.119657,0.61202 -0.135268,0.92566 -0.0802,0.57022 -0.202094,1.1306 -0.263132,1.7035 -0.0332,0.36967 -0.03661,0.74103 -0.03897,1.11186 0.01615,0.6006 -0.136949,1.1856 -0.23964,1.7726 -0.02265,0.1357 -0.04603,0.2713 -0.06502,0.4075 0.26284,-2.44645 -3.407047,-2.42077 -1.60406,-2.42944 0.564298,0.0383 1.112823,-0.0454 1.670391,-0.11508 0.829915,-0.0886 1.650632,-0.24998 2.468954,-0.41259 0.887787,-0.17236 1.764558,-0.38443 2.661494,-0.50718 0.744985,-0.0888 1.495475,-0.10909 2.244933,-0.11771 0.436547,-0.002 0.87311,-6.6e-4 1.309665,8.1e-4 0.239883,8.1e-4 0.479774,0.002 0.719657,0.002 0.148265,-0.002 0.743833,0.006 0.211438,-0.004 0.444202,-0.13299 0.900045,-0.21026 1.360718,-0.25522 1.244657,-0.0696 0.900735,-0.3233 -1.504656,1.52181 -0.06551,0.52833 -0.03961,-0.70282 -0.0401,-0.78267 -0.04643,-0.90475 0.04749,-1.80181 0.132468,-2.70083 0.0772,-1.23753 0.319722,-2.45525 0.497747,-3.68015 0.213322,-1.06669 0.360531,-2.14401 0.573374,-3.21048 0.1039,-0.51076 0.180314,-1.02779 0.215367,-1.54799 -0.01096,-0.53268 0.120721,-1.04895 0.242042,-1.56299 0.0358,-0.15169 0.0716,-0.30338 0.107351,-0.45507 -0.214499,1.06457 0.323351,2.0226 1.316208,2.36523 -0.59711,-0.0192 -1.194805,-0.0203 -1.792273,-0.022 -0.874806,-8.2e-4 -1.749612,2.8e-4 -2.624427,8.1e-4 -0.615359,5.2e-4 -1.230727,7e-4 -1.846086,8.1e-4 0.479068,-0.0128 -0.636344,0.19554 -0.676024,0.20302 -0.632196,0.13201 -1.262037,0.0477 -1.872875,-0.14356 -0.199504,-0.0319 -0.400836,-0.0422 -0.602419,-0.0517 -0.168884,-0.008 -0.337963,-0.009 -0.506985,-0.01 -3.044163,-0.017 -3.020166,-4.32205 0.02403,-4.30508 l 0,0 c 0.23218,0.002 0.464416,0.003 0.696368,0.0147 0.56571,0.029 1.132947,0.0809 1.678322,0.24401 0.330283,0.10384 0.137646,0.0356 0.04863,0.031 -0.777498,-0.0405 -0.383326,0.0141 -0.204668,-0.021 0.472825,-0.0192 0.924122,-0.35084 1.415002,-0.26704 0.61441,-10e-5 1.228819,-2.9e-4 1.843228,-8e-4 0.880059,-7.3e-4 1.76011,-0.002 2.64016,-8.1e-4 0.813281,0.002 1.629818,-0.0117 2.439754,0.0728 1.492877,0.28355 2.464741,1.20931 2.214443,2.87685 -0.03588,0.15209 -0.07176,0.30417 -0.107627,0.45626 -0.108,0.45757 -0.141373,0.41149 -0.138337,0.8873 -0.05309,0.69796 -0.145391,1.39281 -0.287454,2.07853 -0.19875,0.99264 -0.330771,1.99632 -0.534992,2.98829 -0.168852,1.15312 -0.398441,2.29962 -0.471819,3.46459 -0.07184,0.75629 -0.162195,1.50664 -0.113358,2.26841 0.0041,0.60167 0.03726,1.21111 -0.07663,1.80511 -2.158835,1.8313 -1.182043,1.6966 -2.282291,1.7685 -0.209417,0.018 -0.413866,0.053 -0.614759,0.1183 -0.447132,0.1147 -0.901238,0.1821 -1.363259,0.1595 -0.244453,-3e-4 -0.488907,-7e-4 -0.73336,0 -0.414475,0 -0.828965,0 -1.243439,0 -0.576678,0.01 -1.154248,0.018 -1.728085,0.081 -0.806178,0.1007 -1.587905,0.3228 -2.387466,0.4619 -0.919187,0.1826 -1.842173,0.3579 -2.773894,0.4618 -0.725746,0.091 -1.450973,0.1815 -2.184179,0.1483 -1.244389,0.01 -2.905176,-0.6438 -2.681667,-2.4585 0.0263,-0.1902 0.05812,-0.3797 0.09026,-0.569 0.06876,-0.3906 0.175143,-0.7477 0.174899,-1.05697 0.0032,-0.51602 0.01234,-1.03266 0.06389,-1.54657 0.05406,-0.49369 0.110736,-1.01001 0.244762,-1.47915 0.03345,-0.56734 0.09877,-1.13089 0.245192,-1.6816 0.07322,-0.28792 0.08629,-0.9418 0.20785,-1.39756 0.115096,-0.44956 0.266056,-0.87805 0.294915,-1.34555 0.125754,-0.73754 0.212931,-1.47372 0.279807,-2.2195 0.120599,-0.79605 0.234557,-1.59188 0.368096,-2.3856 0.192532,-0.91046 0.382117,-1.82209 0.607274,-2.72479 0.836304,-2.92707 4.975811,-1.74436 4.139507,1.18272 z"
       inkscape:connector-curvature="0" />
    <path
       style="display:inline;opacity:1;fill:#1a1a1a;fill-opacity:1"
       id="path5019"
       d="m 45.704636,1000.0462 c -0.07404,0.8283 -0.265098,1.638 -0.401348,2.4566 -0.07615,0.4857 -0.103462,0.9769 -0.115542,1.4678 0.02768,0.6352 -0.05707,1.2597 -0.164508,1.884 -0.12987,0.5268 -0.298998,1.0416 -0.373171,1.5804 -0.02622,0.5331 -0.152567,1.0533 -0.249657,1.5764 -0.02598,0.4833 -0.207014,0.9344 -0.320591,1.3986 -0.02939,0.1916 -0.03385,0.3857 -0.04035,0.5793 -0.0073,0.036 0.0016,0.6273 -0.0049,0.3685 -3.779633,-2.3904 -3.47643,-1.8279 -1.165158,-2.2338 0.782522,-0.1001 1.558372,-0.2308 2.335886,-0.3636 0.867987,-0.1411 1.746268,-0.1872 2.624013,-0.2102 0.598547,-0.01 1.188222,-0.135 1.782531,-0.2043 0.606616,-0.064 1.21678,-0.082 1.826335,-0.09 0.412802,0 0.825637,0 1.238455,0 0.339067,7e-4 0.678143,0 1.01721,0 0.332151,10e-5 0.664302,10e-5 0.996453,10e-5 0.403142,0 0.806291,0 1.209433,0 0.247928,0 0.495848,0 0.743768,0 0.02062,0 0.08132,-0.01 0.06186,0 -0.42756,0.1491 -0.890044,0.2143 -1.289248,0.4279 -0.370029,0.1981 -0.399903,0.4027 -0.558672,0.6576 0.04213,-0.6914 0.09498,-1.3797 0.178901,-2.0675 0.09122,-1.0334 0.340756,-2.04 0.571905,-3.0481 0.179997,-0.6514 0.356236,-1.304 0.446799,-1.9747 0.03872,-0.3619 0.04132,-0.7264 0.04294,-1.09 1.6e-5,-0.337 -0.0024,-0.6739 -0.0032,-1.0109 -5.44e-4,-0.19956 -8.12e-4,-0.39926 -0.0016,-0.59886 0.009,-0.451 -0.249284,-0.4951 0.32961,1.06056 0.03556,0.096 0.246816,0.3248 0.187012,0.2421 -0.103414,-0.1427 -0.211909,-0.2819 -0.317864,-0.4228 0.06137,0.085 0.274011,0.31 0.184089,0.2557 -0.0608,-0.036 -0.300191,-0.3779 -0.365775,-0.4735 -0.03263,-0.048 -0.133409,-0.1877 -0.09518,-0.1445 0.08817,0.1 0.157941,0.2145 0.245663,0.3145 0.04002,0.045 0.0908,0.08 0.136194,0.1208 0.794342,0.366 0.03499,0.081 -0.188091,0.053 -0.558518,-0.052 -1.117466,0.06 -1.675075,0.1117 -0.866202,0.033 -1.720186,0.1746 -2.579536,0.2773 -0.817932,0.09 -1.64059,0.1178 -2.462744,0.1317 -0.502139,0.01 -1.004335,0.01 -1.506507,0 -0.0082,0 -0.445866,-8e-4 -0.447367,-8e-4 -0.04798,0 0.09928,-0.011 0.144173,0.01 0.02395,0.01 -0.04911,0.015 -0.07412,0.021 -0.04505,0.011 -0.368276,0.082 -0.424735,0.094 -0.404043,0.037 -0.715851,0.1526 -1.10645,0.2587 -0.425718,0.1263 -0.867209,0.17 -1.308797,0.1892 -0.866258,0.055 -1.605959,-0.3378 -2.176881,-0.946 -1.99267,-2.30136 1.262005,-5.11941 3.254675,-2.81806 l 0,0 c -0.427682,-0.43515 -0.732126,-0.45795 -1.339075,-0.53595 -0.03215,0 0.06486,0 0.09728,0 0.119438,0 0.231911,-4e-4 0.346057,-0.042 0.431465,-0.1166 0.858051,-0.26 1.304607,-0.3074 0.572521,-0.1264 1.147535,-0.264 1.739182,-0.2219 0.475455,8e-4 0.950944,0 1.426375,0 0.676024,-0.011 1.352543,-0.031 2.025418,-0.1021 0.897561,-0.1064 1.79073,-0.2527 2.69515,-0.2895 0.906929,-0.083 1.818388,-0.2306 2.727395,-0.079 0.722174,0.1192 1.411779,0.3106 2.038236,0.7028 0.53306,0.423 0.753022,0.7885 1.033494,1.13855 -0.07379,-0.09 -0.295969,-0.35795 -0.221366,-0.269 0.393067,0.4689 0.734806,0.9931 0.680115,1.6704 2.52e-4,0.197 6.9e-4,0.394 8.12e-4,0.59096 8.12e-4,0.3486 0.0041,0.6972 0.0032,1.0457 -0.0032,0.5593 -0.01396,1.1198 -0.08585,1.6753 -0.115461,0.7886 -0.287933,1.5662 -0.512993,2.3312 -0.198401,0.8634 -0.421829,1.7235 -0.494857,2.6096 -0.1074,0.8681 -0.109145,1.7458 -0.280051,2.6055 -0.318553,1.1287 -0.976385,2.1833 -2.385835,2.157 -0.247912,0 -0.495832,0 -0.743743,0 -0.40315,0 -0.8063,0 -1.20945,0 -0.332792,0 -0.665584,0 -0.998377,-10e-5 -0.340877,-2e-4 -0.681755,-5e-4 -1.022624,0 -0.391623,-7e-4 -0.783262,0 -1.174876,0 -0.464172,0.01 -0.928896,0.017 -1.391136,0.062 -0.720753,0.081 -1.435418,0.2399 -2.163835,0.2309 -0.672323,0.017 -1.345343,0.046 -2.010879,0.1505 -0.815026,0.1388 -1.629338,0.273 -2.44896,0.3814 -0.214311,0.028 -0.536786,0.099 -0.776344,0.08 -0.03815,0 0.134545,-0.032 0.102244,-0.052 -1.007858,-0.6397 -2.047238,-1.2284 -3.070853,-1.8425 -0.0073,-0.2444 -0.0024,-0.489 0.0024,-0.7334 0.01908,-0.5236 0.05626,-1.0481 0.188708,-1.5575 0.151796,-0.541 0.184576,-0.4828 0.242059,-1.0549 0.08915,-0.4791 0.206121,-0.9403 0.224824,-1.4285 0.08797,-0.5648 0.196096,-1.1324 0.387929,-1.672 0.07428,-0.4316 0.139067,-0.8122 0.103568,-1.266 0.01883,-0.692 0.06226,-1.3842 0.173495,-2.0683 0.132557,-0.7841 0.314949,-1.559 0.385201,-2.35256 0.430516,-3.01355 4.6924,-2.40475 4.261884,0.60876 z"
       inkscape:connector-curvature="0" />
    <path
       style="display:inline;opacity:1;fill:#1a1a1a;fill-opacity:1"
       id="path5021"
       d="m 68.601928,980.08813 c -0.315916,0.44663 -0.663994,0.89546 -0.847003,1.41613 -0.267411,0.63021 -0.449779,1.29476 -0.612169,1.9592 -0.115249,0.7005 -0.245679,1.39887 -0.406551,2.09077 -0.140659,0.74564 -0.407875,1.45084 -0.699672,2.14763 -0.156261,0.55573 -0.472501,1.046 -0.684499,1.57716 -0.08158,0.13586 -0.07598,0.24105 -0.07444,0.28704 -0.0088,0.25952 -0.0057,0.51929 -0.0041,0.77891 0.0016,0.26532 0.0024,0.53063 0.0032,0.79596 -0.01421,0.87586 0.279093,0.18062 -0.814644,-1.41844 -0.117101,-0.17121 -0.362829,-0.20115 -0.544247,-0.30173 -0.794748,-0.14175 -0.231822,-0.1029 0.02541,-0.10385 0.780485,-0.003 1.560986,-0.003 2.341471,-0.004 1.192662,-5e-4 2.385332,-4.9e-4 3.577993,-5.1e-4 1.012226,0 2.024452,2e-5 3.036678,4e-5 0.418273,-0.0601 0.832277,-0.14518 1.249868,-0.2099 0.295329,-0.0401 0.592638,-0.0649 0.890401,-0.0768 0.174802,-0.004 0.349718,-0.002 0.524569,-8.2e-4 0.145992,3.4e-4 0.291992,6.3e-4 0.437992,8.2e-4 -0.877786,0.24019 -1.164525,0.19171 -1.651224,0.84249 -0.06795,0.0908 -0.05691,0.25543 -0.1614,0.29959 -0.09271,0.0392 0.07606,-0.18638 0.11404,-0.27957 0.117904,-0.38309 0.271616,-0.75425 0.354962,-1.14756 0.150441,-0.71906 0.241036,-1.44858 0.362236,-2.17305 0.127645,-0.82836 0.2901,-1.64978 0.433681,-2.47528 0.22631,-0.8017 0.311101,-1.62863 0.451541,-2.44619 0.09318,-0.49201 0.207671,-0.98005 0.262986,-1.47824 5.04e-4,-0.49194 0.05674,-0.97244 0.177709,-1.45025 0.06056,-0.21998 0.120558,-0.44013 0.179916,-0.66044 0.284881,-1.05723 0.06746,-0.8295 1.714495,2.62983 0.0057,0.0113 -0.736916,-0.19034 -0.839997,-0.22004 -0.387969,-0.0253 -0.777343,-0.0368 -1.166376,-0.0446 -0.823599,-0.0219 -1.642141,-0.022 -2.461502,0.0621 -0.807128,0.0959 -1.616886,0.16183 -2.428803,0.19718 -0.59254,0.0215 -1.18555,0.0225 -1.778399,0.0228 -0.490263,0.0868 -0.940334,-0.25059 -1.412193,-0.26891 -0.199887,-0.0214 -0.402217,-0.0194 -0.603158,-0.0215 -0.20414,-8.1e-4 -0.408281,-8.1e-4 -0.612421,3.9e-4 -0.137582,8.1e-4 -0.275171,8.1e-4 -0.412753,8.1e-4 -0.368527,0.007 0.19849,-0.0213 0.289012,-0.0292 -2.818964,1.14918 -4.444154,-2.83744 -1.62519,-3.98662 l 0,0 c 0.426294,-0.16702 0.867354,-0.30987 1.334457,-0.2893 0.128936,-4e-5 0.25788,7e-5 0.386817,-8.1e-4 0.229191,-0.002 0.458392,-0.002 0.687583,-2.2e-4 0.433803,0.005 0.869717,0.012 1.298414,0.0858 0.04327,0.008 1.188237,0.22494 0.667037,0.20435 0.532225,-2.9e-4 1.064595,-6.9e-4 1.596567,-0.0188 0.729302,-0.0306 1.456217,-0.0936 2.181143,-0.17941 0.992881,-0.0987 1.985315,-0.11244 2.982596,-0.0829 0.781865,0.0166 1.576037,0.0217 2.335318,0.23163 0.687259,0.21434 0.03215,7e-4 0.07184,0.0601 1.806,2.6997 2.257516,1.63627 1.952349,2.76746 -0.06226,0.23102 -0.125129,0.46187 -0.188692,0.69253 -0.01599,-0.61221 -0.0057,0.73739 -0.04895,0.7909 -0.069,0.58616 -0.182133,1.16448 -0.301733,1.7422 -0.155092,0.81058 -0.209717,1.64191 -0.449877,2.43678 -0.145642,0.81802 -0.303738,1.63234 -0.429955,2.45386 -0.142753,0.80716 -0.240183,1.62209 -0.41294,2.42421 -0.15169,0.62737 -0.359516,1.23684 -0.580623,1.84261 -0.0978,0.1969 -0.156399,0.4144 -0.275228,0.5994 -0.549775,0.856 -0.941008,0.8558 -1.9997,1.171 -0.147697,-2e-4 -0.295393,-5e-4 -0.443082,-8e-4 -0.11697,-3e-4 -0.234282,0 -0.351114,0 -0.132598,0.01 -0.264919,0.016 -0.396907,0.03 -0.633787,0.097 -1.260909,0.2481 -1.905395,0.2601 -1.012194,0 -2.024387,0 -3.036572,0 -1.191867,0 -2.383733,0 -3.575599,5e-4 -0.776004,4e-4 -1.552016,7e-4 -2.32802,0 -0.494589,0 -0.985161,0.018 -1.464513,-0.1381 -0.213005,-0.1117 -0.496643,-0.1411 -0.639031,-0.3349 -0.82838,-1.1276 -0.888047,-1.1949 -0.884012,-1.99906 -5.44e-4,-0.26039 -0.0016,-0.52078 -0.0032,-0.78117 -0.0024,-0.36856 -0.0065,-0.7375 0.01461,-1.10566 0.0496,-0.59117 0.1733,-1.16586 0.423737,-1.70749 0.226773,-0.50478 0.494265,-0.98518 0.658944,-1.51745 0.202176,-0.48228 0.399643,-0.96006 0.482453,-1.48176 0.174973,-0.70373 0.271413,-1.42289 0.416707,-2.13246 0.22135,-0.8791 0.465706,-1.75841 0.823242,-2.5929 0.501067,-1.12884 1.152024,-2.19662 2.057605,-3.05021 2.338621,-1.94885 5.094713,1.35846 2.756091,3.30731 z"
       inkscape:connector-curvature="0" />
    <path
       style="display:inline;opacity:1;fill:#1a1a1a;fill-opacity:1"
       id="path5023"
       d="m 86.803054,977.64211 c 0.03572,0.95705 -0.09416,1.90702 -0.182052,2.8577 -0.05342,0.82913 -0.236327,1.64173 -0.321297,2.46735 -0.11033,0.67581 -0.253172,1.34443 -0.316768,2.02686 -0.0328,0.54758 -0.04051,1.09192 -0.09898,1.63753 -0.07314,0.43246 -0.168819,0.86165 -0.208321,1.29903 -0.02159,0.25642 -0.02151,0.51415 -0.02257,0.77131 -1.94e-4,0.2688 8.12e-4,0.53761 0.0016,0.80643 4.06e-4,0.21911 5.28e-4,0.43822 6.09e-4,0.65734 -0.009,0.5773 0.204976,0.0888 -0.416561,-1.13582 -0.09484,-0.18686 -0.301262,-0.29133 -0.451897,-0.43701 -0.877072,-0.37959 0.36295,-0.12708 0.552315,-0.10367 0.987191,0.11153 1.938346,0.40702 2.909755,0.60004 1.034436,0.17006 2.068069,0.34567 3.097399,0.54468 0.870561,0.12904 1.740334,0.25153 2.608611,0.39709 0.412972,0.0675 0.828729,0.1142 1.246175,0.14175 0.239266,0.004 -0.05609,0.009 -0.115989,0.0123 -1.759159,1.11689 -1.932232,1.79393 -1.544531,0.58997 0.285287,-0.68641 0.321273,-1.43463 0.374616,-2.16688 0.0548,-1.03811 0.202103,-2.06802 0.281934,-3.1044 0.05934,-0.82728 0.04075,-1.65641 0.116605,-2.48206 0.09241,-0.56534 0.175784,-1.13053 0.21268,-1.70234 0.02387,-0.45649 0.02679,-0.9137 0.02817,-1.37071 2.92e-4,-0.30779 -5.28e-4,-0.61557 -0.0016,-0.92336 -1.7e-4,-0.0611 -3.57e-4,-0.12228 -5.92e-4,-0.18342 1.933564,1.85935 3.001356,2.60134 0.822771,1.91502 -0.263807,-0.0377 -0.532557,-0.0387 -0.798604,-0.046 -0.77904,-0.0131 -1.558247,-0.0106 -2.337368,-0.0103 -0.885271,6.7e-4 -1.770549,0.002 -2.65582,0.002 -0.747623,2.3e-4 -1.495247,2.6e-4 -2.242871,2.8e-4 -0.524942,10e-6 -1.049876,0 -1.574819,-10e-6 -0.520843,-0.002 -1.009311,-0.18539 -1.518359,-0.25911 -0.07436,-0.0132 -0.150124,-0.0179 -0.224995,-0.0246 -3.035419,-0.23108 -2.70861,-4.52382 0.32681,-4.29273 l 0,0 c 0.18085,0.0154 0.36144,0.0318 0.540829,0.0604 0.01096,0.002 1.263401,0.2076 0.875748,0.21089 0.524901,10e-6 1.049795,2e-5 1.574697,10e-6 0.747128,-2e-5 1.494257,-5e-5 2.241385,-2.8e-4 0.885255,-3.2e-4 1.770501,-8.1e-4 2.655755,-0.002 0.821261,-3.2e-4 1.642616,-0.003 2.463771,0.0121 0.662549,0.02 1.3316,0.0467 1.969997,0.24392 0.216991,0.0687 0.622528,0.13766 -0.243244,0.0269 -0.08684,-0.0111 0.198434,-0.0596 0.262646,-5e-5 0.745237,0.6906 1.444519,1.42917 2.166782,2.14376 2.44e-4,0.0638 4.39e-4,0.12766 6.17e-4,0.19149 8.12e-4,0.31609 0.0016,0.63218 0.0016,0.94827 -0.0016,0.54898 -0.0065,1.09823 -0.03791,1.64647 -0.04376,0.63221 -0.116223,1.26114 -0.228883,1.88509 -0.142168,0.76228 0.02979,1.57597 -0.103592,2.34335 -0.08069,1.0328 -0.223761,2.05941 -0.281106,3.09366 -0.08227,1.07093 -0.176483,2.15929 -0.571312,3.16893 -0.477314,1.4719 -0.279327,1.1518 -2.158737,2.3728 -0.189114,0.011 -0.377741,0.013 -0.566741,0 -0.558948,-0.038 -1.115916,-0.1001 -1.66884,-0.1914 -0.903443,-0.1516 -1.808879,-0.2735 -2.713697,-0.416 -1.041207,-0.2014 -2.087081,-0.3763 -3.132972,-0.5517 -0.878232,-0.1798 -1.740821,-0.4366 -2.630938,-0.5532 -0.792101,-0.1287 -1.609246,-0.081 -2.314284,-0.5468 -0.657036,-0.5794 -1.156992,-0.99116 -1.100597,-2.04183 -8.1e-5,-0.21707 -2.03e-4,-0.43413 -6.01e-4,-0.65121 -4.95e-4,-0.27795 -0.0016,-0.55591 -0.0016,-0.83387 0.0016,-0.39381 0.0057,-0.78826 0.04392,-1.18057 0.05179,-0.4945 0.130064,-0.98526 0.229265,-1.47252 0.02752,-0.37596 0.03117,-0.98978 0.0768,-1.45101 0.06924,-0.69509 0.178252,-1.38393 0.32094,-2.06787 0.08809,-0.80537 0.249697,-1.60001 0.315314,-2.40732 0.07598,-0.81908 0.197703,-1.63619 0.163713,-2.46073 0,-3.0442 4.305153,-3.0442 4.305153,0 z"
       inkscape:connector-curvature="0" />
    <path
       style="display:inline;opacity:1;fill:#1a1a1a;fill-opacity:1"
       id="path5025"
       d="m 65.851316,999.45484 c 0.03742,1.02896 -0.041,2.05146 -0.139993,3.07456 -0.07996,0.8744 -0.109283,1.748 -0.246597,2.6161 -0.12163,0.6366 -0.151041,1.2845 -0.17192,1.9307 0.02784,0.7322 -0.108398,1.4499 -0.213662,2.1702 -0.0371,0.5283 -0.232602,1.024 -0.353785,1.5344 -0.01648,0.075 -0.0328,0.149 -0.047,0.2239 -1.149061,-0.6757 -2.438203,-1.1558 -3.44719,-2.0269 -0.190113,-0.1641 0.415603,-0.2854 0.641409,-0.3954 0.489979,-0.2386 1.057564,-0.2846 1.591217,-0.3182 0.853408,-0.045 1.702424,-0.01 2.551505,0.08 1.021764,0.1166 2.049658,0.1544 3.076991,0.1794 1.074693,-0.028 2.140634,0.091 3.206877,0.2053 0.688533,0.035 1.36075,0.123 2.01924,0.3317 0.115736,0.045 0.219499,0.045 0.340147,0.052 0.929967,-0.4809 -0.686196,0.1258 -0.535155,0.03 0.21803,-0.1377 0.576653,-0.1679 0.821854,-0.2184 1.19698,-0.2697 -0.638983,0.303 0.275788,-0.093 0.02403,-0.01 0.09363,-0.046 0.07201,-0.032 -0.595519,0.405 -0.728441,0.4836 -0.872103,0.7309 0.206364,-0.583 0.32439,-1.1951 0.436571,-1.8027 0.106669,-0.8416 0.210488,-1.6834 0.320128,-2.525 0.05618,-0.8587 0.225458,-1.703 0.327183,-2.5562 0.150197,-0.7875 0.282348,-1.5757 0.345237,-2.3751 0.04254,-0.61986 0.04716,-1.24136 0.04968,-1.86236 6.9e-4,-0.4347 -3.16e-4,-0.86935 -0.0016,-1.30405 -2.6e-4,-0.077 -8.12e-4,-0.1542 -8.12e-4,-0.2313 0.366132,1.18995 0.121086,1.09795 0.964801,1.76955 0.08585,0.068 0.196201,0.098 0.295288,0.1455 0.02257,0.01 0.06275,0 0.06965,0.028 5.44e-4,0 -0.04789,0 -0.205049,-0.011 0.03166,0.01 0.124609,0.01 0.0949,0.02 -0.294143,0.1266 -1.515267,0.1633 -1.871568,0.1861 -0.903073,0.047 -1.807591,0.054 -2.711679,0.058 -0.576604,0 -1.153225,8e-4 -1.729837,3e-4 -0.413939,-5e-4 -0.827877,-7e-4 -1.241816,-8e-4 -0.407639,-10e-5 -0.815278,-10e-5 -1.222917,-10e-5 -0.05707,0 -0.228145,0.01 -0.171279,0 0.708788,-0.063 -0.148606,0.1153 -0.305654,0.1537 -0.425052,0.098 -0.861055,0.1218 -1.295516,0.1323 -0.208605,0 -0.417242,0 -0.625871,0 -0.195454,-7e-4 -0.390917,-8e-4 -0.586371,-8e-4 -0.08822,-10e-5 -0.047,0 -0.123667,-10e-5 -3.044203,0 -3.041971,-4.30665 0.0024,-4.30505 l 0,0 c 0.07753,0 0.03588,0 0.124975,10e-5 0.200454,10e-5 0.400909,4e-4 0.601356,8e-4 0.170743,7e-4 0.341494,0 0.512221,-8e-4 0.143175,0 0.288347,0 0.429566,-0.025 0.470641,-0.1224 0.939798,-0.2973 1.437984,-0.2623 0.407988,0 0.815976,0 1.223964,0 0.41527,10e-5 0.83054,3e-4 1.245809,8e-4 0.567472,7e-4 1.134952,0 1.702424,-2e-4 0.821099,0 1.642571,-0.01 2.462841,-0.05 0.79625,-0.049 1.58275,-0.1766 2.379861,-0.2022 0.857158,0.072 1.906515,0.2312 2.408191,1.0521 0.239088,0.3913 0.293559,0.8689 0.440338,1.3033 1.54e-4,0.073 8.12e-4,0.1469 8.12e-4,0.2204 0.0016,0.4459 0.0024,0.89185 0.0016,1.33775 -0.0032,0.7311 -0.01055,1.4626 -0.06364,2.19206 -0.07071,0.856 -0.185558,1.7065 -0.36269,2.5476 -0.106823,0.8657 -0.2722,1.7222 -0.331883,2.5934 -0.12025,0.9203 -0.228307,1.8411 -0.357381,2.7599 -0.155206,0.8214 -0.324975,1.6466 -0.605691,2.4355 -0.306718,0.7799 -0.717409,1.4921 -1.554841,1.828 -0.363494,0.1569 -0.764882,0.3274 -1.141373,0.3629 -0.464277,0.082 -0.908463,0.3451 -1.410968,0.2619 -0.470877,-0.032 -0.937849,-0.1024 -1.387085,-0.253 -0.05001,-0.018 -0.164451,-8e-4 -0.150164,-0.052 0.0073,-0.025 0.104087,0 0.07818,-0.01 -0.356967,-0.041 -0.719625,-0.036 -1.075732,-0.088 -0.949734,-0.1016 -1.897106,-0.2151 -2.854918,-0.1823 -1.140992,-0.029 -2.282446,-0.072 -3.417317,-0.2013 -0.625352,-0.066 -1.247944,-0.098 -1.87742,-0.063 -0.22972,0.01 -0.165581,0.031 0.02249,-0.089 1.575379,-1.0066 -0.582741,-0.7371 -3.293267,-2.1091 0.03133,-0.2003 0.07371,-0.3986 0.11986,-0.5961 0.09537,-0.3901 0.243179,-0.7584 0.279044,-1.1493 0.08336,-0.5626 0.205764,-1.1132 0.170118,-1.6864 0.02825,-0.8272 0.07339,-1.6557 0.224208,-2.4713 0.128132,-0.7768 0.121435,-1.5647 0.211949,-2.347 0.08582,-0.8857 0.159622,-1.7684 0.119958,-2.65966 0,-3.04425 4.305161,-3.04425 4.305161,0 z"
       inkscape:connector-curvature="0" />
    <path
       style="display:inline;opacity:1;fill:#1a1a1a;fill-opacity:1"
       id="path5099"
       d="m 87.285994,1000.28 c -0.254788,0.6521 -0.603653,1.2553 -0.756781,1.942 -0.194285,0.6265 -0.310086,1.2706 -0.362511,1.9233 -0.112449,0.7923 -0.232521,1.5825 -0.420206,2.3606 -0.09513,0.3666 -0.157608,0.7379 -0.181897,1.1153 -0.0057,0.5034 -0.168633,0.9827 -0.25607,1.4738 -0.02582,0.4446 -0.171994,0.8679 -0.278167,1.2972 -0.02663,0.3845 -0.215027,0.7335 -0.294825,1.1048 -0.03604,0.1409 -0.03661,0.2879 -0.04254,0.4326 -0.0041,0.01 -6.82e-4,0.2059 -0.0032,0.098 -0.10671,-2.2169 -3.333654,-2.0626 -1.41372,-2.0698 0.85823,-0.023 1.710858,0 2.564778,0.09 0.787977,0.096 1.580063,0.149 2.373122,0.176 0.634168,0.018 1.268613,0.019 1.902976,0.019 0.533969,-0.1181 1.083566,-0.1767 1.628283,-0.2277 0.55355,-0.045 1.108958,-0.058 1.664072,-0.062 0.532613,-0.055 1.011974,0.1598 1.505013,0.3037 -0.466802,-0.1978 -0.877948,0.045 -1.327264,0.2974 0.149864,-0.1286 0.324552,-0.2551 0.457328,-0.3765 -0.72258,0.9803 0.19323,-0.5312 -0.177375,0.1421 0.196947,-0.3838 0.2204,-0.7865 0.25141,-1.2085 0.122028,-0.9157 0.234144,-1.8315 0.401291,-2.7401 0.15277,-0.8837 0.345205,-1.7612 0.547064,-2.6351 0.119779,-0.6842 0.304063,-1.3537 0.451865,-2.0317 0.01,-0.058 0.01567,-0.1171 0.02996,-0.1742 0.120737,-0.4819 0.109096,-0.4185 0.273337,-0.8335 0.0065,-0.015 0.08391,-0.2096 0.09045,-0.2305 0.0049,-0.016 -0.01494,0.031 -0.02241,0.046 -0.03409,0.1005 -0.0016,-0.1457 3.16e-4,-0.1941 -0.02281,0.5975 0.322783,0.9138 0.63179,1.5427 -0.02078,-0.02 -0.0853,-0.078 -0.06226,-0.06 0.29795,0.2254 0.369104,0.323 0.697723,0.4151 -0.367764,0 -0.725007,-0.035 -1.090782,-0.08 -0.39159,-0.092 -0.787377,-0.1628 -1.188538,-0.1936 -0.534822,-0.091 -1.058198,-0.2211 -1.599051,-0.2714 -0.583307,-0.1108 -1.159659,-0.2314 -1.751144,-0.2859 -0.56761,-0.098 -1.126087,-0.2273 -1.698795,-0.2919 -0.333864,-0.031 -0.669351,-0.036 -1.004384,-0.038 -0.316215,-8e-4 -0.632439,4e-4 -0.948663,0 -0.266729,7e-4 -0.533466,8e-4 -0.800195,8e-4 -0.811552,0.041 -1.038049,-0.1755 -2.016699,-0.5497 -0.828453,-1.66186 -0.762382,-0.94766 -0.744117,-2.01866 0.28881,-3.03045 4.574544,-2.62205 4.285734,0.4084 l 0,0 c -0.025,-0.8289 0.04124,-0.2246 -0.746422,-1.66395 -2.240533,-0.7941 -1.507189,-0.4312 -0.779803,-0.4812 0.263393,0 0.526793,-1e-4 0.790194,-8e-4 0.330966,-8e-4 0.66194,0 0.992913,-8e-4 0.48825,0 0.977084,0.015 1.46306,0.066 0.542218,0.063 1.085376,0.1399 1.613071,0.2828 0.595421,0.057 1.192317,0.1305 1.770821,0.2878 0.511532,0.053 1.064108,0.1162 1.537501,0.2658 0.530479,0.047 1.059391,0.1186 1.577579,0.24455 -0.05309,7e-4 -0.212128,0 -0.159272,0 0.364598,0.035 0.738629,-0.018 1.101417,0.054 0.63765,0.1126 1.252847,0.3144 1.726298,0.7874 0.405472,0.7799 0.753611,1.0678 0.702101,1.78686 -0.0205,0.393 -0.0644,0.7856 -0.16102,1.1679 -0.142347,0.4527 -0.263019,0.6138 -0.304916,0.9289 -0.152307,0.6947 -0.340545,1.38 -0.462922,2.0811 -0.187449,0.8115 -0.369444,1.6254 -0.507959,2.4466 -0.141406,0.7652 -0.230475,1.5365 -0.343947,2.3063 -0.06575,0.7713 -0.152315,1.5563 -0.474367,2.2704 -0.242124,0.6144 -0.547161,1.1617 -1.005651,1.6448 -0.17274,0.1551 -0.351934,0.3019 -0.534911,0.4448 -0.235305,0.1489 -0.462565,0.3114 -0.705922,0.4468 -0.607729,0.3382 -1.394854,0.2742 -2.04193,0.1064 -0.401729,-0.1259 -0.633255,-0.1638 -0.0401,-0.1137 0.05309,0.01 -0.106539,4e-4 -0.159808,7e-4 -0.436739,0 -0.873732,0.012 -1.309443,0.045 -0.677517,0.06 -1.343248,0.2019 -2.02243,0.2456 -0.683704,-3e-4 -1.367513,0 -2.050989,-0.022 -0.892788,-0.032 -1.78465,-0.09 -2.671885,-0.1969 -0.699298,-0.075 -1.396404,-0.084 -2.099939,-0.067 -1.211885,0.01 -2.797266,-0.014 -2.904876,-2.0825 -0.0041,-0.1478 -0.0016,-0.2956 0.0049,-0.4433 0.02143,-0.4581 0.06437,-0.9166 0.186548,-1.3604 0.185478,-0.6594 0.171109,-0.4172 0.2741,-1.0248 0.172586,-0.69 0.144288,-0.3606 0.219662,-1.0251 0.07542,-0.4112 0.192012,-0.7447 0.198482,-1.0197 0.04741,-0.6124 0.137939,-1.2191 0.291424,-1.8147 0.138182,-0.5675 0.217169,-1.144 0.315395,-1.72 0.07923,-0.8704 0.214426,-1.7356 0.469668,-2.5737 0.232285,-0.9123 0.599951,-1.75786 0.981532,-2.61466 1.199172,-2.79805 5.15623,-1.10215 3.957066,1.69586 z"
       inkscape:connector-curvature="0" />
  </g>
</svg>
