<?xml version="1.0" encoding="UTF-8" standalone="no"?>
<!-- Created with Inkscape (http://www.inkscape.org/) -->

<svg
   xmlns:dc="http://purl.org/dc/elements/1.1/"
   xmlns:cc="http://creativecommons.org/ns#"
   xmlns:rdf="http://www.w3.org/1999/02/22-rdf-syntax-ns#"
   xmlns:svg="http://www.w3.org/2000/svg"
   xmlns="http://www.w3.org/2000/svg"
   xmlns:sodipodi="http://sodipodi.sourceforge.net/DTD/sodipodi-0.dtd"
   xmlns:inkscape="http://www.inkscape.org/namespaces/inkscape"
   width="100pt"
   height="100pt"
   viewBox="0 0 125 125"
   id="svg4469"
   version="1.1"
   inkscape:version="0.91 r13725"
   sodipodi:docname="scene1c_key-200-200.svg">
  <defs
     id="defs4471" />
  <sodipodi:namedview
     id="base"
     pagecolor="#ffffff"
     bordercolor="#666666"
     borderopacity="1.0"
     inkscape:pageopacity="0.0"
     inkscape:pageshadow="2"
     inkscape:zoom="1.979899"
     inkscape:cx="71.577136"
     inkscape:cy="61.880618"
     inkscape:document-units="px"
     inkscape:current-layer="layer2"
     showgrid="false"
     units="pt"
     inkscape:showpageshadow="false"
     inkscape:window-width="1855"
     inkscape:window-height="1056"
     inkscape:window-x="65"
     inkscape:window-y="24"
     inkscape:window-maximized="1" />
  <metadata
     id="metadata4474">
    <rdf:RDF>
      <cc:Work
         rdf:about="">
        <dc:format>image/svg+xml</dc:format>
        <dc:type
           rdf:resource="http://purl.org/dc/dcmitype/StillImage" />
        <dc:title />
      </cc:Work>
    </rdf:RDF>
  </metadata>
  <g
     inkscape:groupmode="layer"
     id="layer2"
     inkscape:label="Paint"
     transform="translate(0,-250)">
    <path
       style="fill:#ffcc00;fill-opacity:1"
       id="path4159"
       d="m 26.041866,306.83258 c 1.24078,-0.14455 2.490798,-0.0618 3.735457,-0.12264 1.669409,-0.0425 3.338411,-0.0992 5.007696,-0.14465 1.561242,-0.0701 3.122344,-0.0876 4.684747,-0.0659 0.852167,-0.0164 1.709904,0.0412 2.560205,-0.0348 0.99002,-0.0938 1.981532,-0.10641 2.974511,-0.07 0.927707,0.0891 1.858324,0.0858 2.788903,0.11781 0.93605,-0.0467 1.869159,0.0705 2.80285,0.10635 0.101086,-0.0556 1.051763,-0.10226 1.442639,-0.11259 0.566469,0.008 1.134517,0.007 1.711462,0.01 0.624938,0.0346 1.239636,-0.0401 1.858909,-0.10514 1.201758,-0.13083 2.406516,-0.19951 3.61514,-0.20081 0.622003,-0.0346 1.237331,-0.14655 1.853362,-0.23516 0.710574,-0.13774 1.432175,-0.19603 2.15255,-0.25406 0.61999,-0.0617 1.244949,-0.0649 1.86722,-0.0461 0.466394,0.014 0.611892,0.0902 0.448202,0.009 0.708763,-0.0306 1.418478,-0.0973 2.125361,-0.16859 1.083601,-0.0547 2.170411,-0.0326 3.251069,-0.13715 0.846753,-0.0924 1.683666,-0.24903 2.530214,-0.34585 1.036186,-0.13569 2.077625,-0.15873 3.119607,-0.0982 0.621676,0.0488 1.244948,0.11539 1.868536,0.13395 0.987357,0.008 1.970894,0.11476 2.955639,0.18056 0.459095,0.0286 0.917626,0.0646 1.376048,0.1021 8.557201,0.70631 7.558341,12.80801 -0.998853,12.10171 l 0,0 c -0.3958,-0.033 -0.791788,-0.0633 -1.188205,-0.0881 -0.904367,-0.0606 -1.807111,-0.16189 -2.71398,-0.1668 -0.712838,-0.0373 -1.426054,-0.0855 -2.13681,-0.14951 -0.0094,-0.003 -0.03797,-0.005 -0.02854,-0.009 0.02925,-0.01 0.122274,-0.0125 0.09152,-0.0121 -0.349265,0.005 -0.647697,0.0315 -1.045724,0.078 -0.91966,0.0754 -1.821539,0.32706 -2.746466,0.36717 -1.050772,0.0904 -2.11309,0.15529 -3.168469,0.15092 -0.01317,1.4e-4 0.02103,-0.0164 0.03154,-0.0246 -1.040259,0.10177 -2.083806,0.19604 -3.128671,0.22621 -0.546089,4e-5 -1.070469,-0.0405 -1.56043,0.002 -0.464672,0.0341 -0.918786,0.0689 -1.379635,0.16849 -1.185228,0.16884 -2.371728,0.35894 -3.572839,0.35784 -0.785208,-8.3e-4 -1.566964,0.0476 -2.348529,0.13434 -1.063727,0.11174 -2.128617,0.20055 -3.199463,0.17141 -0.485935,-0.004 -1.009717,-0.003 -1.462268,-0.011 0.04607,-0.0113 -0.09503,-0.002 -0.142182,0.003 -0.682394,0.0687 -0.740524,0.0929 -1.411115,0.10332 -0.220431,0.003 -0.440889,-0.005 -0.661331,-0.007 -0.878556,-0.0468 -1.756008,-0.13396 -2.637245,-0.0994 -0.962348,-0.0353 -1.926705,-0.0304 -2.886274,-0.12163 -0.536714,-0.0344 -1.07145,0.009 -1.607049,0.0522 -1.188579,0.0752 -2.379166,0.0751 -3.569812,0.0629 -1.398463,-0.0194 -2.795156,-0.002 -4.192625,0.0628 -1.616453,0.042 -3.23253,0.10111 -4.849145,0.13939 -0.742545,0.026 -1.48226,0.0389 -2.225101,0.0428 -0.08655,4.3e-4 -0.173049,-0.005 -0.259578,-0.004 -0.0922,7.9e-4 -0.323652,0.0877 -0.276549,0.008 0.05101,-0.0859 0.197784,-0.0282 0.296669,-0.0423 -8.496339,1.23966 -10.249476,-10.77598 -1.753137,-12.01563 z"
       inkscape:connector-curvature="0" />
    <path
       style="fill:#ffcc00;fill-opacity:1"
       id="path4161"
       d="m 87.177437,310.85713 c 0.746006,0.60261 1.42338,1.27959 2.068051,1.98777 0.471053,0.52891 0.91546,1.08057 1.354003,1.63646 0.702767,0.8278 1.145743,1.80532 1.478495,2.82927 0.249528,0.76784 0.05099,0.34729 0.150659,0.55587 -0.217663,-0.55324 0.185542,0.30443 0.264296,0.43143 0.157081,0.2517 0.338597,0.48688 0.518893,0.72211 -0.07675,-0.0818 0.362316,0.4487 0.265757,0.34154 -0.152095,-0.16878 -0.285618,-0.35426 -0.444181,-0.51696 -0.340748,-0.34958 -0.750495,-0.60413 -1.182798,-0.82227 -0.03743,-0.0167 -0.07342,-0.0369 -0.112233,-0.05 -0.330719,-0.11143 -0.312881,-0.092 -0.667725,-0.15611 -0.01701,-0.003 -0.06803,-0.009 -0.05087,-0.0105 0.05738,-0.006 0.324963,0.004 0.03439,-0.005 -0.626697,-0.01 -1.173898,0.21478 -1.732571,0.45632 0.235992,-0.1855 0.472232,-0.37083 0.707413,-0.55741 0.459188,-0.36443 0.92085,-0.72572 1.381894,-1.0878 0.597589,-0.46829 1.195498,-0.93618 1.793395,-1.40408 0.454603,-0.35576 0.909224,-0.7115 1.363833,-1.06726 0.365796,-0.28625 0.731585,-0.57251 1.097375,-0.85877 0.05135,-0.0402 0.202885,-0.16385 0.154075,-0.12058 -0.123114,0.10778 -0.257628,0.20266 -0.375969,0.31569 -0.290533,0.27727 -0.666511,0.73955 -0.109293,0.0462 0.0967,-0.12024 0.197539,-0.23712 0.296246,-0.35577 -0.181932,0.18251 -0.304609,0.41437 -0.435911,0.63258 3.810509,-7.69445 14.6921,-2.30558 10.8816,5.38887 l 0,0 c -0.34741,0.64161 -0.69479,1.28273 -1.18401,1.8316 -0.11414,0.0842 -0.27501,0.35481 -0.28696,0.36918 -0.44232,0.53186 -0.89112,1.04763 -1.45622,1.45498 -0.36585,0.2863 -0.7317,0.5726 -1.09755,0.85891 -0.45453,0.35569 -0.90908,0.71137 -1.36361,1.06707 -0.594906,0.46557 -1.189833,0.93113 -1.784445,1.39708 -0.447864,0.35116 -0.895767,0.70228 -1.341485,1.05617 -0.473761,0.37456 -0.945173,0.75313 -1.443104,1.09557 -1.308614,0.8627 -2.727705,1.48554 -4.312383,1.60107 -1.444397,0.0626 -2.898028,-0.014 -4.26355,-0.54474 -0.283769,-0.11843 -0.576707,-0.21692 -0.851306,-0.35529 -1.243773,-0.62672 -2.323311,-1.49521 -3.133686,-2.63451 -0.485469,-0.63791 -0.956034,-1.28839 -1.360852,-1.98142 -0.571244,-0.99703 -1.085554,-2.03309 -1.424701,-3.13456 -0.285865,-1.01678 -0.111706,-0.35796 0.10341,0.0847 0.25479,0.52428 0.250762,0.43598 0.523282,0.81767 0.04247,0.0595 -0.0901,-0.115 -0.135143,-0.17249 -0.26969,-0.34235 -0.541356,-0.68332 -0.827095,-1.01252 -0.238841,-0.26897 -0.486622,-0.52748 -0.771004,-0.75008 -6.632533,-5.4529 1.079032,-14.83271 7.711557,-9.37981 z"
       inkscape:connector-curvature="0" />
    <path
       style="fill:#ffcc00;fill-opacity:1"
       id="path4163"
       d="m 93.015443,311.74603 c -0.155229,-0.44598 -0.15874,-0.95021 -0.370387,-1.37716 -0.0668,-0.1679 -0.36461,-0.79406 -0.264201,-0.56161 -0.222798,-0.33456 -0.445561,-0.76627 -0.692108,-1.13614 -0.206185,-0.29514 -0.426312,-0.58017 -0.6463,-0.86506 -0.259111,-0.33353 -0.520214,-0.66549 -0.780922,-0.99777 -0.161858,-0.20636 -0.08151,-0.10389 -0.24106,-0.30739 -0.03868,-0.0494 -0.157547,-0.19515 -0.116072,-0.14811 0.336997,0.38185 0.444886,0.58768 0.903915,0.90621 0.347088,0.24085 0.72839,0.42821 1.092583,0.64232 1.226945,0.51521 2.400621,0.46323 3.633365,7.2e-4 0.167535,0.10666 0.225414,-0.16625 0.358146,-0.1759 0.02237,-0.002 -0.0347,0.0284 -0.05236,0.0423 -0.151416,0.11747 -0.304274,0.23304 -0.455212,0.35116 -0.3832,0.30242 -0.76578,0.60563 -1.149596,0.90727 -0.05776,0.0454 -0.115499,0.0908 -0.173247,0.13629 -6.748325,5.30891 -14.256249,-4.23473 -7.507902,-9.54361 l 0,0 c 0.05548,-0.0437 0.110958,-0.0873 0.166437,-0.13094 0.397068,-0.31327 0.793515,-0.62733 1.1912,-0.93982 0.774971,-0.60394 1.560326,-1.20382 2.449622,-1.63329 0.268025,-0.11325 0.528039,-0.24773 0.804073,-0.33973 1.772512,-0.5908 3.602768,-0.57196 5.352567,0.0944 0.491836,0.26659 1.0071,0.49388 1.475515,0.79976 0.732267,0.47819 1.291165,1.16101 1.820972,1.84236 0.280999,0.35815 0.562689,0.71577 0.841489,1.07563 0.41565,0.53924 0.82793,1.0818 1.20373,1.64995 0.3875,0.59884 0.66619,1.10802 0.97245,1.58731 0.45555,0.79563 0.84913,1.62067 1.1809,2.47596 0.30109,0.82853 0.55981,1.66916 0.73945,2.53282 2.20021,8.29961 -9.537222,11.41117 -11.737428,3.11156 z"
       inkscape:connector-curvature="0" />
    <path
       style="fill:#ffcc00;fill-opacity:1"
       id="path4165"
       d="m 21.396488,321.4676 c -0.005,0.0128 -0.01673,0.0509 -0.01581,0.0374 0.03833,-0.55224 0.126143,-1.10011 0.161625,-1.65355 0.02763,-0.76829 0.123848,-1.53027 0.20171,-2.29427 0.12113,-0.87696 0.03582,-0.34916 0.228844,-1.32181 0.0092,-0.0463 0.04683,-0.18147 0.0254,-0.13937 -0.107204,0.21024 -0.07227,0.56139 -0.07629,0.78286 -0.104737,-0.79928 -0.08474,-1.60808 -0.04452,-2.41095 0.02756,-0.30241 0.02999,-0.52939 0.03134,-0.83561 1.7e-5,-0.009 -0.0045,-0.0349 -0.0048,-0.026 -0.002,0.0564 -1.8e-4,0.11303 -2.48e-4,0.16956 0.08161,0.7216 -0.03402,-0.1457 -0.0986,-0.25219 -0.171167,-0.53824 -0.257485,-1.09481 -0.344625,-1.6509 -1.14592,-8.50948 10.88831,-10.13006 12.034231,-1.62057 l 0,0 c -0.0076,-0.0342 -0.05308,-0.25619 -0.06768,-0.26433 -0.02833,-0.0158 0.01541,0.063 0.02308,0.0944 0.248824,0.87285 0.454422,1.75741 0.552521,2.66153 0.05045,0.79516 0.06683,1.59201 -4.27e-4,2.38725 -0.02435,0.34531 -0.03392,0.46518 0.03224,0.88912 0.03539,0.98006 0.02209,1.91292 -0.212854,2.87185 -0.0076,0.0307 0.03601,-0.24745 0.0019,-0.0949 -0.06622,0.64185 -0.14522,1.18972 -0.164528,1.85303 -0.07206,1.07377 -0.178806,2.14593 -0.357143,3.20778 -1.690189,8.4183 -13.595458,6.02801 -11.905269,-2.39029 z"
       inkscape:connector-curvature="0" />
  </g>
  <g
     inkscape:label="Draw"
     inkscape:groupmode="layer"
     id="layer1"
     transform="translate(0,-927.36225)">
    <path
       style="fill:#1a1a1a;fill-opacity:1"
       id="path4149"
       d="m 23.169355,979.09467 c 0.980632,0.0873 1.963793,0.13251 2.946792,0.18307 1.330889,0.0705 2.663616,0.0894 3.996001,0.10714 1.420747,-0.005 2.841259,-0.0349 4.262032,-0.027 1.349729,0.0122 2.698821,0.0631 4.047385,0.11808 1.356981,0.0561 2.715113,0.0776 4.073097,0.0916 1.240401,0.0209 2.480057,-0.0292 3.719932,-0.0556 1.105344,-0.0301 2.210161,-0.077 3.315548,-0.1056 1.148878,-0.0321 2.29811,-0.0257 3.446427,0.0199 0.980155,0.0381 1.960719,0.0653 2.941598,0.0735 1.096287,0.004 2.192251,-0.004 3.288305,-0.0271 1.127698,-0.0208 2.255353,-0.032 3.382707,-0.0685 1.003066,-0.0529 2.00632,0.0557 3.008474,-0.003 0.851467,-0.0525 1.703061,-0.0552 2.552167,-0.14306 0.861542,-0.10557 1.730719,-0.0934 2.59668,-0.12884 1.126112,-0.0414 2.25319,-0.0166 3.379801,-0.0319 0.86861,-0.0227 1.736543,-0.008 2.604949,0.008 0.559163,0.0273 1.116019,0.0833 1.674545,0.12116 0.480775,0.0107 0.961135,0.0148 1.44116,0.0446 0.481072,0.061 0.966171,0.0556 1.449817,0.0745 0.493869,0.0338 0.988621,0.0557 1.481759,0.0986 0.890386,0.1212 0.174886,0.0386 0.165496,0.0399 -0.444128,0.0588 -0.715933,0.14361 -1.061955,0.39194 0.355889,-0.5661 0.75327,-1.10579 1.160327,-1.63589 0.539398,-0.6902 1.17129,-1.29662 1.831678,-1.86873 0.419026,-0.35497 0.853386,-0.69121 1.286827,-1.02825 0.406733,-0.31323 0.801647,-0.64615 1.253788,-0.89434 0.155943,-0.0856 0.318617,-0.1583 0.477951,-0.23743 1.035897,-0.44928 2.161084,-0.55152 3.27358,-0.63673 1.03702,-0.0866 2.075895,-0.012 3.10936,0.0805 0.970198,0.0318 1.860678,0.19794 2.793898,0.45561 1.009919,0.26378 1.915899,0.78104 2.791459,1.33289 0.70096,0.47555 1.41987,0.9175 2.09306,1.43294 0.72232,0.55356 1.36195,1.20104 1.96689,1.87795 0.49839,0.51726 1.00503,1.02539 1.48594,1.55936 0.54874,0.64636 1.09631,1.31522 1.49335,2.06937 0.11093,0.2107 0.20267,0.43084 0.30401,0.64626 0.50288,1.12972 0.76119,2.33402 0.93247,3.55196 0.18557,1.23329 0.1364,2.48013 0.0514,3.71893 -0.0736,0.75269 -0.12358,1.51027 -0.24433,2.25757 -0.0327,0.20247 -0.14959,0.79414 -0.19606,1.0319 -0.22774,0.99789 -0.49866,1.98691 -0.84171,2.95161 -0.39161,1.00512 -0.74816,2.02178 -1.15277,3.02184 -0.34854,0.84974 -0.80074,1.64504 -1.28094,2.42514 -0.3379,0.6535 -0.82862,1.1865 -1.36472,1.6813 -0.77112,0.6606 -1.56853,1.291 -2.38386,1.8961 -1.10306,0.8302 -2.343229,1.4247 -3.619974,1.9319 -1.105871,0.4044 -2.242511,0.7164 -3.386508,0.9914 -0.610635,0.1252 -1.22745,0.2454 -1.853423,0.2496 -0.4124,0 -0.566455,-0.025 -0.963989,-0.069 -0.926371,-0.1082 -1.800789,-0.4491 -2.666244,-0.7787 -0.870677,-0.3312 -1.752436,-0.6323 -2.617299,-0.9789 -0.917487,-0.4245 -1.807319,-0.9114 -2.687976,-1.408 -0.835802,-0.4657 -1.633106,-0.9874 -2.376573,-1.589 -0.67222,-0.5399 -1.271176,-1.1599 -1.839179,-1.8061 -0.376549,-0.4366 -0.732078,-0.8906 -1.086899,-1.345 -0.275604,-0.3539 -0.551128,-0.7079 -0.827125,-1.06158 -0.213582,-0.2557 -0.399074,-0.53111 -0.573015,-0.81466 -1.704833,-2.82524 2.290701,-5.23627 3.995534,-2.41103 l 0,0 c 0.05756,0.10162 0.154404,0.23459 0.25671,0.35503 0.275586,0.35321 0.550782,0.70672 0.826016,1.06021 0.300637,0.38503 0.601342,0.77052 0.918936,1.1419 0.39743,0.45569 0.814556,0.89509 1.288565,1.27303 0.525982,0.4428 1.117871,0.7902 1.711777,1.1338 0.704066,0.3983 1.417892,0.782 2.140795,1.1444 0.833789,0.3406 1.692013,0.6179 2.531165,0.9451 0.50831,0.1938 1.0197,0.4198 1.558555,0.5058 0.0792,0.012 0.156902,0.032 0.236561,0.039 0.315804,0.028 0.629614,-0.085 0.939123,-0.1243 0.93325,-0.2231 1.860418,-0.4753 2.765527,-0.7957 0.899573,-0.3494 1.774941,-0.7559 2.550741,-1.3389 0.691061,-0.5104 1.362666,-1.0474 2.021558,-1.5986 0.04455,-0.048 0.09525,-0.087 0.145371,-0.1277 0.0243,-0.019 0.0555,-0.03 0.079,-0.049 0.13451,-0.14084 0.18632,-0.34849 0.30904,-0.49659 0.34371,-0.55825 0.6786,-1.11988 0.92885,-1.72853 0.11445,-0.28296 0.23732,-0.56261 0.34429,-0.84847 0.25015,-0.66865 0.47251,-1.34754 0.74504,-2.00792 0.27226,-0.73661 0.46391,-1.50029 0.65106,-2.26172 0.0501,-0.25633 0.10949,-0.51095 0.15242,-0.76854 0.10735,-0.64514 0.14598,-1.30025 0.21267,-1.95001 0.065,-0.92097 0.11967,-1.84905 -0.0202,-2.76653 -0.1,-0.77801 -0.25333,-1.5466 -0.56624,-2.27072 -0.2175,-0.57061 -0.62152,-1.04501 -1.01121,-1.50715 -0.48398,-0.54072 -1.00597,-1.04394 -1.5001,-1.5752 -0.41362,-0.46753 -0.849667,-0.91725 -1.346856,-1.29754 -0.544598,-0.4383 -1.163905,-0.76633 -1.728741,-1.17634 -0.484944,-0.31153 -0.978049,-0.62784 -1.541064,-0.77669 -0.237273,-0.0667 -0.487021,-0.15651 -0.731453,-0.19569 -0.406482,-0.0651 -0.821883,-0.0583 -1.229959,-0.10791 -0.77766,-0.0705 -1.559731,-0.13923 -2.340543,-0.0748 -0.548831,0.0403 -1.103754,0.0728 -1.639132,0.20684 -0.335384,0.093 -0.563161,0.41583 -0.851926,0.59204 -0.369593,0.28923 -0.743019,0.57385 -1.101922,0.87643 -0.42541,0.36517 -0.837014,0.74799 -1.187141,1.18795 -0.464995,0.59776 -0.870779,1.23656 -1.327426,1.84014 -0.136292,0.14399 -0.257225,0.30428 -0.40937,0.43134 -0.207657,0.17267 -0.419011,0.35026 -0.663392,0.4652 -0.653565,0.30697 -0.962861,0.33489 -1.614519,0.31625 -0.240771,-0.007 -0.246534,-0.0117 -0.38412,-0.0546 -0.406902,-0.0482 -0.820195,-0.0422 -1.228255,-0.0815 -0.52836,-0.022 -1.058761,-0.0159 -1.584428,-0.0819 -0.476633,-0.0413 -0.957282,-0.0113 -1.434684,-0.0441 -0.483949,-0.0328 -0.966816,-0.0757 -1.450453,-0.11138 -0.817123,-0.0163 -1.633721,-0.0302 -2.451074,-0.008 -1.084084,0.0143 -2.168568,-0.008 -3.252196,0.0285 -0.77342,0.0314 -1.549748,0.0186 -2.319282,0.10923 -0.926838,0.0914 -1.855139,0.11149 -2.784535,0.16061 -1.031606,0.0469 -2.060568,-0.0188 -3.092582,0.007 -1.145141,0.037 -2.29056,0.0493 -3.436041,0.07 -1.141804,0.0238 -2.283543,0.0321 -3.425582,0.0279 -1.030479,-0.009 -2.060636,-0.0368 -3.090355,-0.0771 -1.045795,-0.0431 -2.092527,-0.0459 -3.138857,-0.0176 -1.111985,0.028 -2.223351,0.0767 -3.33531,0.10607 -1.289015,0.0274 -2.577827,0.0786 -3.867393,0.0564 -1.405346,-0.0146 -2.810835,-0.037 -4.215152,-0.0952 -1.294411,-0.0528 -2.589322,-0.10217 -3.884849,-0.11428 -1.432255,-0.009 -2.86426,0.0249 -4.296501,0.0267 -1.391647,-0.0185 -2.783626,-0.0392 -4.173699,-0.1129 -0.972334,-0.05 -1.94532,-0.0912 -2.915029,-0.18154 -3.296519,-0.14711 -3.088471,-4.8091 0.208053,-4.66198 z"
       inkscape:connector-curvature="0" />
    <path
       style="fill:#1a1a1a;fill-opacity:1"
       id="path4151"
       d="m 24.090719,982.95566 c 0.03256,0.72366 0.118056,1.44035 0.146118,2.16527 -0.0037,0.99279 -0.02447,1.98697 -0.06077,2.97937 -0.04238,0.61403 -0.06126,1.22939 -0.101035,1.84348 0.05387,0.51338 0.07763,1.02918 0.08297,1.5451 -0.04139,0.58856 -0.0017,1.17679 6.4e-5,1.76583 -0.0017,0.58018 -0.07869,1.15649 -0.115249,1.73482 -0.04657,0.59859 -0.06736,1.19887 -0.114133,1.79732 -0.02727,0.34137 -0.103814,0.67797 -0.09465,1.01844 -0.004,-0.0167 0.01582,-0.01 0.01612,-0.005 0.06499,0.39497 0.06716,0.78135 0.05903,1.17994 -0.01856,0.67636 -0.22883,1.30787 -0.512687,1.91397 -0.46664,0.8348 -0.124082,0.225 -0.113751,0.2193 0.006,-0 -0.01028,0.1126 -0.01071,0.1162 -0.0567,0.464 -0.107212,0.9287 -0.160064,1.3931 -0.0011,0.03 -8.91e-4,0.06 -0.0032,0.09 -0.0145,0.1856 -0.03138,0.3332 -0.05358,0.5173 -0.0092,0.076 -0.02085,0.1524 -0.02896,0.2289 -0.01121,0.1055 -0.01564,0.1095 0.0033,0.07 0.0092,-0.1384 -0.0055,-0.2736 -0.04303,-0.4065 -0.02166,-0.077 -0.04277,-0.1025 -0.03567,-0.1015 0.01954,0 0.02389,0.032 0.03576,0.047 0.08633,0.083 0.282511,0.4206 0.362058,0.4661 0.03646,0.021 -0.05208,-0.066 -0.07816,-0.099 -0.388561,-0.3946 -0.936067,-0.6202 -1.492179,-0.5782 0.509157,-0.1281 1.030554,-0.1623 1.553545,-0.1638 0.39661,-0 0.782728,0.1086 1.175616,0.1065 0.433985,-0 0.866162,0.036 1.299039,0.058 0.54849,0.017 1.093427,0.063 1.635716,0.1466 0.318997,0.039 0.64864,0.1186 0.971817,0.09 0.298102,-0.077 0.602509,-0.1376 0.908316,-0.1869 0.590631,-0.089 1.186446,-0.046 1.77729,0.012 0.274875,0.01 0.542421,-0.035 0.826134,-0.05 0.4589,-0 0.91767,-0.014 1.37657,-0.013 0.51437,-0.031 1.02549,-0.069 1.54116,-0.062 0.270874,0.01 0.54162,0.019 0.812663,0.02 0.06215,4e-4 -0.125319,-0.015 -0.186386,-0 -0.183164,0.035 -0.360773,0.094 -0.54115,0.1414 -0.213974,0.1518 -0.46222,0.2643 -0.641925,0.4555 -0.416362,0.4428 -0.578949,1.0076 -0.486325,1.5881 -0.14417,-0.2152 -0.297121,-0.4243 -0.4546,-0.63 -0.178743,-0.23 -0.360464,-0.4577 -0.541087,-0.6863 -0.281336,-0.3601 -0.515503,-0.7563 -0.74264,-1.1522 -0.312362,-0.5445 -0.45748,-1.1593 -0.577167,-1.7692 -0.105663,-0.4678 -0.186755,-0.93806 -0.168288,-1.42057 0.0065,-0.16903 0.03957,-0.33598 0.05935,-0.50397 0.169219,-0.8869 0.669214,-1.59246 1.304643,-2.20554 0.27162,-0.24824 0.563711,-0.47238 0.855143,-0.69652 0.149857,-0.12235 0.313506,-0.22261 0.389946,-0.32408 0.01012,-0.013 -0.02596,0.0205 -0.03895,0.0308 -0.176071,0.15696 -0.221459,0.38281 -0.280726,0.60061 -0.07328,-0.36705 -0.247674,-0.72939 -0.264109,-1.10693 -0.01328,-0.3049 0.01438,-0.61022 0.02156,-0.91533 0.485743,-1.1838 0.28034,-1.11963 1.440564,-1.93426 0.350375,-0.24601 1.297073,-0.45391 1.751271,-0.55099 0.499242,-0.11026 0.999827,-0.22941 1.514448,-0.23239 0.156939,-9.2e-4 0.313478,0.0161 0.470215,0.0241 0.553652,0.0279 1.082468,0.18238 1.609342,0.34142 0.420274,0.12797 0.860604,0.15767 1.295266,0.20495 0.584201,0.0853 1.169434,0.15498 1.75714,0.21402 0.434524,0.0473 0.871851,0.0621 1.308657,0.0676 0.545062,-0.007 1.089942,0.0377 1.632483,0.0859 0.63995,-0.005 1.279257,0.0114 1.918802,0.0328 0.721936,0.0263 1.443603,-0.007 2.165507,-0.001 0.731156,0.0305 1.463216,0.009 2.194813,0.005 0.789243,-0.0281 1.572683,-0.0742 2.36244,-0.0353 0.809662,0.0452 1.620327,0.0223 2.430536,0.0142 0.897957,0.005 1.794486,-0.0356 2.691454,-0.0717 0.772491,-0.0574 1.547091,-0.0151 2.319241,0.0246 0.612088,0.0599 1.222695,-0.0131 1.835625,-0.006 0.563924,-0.0215 1.128633,0.13255 1.690928,0.0981 0.556228,-0.063 1.112676,-0.0939 1.672352,-0.0909 0.523409,0.0142 1.046396,0.0407 1.569526,0.0635 0.370094,-0.0168 0.739156,-0.0814 1.110185,-0.11502 0.497151,-0.053 0.995911,-0.0474 1.494955,-0.0459 0.255284,0.0152 0.29964,-0.0175 0.54259,-0.061 0.43222,-0.14214 0.888638,-0.0889 1.332395,-0.12476 0.613119,-0.0298 1.225813,0.0591 1.820948,0.19802 0.333094,0.0987 0.646573,0.24256 0.987867,0.30791 0.81811,0.15644 1.384387,0.50959 1.98613,1.07256 0.06617,0.0701 0.131831,0.13949 0.197589,0.20904 2.242576,2.4208 -1.180884,5.59211 -3.423337,3.17147 l 0,0 c -0.01218,-0.0146 -0.02375,-0.0284 -0.03593,-0.043 0.11037,0.0457 0.211762,0.11364 0.323365,0.1609 0.0271,0.0118 0.240461,0.0568 6.15e-4,-4.8e-4 -0.410008,-0.0881 -0.830895,-0.18377 -1.216146,-0.35465 -0.008,-0.006 0.01325,0.002 0.01681,-4.6e-4 0.21327,-0.0121 -0.348179,-0.0261 -0.386221,-0.0534 -0.03542,-0.0256 0.172913,-0.01 0.129203,-0.0109 -0.06302,-0.001 -0.12524,0.007 -0.188107,0.01 -0.102074,0.004 -0.341441,0.0159 -0.464029,0.01 -0.04239,-0.002 0.163535,-0.0264 0.121983,-0.0332 -0.127306,-0.021 -0.251741,0.15257 -0.379062,0.0799 -0.454858,0.0811 -0.913086,0.15889 -1.377248,0.1337 -0.356003,-0.001 -0.710301,-0.0162 -1.064851,0.0274 -0.576309,0.0505 -1.148973,0.1642 -1.729879,0.12916 -0.465892,-0.0204 -0.93179,-0.0427 -1.397788,-0.0592 -0.536879,-0.005 -1.067257,0.0643 -1.603581,0.0909 -0.618208,-0.004 -1.230342,-0.0674 -1.847331,-0.0995 -0.249531,-0.0235 -0.508946,0.0184 -0.757435,0.0276 -0.40003,0.0148 -0.800801,0.006 -1.1998,-0.0259 -0.629371,-0.0328 -1.260956,-0.0737 -1.890565,-0.0222 -0.943963,0.038 -1.887626,0.0791 -2.832589,0.0753 -0.910336,0.009 -1.821196,0.0316 -2.730819,-0.0208 -0.07442,-0.005 -0.394116,-0.0277 -0.487428,-0.025 -0.530425,0.0154 -1.060117,0.0771 -1.591644,0.0671 -0.760025,0.005 -1.520651,0.0257 -2.280233,-0.005 -0.755012,-0.0133 -1.510711,0.0357 -2.265884,-0.001 -0.733348,-0.0246 -1.466673,-0.0237 -2.199725,-0.0507 -0.416451,-0.0441 -0.837505,-0.07 -1.256247,-0.0658 -0.572213,-0.008 -1.144899,-0.0302 -1.714237,-0.0906 -0.600777,-0.0604 -1.199291,-0.13368 -1.796401,-0.21812 -0.720969,-0.0788 -1.445801,-0.15827 -2.140694,-0.37738 -0.231405,-0.0701 -0.423506,-0.15489 -0.66778,-0.15952 0.05383,-0.005 0.241469,-0.0194 0.147858,-0.0244 -0.256033,-0.0138 -0.510402,0.13633 -0.762786,0.15095 -0.07714,0.0158 -0.269419,0.0537 -0.35388,0.0752 -0.0576,0.0146 -0.117127,0.0725 -0.171493,0.0485 -0.04055,-0.0179 0.07783,-0.0445 0.108792,-0.0762 0.797174,-0.80788 0.563478,-0.44013 0.877036,-1.41963 -0.01071,-0.19081 -0.08405,-0.75829 -0.04246,-0.57176 0.108984,0.48877 0.280391,0.96488 0.320664,1.46832 0.0099,0.18524 0.03416,0.37027 0.02965,0.55573 -0.02054,0.84218 -0.315648,1.62264 -0.838409,2.2788 -0.322382,0.3606 -0.667897,0.69482 -1.064923,0.97369 -0.170521,0.1309 -0.341124,0.26187 -0.505427,0.40059 -0.0099,0.01 -0.03501,0.029 -0.03179,0.017 0.0409,-0.15954 0.164724,-0.29521 0.141488,-0.47536 -0.0025,-0.16283 0.0035,-0.11565 -0.02922,-0.30835 -0.0056,-0.0329 0.0073,0.0663 0.01258,0.0992 0.02711,0.17092 0.06295,0.34062 0.0997,0.50964 0.0135,0.072 0.02359,0.14474 0.04071,0.21594 0.01355,0.056 0.06895,0.2179 0.03695,0.1696 -0.02401,-0.036 -0.02139,-0.1204 -0.06415,-0.1131 -0.04232,0.01 0.04007,0.076 0.06007,0.1138 0.04575,0.1081 0.0038,0.015 0.136768,0.2275 0.203049,0.3251 -0.0039,0.046 0.188967,0.2997 0.196842,0.2491 0.395017,0.4971 0.589255,0.7483 0.367438,0.4823 0.723927,0.9764 0.990315,1.5235 0.06724,0.1627 0.146377,0.321 0.201696,0.4881 0.324277,0.9794 0.248083,2.0874 -0.433109,2.9168 -0.228988,0.2787 -0.559463,0.4556 -0.839256,0.6833 -0.276595,0.094 -0.545587,0.214 -0.829589,0.2821 -0.469159,0.1125 -0.96391,0.025 -1.438767,0.03 -0.146113,-0.022 -0.308179,0 -0.454207,0.014 -0.320627,0.024 -0.64107,0.047 -0.962791,0.05 -0.390736,-0 -0.781373,0.012 -1.172084,0.01 -0.149161,-8e-4 -0.296615,0.026 -0.445184,0.036 -0.344767,0.025 -0.689826,0.032 -1.034162,-0.01 -0.203538,-0.021 -0.408528,-0.048 -0.613363,-0.042 -0.514927,0.061 -1.011725,0.2631 -1.539036,0.2395 -0.591104,0 -1.181569,-0.042 -1.764304,-0.1456 -0.385139,-0.062 -0.773149,-0.083 -1.16309,-0.097 -0.359293,-0.02 -0.718135,-0.053 -1.078325,-0.052 -0.388237,-0 -0.791574,-0.015 -1.165759,-0.1063 -0.192249,-0 -0.373387,7e-4 -0.560736,0.061 -1.10134,0.2062 -1.922375,0.083 -2.799499,-0.7022 -0.29059,-0.3156 -0.562437,-0.6457 -0.807447,-0.9986 -0.447459,-0.6608 -0.763458,-1.3719 -0.783843,-2.1849 0.0097,-0.4836 0.0738,-0.9588 0.11237,-1.4403 0.05833,-0.5125 0.113072,-1.0254 0.178724,-1.537 0.09111,-0.59305 0.217533,-1.22581 0.559226,-1.73202 0.01367,0.0906 0.04624,-0.19277 0.03058,0.0472 0.0016,-0.0651 0.0032,-0.13029 0.0048,-0.19544 0.0061,0.0135 0.01417,0.0547 0.01839,0.0405 0.03471,-0.11694 -0.189374,-0.77034 -0.09938,-0.83865 -0.0057,-0.49802 0.03688,-0.99 0.110292,-1.4823 0.05443,-0.57038 0.05595,-1.146 0.108101,-1.71691 0.03237,-0.47372 0.0875,-0.94632 0.105038,-1.42052 8.19e-4,-0.5868 -0.04476,-1.17401 -5e-5,-1.76027 0.01087,-0.62656 -0.106939,-1.2496 -0.07195,-1.87693 0.0435,-0.56741 0.04705,-1.13777 0.09356,-1.70516 0.03741,-0.8749 0.04455,-1.75236 0.06029,-2.62763 -0.0236,-0.71394 -0.118634,-1.41716 -0.144737,-2.1305 -0.14441,-3.29663 4.517698,-3.50092 4.662159,-0.20423 z"
       inkscape:connector-curvature="0" />
    <path
       style="fill:#1a1a1a;fill-opacity:1"
       id="path4155"
       d="m 90.405027,991.33997 c -0.34838,0.11505 -0.708518,0.20362 -1.042004,0.35895 0.0659,-0.0363 -0.179715,0.0949 -0.133473,0.074 0.259286,-0.11529 0.187632,-0.11509 0.51233,-0.54836 0.208711,-0.67482 0.235648,-0.52117 0.198813,-1.1237 -0.0034,-0.0583 -0.0297,-0.11453 -0.03264,-0.17305 -0.0024,-0.0108 0.01867,6.2e-4 0.02431,0.008 0.04208,0.0521 0.07657,0.111 0.115624,0.16602 0.05739,0.0808 0.115849,0.16102 0.173766,0.24153 0.06271,0.0845 0.123334,0.17091 0.188466,0.25365 0.08558,0.10877 0.314225,0.43001 0.458441,0.46242 0.01355,0.003 -0.01333,-0.0239 -0.02031,-0.0362 0.01923,-0.0277 0.536445,0.11707 0.24567,0.0312 0.02009,-0.002 0.07909,-9.5e-4 0.05965,-0.006 -0.125608,-0.0322 -0.356617,0.097 -0.08275,-0.0546 0.25755,-0.15203 0.4966,-0.33275 0.735439,-0.51205 0.317878,-0.26146 0.668088,-0.48727 0.967956,-0.7702 0.08628,-0.0802 0.129976,-0.11441 0.196546,-0.19572 0.01076,-0.0211 0.05652,-0.0658 0.03685,-0.0555 -0.08844,0.0489 -0.1322,0.17076 -0.188345,0.24771 4.95e-4,-0.0156 0.01627,-0.0419 0.0015,-0.0469 -0.01564,-0.006 -0.02775,0.0674 -0.04019,0.15208 -0.01581,0.11141 -0.01644,0.0789 -0.07116,-1.8e-4 -0.15966,-0.2673 -0.345417,-0.51722 -0.535493,-0.76351 0.09915,0.17065 0.262857,0.27542 0.438488,0.34839 -0.123705,0.0168 0.252551,0.0409 0.188214,0.0469 -0.358946,0.0325 -0.737909,-0.0386 -1.09259,-0.0875 -0.134388,-0.0117 -0.266439,-0.0465 -0.400865,-0.0596 -0.02342,-0.002 0.06778,-0.007 0.06947,0.0167 0.0015,0.0229 -0.09071,-0.003 -0.06794,0.004 0.07352,0.0187 0.14055,-0.0122 0.06669,0.0151 -0.223557,0.0632 -0.438009,0.14253 -0.64225,0.25246 -2.944024,1.49049 -5.051983,-2.67282 -2.108082,-4.16347 l 0,0 c 0.587435,-0.29159 1.199483,-0.5274 1.842198,-0.66645 0.627439,-0.11439 1.25739,-0.14859 1.886915,-0.0202 0.07325,0.01 0.182672,0.0375 0.260212,0.0411 0.370367,0.0173 0.742143,-0.0148 1.105523,0.088 0.160662,0.047 0.32398,0.0858 0.482052,0.14097 0.658802,0.23007 1.229976,0.66293 1.670299,1.19807 0.379155,0.49374 0.74133,1.0023 1.027967,1.55663 0.07244,0.156 0.153074,0.30839 0.217312,0.46789 0.350121,0.86897 0.439321,1.80409 0.201707,2.71422 -0.04696,0.1523 -0.08211,0.30908 -0.14038,0.45753 -0.281088,0.71775 -0.743491,1.31961 -1.326083,1.81833 -0.403936,0.34785 -0.825979,0.67306 -1.25066,0.99525 -0.475655,0.35573 -0.959436,0.70512 -1.491166,0.97356 -0.667545,0.31606 -1.365639,0.55686 -2.116903,0.53007 -0.158714,-0.008 -0.318212,-0.008 -0.476201,-0.0252 -0.706187,-0.0786 -1.38977,-0.32087 -2.020512,-0.63906 -0.165132,-0.10416 -0.336004,-0.19977 -0.495398,-0.31249 -0.636604,-0.45023 -1.125825,-1.07205 -1.584027,-1.69326 -0.579192,-0.81833 -1.2048,-1.73341 -1.130233,-2.7948 0.0243,-0.34612 0.152085,-0.6771 0.228158,-1.01561 0.16119,-0.25186 0.304283,-0.51647 0.482829,-0.75651 0.08652,-0.11597 0.201256,-0.20829 0.307496,-0.30667 0.346791,-0.31838 0.755561,-0.56082 1.182849,-0.75362 0.491756,-0.21074 0.997769,-0.38122 1.510147,-0.53471 3.147289,-0.99167 4.549732,3.45914 1.402567,4.45096 z"
       inkscape:connector-curvature="0" />
  </g>
</svg>
