<?xml version="1.0" encoding="UTF-8" standalone="no"?>
<!-- Created with Inkscape (http://www.inkscape.org/) -->

<svg
   xmlns:dc="http://purl.org/dc/elements/1.1/"
   xmlns:cc="http://creativecommons.org/ns#"
   xmlns:rdf="http://www.w3.org/1999/02/22-rdf-syntax-ns#"
   xmlns:svg="http://www.w3.org/2000/svg"
   xmlns="http://www.w3.org/2000/svg"
   xmlns:sodipodi="http://sodipodi.sourceforge.net/DTD/sodipodi-0.dtd"
   xmlns:inkscape="http://www.inkscape.org/namespaces/inkscape"
   width="230pt"
   height="130pt"
   viewBox="0 0 287.50001 162.5"
   id="svg2"
   version="1.1"
   inkscape:version="0.91 r13725"
   sodipodi:docname="scene1c_chest_drawers_open-850-450.svg">
  <defs
     id="defs4" />
  <sodipodi:namedview
     id="base"
     pagecolor="#ffffff"
     bordercolor="#666666"
     borderopacity="1.0"
     inkscape:pageopacity="0"
     inkscape:pageshadow="2"
     inkscape:zoom="2.6445794"
     inkscape:cx="150.31426"
     inkscape:cy="128.24121"
     inkscape:document-units="px"
     inkscape:current-layer="layer3"
     showgrid="false"
     showguides="false"
     inkscape:window-width="1855"
     inkscape:window-height="1056"
     inkscape:window-x="65"
     inkscape:window-y="24"
     inkscape:window-maximized="1"
     inkscape:showpageshadow="false"
     units="pt" />
  <metadata
     id="metadata7">
    <rdf:RDF>
      <cc:Work
         rdf:about="">
        <dc:format>image/svg+xml</dc:format>
        <dc:type
           rdf:resource="http://purl.org/dc/dcmitype/StillImage" />
        <dc:title />
      </cc:Work>
    </rdf:RDF>
  </metadata>
  <g
     inkscape:groupmode="layer"
     id="layer1"
     inkscape:label="Image"
     style="opacity:0.43500001"
     transform="translate(0,-1187.5001)"
     sodipodi:insensitive="true" />
  <g
     inkscape:groupmode="layer"
     id="layer2"
     inkscape:label="Paint"
     style="display:inline;opacity:1"
     transform="translate(0,-889.86233)" />
  <g
     inkscape:groupmode="layer"
     id="layer3"
     inkscape:label="Draw"
     style="display:inline"
     transform="translate(0,-889.86233)">
    <g
       id="g4182">
      <path
         inkscape:connector-curvature="0"
         d="m 46.872074,965.58104 c 2.40015,0 4.8003,0 7.20044,0 2.79589,0 5.59177,0 8.38766,0 1.531,0 3.062,0 4.593,0 0.93392,0 1.86783,0 2.80174,0 0.58376,-0.0155 1.16936,0.0208 1.75294,0 0.0782,-0.003 -0.15605,-0.0153 -0.23432,-0.0153 -0.1495,6e-5 -0.30217,0.0475 -0.44822,0.0156 -0.0902,-0.0197 0.18112,-0.0361 0.27168,-0.0541 14.03267,-2.37028 5.14216,3.68426 7.84663,29.80845 -21.12723,4.76431 -27.86495,-25.11412 -6.73772,-29.87841 l 0,0 c 2.61632,22.7291 -6.46913,31.504 5.21458,30.07375 0.36588,-0.0448 -1.74164,0.24467 -1.09194,0.1748 -2.17605,0.36428 -4.36543,0.58044 -6.57363,0.50396 -0.93391,0 -1.86782,0 -2.80174,0 -1.531,0 -3.062,0 -4.593,0 -2.79589,0 -5.59177,0 -8.38766,0 -2.40014,0 -4.80029,0 -7.20044,0 -21.657752,0 -21.657752,-30.62869 0,-30.62869 z"
         id="path4201"
         style="display:inline;opacity:1;fill:#aa4400;fill-opacity:1" />
      <path
         inkscape:connector-curvature="0"
         d="m 34.744118,964.41479 c 3.564206,-1.58634 7.441956,-2.06209 11.288816,-2.37479 3.3935,-0.21531 6.79511,-0.23608 10.19416,-0.24928 1.81151,-0.004 3.62303,0.001 5.43453,0.005 1.20107,0.003 2.40215,0.003 3.60322,0.004 2.3789,-0.043 4.7496,0.0261 7.12193,0.2047 3.27737,0.43498 6.5705,0.67589 9.87237,0.8071 4.57491,0.13257 9.1525,0.12385 13.7289,0.12946 6.088446,0.002 12.176906,-0.002 18.265346,-0.004 3.76639,-10e-4 7.53278,-0.002 11.29917,-0.002 1.74672,-1.6e-4 3.49343,-1.1e-4 5.24015,-9e-5 2.20486,2e-5 4.40972,3e-5 6.61459,3e-5 2.75248,10e-6 5.50496,10e-6 8.25744,10e-6 3.30525,0 6.6105,0 9.91575,0 3.53343,0 7.06685,0 10.60028,0 2.36991,0 4.73981,0 7.10972,0 1.81275,0 3.62549,0 5.43824,0 2.06091,0 4.12182,0 6.18274,0 2.65146,-0.0232 5.29961,-0.006 7.94804,0.12798 2.79281,0.10425 5.50575,0.74968 8.21753,1.35906 1.41174,0.25567 2.94795,0.73726 4.23324,1.16666 0.23389,0.0316 4.82972,1.78094 2.49826,0.95283 -0.65246,-0.19168 -0.42523,-0.11864 0.70094,0.14629 21.04265,5.12495 13.79489,34.88375 -7.24776,29.75881 l 0,0 c -0.485,-0.22019 -0.0258,-0.015 -1.46906,-0.34394 -1.33564,-0.39797 -2.63691,-0.80314 -3.91018,-1.3737 -0.13396,-0.06 0.728,0.26366 0.24272,0.0787 -0.27861,-0.0899 -0.5578,-0.17802 -0.83584,-0.26967 -0.10038,-0.0331 -0.40346,-0.1228 -0.29935,-0.10453 0.19469,0.0342 0.38261,0.0996 0.57304,0.15256 0.13158,0.0366 -0.26661,-0.0611 -0.39649,-0.10342 -0.0382,-0.0124 0.0798,0.009 0.11972,0.0133 -0.32561,-0.0674 -0.65121,-0.13486 -0.97681,-0.20229 -1.00731,-0.22936 -2.00021,-0.53179 -3.0273,-0.64268 -2.12257,-0.11293 -4.24518,-0.096 -6.3707,-0.0873 -2.06092,0 -4.12183,0 -6.18274,0 -1.81275,0 -3.62549,0 -5.43824,0 -2.36991,0 -4.73981,0 -7.10972,0 -3.53343,0 -7.06685,0 -10.60028,0 -3.30525,0 -6.6105,0 -9.91575,0 -2.7525,0 -5.50501,0 -8.25751,0 -2.20493,0 -4.40986,-10e-6 -6.61479,-3e-5 -1.74549,-2e-5 -3.49098,-7e-5 -5.23647,9e-5 -3.76419,4.2e-4 -7.52838,10e-4 -11.29257,0.002 -6.10439,0.002 -12.20878,0.006 -18.313166,0.004 -4.98181,-0.006 -9.96505,0.002 -14.94495,-0.15512 -3.72023,-0.15596 -7.44019,-0.38105 -11.13214,-0.88474 -1.53474,-0.15845 -3.07481,-0.091 -4.61581,-0.10138 -1.22309,-3e-4 -2.44618,-7e-4 -3.66926,-0.004 -1.74824,-0.004 -3.49649,-0.009 -5.24474,-0.006 -2.66276,0.01 -5.3272,0.0202 -7.98693,0.16125 -0.0606,0.004 -1.59211,0.182 -1.75459,0.11873 -0.0415,-0.0162 0.0727,-0.052 0.11263,-0.0717 0.12997,-0.0642 0.2738,-0.10178 0.39606,-0.1797 0.091,-0.058 -0.20077,0.0795 -0.30115,0.11922 -19.906621,8.53139 -31.971853,-19.6208 -12.065236,-28.15221 z"
         id="path4203"
         style="display:inline;opacity:1;fill:#aa4400;fill-opacity:1" />
      <path
         inkscape:connector-curvature="0"
         d="m 226.10099,974.65317 c 2.3328,3.89294 3.3601,8.32298 3.3253,12.84192 -0.007,0.84571 -0.0938,1.68887 -0.14073,2.5333 -0.28062,3.59839 -1.33655,7.06039 -2.28448,10.52341 -0.46128,1.711 -0.94171,3.4163 -1.39815,5.1286 -0.0762,0.4043 -0.19249,1.4942 -0.32987,2.3486 -0.11293,1.0124 -0.30917,2.0332 -0.43279,3.0553 -0.0276,1.3732 -0.23785,2.6977 -0.40496,4.0786 -0.91853,3.1687 -0.45317,1.9112 -1.28435,3.9754 -0.0397,0.099 -0.15843,0.3949 -0.12,0.2957 0.0813,-0.2099 0.1721,-0.4161 0.24866,-0.6278 0.0602,-0.1665 0.20233,-0.6784 0.16154,-0.5061 -0.0783,0.3307 -0.18276,0.6546 -0.27414,0.9819 0.0309,0.01 0.0422,-0.1005 0.0357,-0.074 -0.51821,2.1231 -1.20143,4.0562 -2.34535,5.9594 -0.52571,0.8746 -1.20353,1.6483 -1.8053,2.4724 -1.73322,1.9503 -3.77595,3.5146 -6.11296,4.6686 -0.63337,0.3128 -1.3034,0.5451 -1.95141,0.8263 -0.0685,0.03 0.14153,-0.048 0.21229,-0.072 -0.21796,0.092 -0.43593,0.1832 -0.6539,0.2749 -0.35065,0.1348 -0.7013,0.2697 -1.05195,0.4046 -20.29867,7.5513 -30.97785,-21.1554 -10.67918,-28.7067 l 0,0 c -0.0318,0.016 -0.0636,0.033 -0.0954,0.049 0.5016,-0.2082 0.96158,-0.6207 1.50465,-0.6249 0.38729,0 -0.7129,0.3056 -1.05381,0.4893 -1.37073,0.739 -2.53284,1.7356 -3.52485,2.9362 -1.29751,1.9087 -1.19326,1.5421 -2.08508,3.7596 -0.11295,0.2808 -0.17528,0.5796 -0.25344,0.8721 -0.0246,0.092 -0.0763,0.3726 -0.0545,0.28 0.45656,-1.9379 0.009,-0.1884 0.49363,-2.0313 -0.0829,0.5764 0.0329,-0.2493 0.38517,-1.3664 0.0618,-0.196 0.5459,-1.6237 0.78007,-2.1201 0.0403,-0.085 -0.0609,0.1788 -0.0913,0.2682 -0.15433,0.6116 -0.30866,1.2232 -0.46299,1.8348 -0.0579,0.6774 -0.0931,1.3571 -0.17365,2.0321 -0.0288,0.241 0.01,-0.4854 0.0179,-0.728 0.0385,-1.1792 0.11417,-2.3578 0.26295,-3.5286 0.21352,-1.6151 0.3794,-2.4548 0.56882,-3.9933 0.20499,-1.2737 0.45522,-3.63899 0.9801,-5.39389 0.47609,-1.7772 0.97142,-3.54887 1.45135,-5.325 0.30832,-1.11944 0.5935,-2.24508 0.91481,-3.36094 0.0744,-0.25845 0.20108,-0.5009 0.26444,-0.76229 0.047,-0.19407 0.0662,-0.39385 0.0993,-0.59078 0.13968,-0.17419 0.039,-0.0851 0.14115,0.31815 0.18602,0.7343 0.41502,1.45225 0.79829,2.11035 0.14294,0.24544 0.2969,0.48429 0.44535,0.72644 -11.47858,-18.36574 14.49449,-34.59891 25.97308,-16.23318 z"
         id="path4205"
         style="display:inline;opacity:1;fill:#aa4400;fill-opacity:1" />
      <path
         inkscape:connector-curvature="0"
         d="m 218.28181,1034.6961 c -3.41729,1.2868 -7.05834,1.615 -10.67203,1.8236 -3.85589,0.153 -7.71639,0.1851 -11.57422,0.1088 -4.22647,-0.2429 -8.45764,-0.4296 -12.67319,-0.825 -2.40001,-0.19 -4.75867,-0.6951 -7.14946,-0.9558 -1.37994,-0.1042 -2.75534,-0.2546 -4.13782,-0.3279 -2.66939,-0.2496 -5.34825,-0.3438 -8.02359,-0.4984 -3.92737,-0.2695 -7.80698,-0.9594 -11.69834,-1.5249 -3.58835,-0.4423 -7.19707,-0.6874 -10.79557,-1.0382 -2.58566,-0.2718 -5.1829,-0.3829 -7.78088,-0.4377 -2.69825,-0.04 -5.39694,-0.031 -8.09541,-0.029 -3.32311,0 -6.64623,0.01 -9.96934,0.01 -3.26349,8e-4 -6.52698,8e-4 -9.79047,9e-4 -2.53938,0 -5.07875,-10e-5 -7.618126,-10e-5 -1.97294,0 -3.94588,0 -5.91882,0 -2.23157,0 -4.46314,0 -6.6947,0 -2.75039,0.051 -5.49606,-0.044 -8.24175,-0.1941 -1.70754,-0.1401 -3.42758,-0.078 -5.13334,-0.2428 -0.65589,-0.063 -1.3078,-0.1628 -1.9617,-0.2441 -1.78717,-0.3029 -3.58276,-0.5397 -5.36734,-0.8597 -1.17509,-0.1014 -2.31465,-0.6965 -3.50696,-0.7088 -0.66861,-0.02 -1.33758,-0.025 -2.00652,-0.027 -1.42981,1e-4 -2.85962,0 -4.28943,0.01 -1.57358,0 -3.14716,0 -4.72074,0 -1.04841,1e-4 -2.09681,0 -3.14522,0 -1.067,0 -2.13399,0 -3.20099,0 -1.09703,0 -2.19407,0 -3.2911,0 -0.5237,0 -1.0474,0 -1.5711,0 -21.657751,0 -21.657755,-30.62869 0,-30.62869 l 0,0 c 0.5237,0 1.0474,0 1.5711,0 1.09707,0 2.19415,0 3.29122,0 1.06715,0 2.1343,0 3.20145,0 1.04659,0 2.09319,10e-5 3.13978,0 1.56229,-3e-4 3.12457,-7e-4 4.68686,0 1.48118,0 2.96236,-0.01 4.44354,0 1.79006,0.01 3.5827,0.033 5.36444,0.2246 1.87927,0.2304 3.76608,0.5141 5.59269,1.02 1.40973,0.2845 2.84786,0.396 4.25856,0.67589 -0.11081,0 -0.22612,-0.036 -0.33242,0 -0.0784,0.023 0.16156,0.027 0.24321,0.031 1.46825,0.069 2.94005,0.073 4.40675,0.1814 2.1892,0.1199 4.37538,0.2028 6.56901,0.1483 2.23157,0 4.46314,0 6.69472,0 1.973,0 3.94599,0 5.91899,10e-5 2.539186,0 5.078386,0 7.617576,0 3.26042,-10e-5 6.52083,-10e-5 9.78124,-9e-4 3.32021,0 6.64043,0 9.96064,-0.01 2.92766,0 5.85559,-0.011 8.78297,0.037 3.3669,0.076 6.73254,0.2279 10.08384,0.5749 4.0773,0.3976 8.16822,0.6625 12.22902,1.2122 3.03138,0.4407 6.05272,0.9762 9.10396,1.26 2.65516,0.1631 5.31642,0.2351 7.96545,0.495 1.95539,0.1167 3.90363,0.3017 5.85427,0.4748 2.21327,0.2577 4.4056,0.6506 6.61913,0.9001 3.45958,0.3482 6.93882,0.438 10.40606,0.691 3.08012,0.078 6.16298,0.022 9.24233,-0.071 0.60041,-0.029 1.33895,-0.156 1.94987,-0.1065 0.0124,0 -0.41413,0.1954 -0.37256,0.188 20.27879,-7.60459 31.03324,21.0739 10.75446,28.6785 z"
         id="path4207"
         style="display:inline;opacity:1;fill:#aa4400;fill-opacity:1" />
      <path
         inkscape:connector-curvature="0"
         d="m 40.912424,983.35324 c 2.64219,0 5.28438,0 7.92656,0 2.91698,0 5.83397,0 8.75095,0 1.86395,0 3.72791,0 5.59186,0 0.97925,0.0865 1.86889,-0.19826 2.80945,-0.42762 3.44351,-0.75432 6.94048,-1.23832 10.42498,-1.76065 4.38651,-0.64222 8.75585,-1.39271 13.14915,-1.9876 2.95969,-0.35736 5.92102,-0.69759 8.88412,-1.02482 2.707016,-0.45892 5.424236,-0.79334 8.162566,-0.99977 3.76611,-0.21903 7.5403,-0.22134 11.31142,-0.23352 3.70416,-0.005 7.40833,-6e-5 11.11249,0.002 3.07661,0.002 6.15323,0.003 9.22985,0.003 2.0712,2.1e-4 4.14239,1.8e-4 6.21359,1.6e-4 2.4521,-0.062 4.89445,0.0615 7.3324,0.31694 2.69027,0.40315 5.33343,1.06951 7.98527,1.66839 2.93911,0.61859 5.88318,1.20213 8.79967,1.92164 2.27266,0.72802 4.61826,1.13149 6.9623,1.54103 1.71864,0.26558 3.42114,0.63152 5.10836,1.05072 1.00053,-0.003 3.94899,1.0751 5.48973,1.78146 1.88459,0.85565 0.66098,0.28388 0.11159,0.0644 20.58469,6.73268 11.06324,35.8438 -9.52145,29.1111 l 0,0 c -1.26298,-0.4429 -2.39017,-0.8777 -3.47195,-1.3875 -0.6183,-0.3019 0.25032,0.1302 1.11927,0.3603 0.53817,0.1425 1.09882,0.1894 1.63629,0.3345 0.33048,0.089 -0.67664,-0.1049 -1.01341,-0.1663 -0.31907,-0.058 -0.63672,-0.1241 -0.95381,-0.1923 -0.26271,-0.057 -0.52361,-0.1211 -0.78542,-0.1817 -0.84488,-0.2101 -1.95927,-0.4669 -3.02151,-0.6085 -3.06972,-0.5419 -6.14431,-1.0927 -9.13103,-2.0037 -2.66618,-0.697 -5.39318,-1.1286 -8.07741,-1.7492 -1.56917,-0.3546 -3.21646,-0.6444 -4.73975,-1.1167 -1.25815,-0.2421 -2.55834,-0.053 -3.82886,-0.1159 -2.07258,0 -4.14515,0 -6.21772,-2e-4 -3.08219,-4e-4 -6.16438,-10e-4 -9.24657,0 -3.66475,0 -7.3295,-0.01 -10.99425,0 -3.07397,0.01 -6.14997,0.01 -9.22113,0.1555 -2.3544,0.1511 -4.66495,0.5834 -7.00168,0.8943 -2.718336,0.2976 -5.434166,0.614 -8.149826,0.9351 -4.24217,0.5658 -8.45672,1.3158 -12.69311,1.9228 -2.67895,0.4013 -5.36787,0.77 -8.02412,1.3022 -3.20155,0.7295 -6.44912,1.3234 -9.74949,1.2243 -1.86395,0 -3.72791,0 -5.59186,0 -2.91698,0 -5.83397,0 -8.75095,0 -2.64218,0 -5.28437,0 -7.92656,0 -21.657751,0 -21.657751,-30.62872 0,-30.62872 z"
         id="path4211"
         style="display:inline;opacity:1;fill:#aa4400;fill-opacity:1" />
      <path
         inkscape:connector-curvature="0"
         d="m 31.792029,1005.2849 c 1.667025,-0.018 3.335478,0.041 5.001165,-0.036 21.64483,-0.7481 22.70283,29.8623 1.058,30.6104 l 0,0 c -2.019652,0.06 -4.038642,0.065 -6.059165,0.054 -21.657754,0 -21.657754,-30.6287 0,-30.6287 z"
         id="path4217"
         style="display:inline;opacity:1;fill:#aa4400;fill-opacity:1" />
      <path
         inkscape:connector-curvature="0"
         d="m 110.39825,1009.4443 c 1.60347,0 3.20694,0 4.81041,0 2.11702,0 4.23405,0 6.35107,0 1.96858,0 3.93715,0 5.90573,0 1.30857,0 2.61714,0 3.92571,0 0.53042,0 1.06084,0 1.59126,0 21.65775,0 21.65775,30.6287 0,30.6287 l 0,0 c -0.53042,0 -1.06084,0 -1.59126,0 -1.30857,0 -2.61714,0 -3.92571,0 -1.96858,0 -3.93715,0 -5.90573,0 -2.11702,0 -4.23405,0 -6.35107,0 -1.60347,0 -3.20694,0 -4.81041,0 -21.657756,0 -21.657756,-30.6287 0,-30.6287 z"
         id="path4219"
         style="display:inline;opacity:1;fill:#aa4400;fill-opacity:1" />
      <path
         inkscape:connector-curvature="0"
         d="m 83.264464,927.77724 c 4.06204,-3.9681 8.63378,-5.37401 13.97465,-6.59981 2.956836,-0.72441 5.976646,-1.10977 8.983346,-1.55483 1.80849,-0.28224 3.63006,-0.45132 5.45791,-0.52998 1.34613,-0.0395 2.69311,-0.0297 4.03965,-0.0272 0.92933,0.002 1.85865,0.004 2.78798,0.004 21.65774,0.0201 21.62937,30.64874 -0.0284,30.62868 l 0,0 c -0.93943,-8.7e-4 -1.87886,-0.002 -2.81828,-0.005 -0.93915,-0.002 -1.8784,-0.006 -2.8175,0.005 -0.71773,0.003 -1.42827,0.13245 -2.13814,0.2222 -2.23381,0.33039 -4.48296,0.5855 -6.68002,1.12338 -0.36423,0.0814 -0.72827,0.16361 -1.09267,0.24423 -0.2008,0.0444 -0.39872,0.15542 -0.60291,0.13094 -0.10562,-0.0127 0.17943,-0.11432 0.26951,-0.17091 0.83218,-0.52277 1.67267,-1.0636 2.32259,-1.81405 -15.314336,15.31435 -36.972096,-6.3434 -21.657746,-21.65775 z"
         id="path4221"
         style="display:inline;opacity:1;fill:#803300;fill-opacity:1" />
      <path
         inkscape:connector-curvature="0"
         d="m 93.373454,910.82493 c 2.22106,-0.28171 4.46099,-0.35031 6.696816,-0.40443 3.02141,-0.1067 6.03801,-0.0178 9.05023,0.22308 2.87442,0.23183 5.73707,0.55913 8.5809,1.03666 1.86741,0.29564 3.72909,0.64961 5.61312,0.82333 2.28343,0.13181 4.56599,0.28593 6.8465,0.46303 3.22756,0.21084 6.43657,0.62589 9.65972,0.88521 3.90236,0.3703 7.82036,0.52126 11.73328,0.73488 3.68605,0.20481 7.37747,0.26902 11.06833,0.30765 3.10442,0.0247 6.20895,0.0226 9.31344,0.0213 2.215,-0.002 4.43,-0.003 6.64501,-0.004 1.70528,-5.4e-4 3.41057,-5.6e-4 5.11586,-5.9e-4 1.97615,0 3.9523,2e-5 5.92845,3e-5 2.95606,0 5.91212,0 8.86819,10e-6 4.4985,0 8.997,0 13.4955,0 4.64665,0 9.29329,0 13.93993,0 2.17586,0 4.35172,0 6.52758,0 1.01703,0 2.03406,0 3.05109,0 1.00296,0 2.00591,0 3.00887,0 1.24044,0 2.48088,0 3.72133,0 1.72935,0.0236 3.46059,-0.0546 5.18252,-0.21819 1.51428,-0.13759 0.74092,-0.0689 2.32013,-0.20567 21.57717,-1.86656 24.21688,28.64817 2.63971,30.51472 l 0,0 c -1.51292,0.1307 -0.72265,0.061 -2.37076,0.21001 -2.5848,0.20786 -5.17706,0.36628 -7.7716,0.32781 -1.24045,0 -2.48089,0 -3.72133,0 -1.00296,0 -2.00591,0 -3.00887,0 -1.01703,0 -2.03406,0 -3.05109,0 -2.17586,0 -4.35172,0 -6.52758,0 -4.64664,0 -9.29328,0 -13.93993,0 -4.4985,0 -8.99701,10e-6 -13.49551,0 -2.9561,0 -5.9122,0 -8.8683,-10e-6 -1.97596,0 -3.95192,-2e-5 -5.92788,-2e-5 -1.70187,3e-5 -3.40374,5e-5 -5.1056,5.8e-4 -2.21429,7.8e-4 -4.42857,0.002 -6.64285,0.004 -3.21675,10e-4 -6.43356,0.003 -9.65023,-0.023 -4.13973,-0.0442 -8.27992,-0.12128 -12.4142,-0.35148 -4.1945,-0.22905 -8.39402,-0.39684 -12.5773,-0.79266 -3.18925,-0.26697 -6.36707,-0.65257 -9.55998,-0.87716 -2.50765,-0.20346 -5.02018,-0.33489 -7.52863,-0.52464 -2.59785,-0.27447 -5.1781,-0.67524 -7.75248,-1.11723 -1.96737,-0.37034 -3.96897,-0.50102 -5.95868,-0.69757 -1.90246,-0.19106 -3.81085,-0.16561 -5.72052,-0.11976 -1.205266,0.0268 -2.415026,0.0417 -3.614166,0.17629 -21.49051,2.68632 -25.28953,-27.70585 -3.79902,-30.39217 z"
         id="path4223"
         style="display:inline;opacity:1;fill:#803300;fill-opacity:1" />
      <path
         inkscape:connector-curvature="0"
         d="m 269.49998,933.99645 c -0.57612,2.04943 -1.15585,4.09992 -1.67895,6.16478 -0.15748,0.65403 -0.30101,1.332 -0.29202,2.00965 -0.0214,0.86043 -0.0144,1.72124 -0.0111,2.58183 0.006,1.12743 0.008,2.25487 0.009,3.38231 0.0492,1.72252 -0.0739,3.43864 -0.26834,5.14908 -0.0597,1.74521 -0.34789,3.45768 -0.67912,5.16798 -0.39929,1.89411 -1.32296,3.57794 -1.92334,5.39613 -0.8697,2.90747 -2.32847,5.5547 -4.01275,8.05884 -1.07258,1.54859 -2.44046,3.03192 -3.66558,4.35209 0.12161,-0.13704 0.47409,-0.55819 0.36483,-0.41112 -0.65171,0.87723 -1.20585,1.42145 -1.97817,2.2607 -15.12879,15.49769 -37.04582,-5.89765 -21.91703,-21.39533 l 0,0 c -0.68385,0.81149 -0.97649,1.21042 0.58813,-0.74637 0.46242,-0.51198 0.94368,-1.08642 1.46212,-1.5474 -0.42269,1.08587 0.0432,0.0482 0.2006,-0.54938 0.46291,-1.32591 0.94077,-2.64574 1.50422,-3.93307 0.0157,-0.036 -0.0221,0.0754 -0.0331,0.11306 -0.1619,0.58058 -0.32381,1.16117 -0.48571,1.74176 -0.29673,2.01915 -0.0615,0.41078 -0.0593,0.41219 0.0797,0.0514 -0.0151,0.37903 -0.008,0.28447 0.0713,-0.88925 0.0971,-1.78271 0.20959,-2.66871 0.0288,-0.25255 0.1405,-1.62408 0.0728,0.0733 -0.007,0.17716 -1e-4,-0.35458 -1.8e-4,-0.53188 -2.6e-4,-0.57158 -3.4e-4,-0.60805 -8e-4,-1.1918 -0.001,-1.10061 -0.003,-2.20123 -0.009,-3.30183 -0.005,-1.47922 -0.0137,-2.95931 0.0604,-4.43723 0.17099,-2.6414 0.51478,-5.27151 1.1919,-7.83591 0.57051,-2.22796 1.19807,-4.4406 1.80883,-6.65708 5.69853,-20.89462 35.24798,-12.83568 29.54945,8.05894 z"
         id="path4225"
         style="display:inline;opacity:1;fill:#803300;fill-opacity:1" />
      <path
         inkscape:connector-curvature="0"
         d="m 62.076514,936.49565 c 2.86668,-0.22224 5.71881,-0.59805 8.57849,-0.89495 4.26666,-0.41009 8.55302,-0.53845 12.83643,-0.61813 2.18145,-0.0354 4.36318,-0.0404 6.54485,-0.0373 1.22615,0.003 2.45229,0.005 3.67844,0.006 1.45444,9.5e-4 2.90888,9e-4 4.36333,9.4e-4 1.60578,0 3.211556,-3e-5 4.817346,-4e-5 2.39439,-2e-5 4.78879,-2e-5 7.18318,-2e-5 3.22819,0 6.45639,0 9.68458,0 3.27904,0 6.55808,0 9.83712,0 3.42155,0 6.8431,0 10.26464,0 3.01474,0 6.02948,0 9.04421,0 3.48505,0.004 6.96659,0.19273 10.45031,0.27877 4.37978,-0.0322 8.74128,0.26069 13.09825,0.67412 2.88424,0.311 5.78103,0.45101 8.67967,0.52444 2.22065,0.0471 4.44193,0.0436 6.66296,0.0425 2.35975,-0.003 4.71951,-0.005 7.07927,-0.006 2.61294,-10e-4 5.22588,-10e-4 7.83882,-10e-4 2.67321,-2e-5 5.34642,10e-6 8.01963,3e-5 2.77085,10e-6 5.5417,2e-5 8.31255,2e-5 2.06705,0 4.13409,0 6.20114,0 0.88003,0 1.76007,0 2.64011,0 21.65776,0 21.65776,30.62869 0,30.62869 l 0,0 c -0.88003,0 -1.76007,0 -2.64011,0 -2.06705,0 -4.13411,0 -6.20116,0 -2.7709,-10e-6 -5.5418,-10e-6 -8.31271,-2e-5 -2.67291,-2e-5 -5.34582,-5e-5 -8.01873,-3e-5 -2.60836,6e-5 -5.21672,1.3e-4 -7.82508,10e-4 -2.35932,0.001 -4.71865,0.003 -7.07798,0.006 -2.49208,10e-4 -4.98445,0.003 -7.47605,-0.0528 -3.60028,-0.0958 -7.19841,-0.27359 -10.78153,-0.65158 -3.64732,-0.34759 -7.29405,-0.59335 -10.96192,-0.5461 -3.22952,-0.0811 -6.45722,-0.2507 -9.68744,-0.26927 -3.01473,0 -6.02947,0 -9.04421,0 -3.42154,0 -6.84309,0 -10.26464,0 -3.27904,0 -6.55808,0 -9.83712,0 -3.22819,0 -6.45638,0 -9.68457,0 -2.3943,0 -4.78862,0 -7.18293,2e-5 -1.60611,10e-6 -3.212216,4e-5 -4.818336,3e-5 -1.46366,-3e-5 -2.92732,2e-5 -4.39098,-9.4e-4 -1.23148,-10e-4 -2.46295,-0.004 -3.69442,-0.006 -1.97955,-0.003 -3.95915,8.3e-4 -5.93849,0.0322 -3.42129,0.0618 -6.84543,0.15095 -10.25478,0.46154 -2.89197,0.2961 -5.77587,0.68025 -8.67448,0.90469 -21.55027,2.15503 -24.59793,-28.32165 -3.04766,-30.47668 z"
         id="path4231"
         style="display:inline;opacity:1;fill:#803300;fill-opacity:1" />
      <path
         inkscape:connector-curvature="0"
         d="m 72.179184,920.55149 c 3.05486,-1.309 6.33139,-1.79716 9.61747,-2.06604 3.1119,-0.20742 6.20112,0.0889 9.25855,0.65255 21.268496,4.08775 15.487546,34.16593 -5.78094,30.07819 l 0,0 c -0.0958,-0.0222 -0.19165,-0.0444 -0.28748,-0.0665 0.0417,-0.007 0.16265,-0.002 0.12522,-0.0223 -0.30195,-0.16049 -0.71464,0.0709 -1.0143,-0.0998 -1.11039,0.0595 -0.3514,-0.0456 0.14671,-0.32389 -19.90662,8.53141 -31.97185,-19.6208 -12.06523,-28.1522 z"
         id="path4233"
         style="display:inline;opacity:1;fill:#803300;fill-opacity:1" />
      <path
         inkscape:connector-curvature="0"
         d="m 222.72304,978.50115 c 0.3544,-0.75334 0.58351,-1.57957 1.06321,-2.26003 1.55442,-2.20495 3.93738,-3.95848 6.89445,-3.80726 1.93972,0.0992 3.80093,1.05334 5.43235,2.10729 1.72491,1.11434 2.25104,3.33002 2.87378,5.07899 0.64079,2.87321 0.70124,5.82815 0.75031,8.7588 0.0201,1.5992 0.0126,3.19854 0.006,4.7978 -0.004,0.95822 -0.006,1.91644 -0.007,2.87467 -9e-5,0.18128 -2e-4,0.36255 -2.7e-4,0.54383 -7e-5,0.18849 -1.2e-4,0.37698 -1.6e-4,0.56547 -4e-5,0.18451 0.017,0.7373 -8e-5,0.55354 -0.0233,-0.24989 0.0149,-0.50394 -0.0185,-0.75269 -0.13203,-0.98514 -0.28446,-1.10682 -0.7245,-2.05965 -2.62762,-2.55367 -2.03165,-2.74132 -5.97012,-3.24918 -1.29437,-0.16691 -1.4344,0.28845 -2.41822,0.55024 -0.0643,0.0171 0.12453,-0.0692 0.15138,-0.13006 0.0131,-0.0297 -0.0648,0.005 -0.0972,0.007 1.1016,-1.30535 1.98234,-2.77691 2.92096,-4.20002 0.83061,-1.18211 1.57058,-2.39409 2.10858,-3.73174 0.40947,-0.8954 0.65366,-1.84474 0.89674,-2.79433 0.0605,-0.24838 0.19853,-1.14969 -0.0161,0.15961 0.43923,-10.68616 15.55175,-10.065 15.11252,0.62116 l 0,0 c -0.093,1.02206 -0.16468,2.02699 -0.45541,3.01571 -0.42191,1.61472 -0.87884,3.22275 -1.551,4.75487 -0.92753,2.22703 -2.0839,4.32462 -3.46911,6.30245 -1.65333,2.50669 -3.24902,5.08458 -5.4657,7.14778 -0.46431,0.3886 -0.91131,0.7988 -1.39293,1.1657 -2.87542,2.1904 -6.49907,2.9981 -9.95414,1.3544 -1.22192,-0.5813 -2.03266,-1.7867 -3.049,-2.68 -0.32844,-0.611 -0.71819,-1.1928 -0.98533,-1.8329 -0.70898,-1.69889 -0.79072,-3.51769 -0.74782,-5.32542 9.1e-4,-0.97402 0.003,-1.94804 0.007,-2.92205 0.006,-1.49656 0.0136,-2.9932 -0.004,-4.48972 -0.0263,-1.66319 -0.0871,-3.32626 -0.20788,-4.98383 1.35249,2.51778 3.39463,3.92437 6.62361,3.9134 2.49602,-0.008 4.38013,-1.42257 5.60422,-3.3319 0.30399,-0.47415 0.42169,-1.04456 0.63254,-1.56684 -2.9382,10.28368 -17.48152,6.12845 -14.54332,-4.15523 z"
         id="path4235"
         style="display:inline;opacity:1;fill:#803300;fill-opacity:1" />
      <path
         inkscape:connector-curvature="0"
         d="m 40.534294,961.98879 c 2.78452,-0.0157 5.5593,0.32048 8.30612,0.74803 1.92028,0.44203 3.92559,0.6988 5.77476,1.41481 1.51298,0.58583 1.85647,0.82803 3.12634,1.54571 1.11598,0.80384 2.40476,1.24317 3.67342,1.73442 1.66326,0.59581 3.40188,0.937 5.11677,1.34837 2.40631,0.64944 4.8826,0.95641 7.3448,1.30533 2.77568,0.46965 5.56207,0.87351 8.33373,1.3663 2.44273,0.41993 4.91282,0.64592 7.37,0.96345 2.51603,0.42465 5.04722,0.7449 7.57486,1.08951 2.910656,0.43248 5.801466,0.97915 8.689996,1.53735 2.35631,0.45487 4.68331,1.02738 6.99684,1.66161 2.4299,0.52156 4.80037,1.26769 7.18327,1.96539 2.098,0.62929 4.19643,1.25714 6.29811,1.87411 2.63544,0.77467 5.2873,1.47777 7.89321,2.34898 3.19317,1.20824 6.43334,2.28394 9.64782,3.43369 2.63993,0.89499 5.24999,1.87371 7.87616,2.8066 1.85543,0.54786 3.57955,1.41391 5.34199,2.19098 1.64094,0.61411 3.30756,1.15921 4.96897,1.71536 2.50773,0.88966 4.9412,1.96851 7.34317,3.10895 2.00961,0.94656 3.97435,1.97657 6.05516,2.76017 2.09267,0.6924 4.19465,1.35049 6.27222,2.08819 2.12479,0.615 4.19358,1.3677 6.22697,2.2365 2.05147,1.0499 4.19523,1.8729 6.34746,2.686 2.301,0.8277 4.58998,1.6883 6.88708,2.5264 1.90807,0.6455 3.68039,1.5873 5.41668,2.5952 0.92655,0.5864 1.94373,1.0008 2.92997,1.4737 1.86601,0.9097 3.56234,2.111 5.19656,3.3804 1.78117,1.2855 3.00774,3.1009 4.31826,4.821 -0.24862,-0.085 0.4963,0.6586 0.40914,0.4312 7.93638,7.1694 -2.20273,18.3932 -10.13912,11.2237 l 0,0 c -0.82705,-0.7843 -1.65235,-1.5695 -2.31406,-2.5053 -0.39223,-0.5174 -0.84027,-1.0321 -1.17485,-1.5909 -0.0177,-0.03 0.0389,-0.078 0.0142,-0.1025 -0.14009,-0.1362 -0.29942,-0.2512 -0.44914,-0.3767 -0.76761,-0.6145 -1.56657,-1.2012 -2.43827,-1.6606 -1.33895,-0.6546 -2.72195,-1.2287 -3.98229,-2.0341 -0.95932,-0.5668 -1.90468,-1.1162 -2.97708,-1.4481 -2.3495,-0.8592 -4.69259,-1.736 -7.0457,-2.5854 -2.35349,-0.8902 -4.70787,-1.7839 -6.95227,-2.9297 -1.74088,-0.7475 -3.52236,-1.3453 -5.33836,-1.8888 -2.19527,-0.7809 -4.42684,-1.4466 -6.62515,-2.2185 -2.44755,-0.9497 -4.80189,-2.0878 -7.16131,-3.2359 -1.83652,-0.8871 -3.70825,-1.7016 -5.62064,-2.412 -2.12966,-0.7129 -4.27207,-1.4004 -6.35037,-2.2544 -1.39823,-0.6319 -2.75659,-1.334 -4.24298,-1.7495 -2.62736,-0.941 -5.24443,-1.9101 -7.88653,-2.8103 -3.12726,-1.11869 -6.28104,-2.16229 -9.38569,-3.34267 -2.41166,-0.82269 -4.88582,-1.42871 -7.32318,-2.16926 -2.0976,-0.61626 -4.19242,-1.24186 -6.28627,-1.87064 -2.30086,-0.67368 -4.58762,-1.39309 -6.93448,-1.89485 -1.94003,-0.53259 -3.88915,-1.01897 -5.8661,-1.39764 -2.61505,-0.50564 -5.231286,-1.00377 -7.865476,-1.40148 -2.49464,-0.34114 -4.99424,-0.65089 -7.47653,-1.07641 -2.69549,-0.35207 -5.40679,-0.59287 -8.08416,-1.0736 -2.5913,-0.46647 -5.19978,-0.83058 -7.79413,-1.27985 -2.93471,-0.41592 -5.88057,-0.81044 -8.75073,-1.57297 -2.37232,-0.56911 -4.7693,-1.07263 -7.05233,-1.95245 -1.99587,-0.77352 -4.00418,-1.55652 -5.79441,-2.7523 -0.12028,-0.0755 -0.24055,-0.15097 -0.36082,-0.22646 0.0478,-0.007 0.18393,0.006 0.14353,-0.0209 -0.43513,-0.28629 -0.9979,-0.30107 -1.50459,-0.42176 -1.23138,-0.29329 -0.78131,-0.19077 -1.96348,-0.43887 -1.96102,-0.31957 -3.94756,-0.56658 -5.93704,-0.56135 -10.695186,0 -10.695186,-15.12527 0,-15.12527 z"
         id="path4237"
         style="display:inline;opacity:1;fill:#803300;fill-opacity:1" />
      <path
         inkscape:connector-curvature="0"
         d="m 207.58675,1017.1181 c -0.20996,-2.2932 -0.27529,-4.5962 -0.32608,-6.8974 -0.0416,-2.2607 -0.0448,-4.5218 -0.0469,-6.7828 -5.2e-4,-1.9234 9.3e-4,-3.84669 0.002,-5.77001 6.1e-4,-1.78657 7.4e-4,-3.57314 8.1e-4,-5.3597 5e-5,-1.63557 4e-5,-3.27115 3e-5,-4.90672 -1e-5,-1.52955 -1e-5,-3.05911 -1e-5,-4.58867 -0.0122,-1.22933 -0.17534,-2.45377 -0.25766,-3.68153 -0.0809,-1.27016 -0.10825,-2.54264 -0.11952,-3.81503 -0.0922,-10.69479 15.03254,-10.82515 15.12472,-0.13036 l 0,0 c 0.008,0.9841 0.0264,1.96832 0.0873,2.95082 0.10018,1.55847 0.31642,3.11168 0.2904,4.67608 0,1.52955 0,3.05909 1e-5,4.58864 0,1.6358 2e-5,3.2716 -3e-5,4.90741 -7e-5,1.78833 -2e-4,3.57666 -8.1e-4,5.36499 -7.5e-4,1.91679 -0.002,3.83358 -0.002,5.75038 0.002,2.1554 0.005,4.3109 0.0433,6.4659 0.0413,1.9091 0.0903,3.8197 0.25463,5.723 1.06422,10.6421 -13.986,12.1471 -15.05021,1.505 z"
         id="path4239"
         style="display:inline;opacity:1;fill:#803300;fill-opacity:1" />
      <path
         inkscape:connector-curvature="0"
         d="m 210.63579,988.07989 c -1.94161,0 -3.88321,0 -5.82481,0 -3.12274,0 -6.24547,0 -9.3682,0 -2.63884,0 -5.27767,0 -7.91651,0 -1.79873,0.0747 -3.58635,-0.12006 -5.37691,-0.24755 -1.70429,-0.1024 -3.41221,-0.11314 -5.11898,-0.12578 -1.96303,-0.01 -3.92609,-0.008 -5.88914,-0.007 -1.55749,8.4e-4 -3.11498,10e-4 -4.67247,0.002 -1.30995,2.5e-4 -2.61991,2.2e-4 -3.92986,2.3e-4 -1.83871,-10e-6 -3.67743,-10e-6 -5.51614,-2e-5 -2.33156,0 -4.66313,0 -6.99469,0 -2.40437,0 -4.80873,0 -7.2131,0 -2.87423,0.0638 -5.73485,-0.0131 -8.59287,-0.32507 -1.48923,-0.19862 -2.98359,-0.33737 -4.48436,-0.40167 -1.64073,0.0266 -3.25668,-0.14342 -4.86865,-0.44352 -1.36396,-0.22645 -2.74622,-0.30276 -4.11869,-0.46991 -1.38733,-0.23103 -0.74735,-0.1148 -1.92134,-0.34083 -10.49945,-2.03681 -7.61897,-16.88527 2.88047,-14.84847 l 0,0 c 0.65515,0.12852 0.36243,0.0691 0.8786,0.17608 1.69111,0.20833 3.39827,0.28533 5.07302,0.61779 0.1772,0.0337 0.35667,0.0572 0.53161,0.10118 0.0116,0.003 -0.0162,0.0176 -0.0243,0.0264 0.0386,0.009 0.0773,0.0173 0.11596,0.026 0.70697,0.0302 1.41696,-0.002 2.12366,0.0448 1.83385,0.0833 3.66235,0.23757 5.48262,0.47914 2.30303,0.26156 4.60703,0.27537 6.92425,0.23274 2.40437,0 4.80874,0 7.2131,0 2.33158,0 4.66315,0 6.99472,0 1.83868,1e-5 3.67737,2e-5 5.51606,2e-5 1.30878,-10e-6 2.61756,2e-5 3.92634,-2.3e-4 1.55651,-3.6e-4 3.11302,-9.8e-4 4.66953,-0.002 2.00292,-8.6e-4 4.00587,-0.003 6.00877,0.007 2.03378,0.0154 4.06889,0.0332 6.09919,0.16491 1.42777,0.10484 2.84855,0.28276 4.28358,0.20799 2.63884,0 5.27767,0 7.91651,0 3.12273,0 6.24546,0 9.3682,0 1.9416,0 3.8832,0 5.82481,0 10.69519,0 10.69519,15.12528 0,15.12528 z"
         id="path4241"
         style="display:inline;opacity:1;fill:#803300;fill-opacity:1" />
      <path
         inkscape:connector-curvature="0"
         d="m 83.369114,964.64888 c 2.34892,-0.2602 4.71474,-0.30195 7.07539,-0.34739 3.12209,-0.1173 6.23788,0.0478 9.34698,0.31752 2.560856,0.12869 5.069246,0.58323 7.546746,1.22084 1.13631,0.31265 2.2573,0.70787 3.42261,0.90319 1.21219,0.32073 2.45765,0.41937 3.69662,0.57239 1.71488,0.23611 3.38496,0.70378 5.10388,0.90775 1.85162,0.23812 3.70038,0.4925 5.55009,0.74509 1.61789,0.12919 3.22319,0.24975 4.82207,0.54753 1.30905,0.29578 2.65013,0.33167 3.98531,0.37267 3.02913,0.0579 6.05915,0.0467 9.0887,0.0468 3.38433,-10e-4 6.76867,-0.003 10.153,-0.005 3.05401,-8.9e-4 6.10802,-10e-4 9.16203,-10e-4 2.10929,-0.0532 4.22661,0.0855 6.33367,-0.0373 1.81219,-0.12547 3.6251,-0.23466 5.44071,-0.29435 1.71431,-0.0463 3.42938,-0.047 5.14418,-0.049 1.8067,-3.7e-4 3.6134,10e-4 5.42009,0.002 2.06913,6.4e-4 4.13826,7.3e-4 6.20738,8.1e-4 1.77957,5e-5 3.55914,3e-5 5.33871,3e-5 1.21851,-10e-6 2.43702,-10e-6 3.65552,-10e-6 1.17031,-0.0128 2.3194,-0.0202 3.48137,0.19682 1.22303,0.2284 1.7165,0.48274 2.80921,0.92477 1.24995,0.46576 2.29743,1.2724 3.3476,2.0665 8.29263,6.7542 -1.25926,18.48176 -9.55189,11.72755 l 0,0 c 0.21671,0.11388 1.21856,0.54505 0.17782,0.0788 0.23097,0.0306 0.45738,0.0944 0.68946,0.11494 0.24252,0.0215 0.48749,-0.003 0.73023,0.0159 0.17451,0.0135 -0.35008,0 -0.52512,0 -0.56452,0 -0.58397,0 -1.15866,0 -1.21849,10e-6 -2.43698,10e-6 -3.65548,10e-6 -1.77978,10e-6 -3.55956,2e-5 -5.33934,-2e-5 -2.07072,-8e-5 -4.14144,-1.8e-4 -6.21216,-8.1e-4 -1.79926,-6.4e-4 -3.59851,-0.002 -5.39776,-0.002 -1.55814,0.002 -3.11651,0.002 -4.67426,0.0411 -1.74712,0.0548 -3.49067,0.1742 -5.23487,0.28633 -2.34085,0.0934 -4.68364,0.0404 -7.02601,0.0532 -3.05241,8e-5 -6.10481,2e-4 -9.15721,10e-4 -3.38629,0.001 -6.77258,0.003 -10.15886,0.005 -3.19282,-1.3e-4 -6.38621,0.0124 -9.57849,-0.0547 -2.12183,-0.0716 -4.24789,-0.18623 -6.33018,-0.63285 -0.15597,-0.0313 -0.31718,-0.043 -0.46793,-0.0938 -0.0336,-0.0113 0.13745,-0.0263 0.10215,-0.0295 -1.22125,-0.11239 -2.45765,-0.0911 -3.67165,-0.29578 -1.80838,-0.2479 -3.61557,-0.4976 -5.42622,-0.72866 -1.70669,-0.22772 -3.38796,-0.56511 -5.07504,-0.90407 -1.55323,-0.20459 -3.11928,-0.33474 -4.64308,-0.7227 -1.47094,-0.29324 -2.92726,-0.65682 -4.35692,-1.11295 -0.55818,-0.14447 -1.14026,-0.35017 -1.71024,-0.44266 -1.11378,-0.18072 -2.248346,-0.24781 -3.369856,-0.35558 -2.57722,-0.22539 -5.15825,-0.3729 -7.74689,-0.26324 -1.83015,0.0344 -3.66389,0.0595 -5.48735,0.23333 -10.6126,1.32657 -12.48866,-13.68191 -1.87606,-15.00848 z"
         id="path4243"
         style="display:inline;opacity:1;fill:#803300;fill-opacity:1" />
      <path
         inkscape:connector-curvature="0"
         d="m 210.61951,1006.2139 c 0.0695,3.2411 -0.35235,6.2817 -3.12308,8.6288 -1.16876,0.9901 -2.81004,1.2201 -4.21505,1.8301 -1.50479,-0.221 -3.04613,-0.2663 -4.51437,-0.6632 -0.72959,-0.1973 -1.34758,-0.6894 -1.98599,-1.094 -1.72416,-1.0925 -3.20684,-2.6132 -4.67158,-4.0174 -1.36933,-1.2402 -2.43212,-2.7729 -3.76096,-4.0495 -0.23257,-0.2235 -1.06051,-0.9413 -1.26264,-1.1179 -1.04615,-0.8358 -2.35557,-1.2181 -3.59446,-1.6817 -2.5613,-0.8469 -5.14602,-1.6253 -7.72735,-2.4101 -2.92014,-0.8238 -5.85716,-1.5958 -8.80861,-2.29979 -2.25793,-0.5956 -4.54415,-1.0488 -6.84223,-1.4553 -1.42834,-0.17933 -2.84351,-0.45135 -4.27222,-0.62659 -6.53859,-0.64069 -1.84625,2.35549 -1.36757,-15.22366 2.35859,-0.018 4.71743,-0.008 7.0761,-0.007 4.88098,-0.0809 9.75665,0.11191 14.62363,0.46723 3.18138,0.26621 6.33456,0.75971 9.43267,1.52568 1.6431,0.47004 3.17347,1.21175 4.6306,2.09311 0.76152,0.46062 1.47127,0.94998 2.25565,1.36739 1.82198,0.87077 3.54388,1.9184 5.19437,3.07742 1.66476,1.18233 3.05816,2.66435 4.41275,4.17782 0.1113,0.1108 0.21808,0.22632 0.33388,0.3324 0.1848,0.1693 0.46534,0.27636 -0.15773,-0.16525 -0.20295,-0.14384 -0.29968,-0.17984 -0.51118,-0.27954 -0.97678,-0.36582 -2.14408,-0.0913 -3.06785,0.29286 -0.31086,0.12928 -0.5832,0.33655 -0.8748,0.50482 -0.76123,0.69372 -0.70901,0.70299 -0.41796,0.0322 0.13825,-0.31864 0.21925,-0.59861 0.29195,-0.93265 0.0121,-0.0754 0.0629,-0.29782 0.0364,-0.22617 -0.31541,0.8554 -0.14487,1.99491 0.20928,2.81063 0.13122,0.30226 0.30914,0.58201 0.46371,0.873 -0.056,0.2748 1.01721,0.9996 1.08004,1.2051 0.0394,0.1288 -0.26974,0.01 -0.40387,0 -2.38591,-0.4196 -4.79642,-0.607 -7.20753,-0.806 -4.87767,-0.2515 -9.7231,-0.83813 -14.55201,-1.55062 -5.01689,-0.71326 -9.99476,-1.65986 -14.98754,-2.51692 -1.69025,-0.30724 -3.3945,-0.50525 -5.11085,-0.56083 -1.08577,-0.0235 -2.17192,-0.0117 -3.25782,-0.005 -1.0572,0.006 -2.11443,0.009 -3.17165,0.01 -10.69518,0.0135 -10.71423,-15.11179 -0.019,-15.12526 l 0,0 c 1.03358,-10e-4 2.06716,-0.003 3.10072,-0.01 1.29637,-0.008 2.5931,-0.021 3.8892,0.0146 2.39322,0.0908 4.77417,0.3416 7.13205,0.76981 4.87739,0.83959 9.74079,1.76272 14.64179,2.46159 4.50579,0.67074 9.02779,1.20676 13.57995,1.43856 2.79398,0.23079 5.58575,0.46892 8.35146,0.94455 3.73591,0.65764 6.53014,1.7107 9.06545,4.69775 0.36147,0.56879 0.77229,1.10908 1.08442,1.70638 1.27858,2.44671 1.34103,5.28602 0.65257,7.90739 -0.8765,3.02109 -2.16611,5.86239 -4.38546,8.15409 -0.67049,0.5061 -1.28155,1.1024 -2.01148,1.5182 -2.58055,1.4699 -5.5004,1.6733 -8.31664,0.923 -1.08244,-0.3493 -1.53949,-0.4477 -2.57552,-0.998 -1.58886,-0.8438 -2.95189,-2.0088 -4.15701,-3.3342 -0.61994,-0.6934 -1.20613,-1.4154 -1.95834,-1.9736 -1.11421,-0.8581 -2.40431,-1.4494 -3.64266,-2.1007 -1.11347,-0.6183 -2.3103,-1.23769 -3.28636,-2.05169 -2.25629,-0.5731 -4.56087,-0.9035 -6.87857,-1.1154 -4.49863,-0.33596 -9.00576,-0.50207 -13.51761,-0.42623 -2.1651,-9.9e-4 -4.33025,-7e-4 -6.49531,-0.004 0.0953,-14.7166 -4.67558,-15.67055 2.6862,-14.89713 1.6795,0.21531 3.34717,0.51125 5.02473,0.74074 2.59244,0.462 5.17363,0.97403 7.72286,1.63896 3.24425,0.78081 6.47685,1.6182 9.68459,2.53775 2.89516,0.88101 5.79779,1.74519 8.66013,2.72737 2.94679,1.11651 5.86472,2.34931 8.24756,4.47618 0.81479,0.7194 1.38409,1.20286 2.17035,1.98544 1.16895,1.16346 2.17848,2.46692 3.34385,3.63292 0.55431,0.53369 0.99022,0.96239 1.55122,1.47259 0.17703,0.161 0.36294,0.3121 0.53897,0.4742 0.0666,0.061 0.27876,0.198 0.18831,0.1955 -1.31001,-0.037 -2.10384,-3.10999 -3.91065,-0.4051 -1.12754,0.5669 -2.46822,0.8308 -3.38263,1.7006 -1.90534,1.8124 -1.93356,2.5683 -2.10828,4.3837 -0.007,0.074 0.0274,-0.1471 0.0297,-0.2215 0.0142,-0.4586 -0.0121,-0.9177 0,-1.3763 0,-10.69521 15.12528,-10.69521 15.12528,0 z"
         id="path4245"
         style="display:inline;opacity:1;fill:#803300;fill-opacity:1" />
      <path
         inkscape:connector-curvature="0"
         d="m 121.60301,1001.5216 c 0.23321,-0.8008 0.48947,-1.59879 0.44053,-2.43339 -0.18033,0.4818 0.31077,0.8964 0.63981,1.13839 1.14843,0.5406 2.36203,0.1818 3.11136,-0.85379 0.42634,-0.7098 0.12019,-1.3461 -0.24149,-2.00973 -0.65263,-0.83632 -1.66233,-0.92407 -2.6212,-0.61776 -0.26037,0.0993 -0.50323,0.40129 -0.63631,0.59805 -0.0881,0.78004 0.0333,2.04794 0.87242,2.65024 0.33716,0.24199 0.71029,0.42949 1.06548,0.64419 0.25251,0.093 0.50783,0.1445 0.77452,0.138 -4.83945,0.2351 -5.17192,-6.60889 -0.33246,-6.84399 l 0,0 c 0.59121,-0.0217 1.17943,0.0329 1.74707,0.21306 0.42959,0.23983 0.88233,0.44226 1.28877,0.7195 1.2253,0.83586 1.53436,2.6616 1.26639,3.99534 -0.38867,1.57509 -1.17345,2.95859 -2.60796,3.81279 -0.35219,0.1681 -0.68389,0.3888 -1.05667,0.5041 -1.84334,0.5701 -3.65303,0 -4.96273,-1.3544 -0.24405,-0.3615 -0.53457,-0.6957 -0.73207,-1.0846 -0.69739,-1.37299 -0.5497,-2.98589 0.0154,-4.36405 0.96485,-1.76869 2.53714,-3.02587 4.67723,-2.69286 0.42071,0.0654 0.82425,0.21411 1.23633,0.32116 0.30479,0.16599 0.62786,0.30207 0.91428,0.49797 1.48362,1.01463 2.28036,2.67381 2.43207,4.43119 0.0162,1.53089 -0.22534,3.01589 -0.70243,4.47299 -1.33106,4.6587 -7.91955,2.7763 -6.5884,-1.8824 z"
         id="path5425"
         style="display:inline;opacity:1;fill:#ffd42a;fill-opacity:1" />
      <path
         inkscape:connector-curvature="0"
         d="m 30.084702,981.04661 c -0.28693,0.67898 -0.42019,1.41481 -0.53577,2.14131 -0.2338,2.18709 -0.25661,4.38978 -0.3903,6.58508 -0.11506,2.83844 -0.29992,5.67098 -0.494,8.50491 -0.2127,2.66119 -0.559003,5.30699 -0.861573,7.95839 -0.1412,1.9682 -0.41123,3.923 -0.60223,5.8863 -0.0999,1.0848 -0.14983,2.1733 -0.16897,3.2623 0.0111,1.0168 0,2.0248 -0.0919,3.0378 -0.0478,0.6424 -0.3059,1.2583 -0.3446,1.9012 -0.0205,0.1777 -0.0231,0.3558 -0.0239,0.5343 4.3e-4,0.2792 0,0.5584 0,0.8376 8.6e-4,0.4655 8.6e-4,0.9309 0,1.3964 9e-5,0.5466 9e-5,1.0931 9e-5,1.6397 -9e-5,0.6676 -9e-5,1.3353 -9e-5,2.003 0,0.2514 0,0.5029 0,0.7544 0,0.1361 0,0.2721 0,0.4082 0,0.2225 0,0.4451 0,0.6676 0,0.2363 0,0.4726 0,0.7089 0.0521,1.7138 -3.87674,-4.6824 -2.26507,-3.8827 0.18426,-0.011 -0.78503,-0.2793 -0.57899,-0.2426 0.8825,0.1574 1.77397,0.52 2.63649,0.7719 2.078853,0.5468 4.166663,0.9913 6.300703,1.2508 3.25238,0.3214 6.524162,0.2818 9.786542,0.4014 4.1993,0.1819 8.40014,0.2832 12.59841,0.4869 4.17461,0.1272 8.33889,0.4071 12.4994,0.7624 3.45057,0.3001 6.9125,0.4057 10.36828,0.6258 3.37036,0.1763 6.73909,0.3922 10.10253,0.6714 3.87153,0.3551 7.75844,0.4655 11.64364,0.5387 4.467516,0.062 8.930786,0.2808 13.397456,0.391 4.36433,0.086 8.72337,0.3268 13.08677,0.4516 4.41713,0.1095 8.83588,0.1159 13.25411,0.1246 4.72269,0 9.44529,0 14.16797,8e-4 3.93919,-8e-4 7.87829,0 11.81747,0 2.89498,0.024 5.7915,-0.058 8.68468,0.059 2.35665,0.1673 4.71491,0.2882 7.07668,0.348 2.58242,0.051 5.16552,0.051 7.74836,0.053 2.30437,0.015 4.60147,-0.2134 6.90191,-0.3275 2.28881,-0.1043 4.56849,-0.3356 6.85723,-0.4562 2.29266,-0.035 4.57567,-0.1604 6.86158,-0.3286 2.17256,-0.094 4.33683,-0.2577 6.50349,-0.439 1.79209,-0.1223 3.56922,-0.3922 5.35593,-0.5744 0.45129,-0.2427 -0.46308,0.2215 -0.49341,0.2394 -0.30572,0.2323 -0.85952,0.6166 -1.01328,0.9456 -0.95392,2.0416 -1.08957,4.1086 -0.87704,1.3591 0.23124,-1.5503 0.26131,-3.1202 0.30189,-4.6843 0.0478,-2.4623 0.0487,-4.9252 0.0513,-7.3879 0.14898,-2.7383 0.25319,-5.4804 0.43745,-8.2167 0.21698,-2.6134 0.32529,-5.2321 0.57473,-7.8427 0.2209,-2.0052 0.29146,-4.0209 0.33118,-6.03629 -0.0214,-2.5349 0.18016,-5.06254 0.30966,-7.59239 0.11506,-2.36135 0.14744,-4.72546 0.16615,-7.08917 0.009,-1.9442 0.18306,-3.8905 0.43557,-5.81748 0.25524,-1.52529 0.3686,-3.06683 0.43582,-4.61012 0.0923,-1.21897 0.28634,-2.42735 0.49135,-3.6316 0.51545,-2.81982 -0.13009,-0.98001 4.2896,4.90667 -0.7976,0.1088 -1.55478,-0.23985 -2.33068,-0.31116 -1.40666,-0.063 -2.80545,-0.21999 -4.20801,-0.34041 -2.90438,-0.29562 -5.79594,-0.69858 -8.69536,-1.03642 -3.93901,-0.42408 -7.88614,-0.71569 -11.84421,-0.87742 -4.57353,-0.17128 -9.14801,-0.16652 -13.72172,-0.031 -4.84851,0.17505 -9.69933,0.25659 -14.55049,0.3028 -4.85705,0.16482 -9.71359,0.3235 -14.57278,0.40909 -5.10444,0.0548 -10.21008,0.12945 -15.31417,0.0273 -5.01782,-0.19202 -10.03991,-0.23494 -15.0579,-0.40842 -4.9746,-0.22437 -9.95244,-0.33941 -14.93131,-0.40418 -5.09659,-0.032 -10.1912,-0.029 -15.285726,-0.18426 -4.51665,-0.0969 -9.02817,-0.28729 -13.54028,-0.50416 -3.96029,-0.13306 -7.9187,-0.32293 -11.87147,-0.60268 -3.62773,-0.26312 -7.24641,-0.64074 -10.86406,-1.01576 -3.0584,-0.2747 -6.12115,-0.50392 -9.17663,-0.81046 -2.50221,-0.20122 -4.98562,-0.56693 -7.48048,-0.83566 -1.42434,-0.19185 -2.83544,-0.47 -4.26755,-0.60087 -0.61795,-0.0502 -1.23769,-0.0644 -1.85735,-0.0678 -0.20979,-0.002 -0.41959,0.002 -0.62931,0.003 0.0282,-0.003 -0.771792,0.006 -0.730102,0.002 0.782812,-0.0809 0.870882,-0.12205 0.621022,-0.0223 -0.868752,0.24775 -0.21475,0.0187 -1.139112,0.48977 -0.30966,0.16974 -0.57891,0.66726 0.30564,-0.25992 0.470172,-0.49288 0.751382,-1.09288 0.508352,-0.59736 0.16564,-0.16187 -0.393462,1.11009 -0.417892,1.29943 -0.0658,0.70449 -0.28719,1.38509 -0.40097,2.08326 -0.23722,0.95613 -0.53184,1.89783 -0.85338,2.82827 -0.1365,0.35923 -0.26976,0.71969 -0.40037,1.0811 -0.009,0.0176 -0.0128,0.0351 -0.0188,0.0527 -2.1834,6.08005 -10.781893,2.99218 -8.598483,-3.08786 l 0,0 c 0.009,-0.0238 0.0171,-0.0477 0.0256,-0.0716 0.15676,-0.43333 0.3165,-0.86557 0.48119,-1.29594 -0.27096,1.08533 0.3938,-1.54323 0.36305,-1.07066 0.1758,-0.98354 0.41746,-1.94306 0.5889,-2.92627 0.29505,-1.02016 0.66912,-2.02031 1.07146,-3.00182 0.722083,-1.4187 1.791233,-2.46164 3.197803,-3.1736 0.94452,-0.48122 1.90271,-0.95121 2.94555,-1.1805 0.77701,-0.19613 1.5711,-0.31632 2.373732,-0.2841 0.25379,-0.003 0.50758,-0.005 0.76146,-0.004 0.88865,0.006 1.77748,0.0311 2.66322,0.10838 1.47141,0.14249 2.92864,0.3803 4.388,0.61306 2.47359,0.26808 4.93607,0.62877 7.41709,0.82905 3.06301,0.31183 6.1349,0.53102 9.20072,0.81291 3.51985,0.36504 7.04063,0.73374 10.57039,0.9901 3.88263,0.27801 7.7715,0.4569 11.66157,0.59017 4.45882,0.21436 8.91703,0.40298 13.38054,0.49787 5.041226,0.15433 10.082536,0.14674 15.125826,0.18079 5.04524,0.0659 10.08945,0.18191 15.13034,0.40894 4.97408,0.17473 9.95252,0.21136 14.92643,0.40479 4.98818,0.10424 9.97832,0.0212 14.96693,-0.0278 4.88379,-0.0857 9.76476,-0.24972 14.6465,-0.41009 4.79026,-0.0455 9.58025,-0.1261 14.36786,-0.29923 4.78863,-0.14083 9.5782,-0.14571 14.36649,0.0348 4.18683,0.17311 8.36255,0.4804 12.52904,0.93142 2.80828,0.32885 5.60963,0.71451 8.42192,1.00864 1.60629,0.13961 3.20942,0.28556 4.81597,0.41355 0.23559,0.0394 0.47213,0.074 0.70687,0.11823 0.1477,0.0279 0.29377,0.0636 0.4401,0.0978 0.0419,0.01 0.16581,0.034 0.12318,0.0335 -1.53496,-0.0177 -0.50024,-0.0582 -0.18281,-0.0442 7.1604,8.65029 4.92898,3.36907 4.56525,5.76393 -0.14197,0.83112 -0.27531,1.66446 -0.37039,2.50234 -0.0829,1.82165 -0.21663,3.64178 -0.51125,5.4432 -0.22672,1.5354 -0.33196,3.09998 -0.35143,4.65051 -0.0196,2.49553 -0.0555,4.99145 -0.17777,7.48442 -0.12506,2.43496 -0.32341,4.86722 -0.29949,7.30708 -0.0453,2.24539 -0.12813,4.49089 -0.37099,6.72499 -0.24294,2.5283 -0.33939,5.0654 -0.55448,7.5963 -0.17708,2.5308 -0.25251,5.0685 -0.4161,7.6005 0,2.5398 0,5.0799 -0.0547,7.6193 -0.0495,1.8491 -0.0976,3.7038 -0.36432,5.5373 -0.009,-0.078 0.0504,-0.2707 -0.0171,-0.2326 -0.15871,0.089 0.0624,0.3719 0.009,0.5461 -0.5872,1.9363 -0.61317,2.8419 -2.07501,3.8704 -1.12501,0.6931 -2.36296,1.1078 -3.67924,1.2681 -1.84103,0.187 -3.67224,0.4676 -5.51942,0.5896 -2.19691,0.1837 -4.39219,0.3505 -6.59498,0.4462 -2.34964,0.1728 -4.6974,0.3055 -7.05379,0.3407 -2.29796,0.1195 -4.58644,0.3586 -6.88491,0.4576 -2.453,0.1204 -4.90233,0.3653 -7.36011,0.3387 -2.65802,0 -5.31629,0 -7.97388,-0.056 -2.41515,-0.062 -4.82749,-0.1786 -7.23727,-0.3536 -2.76035,-0.1301 -5.52762,-0.01 -8.29003,-0.05 -3.9385,3e-4 -7.87692,8e-4 -11.81542,0 -4.72952,0 -9.45895,0 -14.18847,-9e-4 -4.49947,-0.01 -8.99954,-0.016 -13.49799,-0.1283 -4.35135,-0.1249 -8.69852,-0.3631 -13.05073,-0.4506 -4.44907,-0.1101 -8.89482,-0.3274 -13.344746,-0.3899 -4.08108,-0.078 -8.16386,-0.1969 -12.23058,-0.5687 -3.30356,-0.2774 -6.61309,-0.4828 -9.92348,-0.6582 -3.5213,-0.2244 -7.04909,-0.3303 -10.56483,-0.6405 -4.0493,-0.3458 -8.10193,-0.6179 -12.16498,-0.7399 -4.16402,-0.2023 -8.3306,-0.3012 -12.49556,-0.4825 -3.52711,-0.1338 -7.065912,-0.081 -10.579872,-0.4657 -2.61479,-0.3339 -5.184993,-0.8588 -7.730163,-1.547 -1.20096,-0.3514 -2.41063,-0.6912 -3.58024,-1.1269 -1.52787,-0.7669 -2.80409,-2.5644 -2.78529,-4.289 0,-0.2363 0,-0.4726 0,-0.7089 0,-0.2225 0,-0.4451 0,-0.6676 0,-0.1361 0,-0.2721 0,-0.4082 0,-0.2515 0,-0.503 0,-0.7545 0,-0.6677 0,-1.3354 0,-2.003 0,-0.546 0,-1.092 -9e-5,-1.638 -8e-5,-0.4597 -8e-5,-0.9194 0,-1.3791 -6.8e-4,-0.3129 0,-0.6257 0,-0.9386 0.009,-0.5025 0.0273,-1.0046 0.0846,-1.5042 0.082,-0.6584 0.18665,-1.3164 0.3516,-1.9593 0.009,0.041 0.0171,0.1648 0.0196,0.1233 0.0359,-0.5803 0,-1.1742 0,-1.7557 0,-0.1539 0,-0.3078 0.009,-0.4616 0.0248,-1.3311 0.0865,-2.6617 0.21108,-3.9875 0.19861,-2.0121 0.46983,-4.016 0.61778,-6.0331 0.28813,-2.5138 0.61658,-5.0222 0.82373,-7.54493 0.1928,-2.81094 0.37577,-5.62026 0.48956,-8.43581 0.15615,-2.56008 0.15487,-5.13398 0.52304,-7.67606 0.54875,-2.81956 1.45338,-5.54718 3.67343,-7.51317 4.962903,-4.13573 10.811713,2.88284 5.848823,7.01857 z"
         id="path5345"
         style="opacity:1;fill:#1a1a1a;fill-opacity:1" />
      <path
         inkscape:connector-curvature="0"
         d="m 125.74807,996.24456 c -1.01773,0.46551 -1.9274,1.11759 -2.7982,1.81245 -0.21569,0.2363 -0.77777,0.5358 -0.82817,0.928 0,0.017 0.0453,0 0.0487,0.012 0.009,0.045 -0.012,0.092 -0.0171,0.1385 0.25661,-0.5352 0.087,0.5097 0.42472,0.4535 0.3498,0.43789 0.68927,0.57599 1.18114,0.80499 0.46384,-0.011 0.97442,0.24 1.40905,0.018 0.35057,-0.319 0.72541,-0.61029 1.08025,-0.92579 0.55619,-0.6304 0.24585,-0.2497 0.26302,-0.6772 0.1805,-0.7311 -0.0282,-1.25633 -0.28548,-1.91961 -0.30957,-0.55208 -0.56046,-1.28527 -1.08829,-1.66615 0.0858,0.0556 -0.40191,-0.31784 -0.29701,-0.24419 0.82082,0.57637 0.21979,0.24997 1.20736,0.69132 -6.17914,-1.88471 -3.51378,-10.62339 2.66536,-8.73867 l 0,0 c 1.07155,0.42892 2.05553,0.94751 2.85406,1.80102 1.4334,1.47079 2.54031,3.19906 3.27605,5.12239 0.76804,2.26895 1.12101,4.43589 0.61283,6.81348 -0.54577,2.3444 -1.40751,4.0875 -3.2172,5.7155 -1.70034,1.4594 -3.54983,2.6909 -5.80729,3.0762 -2.4841,0.2702 -4.60865,0.081 -6.909,-0.9717 -2.03972,-1.103 -3.82848,-2.5055 -4.98647,-4.5636 -0.22158,-0.4542 -0.47341,-0.8948 -0.66484,-1.3625 -0.82809,-2.0231 -0.88994,-4.23839 -0.37723,-6.34115 0.79315,-2.18017 1.92748,-3.92669 3.79926,-5.33834 1.50772,-1.18006 3.09376,-2.26643 4.8562,-3.03575 5.93783,-2.54481 9.53677,5.85262 3.59886,8.39743 z"
         id="path5347"
         style="opacity:1;fill:#1a1a1a;fill-opacity:1" />
      <path
         inkscape:connector-curvature="0"
         d="m 41.382824,953.93219 c 1.74923,-0.88276 3.2746,-2.24933 4.73459,-3.54219 4.12524,-3.93712 7.81683,-8.30129 11.45549,-12.68325 3.72137,-4.61793 7.38648,-9.28457 10.79312,-14.14072 1.43971,-2.10331 2.96002,-4.1479 4.40627,-6.24618 0.96621,-1.44004 2.12022,-2.73096 3.3121,-3.98446 1.22318,-1.23226 2.42097,-2.49154 3.54257,-3.81758 0.47718,-0.53182 0.91363,-1.09463 1.32147,-1.68027 4.5131,-6.30528 13.43011,0.0772 8.91701,6.38249 l 0,0 c -0.6006,0.82789 -1.20942,1.64885 -1.89315,2.41148 -1.26163,1.47236 -2.57718,2.89793 -3.94901,4.26849 -0.7969,0.83405 -1.58333,1.67964 -2.22317,2.64463 -1.46465,2.12333 -2.99948,4.19539 -4.45931,6.3224 -3.58085,5.09657 -7.41994,10.0038 -11.33388,14.84805 -4.01035,4.82297 -8.08094,9.62701 -12.66328,13.92301 -2.78729,2.42289 -5.70853,4.83238 -9.30122,5.93252 -7.52249,1.88062 -10.182097,-8.75779 -2.6596,-10.63842 z"
         id="path4240"
         style="fill:#1a1a1a;fill-opacity:1" />
      <path
         inkscape:connector-curvature="0"
         d="m 87.700544,905.87629 c 3.2192,-0.62992 6.51946,-0.6388 9.78661,-0.71001 12.583426,-0.1187 25.167966,-0.0888 37.751836,-0.0914 20.87783,-7.5e-4 41.75566,0.002 62.63348,0.003 15.59939,9.5e-4 31.19878,10e-4 46.79817,0.002 4.10311,5e-5 8.20622,8e-5 12.30933,5e-5 0.59629,-10e-6 1.19259,-10e-6 1.78888,-2e-5 7.75401,-6e-5 7.7541,10.96577 8e-5,10.96583 l 0,0 c -0.59629,0 -1.19258,10e-6 -1.78888,2e-5 -4.10319,3e-5 -8.20638,0 -12.30957,-5e-5 -15.59957,-2.4e-4 -31.19915,-6.7e-4 -46.79872,-0.002 -20.87683,-10e-4 -41.75365,-0.004 -62.63048,-0.003 -12.50598,0.003 -25.01258,-0.0263 -37.518136,0.0888 -2.54817,0.0541 -5.12115,0.0436 -7.64378,0.45142 -7.56936,1.68208 -9.94818,-9.02262 -2.37882,-10.7047 z"
         id="path4244"
         style="fill:#1a1a1a;fill-opacity:1" />
      <path
         inkscape:connector-curvature="0"
         d="m 221.82314,960.59697 c 1.69114,-3.18921 3.76135,-6.15474 5.86251,-9.08258 2.76281,-3.76363 5.73498,-7.37023 8.72936,-10.95075 2.93026,-3.39032 6.14456,-6.51803 9.30161,-9.69374 1.97756,-1.98522 3.93121,-3.9933 5.99389,-5.89072 1.21571,-1.09492 2.41116,-2.21166 3.58877,-3.34736 0.97503,-1.12415 2.02244,-2.18045 3.04436,-3.26127 1.25377,-1.19454 2.49038,-2.39852 3.676,-3.66076 0.26505,-0.28301 0.57401,-0.59103 0.81375,-0.90683 0.0364,-0.048 0.13118,-0.20151 0.0925,-0.15528 -0.40769,0.48767 -0.53439,0.95518 -0.67846,1.56675 -0.0126,0.10478 0.002,0.21669 -0.0378,0.31433 -0.003,0.009 -0.0504,-0.0652 -0.14478,-0.26851 -0.24106,-0.51949 -0.45878,-1.04988 -0.69058,-1.57357 -0.36241,-0.8657 -0.19384,-0.48303 -0.49739,-1.15164 -3.17555,-7.07394 6.82851,-11.56484 10.00406,-4.49091 l 0,0 c 0.3882,0.87083 0.21554,0.46667 0.52343,1.21012 0.89961,2.03847 1.80949,4.09532 1.80112,6.37383 -0.067,0.57544 -0.078,1.16021 -0.201,1.72632 -0.41884,1.92746 -1.65458,3.48529 -2.99353,4.8646 -1.19347,1.26964 -2.42029,2.50235 -3.69963,3.68581 -1.13831,1.20368 -2.28694,2.39497 -3.40093,3.62133 -1.24113,1.19628 -2.4997,2.37408 -3.78053,3.52786 -1.94315,1.78302 -3.77083,3.68384 -5.63643,5.54703 -2.93606,2.95341 -5.92759,5.85961 -8.66775,8.99893 -2.8236,3.37385 -5.62617,6.77262 -8.23634,10.31548 -1.76569,2.45108 -3.50626,4.93171 -4.95808,7.5856 -3.4677,6.93539 -13.27583,2.03133 -9.80813,-4.90407 z"
         id="path4246"
         style="fill:#1a1a1a;fill-opacity:1" />
      <path
         inkscape:connector-curvature="0"
         d="m 224.27744,1011.2557 c 2.05115,-2.524 3.90087,-5.202 5.77603,-7.8569 3.5745,-5.36169 7.62208,-10.36631 11.68366,-15.35974 6.01004,-7.5948 12.74671,-14.5513 19.37528,-21.59585 3.26404,-3.48656 1.70962,-1.82412 4.66384,-4.98679 5.293,-5.66646 13.30659,1.81898 8.01358,7.48544 l 0,0 c -2.96896,3.17843 -1.40536,1.50621 -4.69136,5.01615 -6.44812,6.85221 -13.00942,13.61163 -18.85436,21.00063 -3.90521,4.80097 -7.80361,9.60686 -11.23396,14.76686 -2.11052,2.9876 -4.19245,6.0035 -6.53674,8.8155 -5.15149,5.7954 -13.34745,-1.4899 -8.19597,-7.2853 z"
         id="path4256"
         style="fill:#1a1a1a;fill-opacity:1" />
      <path
         inkscape:connector-curvature="0"
         d="m 273.95661,919.28882 c 0,3.21788 0,6.43575 0,9.65362 0.0362,5.08809 -0.0508,10.17741 0,15.26535 0.0252,2.52596 0.14583,6.61053 0.21336,9.12375 0.0566,1.35947 0.11309,2.71895 0.16964,4.07842 0.32114,7.74736 -10.63528,8.20152 -10.95642,0.45416 l 0,0 c -0.0584,-1.41279 -0.11673,-2.82558 -0.1751,-4.23837 -0.22056,-8.22713 -0.26399,-16.45331 -0.21731,-24.68331 0,-3.21787 0,-6.43574 0,-9.65362 0,-7.75401 10.96583,-7.75401 10.96583,0 z"
         id="path4258"
         style="fill:#1a1a1a;fill-opacity:1" />
      <path
         inkscape:connector-curvature="0"
         d="m 92.453264,917.73106 c 0,2.29445 0,4.5889 0,6.88334 0,2.54249 0,5.08497 0,7.62746 0,1.44713 0,2.89426 0,4.34139 0,1.22683 0,2.45366 0,3.68049 0,1.22109 0,2.44219 0,3.66328 0,1.24717 0,2.49434 0,3.7415 0,1.08307 0,2.16613 0,3.2492 0,1.05207 0,2.10414 0,3.15621 0,7.75401 -10.96583,7.75401 -10.96583,0 l 0,0 c 0,-1.05207 0,-2.10414 0,-3.15621 0,-1.08307 0,-2.16613 0,-3.2492 0,-1.24716 0,-2.49433 0,-3.7415 0,-1.22109 0,-2.44219 0,-3.66328 0,-1.22683 0,-2.45366 0,-3.68049 0,-1.44713 0,-2.89426 0,-4.34139 0,-2.54249 0,-5.08497 0,-7.62746 0,-2.29444 0,-4.58889 0,-6.88334 0,-7.75401 10.96583,-7.75401 10.96583,0 z"
         id="path4264"
         style="fill:#1a1a1a;fill-opacity:1" />
      <path
         inkscape:connector-curvature="0"
         d="m 87.710324,950.07763 c 2.21081,0 4.42161,0 6.63241,0 6.517936,0 13.035886,0 19.553826,0 9.58365,0 19.1673,0 28.75094,0 3.76107,0 7.52214,0 11.2832,0 1.52052,0 3.04103,0 4.56154,0 2.04946,0 4.09892,0 6.14838,0 2.87522,0 5.75043,0 8.62564,0 2.67103,0 5.34205,0 8.01308,0 1.84883,0 3.69766,0 5.54649,0 1.85564,0 3.71129,0 5.56694,0 2.51215,0 5.02431,0 7.53647,0 3.04393,0 6.08786,0 9.13179,0 1.9524,0 3.9048,0 5.8572,0 1.07998,0 2.15995,0 3.23993,0 0.9834,0 1.96681,0 2.95021,0 0.98691,0 1.97382,0 2.96072,0 0.16468,0 0.32936,0 0.49404,0 7.75401,0 7.75401,10.96583 0,10.96583 l 0,0 c -0.16468,0 -0.32936,0 -0.49404,0 -0.9869,0 -1.97381,0 -2.96072,0 -0.9834,0 -1.96681,0 -2.95021,0 -1.07998,0 -2.15995,0 -3.23993,0 -1.9524,0 -3.9048,0 -5.8572,0 -3.04393,0 -6.08786,0 -9.13179,0 -2.51216,0 -5.02432,0 -7.53647,0 -1.85565,0 -3.7113,0 -5.56694,0 -1.84883,0 -3.69766,0 -5.54649,0 -2.67103,0 -5.34205,0 -8.01308,0 -2.87521,0 -5.75042,0 -8.62564,0 -2.04946,0 -4.09892,0 -6.14838,0 -1.52051,0 -3.04102,0 -4.56154,0 -3.76106,0 -7.52213,0 -11.2832,0 -9.58364,0 -19.16729,0 -28.75094,0 -6.51794,0 -13.03589,0 -19.553826,0 -2.2108,0 -4.4216,0 -6.63241,0 -7.75401,0 -7.75401,-10.96583 0,-10.96583 z"
         id="path4266"
         style="fill:#1a1a1a;fill-opacity:1" />
      <path
         inkscape:connector-curvature="0"
         d="m 87.540854,962.78844 c -1.67102,0.43789 -3.26011,1.09737 -4.83968,1.78553 -1.02868,0.46372 -2.04652,0.93757 -3.01933,1.50986 -6.72008,3.86848 -12.19095,-5.63515 -5.47086,-9.50363 l 0,0 c 1.33581,-0.75973 2.70486,-1.44568 4.11383,-2.06092 1.87632,-0.816 3.77004,-1.59637 5.74834,-2.13393 7.3561,-2.45204 10.8238,7.95106 3.4677,10.40309 z"
         id="path4268"
         style="fill:#1a1a1a;fill-opacity:1" />
    </g>
  </g>
</svg>
