<?xml version="1.0" encoding="UTF-8" standalone="no"?>
<!-- Created with Inkscape (http://www.inkscape.org/) -->

<svg
   xmlns:dc="http://purl.org/dc/elements/1.1/"
   xmlns:cc="http://creativecommons.org/ns#"
   xmlns:rdf="http://www.w3.org/1999/02/22-rdf-syntax-ns#"
   xmlns:svg="http://www.w3.org/2000/svg"
   xmlns="http://www.w3.org/2000/svg"
   xmlns:sodipodi="http://sodipodi.sourceforge.net/DTD/sodipodi-0.dtd"
   xmlns:inkscape="http://www.inkscape.org/namespaces/inkscape"
   width="800pt"
   height="300pt"
   viewBox="0 0 1000 375"
   id="svg4469"
   version="1.1"
   inkscape:version="0.91 r13725"
   sodipodi:docname="drawer_close.svg">
  <defs
     id="defs4471" />
  <sodipodi:namedview
     id="base"
     pagecolor="#ffffff"
     bordercolor="#666666"
     borderopacity="1.0"
     inkscape:pageopacity="0.0"
     inkscape:pageshadow="2"
     inkscape:zoom="0.98994949"
     inkscape:cx="502.64942"
     inkscape:cy="206.26082"
     inkscape:document-units="px"
     inkscape:current-layer="layer1"
     showgrid="false"
     units="pt"
     inkscape:showpageshadow="false"
     inkscape:window-width="1855"
     inkscape:window-height="1056"
     inkscape:window-x="65"
     inkscape:window-y="24"
     inkscape:window-maximized="1" />
  <metadata
     id="metadata4474">
    <rdf:RDF>
      <cc:Work
         rdf:about="">
        <dc:format>image/svg+xml</dc:format>
        <dc:type
           rdf:resource="http://purl.org/dc/dcmitype/StillImage" />
        <dc:title />
      </cc:Work>
    </rdf:RDF>
  </metadata>
  <g
     inkscape:groupmode="layer"
     id="layer2"
     inkscape:label="Paint">
    <path
       style="fill:#aa4400;fill-opacity:1"
       id="path4147"
       d="m 132.98567,42.201917 c 17.81135,-1.040691 35.67907,-0.86202 53.51441,-0.943264 28.71696,0.0075 57.43675,-0.3377 86.15204,0.131266 22.84537,0.373101 27.09439,0.653288 49.83583,1.50897 33.94121,1.644806 67.89817,3.90018 101.61095,8.278928 4.87287,0.632908 9.72901,1.388556 14.59352,2.082834 13.60774,2.107777 27.19271,4.355767 40.80899,6.407306 6.69417,1.011506 13.27423,2.62943 19.97045,3.624771 9.71455,1.205423 19.50227,1.594873 29.26277,2.26395 17.64214,1.268291 35.33167,1.501819 53.01087,1.694478 27.44825,0.201392 54.89754,0.177255 82.34635,0.17772 30.74699,-0.0054 61.49398,-0.01272 92.24097,-0.01654 27.49787,-0.0029 54.99574,-0.0035 82.4936,-0.0039 9.60711,0.154862 19.20798,-0.222609 28.80103,-0.684705 2.62147,-0.133135 5.24464,-0.232438 7.86905,-0.282426 0.56436,-0.01075 2.25483,-0.08188 1.6932,-0.02535 -1.70668,0.171772 -3.42165,0.24767 -5.13247,0.371506 -2.81738,-1.607407 -5.0311,2.760304 -7.61544,2.206916 -1.06344,-0.227714 1.97881,-0.905267 2.98986,-1.305906 4.36479,-1.729586 8.80674,-2.897561 13.38552,-3.890347 5.47409,-1.037089 10.90494,-2.271887 16.35966,-3.402973 24.81114,-5.166751 7.4451,-5.682728 19.10407,79.550449 0.14225,1.03988 -2.0668,0.37168 -3.10759,0.5071 -1.22248,0.15907 -2.4528,0.25065 -3.6792,0.37597 -4.05159,0.2924 -8.11579,0.30979 -12.17579,0.32563 -3.25947,0.006 -6.51894,0.001 -9.77841,-0.001 -3.77623,-0.003 -7.55245,-0.003 -11.32868,-0.003 -7.55827,-2.7e-4 -15.11655,-1.8e-4 -22.67483,-1.7e-4 -12.9876,3e-5 -25.97521,3e-5 -38.96282,4e-5 -10.66703,0 -21.33407,0 -32.0011,1e-5 -57.85714,0 -57.85715,-81.82236 0,-81.822362 l 0,0 c 10.66702,0 21.33404,-10e-7 32.00106,-5e-6 12.98758,-6e-6 25.97516,-1.5e-5 38.96274,-3.8e-5 7.56022,-1.1e-5 15.12043,-1.06e-4 22.68065,1.69e-4 3.79586,2.64e-4 7.59172,3.93e-4 11.38759,0.0031 3.13612,0.0025 6.27225,0.0073 9.40837,0.002 1.94472,-0.0069 3.88979,-0.02555 5.83394,-0.05575 -29.37413,4.152121 -0.67592,20.730174 13.19839,80.702266 0.20396,0.88164 3.48483,-0.93933 2.64971,-0.59079 -0.57275,0.23903 -4.06331,0.94831 -4.99337,1.14323 -5.34878,1.09356 -10.67233,2.30599 -16.03392,3.33511 -2.72749,0.50826 1.27221,-0.6362 1.76772,-0.87433 4.10609,-1.97327 -17.80099,7.91544 -13.0859,4.35965 -4.9519,0.54432 -9.81554,1.05462 -14.78797,1.09955 -10.9031,0.52449 -21.8156,0.92605 -32.73407,0.77934 -27.49481,3.3e-4 -54.98961,9.2e-4 -82.48442,0.004 -30.75085,0.004 -61.5017,0.0112 -92.25255,0.0165 -27.74781,-4.8e-4 -55.49613,0.0239 -83.24336,-0.18265 -19.25002,-0.2129 -38.50986,-0.49876 -57.71906,-1.88186 -12.10721,-0.83331 -24.25298,-1.32681 -36.27911,-3.05119 -6.55157,-1.04788 -13.04439,-2.37568 -19.5696,-3.56319 -13.41624,-2.03126 -26.80789,-4.21581 -40.21301,-6.31952 -35.68651,-5.15656 -71.65188,-8.01574 -107.66928,-9.58998 -21.61311,-0.82104 -25.79154,-1.09468 -47.52649,-1.4543 -28.33084,-0.46875 -56.66637,-0.11608 -84.99893,-0.12837 -15.49149,0.0701 -30.99627,-0.005 -46.4781,0.60808 -57.619532,5.23814 -65.02738,-76.248189 -7.40784,-81.486329 z"
       inkscape:connector-curvature="0" />
    <path
       style="fill:#aa4400;fill-opacity:1"
       id="path4149"
       d="m 891.02169,220.75665 c -6.42605,0.81563 -12.9105,0.95 -19.37861,1.08333 -8.49768,0.12526 -16.9966,0.12354 -25.49501,0.12861 -12.10293,4.1e-4 -24.20586,-0.003 -36.30879,-0.005 -19.61664,-0.002 -39.23328,-0.002 -58.84992,-0.002 -19.08738,-1.1e-4 -38.17477,-9e-5 -57.26216,-6e-5 -7.96282,0.26186 -15.96659,-0.35623 -23.92324,0.0913 -6.33367,0.36715 -12.67185,0.57081 -19.00161,1.00014 -8.92039,0.66374 -17.86713,0.77577 -26.80762,0.86813 -11.41789,0.0791 -22.83616,0.0711 -34.25426,0.0701 -9.92378,-0.003 -19.84755,-0.006 -29.77133,-0.008 -8.34949,-0.001 -16.69898,-0.001 -25.04847,-0.002 -9.62521,-3e-5 -19.25041,1e-5 -28.87562,3e-5 -12.20164,-0.033 -24.4039,0.10062 -36.60378,-0.129 -11.19858,-0.32665 -22.3407,-1.51708 -33.50946,-2.30608 -9.06257,-0.57624 -17.99635,-2.10314 -26.7722,-4.39316 -4.70687,-1.16768 -9.55323,-1.69229 -14.33672,-2.51393 -9.23456,-1.61414 -18.40572,-3.5618 -27.55082,-5.61666 -9.77911,-2.47153 -19.43564,-5.39242 -29.1819,-7.99331 -7.61413,-2.14829 -15.34391,-3.82388 -23.0401,-5.64051 -8.16854,-2.02249 -16.3106,-4.14061 -24.39791,-6.46667 -6.49272,-1.7928 -13.03941,-3.35837 -19.59292,-4.90809 -7.54278,-1.86454 -15.14203,-3.47783 -22.71699,-5.19858 -7.90178,-1.93354 -15.86766,-3.58985 -23.79835,-5.39877 -5.71343,-1.32589 -11.56396,-1.80486 -17.3494,-2.70878 -4.48834,-0.65212 -8.94946,-1.56165 -13.47506,-1.92033 -6.03972,-0.35085 -12.0937,-0.34158 -18.14144,-0.37055 -7.94044,-0.0214 -15.88092,-0.009 -23.82137,-0.003 -6.53043,0.005 -13.06086,0.007 -19.5913,0.008 -2.76691,-0.018 -5.53432,0.0234 -8.30119,5.9e-4 -0.53311,-0.004 1.06983,0.0603 1.59937,-0.001 2.00238,-0.2332 3.98875,-0.58781 5.98313,-0.88171 1.42441,-0.45909 2.84883,-0.91817 4.27325,-1.37726 -53.029228,23.13764 -85.750795,-51.85701 -32.72157,-74.994647 l 0,0 c 2.37819,-0.875234 4.75638,-1.750469 7.13456,-2.625703 3.00362,-0.566202 5.98445,-1.270612 9.01085,-1.698604 4.29553,-0.607471 8.69242,-0.04502 13.00577,-0.243642 6.51549,-0.0013 13.03099,-0.0035 19.54648,-0.0084 8.09366,-0.006 16.18735,-0.019 24.281,0.0038 8.48069,0.04203 16.97408,0.05024 25.43324,0.73182 6.30332,0.628982 12.56135,1.566679 18.81023,2.601595 7.49996,1.308025 15.15982,1.732292 22.54582,3.720199 7.94323,1.817903 15.92566,3.46624 23.84011,5.40832 7.75531,1.797392 15.55741,3.395822 23.28219,5.330122 7.83183,1.852 15.65208,3.7456 23.40578,5.90728 6.82098,1.96705 13.69141,3.74118 20.5778,5.46577 8.45997,2.00307 16.95456,3.86332 25.32793,6.21624 8.70071,2.3248 17.34613,4.84205 26.03076,7.21843 7.79676,1.75653 15.61524,3.42453 23.48764,4.81006 7.18022,1.24249 14.45001,2.08412 21.47788,4.07591 3.76622,1.05354 7.62972,1.59795 11.53922,1.84872 9.78213,0.69943 19.54154,1.70932 29.34318,2.11637 11.65307,0.25156 23.31107,0.0466 34.96614,0.11261 9.62555,-2e-5 19.2511,-6e-5 28.87665,-2e-5 8.35422,9e-5 16.70844,2.1e-4 25.06266,0.002 9.92112,0.002 19.84223,0.005 29.76335,0.008 11.1381,9.7e-4 22.27635,0.009 33.41426,-0.0659 7.3816,-0.0739 14.77019,-0.13434 22.13525,-0.68695 7.12812,-0.47837 14.26449,-0.73587 21.39764,-1.12646 9.00765,-0.28625 18.02115,-0.0965 27.0324,-0.15041 19.08765,-2e-5 38.1753,-5e-5 57.26295,7e-5 19.61969,1.6e-4 39.23937,1.9e-4 58.85905,0.002 12.08347,0.001 24.16694,0.005 36.2504,0.005 7.96666,-0.005 15.93376,-0.003 23.89982,-0.11211 3.62474,-0.0704 7.26574,-0.0779 10.87355,-0.46801 57.41036,-7.17629 67.55917,74.01422 10.14881,81.19052 z"
       inkscape:connector-curvature="0" />
    <path
       style="fill:#aa4400;fill-opacity:1"
       id="path4151"
       d="m 167.64182,102.76389 c 16.80593,0.16462 33.60329,-0.19286 50.40396,-0.56522 35.22565,-1.36947 70.46143,-2.364332 105.70807,-2.972495 18.76309,-0.281702 37.52766,-0.472063 56.29282,-0.525456 5.65246,-0.01075 11.30492,0.0058 16.95737,0.0134 9.76283,0.262511 19.47096,1.504921 29.14146,2.798011 12.24407,1.85354 24.52352,3.42089 36.81308,4.93521 10.6432,1.52436 21.34629,2.49943 32.07707,3.11006 57.76133,3.3283 53.05441,85.01516 -4.70692,81.68686 l 0,0 c -12.50043,-0.72749 -24.9743,-1.83501 -37.37661,-3.58874 -12.58454,-1.55067 -25.16003,-3.15197 -37.69802,-5.04915 -6.10435,-0.82426 -12.21914,-1.58749 -18.36049,-2.06997 -5.53848,-0.007 -11.07696,-0.0237 -16.61544,-0.0136 -18.37255,0.0517 -36.7445,0.23912 -55.11503,0.51364 -35.11256,0.60385 -70.21341,1.61354 -105.30543,2.96457 -17.40437,0.38529 -34.80618,0.74728 -52.21589,0.58528 -57.85714,0 -57.85714,-81.82235 0,-81.82235 z"
       inkscape:connector-curvature="0" />
    <path
       style="fill:#aa4400;fill-opacity:1"
       id="path4153"
       d="m 88.601606,154.60395 c 10.739561,-2.77739 21.913244,-2.85248 32.932494,-3.1145 18.6915,-0.28587 37.38634,-0.24352 56.07951,-0.25165 23.45511,-0.0137 46.90278,-0.26438 70.34057,0.74445 18.28946,0.57294 36.41346,3.19827 54.56655,5.2945 13.99815,1.30522 27.97274,2.83115 41.93589,4.46478 18.72615,2.53725 37.6113,3.44417 56.44547,4.80777 25.92728,2.03164 51.75808,5.09197 77.53776,8.48481 25.59064,3.39467 51.19167,6.71997 76.75899,10.28704 22.7379,3.38894 45.45352,6.94141 68.13425,10.69553 14.36888,2.3254 28.63856,5.22905 43.04505,7.32005 9.37792,1.42302 18.83975,2.2217 28.30291,2.80504 11.63139,0.59329 23.2821,0.61658 34.92556,0.66772 13.09684,0.0345 26.19376,0.0194 39.29063,0.0118 7.61969,-0.005 15.23938,-0.009 22.85907,-0.0109 3.49859,-8.7e-4 6.99719,-9.1e-4 10.49579,-8.8e-4 5.13745,7e-5 10.2749,9e-5 15.41235,1.1e-4 6.8825,0.24041 13.73117,-0.33428 20.57293,-1.0015 8.10067,-0.82148 16.2202,-1.43656 24.35289,-1.82365 3.19651,-0.13831 6.39564,-0.19771 9.59487,-0.21615 2.17487,-0.0125 2.80466,0.25593 2.00479,-0.0604 -1.10709,-0.005 -1.07421,0.0443 0.0712,-0.16386 57.11638,-9.2287 70.16773,71.54605 13.05136,80.77475 l 0,0 c -4.95655,0.77378 -2.16029,0.38726 -8.40004,1.07507 -4.1642,0.18184 -8.32511,0.20415 -12.49103,0.32324 -6.81594,0.31266 -13.61827,0.85789 -20.40672,1.54292 -9.426,0.88645 -18.87386,1.61284 -28.35054,1.37197 -5.13753,-2e-5 -10.27507,-5e-5 -15.41261,-1.2e-4 -3.49085,-2e-5 -6.9817,2e-5 -10.47256,8.8e-4 -7.6113,0.002 -15.2226,0.006 -22.8339,0.0109 -13.23367,0.008 -26.46739,0.0229 -39.70103,-0.0126 -13.23671,-0.0591 -26.48169,-0.10514 -39.70257,-0.8285 -11.7176,-0.74916 -23.43179,-1.74557 -35.04555,-3.51082 -14.89753,-2.20496 -29.67971,-5.0759 -44.53298,-7.55246 -21.99519,-3.64565 -44.02649,-7.0818 -66.07594,-10.38146 -25.35806,-3.54161 -50.75114,-6.83232 -76.13247,-10.20205 -24.19241,-3.18943 -48.43214,-6.07154 -72.76209,-7.9978 -20.03695,-1.45125 -40.1243,-2.4581 -60.04722,-5.14878 -13.92587,-1.63046 -27.86491,-3.13171 -41.82395,-4.45176 -16.22171,-1.8784 -32.4135,-4.28704 -48.75515,-4.83152 -22.2283,-0.99813 -44.47174,-0.61817 -66.71701,-0.66575 -18.07409,0.008 -36.14968,-0.0319 -54.22233,0.22977 -4.1247,0.0922 -5.68042,0.10386 -9.59163,0.26805 -1.43031,0.06 -2.85662,0.23453 -4.28819,0.23658 -0.0329,5e-5 0.0318,-0.0576 0.0477,-0.0864 0.4951,-0.14334 0.99019,-0.28669 1.48529,-0.43003 -55.631032,15.89458 -78.109362,-62.77958 -22.478334,-78.67416 z"
       inkscape:connector-curvature="0" />
    <path
       style="fill:#aa4400;fill-opacity:1"
       id="path4155"
       d="m 900.16351,334.1739 c -9.25196,3.71047 -19.18013,5.04463 -29.0284,6.0498 -10.14696,0.87339 -20.33933,0.89086 -30.51559,0.94241 -14.73307,0.0327 -29.46621,0.0127 -44.1993,0.006 -21.96248,-0.009 -43.92497,-0.0102 -65.88745,-0.0114 -23.84622,-9.3e-4 -47.69244,-8.5e-4 -71.53866,-8.1e-4 -16.13632,-0.0985 -32.27672,0.18332 -48.41093,-0.12946 -9.31197,-0.41985 -18.6072,-1.16482 -27.88252,-2.07909 -8.42102,-0.92828 -16.75151,-2.4878 -25.15338,-3.56609 -8.97221,-1.37016 -18.0429,-1.7823 -27.06649,-2.67192 -9.05337,-1.03773 -18.11589,-1.85624 -27.21873,-2.28041 -11.40822,-0.63627 -22.81444,-1.31344 -34.21712,-2.04264 -11.68911,-0.91988 -23.37763,-1.86601 -35.07822,-2.62979 -9.85395,-0.53444 -19.70119,-1.18746 -29.54621,-1.86563 -10.28955,-0.43467 -20.55115,-1.23925 -30.79887,-2.25036 -9.17187,-1.20054 -18.3854,-1.9959 -27.59513,-2.83222 -8.87367,-0.41001 -17.68432,-1.40276 -26.49054,-2.52906 -7.51872,-1.29675 -15.1252,-1.7647 -22.71777,-2.36701 -7.43024,-0.55478 -14.85667,-1.1673 -22.27471,-1.86712 -8.58855,-0.87096 -17.02868,-2.73075 -25.55872,-4.00011 -7.77057,-1.11218 -15.45323,-2.73371 -23.25454,-3.62691 -5.97805,-0.72848 -11.94776,-1.55993 -17.94356,-2.13173 -7.44065,-0.46021 -14.8095,-1.64018 -22.10923,-3.11074 -4.27426,-0.88497 -8.57197,-1.69884 -12.92196,-2.09688 -3.40937,-0.3114 -6.83428,-0.35396 -10.25517,-0.38206 -5.251,-0.0182 -10.50205,-0.003 -15.75306,0.003 -5.23682,0.006 -10.47364,0.008 -15.71047,0.009 -4.26296,6.8e-4 -8.52592,6.2e-4 -12.78889,5.7e-4 -3.54964,-5e-5 -7.09928,-9e-5 -10.64892,-1.1e-4 -0.55189,0 -2.15342,0.23838 -1.65567,0 0.50078,-0.23984 1.11616,0.0744 1.66573,-0.005 2.61326,-0.37652 5.27921,-0.58459 7.80319,-1.35946 5.71541,-1.75463 14.71977,-6.55161 17.6758,-11.67436 4.37529,-7.58233 6.17679,-16.38251 9.26518,-24.57377 -2.21247,-11.74983 -0.87214,-12.86476 -5.40223,-20.43547 -2.59555,-4.33769 -1.50119,-1.90189 -3.7665,-4.83458 -0.1886,-0.24415 0.49549,0.37028 0.76325,0.52354 -3.08156,-2.49096 3.68429,2.15642 5.02572,2.4435 -0.24673,-0.13229 -0.99102,-0.27254 -0.74019,-0.39686 0.32044,-0.15882 0.693,0.17907 1.04429,0.24614 1.14183,0.21798 2.34917,0.25588 3.5063,0.32319 3.91551,0.17977 7.83655,0.17692 11.7553,0.17881 3.50307,-0.006 7.00612,-0.0201 10.50919,-0.0279 57.857,-0.12845 58.03865,81.69371 0.18165,81.82216 l 0,0 c -3.58063,0.008 -7.16125,0.0231 -10.74189,0.0281 -6.27032,-0.005 -12.54785,-0.0201 -18.80444,-0.48744 -9.5749,-0.90334 -19.07495,-2.55551 -28.06499,-6.10989 -1.70385,-0.74115 -3.43121,-1.43043 -5.11154,-2.22347 -6.405819,-3.02324 -12.431978,-6.90841 -18.304011,-10.83193 -5.74621,-4.49872 -11.296388,-9.24234 -15.405137,-15.37568 -1.579469,-2.35776 -3.339239,-4.69845 -4.21202,-7.39882 -1.908396,-5.90453 -2.701257,-12.11302 -4.051885,-18.16953 3.094335,-8.86051 4.722109,-18.37899 9.283004,-26.58154 2.366668,-4.25634 6.895338,-6.95874 10.904141,-9.72407 7.789836,-5.37353 17.611685,-7.20339 26.878208,-7.17819 3.54978,2e-5 7.09955,5e-5 10.64933,1.1e-4 4.25679,4e-5 8.51359,1.1e-4 12.77038,-5.8e-4 5.21028,-0.001 10.42057,-0.003 15.63085,-0.009 5.52953,-0.007 11.05912,-0.0231 16.58863,4.7e-4 5.97881,0.0575 11.9615,0.21085 17.9147,0.81083 7.09054,0.76459 14.1375,1.86079 21.1117,3.3638 4.45791,0.99167 9.00441,1.52342 13.55968,1.8075 6.54022,0.65855 13.06291,1.48541 19.58395,2.31038 8.67438,1.05657 17.25772,2.61927 25.88593,3.98376 7.02692,1.08435 14.00558,2.4582 21.04635,3.44122 6.99098,0.68364 13.99631,1.21736 20.99966,1.75511 8.87979,0.71734 17.77645,1.30286 26.57632,2.76783 7.81901,1.00015 15.63231,1.85412 23.51466,2.20363 9.43957,0.8584 18.88585,1.66298 28.28602,2.89797 9.42473,0.94628 18.86345,1.63226 28.32732,2.04238 9.75691,0.67243 19.51594,1.31894 29.28183,1.84784 11.66174,0.76934 23.31413,1.68513 34.96338,2.62234 10.95781,0.70747 21.92019,1.34669 32.88315,1.96787 10.51982,0.51358 21.00408,1.39089 31.46777,2.59481 9.82699,1.00836 19.71785,1.40086 29.48778,2.95109 7.54963,0.99567 15.05681,2.26118 22.60189,3.27398 7.17002,0.70742 14.35251,1.27978 21.5456,1.70162 15.56817,0.34956 31.14709,-0.037 46.71768,0.11195 23.84772,-4e-5 47.69545,-1.3e-4 71.54318,8e-4 21.97376,10e-4 43.94751,0.002 65.92126,0.0114 14.58484,0.007 29.16971,0.0263 43.75453,-0.005 7.65863,-0.0373 15.32838,-0.0167 22.97229,-0.55629 1.73283,-0.15265 2.65534,-0.21121 4.33888,-0.44051 0.62652,-0.0853 1.25096,-0.18599 1.87413,-0.29308 0.53713,-0.0923 1.0882,-0.47413 1.60629,-0.30501 1.04723,0.34185 -5.37523,0.78609 -3.07243,1.21742 53.1791,-22.79105 85.41051,52.41557 32.2314,75.20661 z"
       inkscape:connector-curvature="0" />
    <path
       style="fill:#803300;fill-opacity:1"
       id="path4159"
       d="m 149.70074,13.870464 c 8.6693,-0.08028 17.3329,0.05356 25.9983,0.304973 14.95434,0.464477 29.81129,2.234845 44.6015,4.393123 15.41251,2.35634 30.77087,5.046137 46.15599,7.572073 15.24832,2.41985 30.33944,5.666987 45.36925,9.171865 9.24359,2.177011 18.43374,4.571128 27.6786,6.742215 8.86852,2.108122 17.78983,3.981857 26.71595,5.827009 10.3836,1.651433 20.7135,3.570003 31.02592,5.616464 12.47066,2.251526 24.84456,4.980793 37.26521,7.483644 13.19765,2.871289 26.49411,5.255206 39.71029,8.03203 10.75315,2.408086 21.49157,4.912856 32.09407,7.920514 8.21012,2.393849 16.19594,5.468668 24.31442,8.144679 8.62933,3.106742 17.33435,5.988727 26.04435,8.860006 11.50921,3.649642 23.15853,6.867731 34.80435,10.054161 11.93892,3.27536 23.80173,6.82274 35.79348,9.90366 11.67596,2.9593 23.19861,6.46042 34.69169,10.05083 7.4525,2.31337 14.90813,4.61852 22.30286,7.11145 6.56712,2.19541 12.72018,5.39814 18.99882,8.28387 7.37798,3.48282 14.75023,6.97772 22.12351,10.47075 8.33744,4.03463 16.78881,7.82906 25.27917,11.52911 10.08726,4.56722 20.2175,9.03026 30.2368,13.74526 8.76295,3.8745 17.05248,8.70366 25.71415,12.77929 5.73548,2.45428 11.34716,5.18339 16.90204,8.0194 5.57181,2.79973 10.97057,5.87931 16.20297,9.27563 4.46853,3.02821 8.97028,6.00657 13.50914,8.92844 4.17367,2.85926 8.4299,5.60607 12.51799,8.589 5.95826,4.34753 2.24365,1.89495 5.92715,4.26853 7.07912,4.32935 13.92375,9.00995 20.83668,13.59492 4.375,2.77436 8.78231,5.48764 13.067,8.40143 47.6942,32.75229 1.37546,100.20207 -46.31873,67.44978 l 0,0 c -3.87673,-2.74107 -8.07942,-4.98696 -11.99223,-7.67583 -7.18219,-4.76971 -14.3119,-9.59641 -21.64409,-14.13769 -5.58729,-3.87387 -11.01451,-7.96707 -16.70047,-11.70195 -4.73647,-3.05221 -9.44091,-6.15455 -14.10507,-9.31595 -2.71547,-1.84602 -5.59785,-3.35189 -8.53672,-4.81788 -4.85705,-2.48569 -9.7854,-4.82344 -14.7978,-6.98176 -8.54262,-4.0868 -16.80946,-8.70932 -25.42733,-12.64359 -9.31163,-4.38369 -18.73201,-8.51976 -28.10187,-12.77751 -9.26766,-4.04482 -18.49644,-8.184 -27.60122,-12.58524 -7.08704,-3.35789 -14.17509,-6.71337 -21.26299,-10.06915 -1.81586,-0.8347 -3.63937,-1.65288 -5.44916,-2.50065 -1.14011,-0.53406 -2.28397,-1.06101 -3.40918,-1.62578 -0.10305,-0.0517 0.0639,-0.35642 -0.21492,-0.27102 -0.65048,-0.26911 -1.32184,-0.48467 -1.98275,-0.72701 -6.78266,-2.3083 -13.64542,-4.37255 -20.48045,-6.51841 -10.17941,-3.18233 -20.37965,-6.30278 -30.72355,-8.91972 -12.38186,-3.20459 -24.65402,-6.80146 -36.97782,-10.21866 -12.98494,-3.5625 -25.97547,-7.15013 -38.79897,-11.25902 -8.73685,-2.88026 -17.4747,-5.75765 -26.12615,-8.88702 -7.11226,-2.35941 -14.13307,-4.98926 -21.2898,-7.20857 -8.65973,-2.57973 -17.54005,-4.38442 -26.32365,-6.48117 -12.96911,-2.75579 -26.03753,-5.03358 -38.98856,-7.88303 -12.3348,-2.49152 -24.62476,-5.19757 -37.01061,-7.4327 -10.52688,-2.08934 -21.08184,-3.96701 -31.66531,-5.74601 -9.65052,-1.9958 -19.29468,-4.02756 -28.88328,-6.30587 -9.19797,-2.16646 -18.34853,-4.52473 -27.54199,-6.71021 -13.26201,-3.09859 -26.57381,-5.98813 -40.0325,-8.11199 -14.91889,-2.4513 -29.8131,-5.05314 -44.75621,-7.354594 -11.648,-1.71472 -23.34261,-3.171997 -35.12249,-3.563487 -7.87159,-0.230306 -15.74034,-0.349487 -23.61578,-0.270279 -57.857142,0 -57.857142,-81.822356 0,-81.822356 z"
       inkscape:connector-curvature="0" />
    <path
       style="fill:#803300;fill-opacity:1"
       id="path4161"
       d="m 476.10085,40.13443 c 7.26895,0 14.53791,0 21.80687,0 10.79707,-0.256042 21.56796,0.389484 32.31493,1.359078 8.90081,0.849653 17.80204,1.784366 26.63234,3.19957 7.56819,1.239533 14.88055,3.63683 22.39383,5.114774 7.41788,1.568012 14.92231,2.601074 22.44769,3.481322 7.86854,1.112562 15.83045,1.84015 23.57597,3.690899 2.0827,0.497648 4.13251,1.124041 6.19876,1.686061 1.56401,0.491021 3.13209,0.969267 4.69204,1.473062 2.27701,0.735379 4.17177,1.466499 6.43097,2.037945 2.29306,0.58001 4.6399,1.018536 6.95934,1.48527 2.6815,0.555046 5.41376,0.647513 8.14041,0.713574 4.64586,0.01671 9.26613,0.55831 13.899,0.835896 4.08451,0.175238 8.17432,0.163558 12.26171,0.176537 8.1099,0.01235 16.21981,0.0058 24.32971,0.0038 9.01919,-0.0023 18.03839,-0.0032 27.05758,-0.0037 6.44416,-2.97e-4 12.88831,-3.1e-4 19.33246,-2.99e-4 4.03537,1.4e-5 8.07074,3e-5 12.1061,3.9e-5 3.68056,7e-6 7.36111,7e-6 11.04166,7e-6 5.19056,0 10.38111,0 15.57166,0 7.78533,0 15.57066,0 23.35598,0 7.71204,0 15.42408,0 23.13611,0 5.7484,0 11.4968,0 17.2452,0 4.03389,0 8.06777,0 12.10165,0 2.29046,0 4.58091,0 6.87137,0 57.85714,0 57.85714,81.822355 0,81.822355 l 0,0 c -2.29046,0 -4.58091,0 -6.87137,0 -4.03388,0 -8.06776,0 -12.10165,0 -5.7484,0 -11.4968,0 -17.2452,0 -7.71203,0 -15.42407,0 -23.13611,0 -7.78532,0 -15.57065,0 -23.35597,0 -5.19056,0 -10.38112,0 -15.57167,0 -3.68061,0 -7.36123,0 -11.04184,-1e-5 -4.03535,-1e-5 -8.0707,-2e-5 -12.10605,-4e-5 -6.44256,-1e-5 -12.88513,1e-5 -19.3277,3e-4 -9.01388,5.1e-4 -18.02776,0.001 -27.04164,0.004 -8.20514,0.002 -16.41029,0.009 -24.61543,-0.004 -5.69078,-0.0188 -11.38549,-0.0192 -17.06955,-0.33352 -3.74402,-0.23738 -7.47729,-0.66573 -11.22525,-0.71366 -7.45848,-0.23738 -14.90883,-0.82922 -22.22873,-2.35676 -8.17928,-1.7035 -16.30507,-3.65329 -24.17475,-6.49522 -1.79166,-0.69409 -3.37597,-0.91289 -5.33603,-1.20193 -3.82282,-0.56374 -7.65215,-1.09521 -11.48744,-1.56624 -9.89713,-1.18388 -19.76838,-2.57478 -29.52661,-4.63676 -6.37878,-1.36495 -12.68357,-3.00639 -19.03507,-4.48705 -6.86672,-1.22139 -13.8611,-1.67269 -20.78552,-2.44798 -8.25248,-0.78249 -16.51859,-1.25203 -24.81289,-1.01443 -7.26896,0 -14.53792,0 -21.80687,0 -57.85715,0 -57.85715,-81.822359 0,-81.822359 z"
       inkscape:connector-curvature="0" />
    <path
       style="fill:#803300;fill-opacity:1"
       id="path4163"
       d="m 921.32745,117.39125 c -0.48311,6.27911 -1.63466,12.47678 -2.54847,18.70155 -0.81264,5.95382 -0.89262,11.97529 -1.00071,17.9737 -0.0925,7.10673 -0.0822,14.21424 -0.0742,21.3214 0.006,4.52613 0.0133,9.05226 0.0173,13.57839 0.002,3.41157 0.002,6.82313 0.002,10.2347 0,3.74537 -8e-5,7.49074 -1.3e-4,11.23611 -3e-5,3.73154 -4e-5,7.46308 -4e-5,11.19461 -1.04644,9.8809 -1.12932,19.84706 -9.83374,27.64001 -8.16918,7.31375 -18.51102,12.6229 -29.16584,15.21157 -10.02981,2.43682 -21.58168,-3.30837 -29.7941,-8.48994 -2.11173,-1.33238 -3.96292,-3.03872 -5.94437,-4.55808 -7.9879,-6.86693 -16.22803,-13.43365 -24.49803,-19.95561 -8.81226,-6.78936 -17.53005,-13.70007 -26.16148,-20.71781 -6.38713,-5.14411 -13.05599,-9.90681 -19.80788,-14.55315 -4.4021,-3.0949 -9.04957,-5.82836 -13.71834,-8.49833 -2.54698,-1.30484 -4.92854,-2.91963 -7.47085,-4.23147 0.573,0.40421 0.25367,0.19936 0.96771,0.59912 -0.48089,0.13026 2.62431,0.76668 1.93281,0.75445 -0.49877,-0.009 -0.96298,-0.26108 -1.44646,-0.38395 -2.20212,-0.55963 -4.32383,-1.17943 -6.49842,-1.85301 -0.38528,-0.16793 -0.78122,-0.21465 -1.17763,-0.27136 -56.45517,-12.65947 -38.55198,-92.499142 17.9032,-79.83967 l 0,0 c 2.83434,0.66253 5.66739,1.33519 8.43334,2.25265 -0.79747,-0.10938 1.55164,0.42946 2.33177,0.62774 3.2546,0.82721 6.48574,1.76622 9.60382,3.02444 5.58892,2.41262 10.91662,5.26743 16.15617,8.35965 6.59128,3.79322 13.13654,7.69096 19.36877,12.05612 8.55559,5.88801 16.97976,11.96333 25.06429,18.49048 8.30559,6.76462 16.71415,13.40103 25.19541,19.94379 8.548,6.7449 17.08025,13.52023 25.33423,20.62417 -7.99151,-3.04279 -12.55711,-8.00515 -23.30245,-4.8555 -9.90947,2.90464 -19.53819,7.9818 -27.09438,15.02017 -7.71487,7.18618 -7.58017,15.02368 -8.19991,23.60343 10e-6,-3.7318 10e-6,-7.46361 5e-5,-11.19541 4e-5,-3.74449 1.2e-4,-7.48898 1.2e-4,-11.23347 -7e-5,-3.38808 -3e-5,-6.77616 -0.002,-10.16423 -0.004,-4.51973 -0.0108,-9.03946 -0.0173,-13.55919 -0.009,-7.64829 -0.0184,-15.297 0.0885,-22.94475 0.18325,-9.49932 0.47804,-19.01981 1.86995,-28.43394 0.83718,-5.61295 1.87609,-11.19146 2.29673,-16.8582 7.1763,-57.410362 88.36681,-47.261548 81.19052,10.14882 z"
       inkscape:connector-curvature="0" />
  </g>
  <g
     inkscape:label="Draw"
     inkscape:groupmode="layer"
     id="layer1"
     transform="translate(0,-677.36225)">
    <path
       style="display:inline;opacity:1;fill:#ffd42a;fill-opacity:1"
       id="path5425"
       d="m 488.11024,867.33702 c 0.9742,-3.34518 2.0447,-6.67856 1.8403,-10.16516 -0.7533,2.0125 1.2982,3.74471 2.6727,4.75562 4.7975,2.2583 9.8672,0.75926 12.9975,-3.56682 1.781,-2.96511 0.5021,-5.62301 -1.0088,-8.39535 -2.7263,-3.49367 -6.9443,-3.86026 -10.9499,-2.58065 -1.0876,0.41469 -2.1022,1.67632 -2.6581,2.49829 -0.3679,3.25833 0.1391,8.55496 3.6445,11.07119 1.4084,1.01084 2.9671,1.79412 4.4509,2.69116 1.0548,0.38879 2.1215,0.60339 3.2355,0.57649 -20.2164,0.98208 -21.6052,-27.60825 -1.3888,-28.59033 l 0,0 c 2.4697,-0.0906 4.927,0.13738 7.2982,0.89001 1.7946,1.00188 3.6859,1.8475 5.3837,3.00568 5.1187,3.49171 6.4097,11.11859 5.2903,16.69014 -1.6237,6.57972 -4.902,12.35938 -10.8945,15.92781 -1.4713,0.70195 -2.8569,1.62408 -4.4142,2.10579 -7.7004,2.38163 -15.2602,0.0178 -20.7314,-5.65795 -1.0195,-1.51031 -2.2331,-2.90633 -3.0581,-4.53098 -2.9133,-5.73542 -2.2964,-12.47329 0.064,-18.23036 4.0306,-7.38855 10.5987,-12.64029 19.5388,-11.2492 1.7574,0.27335 3.4432,0.89444 5.1646,1.34164 1.2732,0.69339 2.6228,1.26184 3.8193,2.0802 6.1977,4.23855 9.526,11.16962 10.1598,18.51095 0.068,6.39522 -0.9414,12.59875 -2.9343,18.68548 -5.5604,19.46148 -33.0833,11.59787 -27.5225,-7.86365 z"
       inkscape:connector-curvature="0" />
    <path
       style="display:inline;opacity:1;fill:#1a1a1a;fill-opacity:1"
       id="path5345"
       d="m 105.80021,781.80462 c -1.19865,2.83636 -1.75533,5.91024 -2.23814,8.94514 -0.97669,9.13638 -1.07197,18.33792 -1.63043,27.50859 -0.48067,11.85737 -1.25289,23.69004 -2.063635,35.52839 -0.88855,11.11691 -2.33521,22.16955 -3.59916,33.24557 -0.58987,8.22192 -1.71786,16.38818 -2.51577,24.58972 -0.41715,4.53153 -0.62591,9.07886 -0.70584,13.62787 0.0464,4.2475 0,8.45858 -0.38397,12.69017 -0.19983,2.68342 -1.27786,5.2566 -1.43952,7.9423 -0.0856,0.74213 -0.0963,1.48623 -0.0999,2.23168 0.002,1.16635 0,2.33274 0,3.49913 0.004,1.94449 0.004,3.88895 0,5.83344 3.5e-4,2.28321 3.5e-4,4.56643 3.5e-4,6.84964 -3.5e-4,2.78904 -3.5e-4,5.57808 -3.5e-4,8.36716 0,1.05059 0,2.10118 0,3.15177 0,0.56835 0,1.13674 0,1.70509 0,0.92962 0,1.85924 0,2.78886 0,0.98718 0,1.97436 0,2.96154 0.21767,7.15905 -16.194766,-19.56036 -9.46214,-16.21975 0.76971,-0.0453 -3.279416,-1.16681 -2.41871,-1.0134 3.68658,0.65724 7.41063,2.1723 11.01371,3.22443 8.68422,2.28428 17.405895,4.14123 26.320635,5.22491 13.58658,1.34285 27.25416,1.17752 40.88248,1.67714 17.54222,0.75987 35.09086,1.18273 52.6288,2.03381 17.43909,0.53131 34.835,1.70048 52.21521,3.18471 14.41446,1.25375 28.87639,1.6951 43.31262,2.6144 14.07938,0.73657 28.15199,1.63846 42.20249,2.80471 16.1729,1.48338 32.4102,1.94442 48.6403,2.2502 18.6627,0.25693 37.3076,1.17324 55.9667,1.63357 18.2317,0.36031 36.4412,1.36501 54.6689,1.88644 18.4522,0.45762 36.9111,0.48445 55.368,0.52039 19.7286,0.0214 39.4568,0.0107 59.1854,0.004 16.4557,-0.004 32.9109,-0.007 49.3666,-0.007 12.0935,0.10027 24.1934,-0.24123 36.2795,0.24551 9.8447,0.69899 19.6961,1.20382 29.5622,1.4539 10.7878,0.21268 21.5785,0.21197 32.3681,0.22124 9.6263,0.0632 19.2223,-0.89158 28.8322,-1.36818 9.5613,-0.43567 19.0845,-1.40212 28.6455,-1.90603 9.5774,-0.14737 19.1144,-0.6699 28.6637,-1.37239 9.0756,-0.39432 18.1167,-1.0765 27.1677,-1.83412 7.4863,-0.51097 14.9102,-1.63846 22.374,-2.39954 1.8852,-1.01359 -1.9345,0.92537 -2.0612,1.00009 -1.2771,0.97034 -3.5906,2.57608 -4.2329,3.95037 -3.9849,8.52849 -4.5516,17.16321 -3.6637,5.67764 0.966,-6.47637 1.0916,-13.03475 1.2611,-19.56843 0.1998,-10.28607 0.2034,-20.57463 0.2141,-30.86223 0.6223,-11.43932 1.0577,-22.89417 1.8274,-34.32457 0.9064,-10.91754 1.3589,-21.85688 2.4008,-32.76254 0.9229,-8.37644 1.2176,-16.79677 1.3835,-25.21595 -0.089,-10.58935 0.7526,-21.14834 1.2936,-31.71656 0.4807,-9.86434 0.6159,-19.74021 0.6941,-29.61444 0.036,-8.12172 0.7647,-16.25222 1.8195,-24.30204 1.0663,-6.37174 1.5398,-12.81139 1.8207,-19.25836 0.3854,-5.09217 1.1961,-10.14005 2.0525,-15.17073 2.1533,-11.77954 -0.5434,-4.09388 17.9195,20.49723 -3.3319,0.45448 -6.495,-1.00195 -9.7362,-1.29985 -5.8762,-0.26335 -11.7196,-0.91902 -17.5787,-1.42207 -12.1327,-1.2349 -24.212,-2.91825 -36.3241,-4.32954 -16.4549,-1.77157 -32.9437,-2.98973 -49.4782,-3.66535 -19.1055,-0.71548 -38.215,-0.6956 -57.3213,-0.12954 -20.2543,0.73125 -40.5182,1.0719 -60.7835,1.26492 -20.2899,0.68853 -40.5777,1.35141 -60.8766,1.70893 -21.3233,0.22874 -42.6517,0.54077 -63.9736,0.1142 -20.9615,-0.80216 -41.9409,-0.98148 -62.9031,-1.70616 -20.781,-0.93729 -41.5755,-1.41786 -62.3743,-1.68842 -21.2906,-0.13382 -42.5729,-0.12097 -63.8548,-0.76975 -18.868,-0.40481 -37.7144,-1.20011 -56.5634,-2.10607 -16.54379,-0.55583 -33.0797,-1.34903 -49.59207,-2.51766 -15.15456,-1.09913 -30.27129,-2.67664 -45.38374,-4.24323 -12.77618,-1.14755 -25.57055,-2.10511 -38.3346,-3.38565 -10.45274,-0.84056 -20.82699,-2.36829 -31.24905,-3.49089 -5.95006,-0.80144 -11.8448,-1.96337 -17.82734,-2.51006 -2.58142,-0.20982 -5.17034,-0.26906 -7.75891,-0.28333 -0.87641,-0.007 -1.75283,0.007 -2.62889,0.0143 0.11776,-0.0107 -3.22411,0.025 -3.04997,0.007 3.27015,-0.33794 3.63806,-0.50987 2.59428,-0.0931 -3.62913,1.03496 -0.89711,0.0782 -4.75855,2.04598 -1.29357,0.70905 -2.41835,2.78743 1.2768,-1.08578 1.96408,-2.05897 3.13882,-4.56542 2.12359,-2.49543 0.69193,-0.67622 -1.64363,4.6373 -1.74569,5.42825 -0.27477,2.94295 -1.19972,5.78608 -1.67504,8.70266 -0.99096,3.99415 -2.22173,7.92803 -3.5649,11.81483 -0.57024,1.50065 -1.12692,3.00647 -1.67254,4.51622 -0.0357,0.0735 -0.0535,0.14666 -0.0785,0.22017 -9.121,25.39891 -45.040451,12.49962 -35.919455,-12.89925 l 0,0 c 0.0357,-0.0996 0.0714,-0.19912 0.10705,-0.29904 0.65482,-1.81017 1.32212,-3.61582 2.01012,-5.41368 -1.13192,4.53388 1.64506,-6.44672 1.5166,-4.47257 0.73439,-4.10866 1.74391,-8.11698 2.4601,-12.22424 1.23255,-4.26164 2.79518,-8.43971 4.47592,-12.53988 3.016425,-5.92647 7.482715,-10.28328 13.358545,-13.25742 3.94566,-2.01026 7.9484,-3.97363 12.30479,-4.93144 3.24587,-0.81936 6.56312,-1.32144 9.91605,-1.18684 1.06019,-0.0143 2.12038,-0.0214 3.18093,-0.0178 3.71227,0.025 7.42526,0.1299 11.1254,0.45277 6.14668,0.59526 12.23413,1.58868 18.33049,2.56102 10.33321,1.11985 20.62002,2.62664 30.98427,3.46326 12.79545,1.30267 25.62801,2.21831 38.43523,3.3959 14.70386,1.52491 29.41165,3.0651 44.15691,4.13603 16.21939,1.16136 32.46483,1.90866 48.71527,2.46538 18.6263,0.89547 37.2501,1.68342 55.8961,2.07985 21.0593,0.64467 42.1189,0.61295 63.1868,0.75519 21.0761,0.27513 42.1478,0.75994 63.2057,1.70833 20.7788,0.72993 41.5758,0.88295 62.3539,1.69099 20.8377,0.43542 41.6836,0.0885 62.5231,-0.11633 20.4017,-0.35813 40.7915,-1.04321 61.1846,-1.71315 20.0109,-0.18984 40.0207,-0.52674 60.0205,-1.25 20.0041,-0.5883 40.0121,-0.60871 60.0148,0.14524 17.4901,0.72315 34.9338,2.00683 52.339,3.89094 11.7314,1.37376 23.4338,2.98481 35.1819,4.21351 6.7101,0.58323 13.4071,1.1929 20.1183,1.72756 0.9842,0.16451 1.9723,0.30903 2.9529,0.49391 0.617,0.11633 1.2272,0.26585 1.8385,0.40848 0.1748,0.0403 0.6926,0.14203 0.5145,0.13989 -6.4121,-0.0739 -2.0897,-0.24301 -0.7636,-0.18449 29.9119,36.13588 20.5904,14.07403 19.0709,24.07836 -0.593,3.4719 -1.1501,6.95312 -1.5473,10.45332 -0.3461,7.60979 -0.9049,15.21322 -2.1357,22.73848 -0.947,6.41403 -1.3867,12.94992 -1.468,19.42715 -0.082,10.42484 -0.232,20.85133 -0.7426,31.26554 -0.5225,10.17184 -1.3511,20.3324 -1.2511,30.52468 -0.1892,9.37979 -0.5353,18.76014 -1.5498,28.09318 -1.0149,10.5618 -1.4178,21.1601 -2.3163,31.73282 -0.7398,10.57215 -1.0549,21.17335 -1.7382,31.75035 0,10.60994 0,21.22084 -0.2284,31.82907 -0.207,7.72459 -0.4079,15.4724 -1.522,23.13154 -0.036,-0.3237 0.2106,-1.1306 -0.071,-0.9715 -0.663,0.3724 0.2605,1.5533 0.039,2.2811 -2.4529,8.0888 -2.5614,11.8719 -8.6681,16.1684 -4.6997,2.8954 -9.8711,4.6276 -15.3698,5.2974 -7.6907,0.7813 -15.3404,1.9535 -23.0569,2.4629 -9.1774,0.7674 -18.348,1.4643 -27.55,1.8642 -9.8154,0.7217 -19.623,1.2759 -29.4666,1.4229 -9.5995,0.4994 -19.1594,1.4982 -28.7611,1.9119 -10.2472,0.5027 -20.4791,1.5258 -30.7462,1.4146 -11.1037,-0.011 -22.2084,-0.011 -33.3102,-0.2338 -10.0892,-0.2597 -20.1665,-0.746 -30.2331,-1.4769 -11.5312,-0.5436 -23.0912,-0.025 -34.6309,-0.2098 -16.4528,10e-4 -32.9052,0 -49.358,0.01 -19.7571,0.01 -39.5139,0.018 -59.2711,0 -18.7962,-0.037 -37.5949,-0.066 -56.3868,-0.536 -18.1774,-0.5218 -36.3373,-1.5168 -54.5183,-1.8824 -18.5856,-0.46 -37.1573,-1.368 -55.7465,-1.6288 -17.0484,-0.324 -34.1038,-0.8227 -51.0922,-2.3756 -13.8004,-1.1592 -27.62566,-2.0172 -41.45453,-2.7497 -14.70993,-0.9375 -29.44699,-1.3798 -44.13372,-2.6756 -16.9156,-1.4448 -33.84511,-2.5814 -50.81816,-3.0911 -17.39484,-0.8448 -34.80039,-1.258 -52.19915,-2.0154 -14.7342,-0.5591 -29.51728,-0.3369 -44.19652,-1.9456 -10.92307,-1.3946 -21.659865,-3.5874 -32.292105,-6.4625 -5.016906,-1.4676 -10.070206,-2.8872 -14.956136,-4.7075 -6.38255,-3.20339 -11.71384,-10.71244 -11.63534,-17.91671 0,-0.98718 0,-1.97436 0,-2.96154 0,-0.92962 0,-1.85924 0,-2.78882 0,-0.56839 0,-1.13677 0,-1.70512 0,-1.05063 0,-2.10126 0,-3.15192 0,-2.78915 0,-5.57833 0,-8.36752 0,-2.28089 0,-4.56175 -3.5e-4,-6.8426 -3.6e-4,-1.9203 -3.6e-4,-3.84056 0,-5.76086 -0.003,-1.30699 0,-2.61401 0,-3.92099 0.0357,-2.09908 0.11419,-4.19673 0.35328,-6.28361 0.34257,-2.75029 0.77971,-5.49911 1.46878,-8.18495 0.0357,0.17164 0.0714,0.68857 0.0821,0.515 0.14988,-2.42381 0,-4.90482 0,-7.33427 0,-0.64278 0,-1.28554 0.0357,-1.92832 0.10348,-5.56042 0.36148,-11.11874 0.88176,-16.6571 0.82967,-8.40552 1.96266,-16.77657 2.58072,-25.20289 1.20364,-10.50143 2.57572,-20.9798 3.44107,-31.5184 0.8054,-11.74247 1.56977,-23.47818 2.04509,-35.23988 0.65231,-10.69455 0.64696,-21.4468 2.18497,-32.06612 2.29236,-11.77847 6.07137,-23.17287 15.345446,-31.38566 20.732065,-17.27665 45.164995,12.04283 24.432925,29.31951 z"
       inkscape:connector-curvature="0" />
    <path
       style="display:inline;opacity:1;fill:#1a1a1a;fill-opacity:1"
       id="path5347"
       d="m 505.42584,845.29276 c -4.2514,1.94463 -8.0515,4.66866 -11.6892,7.57139 -0.901,0.98696 -3.2491,2.23828 -3.4596,3.87674 0,0.0689 0.1891,-0.0178 0.2034,0.0496 0.039,0.1902 -0.05,0.38561 -0.071,0.57842 1.072,-2.23565 0.3636,2.1293 1.7743,1.89428 1.4612,1.82952 2.8794,2.4064 4.9341,3.36296 1.9376,-0.0457 4.0705,1.00252 5.8862,0.0753 1.4645,-1.33271 3.0303,-2.54927 4.5126,-3.86725 2.3235,-2.63356 1.027,-1.04345 1.0988,-2.82908 0.754,-3.05428 -0.1178,-5.24825 -1.1926,-8.01905 -1.2932,-2.30627 -2.3413,-5.36908 -4.5462,-6.96019 0.3582,0.23231 -1.679,-1.32775 -1.2408,-1.02008 3.4289,2.40775 0.9182,1.04424 5.0437,2.88792 -25.8129,-7.87321 -14.6785,-44.37832 11.1343,-36.50508 l 0,0 c 4.4763,1.7918 8.5868,3.95818 11.9226,7.52361 5.9879,6.14412 10.6119,13.36384 13.6854,21.39838 3.2084,9.47834 4.6829,18.53054 2.56,28.46297 -2.2799,9.79344 -5.8797,17.07496 -13.4395,23.87585 -7.103,6.0964 -14.8291,11.24099 -24.2595,12.85062 -10.3771,1.12845 -19.2522,0.33757 -28.8618,-4.05946 -8.5207,-4.60749 -15.9931,-10.46623 -20.8305,-19.06399 -0.9257,-1.89724 -1.9777,-3.73803 -2.7774,-5.69177 -3.4592,-8.45098 -3.7176,-17.70555 -1.5758,-26.4895 3.3133,-9.10748 8.0519,-16.40342 15.8711,-22.30045 6.2984,-4.92962 12.9239,-9.46785 20.2864,-12.68161 24.8047,-10.63071 39.839,24.44884 15.0339,35.07955 z"
       inkscape:connector-curvature="0" />
  </g>
</svg>
