<?xml version="1.0" encoding="UTF-8" standalone="no"?>
<!-- Created with Inkscape (http://www.inkscape.org/) -->

<svg
   xmlns:dc="http://purl.org/dc/elements/1.1/"
   xmlns:cc="http://creativecommons.org/ns#"
   xmlns:rdf="http://www.w3.org/1999/02/22-rdf-syntax-ns#"
   xmlns:svg="http://www.w3.org/2000/svg"
   xmlns="http://www.w3.org/2000/svg"
   xmlns:sodipodi="http://sodipodi.sourceforge.net/DTD/sodipodi-0.dtd"
   xmlns:inkscape="http://www.inkscape.org/namespaces/inkscape"
   width="100pt"
   height="100pt"
   viewBox="0 0 125 125"
   id="svg4469"
   version="1.1"
   inkscape:version="0.91 r13725"
   sodipodi:docname="scene1c_key-100-100.svg">
  <defs
     id="defs4471" />
  <sodipodi:namedview
     id="base"
     pagecolor="#ffffff"
     bordercolor="#666666"
     borderopacity="1.0"
     inkscape:pageopacity="0.0"
     inkscape:pageshadow="2"
     inkscape:zoom="1.979899"
     inkscape:cx="146.8335"
     inkscape:cy="61.880618"
     inkscape:document-units="px"
     inkscape:current-layer="layer2"
     showgrid="false"
     units="pt"
     inkscape:showpageshadow="false"
     inkscape:window-width="1855"
     inkscape:window-height="1056"
     inkscape:window-x="65"
     inkscape:window-y="24"
     inkscape:window-maximized="1" />
  <metadata
     id="metadata4474">
    <rdf:RDF>
      <cc:Work
         rdf:about="">
        <dc:format>image/svg+xml</dc:format>
        <dc:type
           rdf:resource="http://purl.org/dc/dcmitype/StillImage" />
        <dc:title></dc:title>
      </cc:Work>
    </rdf:RDF>
  </metadata>
  <g
     inkscape:groupmode="layer"
     id="layer2"
     inkscape:label="Paint"
     transform="translate(0,-250)">
    <path
       style="fill:#ffcc00;fill-opacity:1"
       id="path4159"
       d="m 38.518937,286.59968 c 1.066219,0.65085 1.999642,1.48638 3.017314,2.20556 1.340885,0.99537 2.690213,1.97929 4.032787,2.9723 1.272729,0.90695 2.51285,1.85534 3.729931,2.83528 0.681234,0.51223 1.321178,1.08626 2.037677,1.5504 0.837476,0.53626 1.626065,1.13741 2.385598,1.77807 0.67567,0.64191 1.410568,1.21286 2.123702,1.81156 0.765947,0.54009 1.428537,1.20748 2.141748,1.81113 0.113882,0.0185 0.891297,0.56767 1.205485,0.80043 0.441065,0.35555 0.889033,0.70484 1.341702,1.06256 0.470797,0.41243 1.000924,0.73243 1.528722,1.06283 1.027031,0.63761 2.018123,1.32601 2.970738,2.06985 0.511184,0.35606 1.064736,0.64715 1.604475,0.95703 0.644477,0.32945 1.248677,0.72826 1.851742,1.12653 0.526291,0.33349 1.020388,0.71618 1.498902,1.11442 0.35865,0.29848 0.426269,0.44816 0.347562,0.28313 0.577044,0.41268 1.17702,0.7976 1.777657,1.17708 0.88708,0.62472 1.72934,1.31192 2.644792,1.89561 0.723795,0.44906 1.479389,0.84152 2.205733,1.28699 0.899636,0.53174 1.733983,1.15543 2.517261,1.84526 0.45951,0.42156 0.909307,0.85812 1.388954,1.25705 0.772357,0.61515 1.481382,1.30503 2.216333,1.96374 0.343926,0.30545 0.682857,0.61637 1.020733,0.92846 6.30364,5.82998 -1.94119,14.74467 -8.24483,8.9147 l 0,0 c -0.291359,-0.26992 -0.584506,-0.53786 -0.881453,-0.80164 -0.674832,-0.60511 -1.323352,-1.24121 -2.034503,-1.80397 -0.53837,-0.46871 -1.070333,-0.94622 -1.590626,-1.43465 -0.0057,-0.008 -0.02654,-0.0277 -0.01722,-0.0243 0.02892,0.0105 0.104006,0.0655 0.07951,0.0469 -0.278151,-0.21129 -0.529504,-0.37434 -0.871609,-0.58303 -0.770694,-0.50743 -1.636055,-0.86504 -2.38917,-1.40348 -0.883207,-0.5764 -1.759798,-1.17999 -2.588229,-1.83386 -0.01046,-0.008 0.02664,8e-5 0.03996,1.1e-4 -0.88194,-0.56096 -1.761843,-1.12986 -2.603289,-1.75004 -0.430078,-0.33652 -0.818034,-0.69164 -1.22997,-0.96027 -0.386976,-0.25949 -0.766038,-0.51196 -1.190326,-0.71757 -1.037437,-0.59749 -2.088987,-1.17901 -3.034199,-1.92012 -0.617854,-0.48457 -1.263348,-0.92822 -1.932297,-1.34159 -0.906568,-0.56757 -1.799916,-1.15392 -2.625269,-1.83682 -0.380356,-0.30245 -0.79312,-0.6249 -1.144788,-0.90984 0.04324,0.0195 -0.07387,-0.0598 -0.113947,-0.0851 -0.57973,-0.36646 -0.640437,-0.38321 -1.174948,-0.7883 -0.175699,-0.13316 -0.344255,-0.27549 -0.516383,-0.41323 -0.663062,-0.57827 -1.300328,-1.18771 -2.015635,-1.70357 -0.736085,-0.62092 -1.498597,-1.21133 -2.198027,-1.87458 -0.40145,-0.35789 -0.849229,-0.65337 -1.297752,-0.9493 -0.982381,-0.67328 -1.919902,-1.40714 -2.850018,-2.15056 -1.089334,-0.87717 -2.19993,-1.7243 -3.340434,-2.53447 -1.298895,-0.9631 -2.607986,-1.91256 -3.904684,-2.87873 -0.600806,-0.43713 -1.191311,-0.88283 -1.778704,-1.33758 -0.06843,-0.053 -0.13339,-0.11034 -0.201977,-0.1631 -0.0731,-0.0562 -0.308922,-0.13041 -0.222964,-0.16382 0.0931,-0.0362 0.173126,0.0997 0.259688,0.14954 -7.454993,-4.26 -1.430448,-14.80295 6.024545,-10.54295 z"
       inkscape:connector-curvature="0" />
    <path
       style="fill:#ffcc00;fill-opacity:1"
       id="path4161"
       d="m 84.183857,327.44659 c 0.21611,0.93432 0.332329,1.88492 0.40357,2.83993 0.045,0.70683 0.05499,1.41516 0.05776,2.1232 0.04327,1.08502 -0.210316,2.12783 -0.579323,3.13928 -0.276709,0.75847 -0.17388,0.30493 -0.223935,0.53061 0.169546,-0.56983 -0.0415,0.35409 -0.05775,0.50264 -0.03142,0.29503 -0.03341,0.5921 -0.0364,0.88847 -0.01,-0.11175 0.0088,0.57665 -0.0012,0.43275 -0.01576,-0.22665 -0.0066,-0.45501 -0.0312,-0.68086 -0.0529,-0.4853 -0.218703,-0.93829 -0.424713,-1.3765 -0.0192,-0.0362 -0.03509,-0.0743 -0.05759,-0.10852 -0.191775,-0.29157 -0.189714,-0.26526 -0.429637,-0.53445 -0.01151,-0.0129 -0.04828,-0.0487 -0.03361,-0.0396 0.04892,0.0306 0.253169,0.20378 0.03029,0.0171 -0.487367,-0.39411 -1.056835,-0.55432 -1.645658,-0.70841 0.300175,-6.5e-4 0.60043,-0.001 0.900632,-0.003 0.586214,-0.004 1.17244,-0.004 1.758663,-0.005 0.759219,-5e-4 1.518438,-4.8e-4 2.277657,-4.8e-4 0.577262,0 1.154524,3e-5 1.731786,4e-5 0.464485,10e-6 0.92897,10e-6 1.393456,10e-6 0.06521,0 0.260757,-0.004 0.195647,0 -0.163376,0.009 -0.327782,8.2e-4 -0.490637,0.0169 -0.399679,0.0393 -0.980669,0.17164 -0.114522,-0.031 0.15026,-0.0351 0.301705,-0.065 0.452557,-0.0976 -0.255749,0.0316 -0.495255,0.13859 -0.733137,0.22951 7.742879,-3.7111 12.991177,7.23898 5.248297,10.95009 l 0,0 c -0.66901,0.29118 -1.337692,0.58198 -2.061234,0.71272 -0.141797,-0.004 -0.435234,0.10993 -0.453499,0.11388 -0.676127,0.14625 -1.347426,0.27584 -2.043493,0.24836 -0.46456,0 -0.92912,-10e-6 -1.39368,-10e-6 -0.577165,-1e-5 -1.15433,-4e-5 -1.731495,-5e-5 -0.755431,10e-6 -1.510863,-1e-5 -2.266294,4.8e-4 -0.569119,5.3e-4 -1.138242,0.001 -1.707352,0.005 -0.603937,0.003 -1.20849,0.0106 -1.811659,-0.0266 -1.562233,-0.1271 -3.063644,-0.51118 -4.3828,-1.39683 -1.176046,-0.8409 -2.273642,-1.79703 -3.021896,-3.05659 -0.150485,-0.26815 -0.320478,-0.52625 -0.451455,-0.80445 -0.593248,-1.26008 -0.908151,-2.60935 -0.844195,-4.00599 0.01083,-0.80156 0.04114,-1.60383 0.14945,-2.39909 0.1646,-1.13723 0.39809,-2.27011 0.809837,-3.34655 0.401515,-0.97691 0.132636,-0.35074 0.02924,0.13043 -0.122457,0.5699 -0.07121,0.49788 -0.09183,0.96642 -0.0032,0.073 -8e-5,-0.14609 -1.2e-4,-0.21913 -0.0014,-0.43581 -0.0052,-0.87176 -0.02734,-1.30711 -0.02233,-0.35901 -0.05814,-0.7153 -0.144912,-1.06586 -1.86263,-8.38184 9.99107,-11.01599 11.8537,-2.63416 z"
       inkscape:connector-curvature="0" />
    <path
       style="fill:#ffcc00;fill-opacity:1"
       id="path4163"
       d="m 88.233558,331.74454 c 0.152607,-0.44688 0.460594,-0.84613 0.557048,-1.3128 0.05087,-0.17339 0.202238,-0.85004 0.138053,-0.6051 0.03073,-0.40078 0.121365,-0.87805 0.155151,-1.32127 0.01952,-0.3595 0.02183,-0.71963 0.02416,-1.07956 0.0015,-0.42235 4.62e-4,-0.84469 -6.6e-5,-1.26704 -2.91e-4,-0.26226 -1.59e-4,-0.13205 -3.95e-4,-0.39064 -4.4e-5,-0.0627 -0.0038,-0.25078 -1.32e-4,-0.18817 0.03006,0.5084 -0.01183,0.73699 0.153358,1.27073 0.124903,0.40358 0.309711,0.78613 0.464567,1.17919 0.648715,1.1619 1.605042,1.84429 2.860889,2.23979 0.0662,0.18725 0.279973,0.008 0.390451,0.0822 0.01863,0.0125 -0.04484,0.001 -0.06727,0.001 -0.191644,-8e-4 -0.383242,-0.004 -0.574905,-0.004 -0.488158,0.002 -0.976312,0.005 -1.46447,0.006 -0.07348,1.8e-4 -0.146953,3.7e-4 -0.22043,5.6e-4 -8.586269,0.0219 -8.617185,-12.12096 -0.03092,-12.14282 l 0,0 c 0.07059,-1.8e-4 0.141178,-3.6e-4 0.211767,-5.4e-4 0.505768,-0.002 1.011531,-0.005 1.5173,-0.006 0.982505,0.002 1.970684,0.0136 2.935701,0.22345 0.280866,0.076 0.568511,0.13034 0.842596,0.228 1.759984,0.62713 3.189732,1.76994 4.157029,3.37313 0.22303,0.51306 0.48873,1.00961 0.6691,1.53918 0.28197,0.82787 0.30129,1.71005 0.29861,2.57314 5.6e-4,0.45523 0.002,0.91046 -2.2e-4,1.36568 -0.005,0.68083 -0.0147,1.36218 -0.0689,2.04121 -0.0639,0.71042 -0.15823,1.28316 -0.21243,1.84935 -0.13159,0.90733 -0.33011,1.79962 -0.59594,2.67764 -0.27351,0.83804 -0.587834,1.6595 -0.978638,2.45036 -3.382308,7.89205 -14.543355,3.10874 -11.161047,-4.78331 z"
       inkscape:connector-curvature="0" />
    <path
       style="fill:#ffcc00;fill-opacity:1"
       id="path4165"
       d="m 25.841145,295.26207 c -0.01183,0.007 -0.04456,0.0298 -0.03549,0.0197 0.37053,-0.41127 0.77733,-0.78861 1.146358,-1.20259 0.495244,-0.58801 1.040625,-1.12878 1.572794,-1.68246 0.635859,-0.61597 0.243394,-0.25289 0.994842,-0.89991 0.03579,-0.0308 0.148721,-0.11405 0.105896,-0.0941 -0.213997,0.0995 -0.402891,0.39756 -0.542553,0.5695 0.410114,-0.694 0.924319,-1.31862 1.4508,-1.9261 0.208079,-0.22117 0.349881,-0.39842 0.539657,-0.63874 0.0055,-0.007 0.01795,-0.0303 0.01225,-0.0235 -0.03639,0.0432 -0.0698,0.0889 -0.104695,0.13338 -0.380451,0.61857 0.063,-0.13571 0.07777,-0.25937 0.196916,-0.52936 0.471954,-1.02087 0.746043,-1.5125 4.341919,-7.40758 14.817818,-1.26718 10.475899,6.1404 l 0,0 c 0.01509,-0.0316 0.116081,-0.23446 0.109598,-0.24987 -0.01257,-0.0299 -0.02669,0.0591 -0.04003,0.0886 -0.341978,0.84073 -0.72522,1.66405 -1.205165,2.43651 -0.450326,0.65729 -0.928518,1.29492 -1.47159,1.87974 -0.231987,0.25693 -0.313403,0.34543 -0.522566,0.72006 -0.576139,0.79362 -1.161522,1.52007 -1.937534,2.13045 -0.02487,0.0195 0.180859,-0.17268 0.05995,-0.0736 -0.447715,0.46465 -0.847577,0.84742 -1.271579,1.35789 -0.71851,0.8012 -1.46334,1.57976 -2.258191,2.30607 -6.519202,5.58789 -14.421669,-3.63165 -7.902467,-9.21954 z"
       inkscape:connector-curvature="0" />
  </g>
  <g
     inkscape:label="Draw"
     inkscape:groupmode="layer"
     id="layer1"
     transform="translate(0,-927.36225)"
     sodipodi:insensitive="true">
    <path
       style="fill:#1a1a1a;fill-opacity:1"
       id="path4149"
       d="m 39.39999,958.17516 c 0.718459,0.67311 1.464851,1.31463 2.207822,1.96026 1.004678,0.8757 2.042524,1.712 3.080882,2.54709 1.122146,0.8714 2.259075,1.72353 3.373068,2.60539 1.055413,0.84144 2.086493,1.71294 3.114608,2.58737 1.034047,0.88051 2.09034,1.73446 3.151179,2.58236 0.963948,0.78092 1.971056,1.50548 2.963762,2.2488 0.88906,0.65747 1.788,1.30146 2.676128,1.96019 0.924526,0.68279 1.825647,1.39606 2.701864,2.13967 0.748406,0.63407 1.503834,1.25983 2.271267,1.87076 0.860953,0.67869 1.728985,1.34781 2.606296,2.00522 0.900871,0.67865 1.795825,1.36479 2.706166,2.03078 0.82252,0.57654 1.545649,1.28039 2.371158,1.85163 0.702931,0.48337 1.375189,1.00614 2.098043,1.46022 0.743537,0.44783 1.420553,0.99305 2.124326,1.49886 0.912357,0.6614 1.784674,1.37553 2.681324,2.05781 0.698043,0.51743 1.372627,1.06374 2.046223,1.61208 0.423515,0.36612 0.827542,0.7534 1.244058,1.12743 0.372052,0.30469 0.747794,0.60399 1.107452,0.9233 0.341274,0.3445 0.726634,0.6392 1.095827,0.9522 0.368081,0.33101 0.744209,0.65317 1.106157,0.99083 0.626503,0.64418 0.113913,0.13821 0.105753,0.1334 -0.385971,-0.22744 -0.652315,-0.32813 -1.077855,-0.34582 0.629152,-0.22648 1.274703,-0.40659 1.921969,-0.57319 0.850147,-0.21111 1.72151,-0.29925 2.594162,-0.3428 0.548755,-0.0213 1.098042,-0.0184 1.647102,-0.0167 0.513346,0.004 1.029527,-0.0148 1.538551,0.0684 0.17556,0.0287 0.348475,0.0717 0.52272,0.10758 1.092676,0.2846 2.041789,0.89753 2.970413,1.51605 0.870065,0.57088 1.64219,1.26992 2.399063,1.97967 0.744464,0.62295 1.343322,1.30261 1.919452,2.08066 0.63276,0.83014 1.02745,1.79584 1.37686,2.77004 0.25894,0.8065 0.55272,1.5976 0.76521,2.4184 0.22768,0.8811 0.33236,1.7852 0.39159,2.6911 0.0737,0.7145 0.15953,1.4269 0.20917,2.1438 0.0338,0.8472 0.0528,1.7114 -0.0993,2.55 -0.0425,0.2343 -0.10592,0.4642 -0.15888,0.6963 -0.30021,1.1996 -0.83899,2.3072 -1.45472,3.3719 -0.61393,1.0856 -1.42107,2.0372 -2.251468,2.9604 -0.521838,0.5474 -1.028084,1.1132 -1.583739,1.6273 -0.150528,0.1393 -0.607234,0.5332 -0.790349,0.6918 -0.79435,0.6455 -1.61723,1.2574 -2.481929,1.8057 -0.927841,0.5502 -1.835199,1.1311 -2.770162,1.6693 -0.798195,0.4544 -1.64443,0.802 -2.503358,1.1204 -0.668862,0.3064 -1.383778,0.4237 -2.110931,0.483 -1.014399,0.045 -2.030878,0.05 -3.045853,0.024 -1.380332,-0.026 -2.723396,-0.3221 -4.041456,-0.7095 -1.120098,-0.3631 -2.207503,-0.8179 -3.277878,-1.3064 -0.558071,-0.2777 -1.117886,-0.5632 -1.613419,-0.9457 -0.326462,-0.252 -0.430679,-0.3688 -0.716821,-0.6482 -0.662869,-0.6561 -1.141363,-1.4635 -1.619824,-2.2564 -0.481569,-0.7974 -0.990358,-1.578 -1.457894,-2.3839 -0.460873,-0.8998 -0.861588,-1.8316 -1.249086,-2.7654 -0.371157,-0.8819 -0.677542,-1.7841 -0.892244,-2.7161 -0.196697,-0.8394 -0.286276,-1.6968 -0.335299,-2.5558 -0.02746,-0.5759 -0.02768,-1.1525 -0.02708,-1.729 0.0011,-0.4486 0.0023,-0.8972 0.0029,-1.3458 -0.01061,-0.333 0.01304,-0.6642 0.05081,-0.9947 0.398596,-3.2756 5.031048,-2.7119 4.632452,0.5637 l 0,0 c -0.0173,0.1155 -0.02298,0.2799 -0.01664,0.4378 -6.53e-4,0.448 -0.0018,0.896 -0.0029,1.344 -5.37e-4,0.4885 -0.0013,0.9774 0.01993,1.4656 0.03214,0.6038 0.08984,1.2069 0.230178,1.7967 0.14138,0.6728 0.39337,1.3112 0.649331,1.9478 0.308977,0.7476 0.634651,1.4897 0.980617,2.2206 0.446702,0.7821 0.951666,1.5294 1.410892,2.3042 0.280856,0.4659 0.544258,0.9591 0.915629,1.3589 0.05518,0.058 0.103996,0.1217 0.162263,0.1765 0.231271,0.2169 0.548207,0.3211 0.816171,0.4809 0.872492,0.3994 1.758079,0.7722 2.668322,1.0777 0.923718,0.2793 1.863654,0.4986 2.833908,0.5176 0.858738,0.024 1.718596,0.015 2.57718,-0.013 0.0644,-0.01 0.128782,-0.01 0.193204,-0.011 0.03086,0 0.06188,0.011 0.09246,0.01 0.192719,-0.028 0.361497,-0.1596 0.549408,-0.2006 0.614726,-0.2278 1.224589,-0.4637 1.796769,-0.7888 0.264523,-0.1523 0.53363,-0.2968 0.794045,-0.456 0.609082,-0.3724 1.202584,-0.77 1.824197,-1.1221 0.668378,-0.4123 1.289962,-0.8956 1.906607,-1.3799 0.197414,-0.171 0.401119,-0.3349 0.59368,-0.5113 0.482137,-0.4419 0.916292,-0.934 1.36926,-1.4046 0.618797,-0.6852 1.2338,-1.3824 1.689128,-2.1911 0.400771,-0.6743 0.75366,-1.3741 0.953513,-2.1372 0.180378,-0.5834 0.154571,-1.206 0.132503,-1.8101 -0.0479,-0.7241 -0.148843,-1.4421 -0.210564,-2.165 -0.0376,-0.6231 -0.103831,-1.246 -0.261004,-1.8519 -0.158758,-0.6808 -0.444312,-1.3208 -0.636439,-1.9918 -0.189909,-0.5442 -0.383294,-1.0972 -0.734946,-1.5614 -0.145716,-0.1988 -0.287082,-0.4234 -0.455428,-0.6049 -0.279974,-0.3018 -0.611342,-0.5524 -0.902105,-0.843 -0.568961,-0.5348 -1.142506,-1.0709 -1.797132,-1.50135 -0.457069,-0.30648 -0.914103,-0.62289 -1.418315,-0.8473 -0.32141,-0.13349 -0.699772,-0.0196 -1.035774,-0.0588 -0.469315,0 -0.938801,-0.006 -1.407924,0.0111 -0.56007,0.0254 -1.120139,0.0732 -1.667019,0.2039 -0.734585,0.18417 -1.447834,0.43715 -2.179433,0.63105 -0.196074,0.0294 -0.390096,0.0811 -0.588223,0.0874 -0.269947,0.008 -0.54584,0.0176 -0.809126,-0.0425 -0.70388,-0.16104 -0.964662,-0.32967 -1.466367,-0.74596 -0.185328,-0.15386 -0.186964,-0.16112 -0.268874,-0.2797 -0.290752,-0.28871 -0.619929,-0.53869 -0.917066,-0.82112 -0.402557,-0.34292 -0.823991,-0.66503 -1.197296,-1.04096 -0.349912,-0.32626 -0.7469,-0.59888 -1.102633,-0.91895 -0.360899,-0.32409 -0.714735,-0.65545 -1.073611,-0.98162 -0.633448,-0.51643 -1.267966,-1.03064 -1.92534,-1.51687 -0.862533,-0.65687 -1.703161,-1.34238 -2.578709,-1.98188 -0.628437,-0.45192 -1.231885,-0.94049 -1.893789,-1.34334 -0.786226,-0.49923 -1.529664,-1.05551 -2.291849,-1.58961 -0.841293,-0.59886 -1.611161,-1.2847 -2.439536,-1.90073 -0.9246,-0.67663 -1.834223,-1.37285 -2.749051,-2.06252 -0.913875,-0.68492 -1.818105,-1.38206 -2.714922,-2.08916 -0.805992,-0.64214 -1.60008,-1.29897 -2.386177,-1.9653 -0.796985,-0.6785 -1.619578,-1.3258 -2.461053,-1.94832 -0.892954,-0.66327 -1.798206,-1.30982 -2.69198,-1.972 -1.032018,-0.77282 -2.078491,-1.52684 -3.080382,-2.33905 -1.097762,-0.87757 -2.190766,-1.76145 -3.260817,-2.67276 -0.986828,-0.83932 -1.976161,-1.67625 -2.988949,-2.48421 -1.122359,-0.8898 -2.270971,-1.74565 -3.400011,-2.62689 -1.084515,-0.87227 -2.167986,-1.74641 -3.217273,-2.66114 -0.734882,-0.63866 -1.475765,-1.27071 -2.183751,-1.93948 -2.505396,-2.14748 0.531602,-5.69065 3.036997,-3.54316 z"
       inkscape:connector-curvature="0" />
    <path
       style="fill:#1a1a1a;fill-opacity:1"
       id="path4151"
       d="m 37.746073,961.78358 c -0.420343,0.58996 -0.794712,1.20706 -1.219376,1.79524 -0.614787,0.77954 -1.243829,1.54969 -1.884028,2.30885 -0.411793,0.45744 -0.805909,0.93041 -1.215691,1.3895 -0.273969,0.4375 -0.573143,0.85834 -0.886896,1.26792 -0.395324,0.438 -0.726598,0.92569 -1.088221,1.39066 -0.358888,0.45586 -0.774707,0.86226 -1.15992,1.29517 -0.405583,0.4427 -0.791906,0.90262 -1.197561,1.34508 -0.23186,0.25203 -0.499583,0.46993 -0.702198,0.7437 0.0071,-0.0156 0.01852,0.002 0.01577,0.006 -0.192233,0.3511 -0.428652,0.65671 -0.680705,0.9656 -0.431452,0.52121 -0.986224,0.88892 -1.583306,1.1913 -0.881954,0.36981 -0.236368,0.1007 -0.22476,0.10263 0.0068,10e-4 -0.07746,0.0823 -0.08004,0.0849 -0.330584,0.33043 -0.656751,0.66525 -0.984588,0.99841 -0.01928,0.0229 -0.0376,0.0466 -0.05785,0.0687 -0.125761,0.13718 -0.230075,0.24308 -0.361004,0.37436 -0.0543,0.0544 -0.11034,0.10716 -0.163855,0.16239 -0.07387,0.0762 -0.07981,0.0766 -0.04067,0.0573 0.09251,-0.10334 0.164315,-0.21883 0.216655,-0.34666 0.03017,-0.0737 0.02947,-0.10706 0.03444,-0.10188 0.0137,0.0142 -6.59e-4,0.0396 -9.95e-4,0.0593 0.01694,0.11844 -0.03674,0.50535 -0.0021,0.59016 0.01586,0.0389 -4.8e-4,-0.0839 -7.11e-4,-0.12591 -0.06284,-0.55018 -0.354941,-1.06531 -0.818783,-1.37495 0.479869,0.21297 0.911595,0.50732 1.324348,0.8285 0.314824,0.24125 0.549477,0.56792 0.860233,0.80833 0.344769,0.26363 0.659648,0.56252 0.987296,0.84623 0.421515,0.35136 0.822059,0.72375 1.19779,1.12355 0.227038,0.22749 0.437716,0.49316 0.709731,0.66996 0.282489,0.12273 0.559281,0.26297 0.83051,0.41259 0.519945,0.29396 0.96269,0.69498 1.392282,1.10474 0.210321,0.17726 0.448813,0.30663 0.681194,0.47004 0.362727,0.28111 0.731042,0.55487 1.091953,0.8383 0.424204,0.29256 0.849985,0.57783 1.251947,0.90092 0.207909,0.17385 0.415154,0.34834 0.627636,0.51662 0.04871,0.0386 -0.08956,-0.0889 -0.144777,-0.11743 -0.165674,-0.0855 -0.342192,-0.14813 -0.513287,-0.22218 -0.262083,-0.0123 -0.526911,-0.0767 -0.78625,-0.0369 -0.600778,0.0921 -1.076896,0.43668 -1.361715,0.95092 0.01908,-0.25831 0.02747,-0.51721 0.03026,-0.7763 9.95e-4,-0.2913 -0.0018,-0.58259 -0.0032,-0.87388 4.1e-4,-0.45702 0.06016,-0.91333 0.1253,-1.36512 0.08956,-0.62128 0.354183,-1.19489 0.63583,-1.74899 0.205068,-0.43349 0.431023,-0.8538 0.742932,-1.2224 0.109266,-0.12913 0.238225,-0.24021 0.357338,-0.36031 0.679855,-0.59416 1.508438,-0.84165 2.386687,-0.93285 0.366898,-0.0281 0.73506,-0.0246 1.1027,-0.0215 0.193421,-0.004 0.384086,0.0179 0.506819,-0.0149 0.01598,-0.004 -0.0331,1.7e-4 -0.04965,2.5e-4 -0.235394,0.0151 -0.410329,0.16499 -0.591228,0.29998 0.168497,-0.33422 0.254467,-0.72704 0.474201,-1.03449 0.177455,-0.2483 0.387398,-0.4717 0.581097,-0.70755 1.112099,-0.6329 0.91079,-0.70895 2.326541,-0.63545 0.427538,0.0222 1.301206,0.44192 1.718722,0.64539 0.461112,0.22085 0.928767,0.43552 1.335876,0.75033 0.124156,0.096 0.236966,0.20585 0.355449,0.30877 0.418811,0.36319 0.740058,0.81075 1.056962,1.26071 0.252105,0.35979 0.58057,0.65455 0.893737,0.95966 0.407479,0.42724 0.825431,0.84277 1.251877,1.25146 0.313054,0.30503 0.648325,0.58622 0.988906,0.85978 0.433697,0.33023 0.8351,0.70143 1.232649,1.07376 0.506989,0.39054 1.000422,0.79736 1.49087,1.20838 0.55231,0.46566 1.141239,0.88409 1.705998,1.33379 0.556989,0.47464 1.14657,0.9091 1.725594,1.3563 0.638857,0.46428 1.284259,0.91078 1.882205,1.42817 0.609755,0.5346 1.262322,1.01612 1.905357,1.50908 0.703943,0.55751 1.435147,1.07787 2.163754,1.60226 0.643723,0.43088 1.227674,0.94156 1.811268,1.44872 0.445104,0.42441 0.970992,0.74319 1.44958,1.12618 0.457381,0.33057 0.80713,0.79995 1.27117,1.11937 0.476877,0.29317 0.934095,0.61182 1.373037,0.95906 0.403447,0.33375 0.79897,0.67694 1.196905,1.01728 0.301798,0.21487 0.632236,0.39147 0.945176,0.59362 0.424172,0.26466 0.813497,0.57646 1.205577,0.8852 0.191681,0.16929 0.246776,0.17086 0.464921,0.28632 0.427978,0.15444 0.754615,0.47764 1.126168,0.7229 0.501179,0.35443 0.928943,0.80198 1.31199,1.27818 0.201498,0.283 0.359698,0.5895 0.588199,0.8513 0.547858,0.6274 0.776169,1.2545 0.903095,2.0687 0.0089,0.096 0.01785,0.1911 0.02677,0.2864 0.274143,3.2885 -4.376349,3.6761 -4.650491,0.3878 l 0,0 c -5.95e-4,-0.019 -0.0012,-0.037 -0.0018,-0.056 0.05876,0.104 0.09673,0.22 0.155492,0.326 0.01407,0.026 0.154381,0.1929 7.81e-4,0 -0.268566,-0.3221 -0.541085,-0.6568 -0.739163,-1.0288 -0.0023,-0.01 0.009,0.01 0.01352,0.01 0.175417,0.1219 -0.258138,-0.2351 -0.271228,-0.2801 -0.01211,-0.042 0.142092,0.099 0.1085,0.071 -0.04872,-0.04 -0.102686,-0.072 -0.154029,-0.1084 -0.08266,-0.06 -0.278695,-0.1979 -0.371596,-0.2781 -0.03192,-0.028 0.145053,0.08 0.11655,0.049 -0.08731,-0.095 -0.292275,-0.035 -0.347753,-0.1707 -0.408157,-0.2165 -0.816994,-0.4376 -1.167002,-0.7435 -0.279734,-0.2202 -0.549399,-0.4505 -0.855462,-0.6347 -0.48498,-0.3154 -1.006026,-0.5788 -1.441907,-0.9644 -0.354318,-0.3032 -0.707463,-0.60791 -1.064311,-0.90805 -0.41976,-0.33476 -0.880091,-0.60713 -1.318861,-0.9167 -0.484624,-0.38384 -0.927376,-0.81133 -1.393463,-1.21688 -0.182043,-0.17227 -0.412167,-0.29914 -0.613531,-0.44503 -0.324168,-0.23486 -0.634501,-0.4886 -0.928928,-0.75979 -0.475432,-0.4137 -0.947602,-0.83516 -1.47519,-1.1826 -0.766777,-0.55187 -1.535262,-1.10107 -2.277091,-1.68644 -0.722449,-0.55395 -1.453694,-1.09751 -2.137713,-1.69941 -0.05568,-0.0496 -0.293289,-0.26472 -0.368439,-0.3201 -0.427202,-0.31478 -0.882404,-0.59259 -1.294813,-0.92806 -0.601451,-0.46467 -1.213375,-0.91693 -1.792711,-1.40914 -0.586382,-0.47579 -1.211717,-0.90292 -1.783646,-1.39744 -0.562355,-0.47134 -1.140419,-0.92257 -1.701061,-1.39562 -0.300779,-0.29139 -0.616404,-0.57128 -0.948759,-0.82604 -0.445893,-0.3587 -0.88302,-0.72937 -1.29414,-1.12784 -0.435898,-0.41782 -0.862075,-0.84439 -1.280264,-1.27889 -0.519214,-0.50638 -1.041049,-1.01568 -1.453253,-1.61649 -0.139016,-0.19784 -0.238063,-0.38298 -0.427579,-0.53717 0.04534,0.0294 0.202107,0.13355 0.131485,0.0719 -0.193109,-0.16868 -0.485966,-0.2072 -0.693733,-0.35123 -0.07049,-0.0351 -0.245291,-0.12372 -0.325033,-0.15887 -0.05436,-0.024 -0.136913,-0.0151 -0.164941,-0.0675 -0.02089,-0.0391 0.08874,0.0129 0.132668,0.007 1.125684,-0.14493 0.714997,6.6e-4 1.565591,-0.57747 0.109158,-0.15687 0.401143,-0.64897 0.318939,-0.47644 -0.2154,0.45208 -0.373837,0.93266 -0.652391,1.35395 -0.106383,0.15197 -0.201294,0.31265 -0.319148,0.45592 -0.535204,0.65057 -1.248599,1.08332 -2.064669,1.27788 -0.476119,0.0853 -0.954192,0.13556 -1.438723,0.11049 -0.214965,-0.002 -0.430034,-0.004 -0.644929,0.004 -0.01206,-6.5e-4 -0.04524,10e-4 -0.03567,-0.006 0.130518,-0.10042 0.311648,-0.13095 0.404374,-0.28714 0.09838,-0.12977 0.07405,-0.0889 0.167029,-0.26084 0.01586,-0.0294 -0.03508,0.0567 -0.05125,0.0859 -0.08399,0.15131 -0.16035,0.30704 -0.235575,0.46279 -0.03372,0.065 -0.0706,0.12849 -0.101007,0.19512 -0.02403,0.0527 -0.08,0.2141 -0.07547,0.1564 0.0034,-0.0433 0.05741,-0.10807 0.01924,-0.12868 -0.03777,-0.0204 -0.01525,0.0845 -0.02289,0.12671 -0.03055,0.11327 -0.006,0.0139 -0.0325,0.26345 -0.04043,0.38113 -0.03159,0.034 -0.03586,0.35244 0.0015,0.31748 0.0047,0.63495 0.0029,0.95242 -0.0079,0.6063 -0.03166,1.2151 -0.159078,1.81016 -0.04731,0.16956 -0.08253,0.34297 -0.14195,0.50866 -0.348208,0.97112 -1.091113,1.79679 -2.13867,2.03008 -0.352127,0.0784 -0.721371,0.014 -1.082057,0.0209 -0.275783,-0.0964 -0.561556,-0.1677 -0.827188,-0.28909 -0.438808,-0.20054 -0.774396,-0.5745 -1.151783,-0.86277 -0.101644,-0.1072 -0.244847,-0.18718 -0.366456,-0.26873 -0.267009,-0.17906 -0.533486,-0.3585 -0.78894,-0.5541 -0.306739,-0.24205 -0.622508,-0.4724 -0.928488,-0.71538 -0.11694,-0.0926 -0.249368,-0.16264 -0.373076,-0.24563 -0.287081,-0.19258 -0.562905,-0.40002 -0.810881,-0.64187 -0.147595,-0.14166 -0.292378,-0.28927 -0.456974,-0.41131 -0.443388,-0.26895 -0.958909,-0.41631 -1.359657,-0.75984 -0.466297,-0.36328 -0.904448,-0.76149 -1.299671,-1.20201 -0.265113,-0.28616 -0.557786,-0.54176 -0.856019,-0.79339 -0.270678,-0.23711 -0.533138,-0.48399 -0.8175,-0.70507 -0.303214,-0.2425 -0.61391,-0.49994 -0.852498,-0.80222 -0.148818,-0.12178 -0.294514,-0.22952 -0.478994,-0.29778 -0.994398,-0.51637 -1.564932,-1.11954 -1.771919,-2.27827 -0.03434,-0.42763 -0.04496,-0.85516 -0.02042,-1.28407 0.05486,-0.79615 0.244252,-1.5509 0.729251,-2.20372 0.305621,-0.37486 0.649033,-0.7096 0.976145,-1.06501 0.361769,-0.36763 0.720992,-0.73783 1.087989,-1.10026 0.437234,-0.41087 0.926762,-0.83127 1.507822,-1.01933 -0.04509,0.0798 0.155217,-0.12332 -0.005,0.056 0.04141,-0.0503 0.08281,-0.10063 0.124219,-0.15095 -0.0035,0.0144 -0.02254,0.0518 -0.01046,0.0432 0.0994,-0.0707 0.325624,-0.72337 0.438592,-0.7217 0.302427,-0.39572 0.639179,-0.75691 1.000389,-1.09936 0.394389,-0.41564 0.750337,-0.86801 1.143252,-1.28547 0.317443,-0.35312 0.652119,-0.69132 0.958179,-1.05395 0.362287,-0.46161 0.688293,-0.95214 1.084804,-1.38627 0.394711,-0.48673 0.685909,-1.04999 1.100082,-1.52246 0.383945,-0.42004 0.738251,-0.86701 1.124564,-1.28518 0.568656,-0.66594 1.11505,-1.35255 1.666873,-2.03214 0.421416,-0.57678 0.779962,-1.18915 1.199031,-1.767 1.917971,-2.68515 5.715358,0.0272 3.797388,2.71243 z"
       inkscape:connector-curvature="0" />
    <path
       style="fill:#1a1a1a;fill-opacity:1"
       id="path4155"
       d="m 84.802433,1009.2555 c -0.34526,-0.1241 -0.68346,-0.2763 -1.041816,-0.3595 0.07429,0.012 -0.200032,-0.036 -0.150703,-0.024 0.275247,0.069 0.218693,0.025 0.741422,-0.1161 0.580247,-0.4028 0.50677,-0.2652 0.849095,-0.7624 0.03329,-0.048 0.04719,-0.1085 0.08095,-0.1564 0.0048,-0.01 0.01432,0.012 0.01444,0.021 9.96e-4,0.067 -0.0081,0.1346 -0.01126,0.202 -0.0046,0.099 -0.008,0.1982 -0.01201,0.2973 -0.0027,0.1052 -0.0082,0.2106 -0.0079,0.3159 3.6e-4,0.1384 -0.01756,0.5323 0.07604,0.6467 0.0086,0.011 0.0042,-0.027 0.0063,-0.041 0.03224,-0.01 0.350312,0.4228 0.174222,0.176 0.0169,0.011 0.06287,0.048 0.0507,0.032 -0.07905,-0.1028 -0.340615,-0.1434 -0.03152,-0.094 0.296521,0.039 0.596158,0.044 0.894744,0.05 0.411472,-0.01 0.826436,0.028 1.236951,-0.01 0.117383,-0.01 0.172872,-0.01 0.275403,-0.033 0.02149,-0.01 0.08508,-0.017 0.06323,-0.021 -0.09978,-0.016 -0.209346,0.053 -0.300987,0.079 0.01002,-0.012 0.03866,-0.023 0.03007,-0.036 -0.0089,-0.014 -0.06341,0.036 -0.125377,0.095 -0.08111,0.078 -0.06157,0.052 -0.05593,-0.044 0.039,-0.3089 0.04674,-0.6202 0.04884,-0.9313 -0.02709,0.1955 0.03726,0.3789 0.130605,0.5446 -0.107779,-0.063 0.173647,0.1879 0.119341,0.1529 -0.302722,-0.1956 -0.5573,-0.4852 -0.806479,-0.7423 -0.09865,-0.092 -0.181186,-0.2008 -0.278946,-0.294 -0.01722,-0.016 0.0579,0.036 0.04439,0.056 -0.01292,0.019 -0.06979,-0.058 -0.05575,-0.039 0.0464,0.06 0.118214,0.077 0.04321,0.053 -0.215009,-0.088 -0.432778,-0.1577 -0.661371,-0.197 -3.237046,-0.6406 -2.331269,-5.2184 0.905778,-4.578 l 0,0 c 0.64232,0.1324 1.269645,0.3239 1.861487,0.6105 0.564618,0.2966 1.081794,0.6579 1.498415,1.147 0.05153,0.053 0.120755,0.1421 0.179618,0.1927 0.280991,0.2419 0.593588,0.4457 0.816405,0.7506 0.09758,0.136 0.20229,0.2672 0.292746,0.4081 0.377026,0.5872 0.560062,1.2801 0.57702,1.9729 -0.0057,0.6225 -0.0339,1.2462 -0.149802,1.8594 -0.03909,0.1675 -0.06951,0.3372 -0.117222,0.5024 -0.259811,0.9001 -0.765878,1.6915 -1.51391,2.2618 -0.13084,0.091 -0.255148,0.1928 -0.392527,0.2738 -0.663702,0.392 -1.398776,0.581 -2.164933,0.6147 -0.532489,0.025 -1.065276,0.021 -1.598282,0.013 -0.59382,-0.013 -1.190134,-0.036 -1.774319,-0.1523 -0.72049,-0.1625 -1.418652,-0.4031 -1.993772,-0.8872 -0.119835,-0.1044 -0.24591,-0.2021 -0.359505,-0.3133 -0.507706,-0.4971 -0.896713,-1.1092 -1.197335,-1.7485 -0.06585,-0.1838 -0.141491,-0.3644 -0.19755,-0.5514 -0.223861,-0.7469 -0.225903,-1.5381 -0.203897,-2.3097 0.04821,-1.0014 0.119493,-2.1076 0.83234,-2.8975 0.232451,-0.2576 0.537064,-0.4395 0.805595,-0.6592 0.282157,-0.099 0.557925,-0.2192 0.84647,-0.2982 0.139606,-0.038 0.286861,-0.04 0.431157,-0.052 0.469316,-0.037 0.940641,0.024 1.395961,0.1355 0.517147,0.1371 1.020705,0.3147 1.518805,0.5096 3.089701,1.1587 1.451139,5.5281 -1.638561,4.3696 z"
       inkscape:connector-curvature="0" />
  </g>
</svg>
